M48
; DRILL file {KiCad 7.0.7} date Tue 12 Sep 2023 01:41:10 AM JST
; FORMAT={-:-/ absolute / inch / decimal}
; #@! TF.CreationDate,2023-09-12T01:41:10+09:00
; #@! TF.GenerationSoftware,Kicad,Pcbnew,7.0.7
; #@! TF.FileFunction,Plated,1,2,PTH
FMAT,2
INCH
; #@! TA.AperFunction,Plated,PTH,ComponentDrill
T1C0.0295
; #@! TA.AperFunction,Plated,PTH,ViaDrill
T2C0.0315
; #@! TA.AperFunction,Plated,PTH,ComponentDrill
T3C0.0315
; #@! TA.AperFunction,Plated,PTH,ComponentDrill
T4C0.0354
; #@! TA.AperFunction,Plated,PTH,ComponentDrill
T5C0.0394
; #@! TA.AperFunction,Plated,PTH,ComponentDrill
T6C0.0433
; #@! TA.AperFunction,Plated,PTH,ComponentDrill
T7C0.0457
; #@! TA.AperFunction,Plated,PTH,ComponentDrill
T8C0.0472
; #@! TA.AperFunction,Plated,PTH,ComponentDrill
T9C0.0591
%
G90
G05
T1
X4.6941Y-2.3047
X4.7441Y-2.2547
X4.7941Y-2.3047
X4.9106Y-2.1165
X4.9606Y-2.0665
X5.0106Y-2.1165
T2
X1.0355Y-2.874
X1.0355Y-3.0669
X1.0413Y-1.2106
X1.0433Y-1.378
X1.0945Y-2.874
X1.0945Y-3.0669
X1.1024Y-1.2106
X1.1024Y-1.378
X1.5059Y-1.3642
X1.5551Y-1.315
X1.5827Y-3.1457
X1.6043Y-1.2657
X1.6535Y-1.2165
X1.6686Y-2.9961
X1.7165Y-3.1457
X1.8031Y-2.9961
X1.939Y-1.7972
X1.9882Y-1.748
X2.0374Y-1.6988
X2.063Y-2.6654
X2.0866Y-1.6496
X2.1339Y-2.5315
X2.1417Y-2.6575
X2.2283Y-1.5551
X2.2283Y-1.6181
X2.2323Y-1.7008
X2.3031Y-2.5629
X2.498Y-1.9646
X2.5669Y-1.9567
X2.6087Y-1.9149
X2.8543Y-1.6299
X3.189Y-2.3386
X3.248Y-1.6299
X3.3115Y-2.7598
X3.4336Y-2.7597
X3.5Y-1.8622
X3.5029Y-2.0088
X3.5433Y-0.9606
X3.5433Y-1.0984
X3.5433Y-2.3386
X3.622Y-0.9606
X3.622Y-1.0984
X3.6614Y-1.6299
X3.7008Y-0.9606
X3.7008Y-1.0984
X3.7205Y-1.5709
X3.7795Y-0.9606
X3.7795Y-1.0984
X3.9567Y-1.5709
X3.9961Y-1.6299
X4.0354Y-1.9055
X4.0354Y-2.1417
X4.1142Y-1.9055
X4.1142Y-2.1417
X4.1732Y-1.6771
X4.189Y-1.3642
X4.1929Y-1.9055
X4.1929Y-2.1417
X4.2441Y-1.6811
X4.2598Y-1.3642
X4.2717Y-1.9055
X4.2717Y-2.1417
X4.315Y-1.6811
X4.3307Y-1.3642
X4.6261Y-1.6771
X4.7423Y-1.5613
X4.9291Y-1.6496
X5.0079Y-1.5709
T3
X0.9094Y-1.4772
X0.9094Y-1.6772
X0.9803Y-2.0433
X1.0591Y-2.0433
X1.1378Y-2.0433
X1.4252Y-2.0591
X1.4252Y-2.1969
X1.4567Y-1.0661
X1.4567Y-1.8661
X1.4862Y-0.8661
X1.4862Y-0.9449
X1.4862Y-2.3604
X1.4862Y-2.4392
X1.5118Y-3.1449
X1.5118Y-3.4449
X1.6693Y-1.9843
X1.6693Y-2.4843
X1.8268Y-3.1457
X1.8268Y-3.4457
X1.8425Y-1.7913
X1.8563Y-2.5945
X1.9547Y-2.5945
X1.9756Y-1.8656
X1.9756Y-1.9656
X1.9756Y-2.0656
X1.9756Y-2.1656
X1.9756Y-2.2656
X1.9756Y-2.3656
X1.9756Y-2.4656
X2.0945Y-1.7283
X2.1254Y-1.5085
X2.2756Y-1.8656
X2.2756Y-1.9656
X2.2756Y-2.0656
X2.2756Y-2.1656
X2.2756Y-2.2656
X2.2756Y-2.3656
X2.2756Y-2.4656
X2.3066Y-1.5162
X2.3622Y-2.7669
X2.3622Y-3.0669
X2.4016Y-2.1689
X2.4016Y-2.5689
X2.4213Y-3.2047
X2.4803Y-2.7669
X2.4803Y-3.0669
X2.5002Y-1.4252
X2.5002Y-1.7252
X2.5197Y-2.0311
X2.5197Y-2.3311
X2.5984Y-3.2047
X2.6002Y-1.4252
X2.6002Y-1.7252
X2.6334Y-3.4169
X2.6498Y-2.1887
X2.6951Y-1.8465
X2.7002Y-1.4252
X2.7002Y-1.7252
X2.7951Y-1.8465
X2.8002Y-1.4252
X2.8002Y-1.7252
X2.8106Y-3.4169
X2.862Y-1.9766
X2.9002Y-1.4252
X2.9002Y-1.7252
X2.9016Y-1.8465
X2.9202Y-2.6819
X2.9532Y-2.9126
X3.0Y-1.8465
X3.0002Y-1.4252
X3.0002Y-1.7252
X3.035Y-2.4047
X3.068Y-2.6354
X3.1002Y-1.4252
X3.1002Y-1.7252
X3.1959Y-2.4104
X3.1959Y-2.5104
X3.1959Y-2.6104
X3.1959Y-2.7104
X3.1959Y-2.8104
X3.1959Y-2.9104
X3.1959Y-3.0104
X3.1959Y-3.1104
X3.2002Y-1.4252
X3.2002Y-1.7252
X3.3002Y-1.4252
X3.3002Y-1.7252
X3.3169Y-2.2795
X3.4002Y-1.4252
X3.4002Y-1.7252
X3.4154Y-2.2795
X3.4959Y-2.4104
X3.4959Y-2.5104
X3.4959Y-2.6104
X3.4959Y-2.7104
X3.4959Y-2.8104
X3.4959Y-2.9104
X3.4959Y-3.0104
X3.4959Y-3.1104
X3.5002Y-1.4252
X3.5002Y-1.7252
X3.6002Y-1.4252
X3.6002Y-1.7252
X3.6252Y-2.637
X3.6631Y-2.4165
X3.7002Y-1.4252
X3.7002Y-1.7252
X3.74Y-2.9142
X3.7779Y-2.6937
X3.8002Y-1.4252
X3.8002Y-1.7252
X3.937Y-1.0789
X3.937Y-1.1789
X3.9766Y-3.3069
X4.0083Y-3.4444
X4.0232Y-2.2598
X4.161Y-2.437
X4.161Y-2.5551
X4.1887Y-3.0947
X4.2205Y-3.2323
X4.2557Y-2.6827
X4.2557Y-2.9827
X4.3232Y-2.2598
X4.3557Y-2.6827
X4.3557Y-2.9827
X4.4557Y-2.6827
X4.4557Y-2.9827
X4.461Y-2.437
X4.461Y-2.5551
X4.5348Y-3.1063
X4.5557Y-2.6827
X4.5557Y-2.9827
X4.6557Y-2.6827
X4.6557Y-2.9827
X4.7557Y-2.6827
X4.7557Y-2.9827
X4.8348Y-3.1063
X4.8557Y-2.6827
X4.8557Y-2.9827
X4.872Y-2.5551
X4.9557Y-2.6827
X4.9557Y-2.9827
X4.9705Y-2.5551
T4
X0.8878Y-1.8268
X0.9878Y-1.8268
X1.0878Y-1.8268
X2.5953Y-2.7165
X2.6499Y-2.4235
X2.6499Y-3.0096
X2.6953Y-2.7165
X2.7423Y-2.4617
X2.7423Y-2.9713
X2.7953Y-2.7165
X2.8113Y-2.1814
X2.8113Y-3.2517
X2.8346Y-2.5
X2.8346Y-2.9331
X2.882Y-2.2521
X2.882Y-3.1809
X2.9528Y-2.3228
X2.9528Y-3.1102
X3.0534Y-2.0199
X3.0534Y-3.4131
X3.0917Y-2.1123
X3.0917Y-3.3207
X3.1299Y-2.2047
X3.1299Y-3.2283
X3.3465Y-1.9654
X3.3465Y-2.0654
X3.3465Y-2.1654
X3.3465Y-3.2677
X3.3465Y-3.3677
X3.3465Y-3.4677
X3.563Y-2.2047
X3.563Y-3.2283
X3.6013Y-2.1123
X3.6013Y-3.3207
X3.6395Y-2.0199
X3.6395Y-3.4131
X3.7402Y-2.3228
X3.7402Y-3.1102
X3.8109Y-2.2521
X3.8109Y-3.1809
X3.8583Y-2.5
X3.8583Y-2.9331
X3.8816Y-2.1814
X3.8816Y-3.2517
X3.8976Y-2.7165
X3.9507Y-2.4617
X3.9507Y-2.9713
X3.9976Y-2.7165
X4.043Y-2.4235
X4.043Y-3.0096
X4.0976Y-2.7165
T5
X0.9252Y-2.2205
X1.0252Y-2.2205
X2.0472Y-1.0669
X2.0472Y-1.2638
X4.435Y-1.4724
X4.535Y-1.4724
X4.635Y-1.4724
X4.735Y-1.4724
X4.835Y-1.4724
X4.935Y-1.4724
X4.9409Y-2.2795
X5.0409Y-2.2795
T6
X2.4311Y-0.9409
X2.4311Y-1.1181
X2.687Y-0.9409
X2.687Y-1.1181
X2.872Y-0.9409
X2.872Y-1.1181
X3.128Y-0.9409
X3.128Y-1.1181
X4.1339Y-0.9409
X4.1339Y-1.1181
X4.3898Y-0.9409
X4.3898Y-1.1181
T7
X1.2303Y-0.9484
X1.2303Y-1.0484
X1.2303Y-1.1484
X1.2303Y-1.2484
X1.2303Y-1.3484
X1.2303Y-1.4484
X1.2303Y-1.5484
X1.2303Y-1.6484
X1.2303Y-1.7484
X1.2303Y-1.8484
X1.2303Y-2.4858
X1.2303Y-2.5858
X1.2303Y-2.6858
X1.2303Y-2.7858
X1.2303Y-2.8858
X1.2303Y-2.9858
X1.2303Y-3.0858
X1.2303Y-3.1858
X1.2303Y-3.2858
X1.2303Y-3.3858
T8
X0.9055Y-1.1969
X0.9055Y-1.2953
X0.9055Y-3.0276
X0.9055Y-3.126
X3.3071Y-1.2402
X3.4055Y-1.2402
X3.5039Y-1.2402
X3.6024Y-1.2402
X3.7008Y-1.2402
X3.7992Y-1.2402
X4.7244Y-1.8071
X4.8228Y-1.8071
X4.9213Y-1.8071
X5.0197Y-1.8071
T9
X0.8976Y-2.0433
X1.2205Y-2.0433
T0
M30
