M48
; DRILL file {KiCad 7.0.7} date Tue 12 Sep 2023 01:29:27 AM JST
; FORMAT={-:-/ absolute / inch / decimal}
; #@! TF.CreationDate,2023-09-12T01:29:27+09:00
; #@! TF.GenerationSoftware,Kicad,Pcbnew,7.0.7
; #@! TF.FileFunction,Plated,1,2,PTH
FMAT,2
INCH
; #@! TA.AperFunction,Plated,PTH,ComponentDrill
T1C0.0300
; #@! TA.AperFunction,Plated,PTH,ComponentDrill
T2C0.0315
; #@! TA.AperFunction,Plated,PTH,ViaDrill
T3C0.0394
; #@! TA.AperFunction,Plated,PTH,ComponentDrill
T4C0.0472
; #@! TA.AperFunction,Plated,PTH,ComponentDrill
T5C0.0512
%
G90
G05
T1
X1.2923Y-0.8998
X1.2923Y-1.0612
X1.3923Y-0.8998
X1.3923Y-1.0612
X1.6467Y-0.8998
X1.6467Y-1.0612
X1.7467Y-0.8998
X1.7467Y-1.0612
X2.001Y-0.8998
X2.001Y-1.0612
X2.101Y-0.8998
X2.101Y-1.0612
X2.2584Y-0.8853
X2.2584Y-0.9956
X2.3568Y-0.8853
X2.3568Y-0.9956
X2.7702Y-0.8853
X2.7702Y-0.9956
X2.8686Y-0.8853
X2.8686Y-0.9956
X3.0246Y-0.8998
X3.0246Y-1.0612
X3.1246Y-0.8998
X3.1246Y-1.0612
X3.3789Y-0.8998
X3.3789Y-1.0612
X3.4789Y-0.8998
X3.4789Y-1.0612
X3.7333Y-0.8998
X3.7333Y-1.0612
X3.8333Y-0.8998
X3.8333Y-1.0612
T2
X1.1811Y-0.9008
X1.1811Y-1.2008
X1.1811Y-1.4913
X1.1811Y-1.7913
X1.2992Y-1.3264
X1.2992Y-1.6264
X1.2992Y-1.7126
X1.2992Y-2.0126
X1.437Y-1.7126
X1.437Y-2.0126
X1.5354Y-0.9008
X1.5354Y-1.2008
X1.8898Y-0.9008
X1.8898Y-1.2008
X2.2047Y-1.1689
X2.2047Y-1.4689
X2.2293Y-1.8179
X2.2293Y-2.1179
X2.3293Y-1.8179
X2.3293Y-2.1179
X2.4293Y-1.8179
X2.4293Y-2.1179
X2.5293Y-1.8179
X2.5293Y-2.1179
X2.5787Y-0.9008
X2.5787Y-1.2008
X2.6293Y-1.8179
X2.6293Y-2.1179
X2.665Y-1.3189
X2.7293Y-1.8179
X2.7293Y-2.1179
X2.8293Y-1.8179
X2.8293Y-2.1179
X2.9293Y-1.8179
X2.9293Y-2.1179
X2.965Y-1.3189
X3.248Y-0.9008
X3.248Y-1.2008
X3.3539Y-1.752
X3.6024Y-0.9008
X3.6024Y-1.2008
X3.6539Y-1.752
X3.7598Y-1.7398
X3.7598Y-2.0398
X3.937Y-1.0705
X3.937Y-1.3705
X3.937Y-1.5232
X3.937Y-1.8232
T3
X1.4173Y-1.8898
X1.4567Y-1.4567
X1.4961Y-1.8898
X1.5354Y-1.5354
X1.6142Y-1.6142
X1.6535Y-1.2598
X1.6929Y-2.1654
X1.7323Y-1.3386
X1.7717Y-2.1654
X1.8059Y-1.5748
X1.811Y-1.4173
X1.8701Y-1.811
X1.8701Y-2.0866
X1.9291Y-1.6535
X1.9291Y-1.7323
X2.0472Y-2.0866
X2.0492Y-1.811
X2.0571Y-2.3228
X2.1397Y-1.9291
X2.3622Y-1.6535
X2.4293Y-1.7323
X2.4409Y-1.5748
X2.9528Y-1.4173
X2.9528Y-1.4961
X2.9528Y-1.5748
X2.9528Y-1.6535
X2.9528Y-1.7323
X3.0315Y-2.2835
X3.0906Y-1.5748
X3.1102Y-2.2835
X3.1693Y-1.4173
X3.189Y-2.2835
X3.2283Y-1.4961
X3.2677Y-1.6535
X3.2677Y-1.7323
X3.2677Y-2.2835
X3.3465Y-2.2835
X3.4252Y-2.2835
X3.5039Y-2.2835
X3.7402Y-1.378
X3.7402Y-1.5354
X3.8189Y-1.378
X3.8189Y-1.5354
T4
X2.3169Y-2.3209
X2.4154Y-2.3209
X2.5138Y-2.3209
X2.6122Y-2.3209
X2.7106Y-2.3209
X2.8091Y-2.3209
T5
X0.9567Y-1.7923
X0.9646Y-1.3583
X1.0551Y-1.6939
X1.0551Y-1.8907
X1.063Y-1.2598
X1.063Y-1.4567
X1.2608Y-2.1732
X1.3593Y-2.2717
X1.4577Y-2.1732
X1.6152Y-1.8976
X1.7136Y-1.9961
X1.812Y-1.8976
X3.2884Y-1.8976
X3.3868Y-1.9961
X3.4852Y-1.8976
X3.6614Y-2.1732
X3.7598Y-2.2717
X3.8583Y-2.1732
X4.063Y-1.2589
X4.063Y-1.4557
X4.063Y-1.6919
X4.063Y-1.8888
X4.1614Y-1.3573
X4.1614Y-1.7904
T0
M30
