%TF.GenerationSoftware,KiCad,Pcbnew,7.0.7*%
%TF.CreationDate,2023-09-12T01:28:46+09:00*%
%TF.ProjectId,sensorcircuit,73656e73-6f72-4636-9972-637569742e6b,rev?*%
%TF.SameCoordinates,Original*%
%TF.FileFunction,Copper,L2,Bot*%
%TF.FilePolarity,Positive*%
%FSLAX46Y46*%
G04 Gerber Fmt 4.6, Leading zero omitted, Abs format (unit mm)*
G04 Created by KiCad (PCBNEW 7.0.7) date 2023-09-12 01:28:46*
%MOMM*%
%LPD*%
G01*
G04 APERTURE LIST*
%TA.AperFunction,ComponentPad*%
%ADD10C,1.524000*%
%TD*%
%TA.AperFunction,ComponentPad*%
%ADD11C,1.600000*%
%TD*%
%TA.AperFunction,ComponentPad*%
%ADD12O,1.600000X1.600000*%
%TD*%
%TA.AperFunction,ComponentPad*%
%ADD13C,2.340000*%
%TD*%
%TA.AperFunction,ComponentPad*%
%ADD14R,1.600000X2.400000*%
%TD*%
%TA.AperFunction,ComponentPad*%
%ADD15O,1.600000X2.400000*%
%TD*%
%TA.AperFunction,ComponentPad*%
%ADD16R,1.800000X1.800000*%
%TD*%
%TA.AperFunction,ComponentPad*%
%ADD17C,1.800000*%
%TD*%
%TA.AperFunction,ViaPad*%
%ADD18C,1.500000*%
%TD*%
%TA.AperFunction,Conductor*%
%ADD19C,0.750000*%
%TD*%
%TA.AperFunction,Conductor*%
%ADD20C,1.000000*%
%TD*%
G04 APERTURE END LIST*
D10*
%TO.P,U6,1*%
%TO.N,Net-(R9-Pad2)*%
X94825000Y-22855000D03*
%TO.P,U6,2*%
%TO.N,GND*%
X97365000Y-22855000D03*
%TO.P,U6,3*%
%TO.N,/Dig_0*%
X94825000Y-26955000D03*
%TO.P,U6,4*%
%TO.N,VDD*%
X97365000Y-26955000D03*
%TD*%
%TO.P,U9,1*%
%TO.N,Net-(R15-Pad2)*%
X32825000Y-22855000D03*
%TO.P,U9,2*%
%TO.N,GND*%
X35365000Y-22855000D03*
%TO.P,U9,3*%
%TO.N,/Dig_3*%
X32825000Y-26955000D03*
%TO.P,U9,4*%
%TO.N,VDD*%
X35365000Y-26955000D03*
%TD*%
%TO.P,U4,1*%
%TO.N,Net-(R5-Pad2)*%
X57362500Y-22487500D03*
%TO.P,U4,2*%
%TO.N,GND*%
X59862500Y-22487500D03*
%TO.P,U4,3*%
%TO.N,/Ann_2*%
X59862500Y-25287500D03*
%TO.P,U4,4*%
%TO.N,VDD*%
X57362500Y-25287500D03*
%TD*%
%TO.P,U2,1*%
%TO.N,Net-(R3-Pad2)*%
X70362500Y-22487500D03*
%TO.P,U2,2*%
%TO.N,GND*%
X72862500Y-22487500D03*
%TO.P,U2,3*%
%TO.N,/Ann_1*%
X72862500Y-25287500D03*
%TO.P,U2,4*%
%TO.N,VDD*%
X70362500Y-25287500D03*
%TD*%
%TO.P,U5,1*%
%TO.N,Net-(R7-Pad2)*%
X50825000Y-22855000D03*
%TO.P,U5,2*%
%TO.N,GND*%
X53365000Y-22855000D03*
%TO.P,U5,3*%
%TO.N,/Ann_3*%
X50825000Y-26955000D03*
%TO.P,U5,4*%
%TO.N,VDD*%
X53365000Y-26955000D03*
%TD*%
%TO.P,U7,1*%
%TO.N,Net-(R11-Pad2)*%
X85825000Y-22855000D03*
%TO.P,U7,2*%
%TO.N,GND*%
X88365000Y-22855000D03*
%TO.P,U7,3*%
%TO.N,/Dig_1*%
X85825000Y-26955000D03*
%TO.P,U7,4*%
%TO.N,VDD*%
X88365000Y-26955000D03*
%TD*%
%TO.P,U8,1*%
%TO.N,Net-(R13-Pad2)*%
X41825000Y-22855000D03*
%TO.P,U8,2*%
%TO.N,GND*%
X44365000Y-22855000D03*
%TO.P,U8,3*%
%TO.N,/Dig_2*%
X41825000Y-26955000D03*
%TO.P,U8,4*%
%TO.N,VDD*%
X44365000Y-26955000D03*
%TD*%
%TO.P,U1,1*%
%TO.N,Net-(R1-Pad2)*%
X76825000Y-22855000D03*
%TO.P,U1,2*%
%TO.N,GND*%
X79365000Y-22855000D03*
%TO.P,U1,3*%
%TO.N,/Ann_0*%
X76825000Y-26955000D03*
%TO.P,U1,4*%
%TO.N,VDD*%
X79365000Y-26955000D03*
%TD*%
D11*
%TO.P,R1,1*%
%TO.N,VDD*%
X75310000Y-33500000D03*
D12*
%TO.P,R1,2*%
%TO.N,Net-(R1-Pad2)*%
X67690000Y-33500000D03*
%TD*%
D13*
%TO.P,RV5,1,1*%
%TO.N,/Dig_0*%
X103200000Y-36975000D03*
%TO.P,RV5,2,2*%
%TO.N,Net-(R10-Pad1)*%
X105700000Y-34475000D03*
%TO.P,RV5,3,3*%
%TO.N,unconnected-(RV5-Pad3)*%
X103200000Y-31975000D03*
%TD*%
D11*
%TO.P,R4,1*%
%TO.N,Net-(R4-Pad1)*%
X85190000Y-44500000D03*
D12*
%TO.P,R4,2*%
%TO.N,GND*%
X92810000Y-44500000D03*
%TD*%
D13*
%TO.P,RV3,1,1*%
%TO.N,/Ann_2*%
X41025000Y-48200000D03*
%TO.P,RV3,2,2*%
%TO.N,Net-(R6-Pad1)*%
X43525000Y-50700000D03*
%TO.P,RV3,3,3*%
%TO.N,unconnected-(RV3-Pad3)*%
X46025000Y-48200000D03*
%TD*%
D11*
%TO.P,R7,1*%
%TO.N,VDD*%
X48000000Y-30500000D03*
D12*
%TO.P,R7,2*%
%TO.N,Net-(R7-Pad2)*%
X48000000Y-22880000D03*
%TD*%
D11*
%TO.P,R15,1*%
%TO.N,VDD*%
X30000000Y-30500000D03*
D12*
%TO.P,R15,2*%
%TO.N,Net-(R15-Pad2)*%
X30000000Y-22880000D03*
%TD*%
D11*
%TO.P,R8,1*%
%TO.N,Net-(R8-Pad1)*%
X33000000Y-51120000D03*
D12*
%TO.P,R8,2*%
%TO.N,GND*%
X33000000Y-43500000D03*
%TD*%
D13*
%TO.P,RV2,1,1*%
%TO.N,/Ann_1*%
X83525000Y-48200000D03*
%TO.P,RV2,2,2*%
%TO.N,Net-(R4-Pad1)*%
X86025000Y-50700000D03*
%TO.P,RV2,3,3*%
%TO.N,unconnected-(RV2-Pad3)*%
X88525000Y-48200000D03*
%TD*%
D11*
%TO.P,R11,1*%
%TO.N,VDD*%
X82500000Y-30500000D03*
D12*
%TO.P,R11,2*%
%TO.N,Net-(R11-Pad2)*%
X82500000Y-22880000D03*
%TD*%
D13*
%TO.P,RV7,1,1*%
%TO.N,/Dig_2*%
X27000000Y-32000000D03*
%TO.P,RV7,2,2*%
%TO.N,Net-(R14-Pad1)*%
X24500000Y-34500000D03*
%TO.P,RV7,3,3*%
%TO.N,unconnected-(RV7-Pad3)*%
X27000000Y-37000000D03*
%TD*%
D11*
%TO.P,R9,1*%
%TO.N,VDD*%
X91500000Y-30500000D03*
D12*
%TO.P,R9,2*%
%TO.N,Net-(R9-Pad2)*%
X91500000Y-22880000D03*
%TD*%
D11*
%TO.P,R5,1*%
%TO.N,VDD*%
X56000000Y-37310000D03*
D12*
%TO.P,R5,2*%
%TO.N,Net-(R5-Pad2)*%
X56000000Y-29690000D03*
%TD*%
D13*
%TO.P,RV8,1,1*%
%TO.N,/Dig_3*%
X26800000Y-43025000D03*
%TO.P,RV8,2,2*%
%TO.N,Net-(R16-Pad1)*%
X24300000Y-45525000D03*
%TO.P,RV8,3,3*%
%TO.N,unconnected-(RV8-Pad3)*%
X26800000Y-48025000D03*
%TD*%
D11*
%TO.P,R2,1*%
%TO.N,Net-(R2-Pad1)*%
X95500000Y-51810000D03*
D12*
%TO.P,R2,2*%
%TO.N,GND*%
X95500000Y-44190000D03*
%TD*%
D11*
%TO.P,R3,1*%
%TO.N,VDD*%
X65500000Y-30500000D03*
D12*
%TO.P,R3,2*%
%TO.N,Net-(R3-Pad2)*%
X65500000Y-22880000D03*
%TD*%
D11*
%TO.P,R14,1*%
%TO.N,Net-(R14-Pad1)*%
X33000000Y-33690000D03*
D12*
%TO.P,R14,2*%
%TO.N,GND*%
X33000000Y-41310000D03*
%TD*%
D14*
%TO.P,U3,1,Y0*%
%TO.N,/Dig_0*%
X56625000Y-46175000D03*
D15*
%TO.P,U3,2,Y2*%
%TO.N,/Dig_2*%
X59165000Y-46175000D03*
%TO.P,U3,3,Y*%
%TO.N,Digital_Process*%
X61705000Y-46175000D03*
%TO.P,U3,4,Y3*%
%TO.N,/Dig_3*%
X64245000Y-46175000D03*
%TO.P,U3,5,Y1*%
%TO.N,/Dig_1*%
X66785000Y-46175000D03*
%TO.P,U3,6,Inh*%
%TO.N,GND*%
X69325000Y-46175000D03*
%TO.P,U3,7,VEE*%
X71865000Y-46175000D03*
%TO.P,U3,8,VSS*%
X74405000Y-46175000D03*
%TO.P,U3,9,B*%
%TO.N,Port_SEL2*%
X74405000Y-53795000D03*
%TO.P,U3,10,A*%
%TO.N,Port_SEL1*%
X71865000Y-53795000D03*
%TO.P,U3,11,X3*%
%TO.N,/Ann_3*%
X69325000Y-53795000D03*
%TO.P,U3,12,X0*%
%TO.N,/Ann_0*%
X66785000Y-53795000D03*
%TO.P,U3,13,X*%
%TO.N,Analog_Process*%
X64245000Y-53795000D03*
%TO.P,U3,14,X1*%
%TO.N,/Ann_1*%
X61705000Y-53795000D03*
%TO.P,U3,15,X2*%
%TO.N,/Ann_2*%
X59165000Y-53795000D03*
%TO.P,U3,16,VDD*%
%TO.N,VDD*%
X56625000Y-53795000D03*
%TD*%
D13*
%TO.P,RV4,1,1*%
%TO.N,/Ann_3*%
X32025000Y-55200000D03*
%TO.P,RV4,2,2*%
%TO.N,Net-(R8-Pad1)*%
X34525000Y-57700000D03*
%TO.P,RV4,3,3*%
%TO.N,unconnected-(RV4-Pad3)*%
X37025000Y-55200000D03*
%TD*%
%TO.P,RV1,1,1*%
%TO.N,/Ann_0*%
X93000000Y-55200000D03*
%TO.P,RV1,2,2*%
%TO.N,Net-(R2-Pad1)*%
X95500000Y-57700000D03*
%TO.P,RV1,3,3*%
%TO.N,unconnected-(RV1-Pad3)*%
X98000000Y-55200000D03*
%TD*%
D11*
%TO.P,R13,1*%
%TO.N,VDD*%
X39000000Y-30500000D03*
D12*
%TO.P,R13,2*%
%TO.N,Net-(R13-Pad2)*%
X39000000Y-22880000D03*
%TD*%
D11*
%TO.P,R10,1*%
%TO.N,Net-(R10-Pad1)*%
X100000000Y-34810000D03*
D12*
%TO.P,R10,2*%
%TO.N,GND*%
X100000000Y-27190000D03*
%TD*%
D13*
%TO.P,RV6,1,1*%
%TO.N,/Dig_1*%
X103200000Y-47975000D03*
%TO.P,RV6,2,2*%
%TO.N,Net-(R12-Pad1)*%
X105700000Y-45475000D03*
%TO.P,RV6,3,3*%
%TO.N,unconnected-(RV6-Pad3)*%
X103200000Y-42975000D03*
%TD*%
D11*
%TO.P,R6,1*%
%TO.N,Net-(R6-Pad1)*%
X36500000Y-51120000D03*
D12*
%TO.P,R6,2*%
%TO.N,GND*%
X36500000Y-43500000D03*
%TD*%
D11*
%TO.P,R16,1*%
%TO.N,Net-(R16-Pad1)*%
X30000000Y-45500000D03*
D12*
%TO.P,R16,2*%
%TO.N,GND*%
X30000000Y-37880000D03*
%TD*%
D11*
%TO.P,R12,1*%
%TO.N,Net-(R12-Pad1)*%
X100000000Y-46310000D03*
D12*
%TO.P,R12,2*%
%TO.N,GND*%
X100000000Y-38690000D03*
%TD*%
D16*
%TO.P,J1,1,Pin_1*%
%TO.N,VDD*%
X71350000Y-58950000D03*
D17*
%TO.P,J1,2,Pin_2*%
%TO.N,Port_SEL2*%
X68850000Y-58950000D03*
%TO.P,J1,3,Pin_3*%
%TO.N,Port_SEL1*%
X66350000Y-58950000D03*
%TO.P,J1,4,Pin_4*%
%TO.N,Analog_Process*%
X63850000Y-58950000D03*
%TO.P,J1,5,Pin_5*%
%TO.N,Digital_Process*%
X61350000Y-58950000D03*
%TO.P,J1,6,Pin_6*%
%TO.N,GND*%
X58850000Y-58950000D03*
%TD*%
D18*
%TO.N,VDD*%
X77000000Y-58000000D03*
X85000000Y-58000000D03*
X83000000Y-58000000D03*
X81000000Y-58000000D03*
X79000000Y-58000000D03*
X87000000Y-58000000D03*
X89000000Y-58000000D03*
%TO.N,Digital_Process*%
X49000000Y-44000000D03*
X61705000Y-44000000D03*
%TO.N,GND*%
X97000000Y-39000000D03*
X54349500Y-49000000D03*
X38000000Y-48000000D03*
X95000000Y-35000000D03*
X41000000Y-41000000D03*
X75000000Y-44000000D03*
X52250000Y-59000000D03*
X75000000Y-42000000D03*
X43000000Y-55000000D03*
X36000000Y-48000000D03*
X83000000Y-44000000D03*
X46000000Y-36000000D03*
X44000000Y-34000000D03*
X42000000Y-32000000D03*
X95000000Y-39000000D03*
X45000000Y-55000000D03*
X97000000Y-35000000D03*
X83000000Y-42000000D03*
X39000000Y-39000000D03*
X37000000Y-37000000D03*
%TO.N,/Ann_1*%
X75000000Y-36000000D03*
X80500000Y-36000000D03*
%TO.N,/Ann_2*%
X52050500Y-46000000D03*
X47500000Y-46000000D03*
%TO.N,/Ann_3*%
X52000000Y-53000000D03*
X47500000Y-53000000D03*
%TO.N,/Dig_0*%
X82000000Y-38000000D03*
X75000000Y-38000000D03*
%TO.N,/Dig_1*%
X78500000Y-40000000D03*
X75000000Y-40000000D03*
%TO.N,/Dig_2*%
X49000000Y-42000000D03*
X60000000Y-42000000D03*
%TO.N,/Dig_3*%
X62000000Y-40000000D03*
X45870000Y-40000000D03*
%TD*%
D19*
%TO.N,Port_SEL2*%
X68850000Y-58720000D02*
X72000000Y-55570000D01*
X68850000Y-58950000D02*
X68850000Y-58720000D01*
X72630000Y-55570000D02*
X74405000Y-53795000D01*
X72000000Y-55570000D02*
X72630000Y-55570000D01*
%TO.N,Port_SEL1*%
X66710000Y-58950000D02*
X71865000Y-53795000D01*
X66350000Y-58950000D02*
X66710000Y-58950000D01*
D20*
%TO.N,Digital_Process*%
X55447944Y-56895000D02*
X59295000Y-56895000D01*
X51752944Y-55450000D02*
X54002944Y-55450000D01*
X49000000Y-52697056D02*
X51752944Y-55450000D01*
X61705000Y-44000000D02*
X61705000Y-46175000D01*
X54002944Y-55450000D02*
X55447944Y-56895000D01*
X49000000Y-44000000D02*
X49000000Y-52697056D01*
X59295000Y-56895000D02*
X61350000Y-58950000D01*
D19*
%TO.N,Net-(R1-Pad2)*%
X76825000Y-23720694D02*
X67690000Y-32855694D01*
X76825000Y-22855000D02*
X76825000Y-23720694D01*
X67690000Y-32855694D02*
X67690000Y-33500000D01*
D20*
%TO.N,Net-(R2-Pad1)*%
X95500000Y-51810000D02*
X95500000Y-57700000D01*
D19*
%TO.N,Net-(R3-Pad2)*%
X65892500Y-22487500D02*
X65500000Y-22880000D01*
X70362500Y-22487500D02*
X65892500Y-22487500D01*
D20*
%TO.N,Net-(R4-Pad1)*%
X86025000Y-50700000D02*
X85500000Y-50175000D01*
X85500000Y-44810000D02*
X85190000Y-44500000D01*
X85500000Y-50175000D02*
X85500000Y-44810000D01*
D19*
%TO.N,Net-(R5-Pad2)*%
X57362500Y-22487500D02*
X56000000Y-23850000D01*
X56000000Y-23850000D02*
X56000000Y-29690000D01*
D20*
%TO.N,Net-(R6-Pad1)*%
X43525000Y-50700000D02*
X36920000Y-50700000D01*
X36920000Y-50700000D02*
X36500000Y-51120000D01*
D19*
%TO.N,Net-(R7-Pad2)*%
X50800000Y-22880000D02*
X50825000Y-22855000D01*
X48000000Y-22880000D02*
X50800000Y-22880000D01*
D20*
%TO.N,Net-(R8-Pad1)*%
X31880420Y-57700000D02*
X34525000Y-57700000D01*
X33000000Y-51120000D02*
X30155000Y-53965000D01*
X30155000Y-55974580D02*
X31880420Y-57700000D01*
X30155000Y-53965000D02*
X30155000Y-55974580D01*
D19*
%TO.N,Net-(R9-Pad2)*%
X91500000Y-22880000D02*
X94800000Y-22880000D01*
X94800000Y-22880000D02*
X94825000Y-22855000D01*
D20*
%TO.N,Net-(R10-Pad1)*%
X105675000Y-34500000D02*
X100310000Y-34500000D01*
X105700000Y-34475000D02*
X105675000Y-34500000D01*
X100310000Y-34500000D02*
X100000000Y-34810000D01*
D19*
%TO.N,Net-(R11-Pad2)*%
X82500000Y-22880000D02*
X85800000Y-22880000D01*
X85800000Y-22880000D02*
X85825000Y-22855000D01*
D20*
%TO.N,Net-(R12-Pad1)*%
X100310000Y-46000000D02*
X100000000Y-46310000D01*
X105700000Y-45475000D02*
X105175000Y-46000000D01*
X105175000Y-46000000D02*
X100310000Y-46000000D01*
D19*
%TO.N,Net-(R13-Pad2)*%
X39000000Y-22880000D02*
X41800000Y-22880000D01*
X41800000Y-22880000D02*
X41825000Y-22855000D01*
D20*
%TO.N,Net-(R14-Pad1)*%
X32690000Y-34000000D02*
X33000000Y-33690000D01*
X25000000Y-34000000D02*
X32690000Y-34000000D01*
X24500000Y-34500000D02*
X25000000Y-34000000D01*
D19*
%TO.N,Net-(R15-Pad2)*%
X30000000Y-22880000D02*
X32800000Y-22880000D01*
X32800000Y-22880000D02*
X32825000Y-22855000D01*
D20*
%TO.N,Net-(R16-Pad1)*%
X30000000Y-45500000D02*
X24325000Y-45500000D01*
X24325000Y-45500000D02*
X24300000Y-45525000D01*
%TO.N,/Ann_0*%
X68685000Y-51895000D02*
X66785000Y-53795000D01*
X93000000Y-55200000D02*
X78331320Y-55200000D01*
X71206320Y-51895000D02*
X68685000Y-51895000D01*
X78331320Y-55200000D02*
X75026320Y-51895000D01*
X76825000Y-26955000D02*
X76825000Y-46276320D01*
X76825000Y-46276320D02*
X71206320Y-51895000D01*
X75026320Y-51895000D02*
X71206320Y-51895000D01*
%TO.N,/Ann_1*%
X52900000Y-49900000D02*
X52900000Y-47201110D01*
X60195000Y-50695000D02*
X53695000Y-50695000D01*
X53500000Y-44650000D02*
X62075000Y-36075000D01*
X75000000Y-36000000D02*
X62150000Y-36000000D01*
X62075000Y-36075000D02*
X72862500Y-25287500D01*
X62150000Y-36000000D02*
X62075000Y-36075000D01*
X53500000Y-46601110D02*
X53500000Y-44650000D01*
X80500000Y-45175000D02*
X80500000Y-36000000D01*
X61705000Y-52205000D02*
X60195000Y-50695000D01*
X52900000Y-47201110D02*
X53500000Y-46601110D01*
X83525000Y-48200000D02*
X80500000Y-45175000D01*
X53695000Y-50695000D02*
X52900000Y-49900000D01*
X61705000Y-53795000D02*
X61705000Y-52205000D01*
%TO.N,/Ann_2*%
X47500000Y-46000000D02*
X43225000Y-46000000D01*
X43225000Y-46000000D02*
X41025000Y-48200000D01*
X52945610Y-51895000D02*
X57265000Y-51895000D01*
X57265000Y-51895000D02*
X59165000Y-53795000D01*
X52300000Y-45750500D02*
X52300000Y-44152944D01*
X51700000Y-50649390D02*
X52945610Y-51895000D01*
X52050500Y-46000000D02*
X52300000Y-45750500D01*
X51700000Y-46350500D02*
X51700000Y-50649390D01*
X52050500Y-46000000D02*
X51700000Y-46350500D01*
X52300000Y-44152944D02*
X59862500Y-36590444D01*
X59862500Y-36590444D02*
X59862500Y-25287500D01*
%TO.N,/Ann_3*%
X67425000Y-55695000D02*
X55945000Y-55695000D01*
X55945000Y-55695000D02*
X54500000Y-54250000D01*
X69325000Y-53795000D02*
X67425000Y-55695000D01*
X50500000Y-52500000D02*
X50500000Y-27280000D01*
X54500000Y-54250000D02*
X52250000Y-54250000D01*
X32025000Y-55200000D02*
X34225000Y-53000000D01*
X52000000Y-53000000D02*
X52000000Y-54000000D01*
X50500000Y-27280000D02*
X50825000Y-26955000D01*
X52000000Y-54000000D02*
X52250000Y-54250000D01*
X52250000Y-54250000D02*
X50500000Y-52500000D01*
X34225000Y-53000000D02*
X47500000Y-53000000D01*
%TO.N,/Dig_0*%
X82000000Y-37500000D02*
X92545000Y-26955000D01*
X83025000Y-36975000D02*
X82000000Y-38000000D01*
X56625000Y-46175000D02*
X56625000Y-43222056D01*
X60673528Y-39173528D02*
X61647056Y-38200000D01*
X74800000Y-38200000D02*
X75000000Y-38000000D01*
X82000000Y-38000000D02*
X82000000Y-37500000D01*
X56625000Y-43222056D02*
X60673528Y-39173528D01*
X103200000Y-36975000D02*
X83025000Y-36975000D01*
X65500000Y-38200000D02*
X74800000Y-38200000D01*
X61647056Y-38200000D02*
X65500000Y-38200000D01*
X92545000Y-26955000D02*
X94825000Y-26955000D01*
%TO.N,/Dig_1*%
X85825000Y-26955000D02*
X83045000Y-26955000D01*
X103200000Y-47975000D02*
X91525000Y-47975000D01*
X86930000Y-52570000D02*
X85250420Y-52570000D01*
X83045000Y-26955000D02*
X78500000Y-31500000D01*
X91525000Y-47975000D02*
X86930000Y-52570000D01*
X72960000Y-40000000D02*
X66785000Y-46175000D01*
X78500000Y-45819580D02*
X78500000Y-40000000D01*
X85250420Y-52570000D02*
X78500000Y-45819580D01*
X75000000Y-40000000D02*
X72960000Y-40000000D01*
X78500000Y-31500000D02*
X78500000Y-40000000D01*
%TO.N,/Dig_2*%
X27000000Y-32000000D02*
X35500000Y-32000000D01*
X60000000Y-42000000D02*
X59165000Y-42835000D01*
X35500000Y-32000000D02*
X45500000Y-42000000D01*
X59165000Y-42835000D02*
X59165000Y-46175000D01*
X49000000Y-34130000D02*
X41825000Y-26955000D01*
X49000000Y-42000000D02*
X49000000Y-34130000D01*
X45500000Y-42000000D02*
X49000000Y-42000000D01*
%TO.N,/Dig_3*%
X64245000Y-42245000D02*
X64245000Y-46175000D01*
X26800000Y-43025000D02*
X22630000Y-38855000D01*
X22630000Y-33725420D02*
X29400420Y-26955000D01*
X22630000Y-38855000D02*
X22630000Y-33725420D01*
X29400420Y-26955000D02*
X32825000Y-26955000D01*
X62000000Y-40000000D02*
X64245000Y-42245000D01*
X45870000Y-40000000D02*
X32825000Y-26955000D01*
%TD*%
%TA.AperFunction,Conductor*%
%TO.N,GND*%
G36*
X33096288Y-41728954D02*
G01*
X33177070Y-41782930D01*
X33231046Y-41863712D01*
X33250000Y-41959000D01*
X33250000Y-42851000D01*
X33231046Y-42946288D01*
X33177070Y-43027070D01*
X33096288Y-43081046D01*
X33001000Y-43100000D01*
X32999000Y-43100000D01*
X32903712Y-43081046D01*
X32822930Y-43027070D01*
X32768954Y-42946288D01*
X32750000Y-42851000D01*
X32750000Y-41959000D01*
X32768954Y-41863712D01*
X32822930Y-41782930D01*
X32903712Y-41728954D01*
X32999000Y-41710000D01*
X33001000Y-41710000D01*
X33096288Y-41728954D01*
G37*
%TD.AperFunction*%
%TA.AperFunction,Conductor*%
G36*
X107503751Y-20000727D02*
G01*
X107526845Y-20002123D01*
X107598917Y-20006483D01*
X107802780Y-20019845D01*
X107817058Y-20021615D01*
X107949203Y-20045831D01*
X108112411Y-20078295D01*
X108125139Y-20081535D01*
X108261175Y-20123925D01*
X108412206Y-20175194D01*
X108423273Y-20179551D01*
X108556507Y-20239515D01*
X108678256Y-20299556D01*
X108697433Y-20309013D01*
X108706780Y-20314130D01*
X108831226Y-20389360D01*
X108835909Y-20392338D01*
X108919884Y-20448449D01*
X108963615Y-20477670D01*
X108971229Y-20483184D01*
X109086204Y-20573260D01*
X109091513Y-20577662D01*
X109206525Y-20678525D01*
X109212472Y-20684095D01*
X109315903Y-20787526D01*
X109321473Y-20793473D01*
X109422336Y-20908485D01*
X109426738Y-20913794D01*
X109516814Y-21028769D01*
X109522328Y-21036383D01*
X109607637Y-21164054D01*
X109610653Y-21168796D01*
X109631955Y-21204033D01*
X109685868Y-21293218D01*
X109690985Y-21302564D01*
X109760486Y-21443496D01*
X109820442Y-21576712D01*
X109824805Y-21587795D01*
X109876079Y-21738842D01*
X109901855Y-21821557D01*
X109918462Y-21874851D01*
X109921707Y-21887603D01*
X109954167Y-22050790D01*
X109978380Y-22182919D01*
X109980154Y-22197229D01*
X109993517Y-22401099D01*
X109999273Y-22496249D01*
X109999500Y-22503769D01*
X109999500Y-57496229D01*
X109999273Y-57503749D01*
X109993517Y-57598900D01*
X109980154Y-57802769D01*
X109978380Y-57817079D01*
X109954167Y-57949209D01*
X109921707Y-58112395D01*
X109918460Y-58125154D01*
X109876079Y-58261157D01*
X109824805Y-58412203D01*
X109820442Y-58423286D01*
X109760491Y-58556493D01*
X109690985Y-58697434D01*
X109685868Y-58706780D01*
X109610666Y-58831182D01*
X109607637Y-58835944D01*
X109522328Y-58963615D01*
X109516814Y-58971229D01*
X109426738Y-59086204D01*
X109422336Y-59091513D01*
X109321473Y-59206525D01*
X109315903Y-59212472D01*
X109212472Y-59315903D01*
X109206525Y-59321473D01*
X109091513Y-59422336D01*
X109086204Y-59426738D01*
X108971229Y-59516814D01*
X108963615Y-59522328D01*
X108835944Y-59607637D01*
X108831182Y-59610666D01*
X108706780Y-59685868D01*
X108697434Y-59690985D01*
X108556493Y-59760491D01*
X108423286Y-59820442D01*
X108412203Y-59824805D01*
X108261157Y-59876079D01*
X108125154Y-59918460D01*
X108112395Y-59921707D01*
X107949209Y-59954167D01*
X107817079Y-59978380D01*
X107802769Y-59980154D01*
X107598900Y-59993517D01*
X107503750Y-59999273D01*
X107496230Y-59999500D01*
X99749000Y-59999500D01*
X99653712Y-59980546D01*
X99572930Y-59926570D01*
X99518954Y-59845788D01*
X99500000Y-59750500D01*
X99500000Y-57884886D01*
X99500000Y-55997610D01*
X99517211Y-55906649D01*
X99600760Y-55693769D01*
X99656474Y-55449673D01*
X99675184Y-55200000D01*
X99660196Y-55000000D01*
X101419593Y-55000000D01*
X101419947Y-55006746D01*
X101439206Y-55374251D01*
X101497833Y-55744408D01*
X101497834Y-55744416D01*
X101594827Y-56106397D01*
X101729136Y-56456287D01*
X101729137Y-56456289D01*
X101899275Y-56790201D01*
X102103386Y-57104505D01*
X102103389Y-57104509D01*
X102103390Y-57104510D01*
X102339239Y-57395760D01*
X102604240Y-57660761D01*
X102894119Y-57895500D01*
X102895494Y-57896613D01*
X103006083Y-57968430D01*
X103206066Y-58098301D01*
X103209798Y-58100724D01*
X103543710Y-58270862D01*
X103543712Y-58270863D01*
X103543716Y-58270864D01*
X103543717Y-58270865D01*
X103893593Y-58405169D01*
X103893596Y-58405170D01*
X103893602Y-58405172D01*
X104255583Y-58502165D01*
X104255585Y-58502165D01*
X104255592Y-58502167D01*
X104625746Y-58560793D01*
X105000000Y-58580407D01*
X105374254Y-58560793D01*
X105744408Y-58502167D01*
X105744414Y-58502165D01*
X105744416Y-58502165D01*
X106106397Y-58405172D01*
X106106399Y-58405170D01*
X106106407Y-58405169D01*
X106456283Y-58270865D01*
X106790204Y-58100723D01*
X107104510Y-57896610D01*
X107395760Y-57660761D01*
X107660761Y-57395760D01*
X107896610Y-57104510D01*
X108100723Y-56790204D01*
X108270865Y-56456283D01*
X108405169Y-56106407D01*
X108406527Y-56101341D01*
X108502165Y-55744416D01*
X108502165Y-55744414D01*
X108502167Y-55744408D01*
X108560793Y-55374254D01*
X108580407Y-55000000D01*
X108560793Y-54625746D01*
X108502167Y-54255592D01*
X108502083Y-54255277D01*
X108405172Y-53893602D01*
X108394690Y-53866296D01*
X108270865Y-53543717D01*
X108270864Y-53543716D01*
X108270863Y-53543712D01*
X108270862Y-53543710D01*
X108100724Y-53209799D01*
X108087177Y-53188939D01*
X107896610Y-52895490D01*
X107660761Y-52604240D01*
X107395760Y-52339239D01*
X107104510Y-52103390D01*
X107104509Y-52103389D01*
X107104505Y-52103386D01*
X106790201Y-51899275D01*
X106456289Y-51729137D01*
X106456287Y-51729136D01*
X106106397Y-51594827D01*
X105744416Y-51497834D01*
X105744408Y-51497833D01*
X105374251Y-51439206D01*
X105000000Y-51419593D01*
X104625748Y-51439206D01*
X104255591Y-51497833D01*
X104255583Y-51497834D01*
X103893602Y-51594827D01*
X103543712Y-51729136D01*
X103543710Y-51729137D01*
X103209799Y-51899275D01*
X102895490Y-52103389D01*
X102604245Y-52339234D01*
X102339234Y-52604245D01*
X102103389Y-52895490D01*
X101899275Y-53209799D01*
X101729137Y-53543710D01*
X101729136Y-53543712D01*
X101594827Y-53893602D01*
X101497834Y-54255583D01*
X101497833Y-54255591D01*
X101439206Y-54625748D01*
X101419881Y-54994500D01*
X101419593Y-55000000D01*
X99660196Y-55000000D01*
X99656474Y-54950327D01*
X99600760Y-54706231D01*
X99517211Y-54493351D01*
X99500000Y-54402384D01*
X99500000Y-49224500D01*
X99518954Y-49129212D01*
X99572930Y-49048430D01*
X99653712Y-48994454D01*
X99749000Y-48975500D01*
X101741311Y-48975500D01*
X101836599Y-48994454D01*
X101917381Y-49048430D01*
X101935987Y-49069251D01*
X101972002Y-49114413D01*
X101972007Y-49114418D01*
X102155542Y-49284714D01*
X102362404Y-49425750D01*
X102362406Y-49425751D01*
X102362408Y-49425752D01*
X102471689Y-49478379D01*
X102587980Y-49534382D01*
X102587984Y-49534383D01*
X102587987Y-49534385D01*
X102827236Y-49608184D01*
X103044871Y-49640987D01*
X103074812Y-49645500D01*
X103074813Y-49645500D01*
X103325188Y-49645500D01*
X103351898Y-49641473D01*
X103572764Y-49608184D01*
X103812013Y-49534385D01*
X104037592Y-49425752D01*
X104244460Y-49284712D01*
X104427997Y-49114414D01*
X104584102Y-48918665D01*
X104709289Y-48701835D01*
X104800760Y-48468769D01*
X104856474Y-48224673D01*
X104875184Y-47975000D01*
X104856474Y-47725327D01*
X104800760Y-47481231D01*
X104800759Y-47481230D01*
X104800759Y-47481227D01*
X104765556Y-47391531D01*
X104749363Y-47350274D01*
X104732195Y-47254650D01*
X104752927Y-47159733D01*
X104808404Y-47079975D01*
X104890180Y-47027518D01*
X104985806Y-47010349D01*
X105080723Y-47031081D01*
X105087569Y-47034221D01*
X105087984Y-47034383D01*
X105087987Y-47034385D01*
X105327236Y-47108184D01*
X105544871Y-47140987D01*
X105574812Y-47145500D01*
X105574813Y-47145500D01*
X105825188Y-47145500D01*
X105851898Y-47141473D01*
X106072764Y-47108184D01*
X106312013Y-47034385D01*
X106537592Y-46925752D01*
X106541563Y-46923045D01*
X106744457Y-46784714D01*
X106744456Y-46784714D01*
X106744460Y-46784712D01*
X106927997Y-46614414D01*
X107084102Y-46418665D01*
X107209289Y-46201835D01*
X107300760Y-45968769D01*
X107356474Y-45724673D01*
X107375184Y-45475000D01*
X107356474Y-45225327D01*
X107300760Y-44981231D01*
X107209289Y-44748165D01*
X107084102Y-44531335D01*
X106927997Y-44335586D01*
X106925354Y-44333134D01*
X106744457Y-44165285D01*
X106537595Y-44024249D01*
X106537590Y-44024247D01*
X106312019Y-43915617D01*
X106312014Y-43915615D01*
X106072769Y-43841817D01*
X106072765Y-43841816D01*
X106072764Y-43841816D01*
X105919160Y-43818664D01*
X105825188Y-43804500D01*
X105825187Y-43804500D01*
X105574813Y-43804500D01*
X105574812Y-43804500D01*
X105461686Y-43821551D01*
X105327236Y-43841816D01*
X105327235Y-43841816D01*
X105327230Y-43841817D01*
X105087985Y-43915615D01*
X105079305Y-43919022D01*
X105078794Y-43917720D01*
X104995085Y-43939304D01*
X104898886Y-43925712D01*
X104815210Y-43876341D01*
X104756798Y-43798707D01*
X104732541Y-43704628D01*
X104746133Y-43608429D01*
X104749351Y-43599756D01*
X104800760Y-43468769D01*
X104856474Y-43224673D01*
X104875184Y-42975000D01*
X104856474Y-42725327D01*
X104800760Y-42481231D01*
X104709289Y-42248165D01*
X104584102Y-42031335D01*
X104427997Y-41835586D01*
X104424437Y-41832283D01*
X104244457Y-41665285D01*
X104037595Y-41524249D01*
X104037590Y-41524247D01*
X103812019Y-41415617D01*
X103812014Y-41415615D01*
X103572769Y-41341817D01*
X103572765Y-41341816D01*
X103572764Y-41341816D01*
X103368312Y-41311000D01*
X103325188Y-41304500D01*
X103325187Y-41304500D01*
X103074813Y-41304500D01*
X103074812Y-41304500D01*
X102923349Y-41327329D01*
X102827236Y-41341816D01*
X102827235Y-41341816D01*
X102827230Y-41341817D01*
X102587985Y-41415615D01*
X102587980Y-41415617D01*
X102362409Y-41524247D01*
X102362404Y-41524249D01*
X102155542Y-41665285D01*
X101972007Y-41835581D01*
X101972002Y-41835586D01*
X101815896Y-42031337D01*
X101690713Y-42248160D01*
X101599239Y-42481231D01*
X101543525Y-42725329D01*
X101524816Y-42974999D01*
X101543525Y-43224670D01*
X101599239Y-43468768D01*
X101626221Y-43537516D01*
X101668141Y-43644328D01*
X101690713Y-43701839D01*
X101814137Y-43915615D01*
X101815898Y-43918665D01*
X101853341Y-43965617D01*
X101972002Y-44114413D01*
X101972007Y-44114418D01*
X102155542Y-44284714D01*
X102362404Y-44425750D01*
X102362406Y-44425751D01*
X102362408Y-44425752D01*
X102423788Y-44455311D01*
X102570904Y-44526159D01*
X102648532Y-44584580D01*
X102697894Y-44668261D01*
X102711475Y-44764462D01*
X102687208Y-44858537D01*
X102628787Y-44936165D01*
X102545106Y-44985527D01*
X102462867Y-44999500D01*
X100322676Y-44999500D01*
X100233640Y-44997243D01*
X100233628Y-44997244D01*
X100175599Y-45007645D01*
X100166230Y-45008959D01*
X100136194Y-45012013D01*
X100089302Y-45012344D01*
X100017131Y-45006030D01*
X100000000Y-45004532D01*
X99999999Y-45004532D01*
X99999998Y-45004532D01*
X99999994Y-45004532D01*
X99773320Y-45024363D01*
X99773305Y-45024365D01*
X99553503Y-45083261D01*
X99553500Y-45083262D01*
X99347272Y-45179428D01*
X99347258Y-45179436D01*
X99160865Y-45309949D01*
X98999949Y-45470865D01*
X98869436Y-45657258D01*
X98869428Y-45657272D01*
X98773262Y-45863500D01*
X98773261Y-45863503D01*
X98714365Y-46083305D01*
X98714363Y-46083320D01*
X98694532Y-46309994D01*
X98694532Y-46310005D01*
X98714363Y-46536679D01*
X98714365Y-46536694D01*
X98738411Y-46626433D01*
X98744442Y-46648943D01*
X98747688Y-46661055D01*
X98754042Y-46758002D01*
X98722812Y-46850001D01*
X98658753Y-46923045D01*
X98571617Y-46966016D01*
X98507172Y-46974500D01*
X91537675Y-46974500D01*
X91448639Y-46972243D01*
X91448631Y-46972244D01*
X91390587Y-46982647D01*
X91381218Y-46983961D01*
X91322565Y-46989925D01*
X91322562Y-46989925D01*
X91293567Y-46999022D01*
X91278250Y-47002782D01*
X91248347Y-47008141D01*
X91193589Y-47030014D01*
X91184678Y-47033186D01*
X91128412Y-47050840D01*
X91128407Y-47050842D01*
X91101847Y-47065584D01*
X91087602Y-47072350D01*
X91059383Y-47083622D01*
X91010148Y-47116070D01*
X91002059Y-47120970D01*
X90950501Y-47149588D01*
X90950495Y-47149592D01*
X90927442Y-47169382D01*
X90914852Y-47178875D01*
X90889481Y-47195597D01*
X90889480Y-47195598D01*
X90847769Y-47237307D01*
X90840833Y-47243735D01*
X90796104Y-47282134D01*
X90777511Y-47306154D01*
X90767086Y-47317990D01*
X90466009Y-47619068D01*
X90385227Y-47673044D01*
X90289939Y-47691998D01*
X90194651Y-47673044D01*
X90113869Y-47619068D01*
X90059893Y-47538286D01*
X90058169Y-47534011D01*
X90034289Y-47473165D01*
X89909102Y-47256335D01*
X89752997Y-47060586D01*
X89742495Y-47050842D01*
X89569457Y-46890285D01*
X89362595Y-46749249D01*
X89362590Y-46749247D01*
X89137019Y-46640617D01*
X89137014Y-46640615D01*
X88897769Y-46566817D01*
X88897765Y-46566816D01*
X88897764Y-46566816D01*
X88704279Y-46537653D01*
X88650188Y-46529500D01*
X88650187Y-46529500D01*
X88399813Y-46529500D01*
X88399812Y-46529500D01*
X88273921Y-46548475D01*
X88152236Y-46566816D01*
X88152235Y-46566816D01*
X88152230Y-46566817D01*
X87912985Y-46640615D01*
X87912980Y-46640617D01*
X87687409Y-46749247D01*
X87687404Y-46749249D01*
X87480542Y-46890285D01*
X87297007Y-47060581D01*
X87297002Y-47060586D01*
X87140896Y-47256337D01*
X87015711Y-47473163D01*
X87015709Y-47473168D01*
X86981287Y-47560874D01*
X86928831Y-47642651D01*
X86849073Y-47698128D01*
X86754155Y-47718860D01*
X86658530Y-47701691D01*
X86576753Y-47649235D01*
X86521276Y-47569477D01*
X86500544Y-47474559D01*
X86500500Y-47469904D01*
X86500500Y-44822676D01*
X86502341Y-44750000D01*
X91531128Y-44750000D01*
X91583732Y-44946323D01*
X91679866Y-45152483D01*
X91810335Y-45338812D01*
X91971187Y-45499664D01*
X92157516Y-45630133D01*
X92363676Y-45726267D01*
X92559999Y-45778871D01*
X92560000Y-45778871D01*
X92560000Y-45149000D01*
X92578954Y-45053712D01*
X92632930Y-44972930D01*
X92713712Y-44918954D01*
X92809000Y-44900000D01*
X92811000Y-44900000D01*
X92906288Y-44918954D01*
X92987070Y-44972930D01*
X93041046Y-45053712D01*
X93060000Y-45149000D01*
X93060000Y-45778871D01*
X93256323Y-45726267D01*
X93462483Y-45630133D01*
X93648812Y-45499664D01*
X93809664Y-45338812D01*
X93940133Y-45152482D01*
X93940134Y-45152480D01*
X94016419Y-44988887D01*
X94073867Y-44910537D01*
X94156926Y-44860135D01*
X94252950Y-44845355D01*
X94347321Y-44868447D01*
X94425671Y-44925895D01*
X94446059Y-44951297D01*
X94500337Y-45028814D01*
X94661187Y-45189664D01*
X94847516Y-45320133D01*
X95053676Y-45416267D01*
X95249999Y-45468871D01*
X95250000Y-45468871D01*
X95250000Y-44839000D01*
X95268954Y-44743712D01*
X95322930Y-44662930D01*
X95403712Y-44608954D01*
X95499000Y-44590000D01*
X95501000Y-44590000D01*
X95596288Y-44608954D01*
X95677070Y-44662930D01*
X95731046Y-44743712D01*
X95750000Y-44839000D01*
X95750000Y-45468871D01*
X95946323Y-45416267D01*
X96152483Y-45320133D01*
X96338812Y-45189664D01*
X96499664Y-45028812D01*
X96630133Y-44842483D01*
X96726267Y-44636323D01*
X96778872Y-44440000D01*
X96153986Y-44440000D01*
X96058698Y-44421046D01*
X95977916Y-44367070D01*
X95923940Y-44286288D01*
X95904986Y-44191000D01*
X95904986Y-44189000D01*
X95923940Y-44093712D01*
X95977916Y-44012930D01*
X96058698Y-43958954D01*
X96153986Y-43940000D01*
X96778872Y-43940000D01*
X96778871Y-43939999D01*
X96726267Y-43743676D01*
X96630133Y-43537516D01*
X96499664Y-43351187D01*
X96338812Y-43190335D01*
X96152483Y-43059866D01*
X95946318Y-42963730D01*
X95750000Y-42911126D01*
X95750000Y-43541000D01*
X95731046Y-43636288D01*
X95677070Y-43717070D01*
X95596288Y-43771046D01*
X95501000Y-43790000D01*
X95499000Y-43790000D01*
X95403712Y-43771046D01*
X95322930Y-43717070D01*
X95268954Y-43636288D01*
X95250000Y-43541000D01*
X95250000Y-42911127D01*
X95249999Y-42911126D01*
X95053681Y-42963730D01*
X94847516Y-43059866D01*
X94661187Y-43190335D01*
X94500335Y-43351187D01*
X94369866Y-43537517D01*
X94369861Y-43537524D01*
X94293579Y-43701113D01*
X94236131Y-43779463D01*
X94153072Y-43829865D01*
X94057047Y-43844644D01*
X93962677Y-43821551D01*
X93884327Y-43764103D01*
X93863940Y-43738701D01*
X93809664Y-43661187D01*
X93648812Y-43500335D01*
X93462483Y-43369866D01*
X93256318Y-43273730D01*
X93060000Y-43221126D01*
X93060000Y-43851000D01*
X93041046Y-43946288D01*
X92987070Y-44027070D01*
X92906288Y-44081046D01*
X92811000Y-44100000D01*
X92809000Y-44100000D01*
X92713712Y-44081046D01*
X92632930Y-44027070D01*
X92578954Y-43946288D01*
X92560000Y-43851000D01*
X92560000Y-43221127D01*
X92559999Y-43221126D01*
X92363681Y-43273730D01*
X92157516Y-43369866D01*
X91971187Y-43500335D01*
X91810335Y-43661187D01*
X91679866Y-43847516D01*
X91583732Y-44053676D01*
X91531128Y-44249999D01*
X91531128Y-44250000D01*
X92156014Y-44250000D01*
X92251302Y-44268954D01*
X92332084Y-44322930D01*
X92386060Y-44403712D01*
X92405014Y-44499000D01*
X92405014Y-44501000D01*
X92386060Y-44596288D01*
X92332084Y-44677070D01*
X92251302Y-44731046D01*
X92156014Y-44750000D01*
X91531128Y-44750000D01*
X86502341Y-44750000D01*
X86502756Y-44733639D01*
X86502755Y-44733638D01*
X86502756Y-44733637D01*
X86492350Y-44675581D01*
X86491042Y-44666256D01*
X86487983Y-44636181D01*
X86487655Y-44589294D01*
X86488068Y-44584580D01*
X86492453Y-44534456D01*
X86495468Y-44500002D01*
X86495468Y-44499995D01*
X86475636Y-44273320D01*
X86475635Y-44273308D01*
X86416739Y-44053504D01*
X86353861Y-43918662D01*
X86320571Y-43847272D01*
X86320563Y-43847258D01*
X86190050Y-43660865D01*
X86190049Y-43660864D01*
X86190047Y-43660861D01*
X86029139Y-43499953D01*
X86029135Y-43499950D01*
X86029134Y-43499949D01*
X85842741Y-43369436D01*
X85842727Y-43369428D01*
X85636499Y-43273262D01*
X85636496Y-43273261D01*
X85416694Y-43214365D01*
X85416679Y-43214363D01*
X85190006Y-43194532D01*
X85189994Y-43194532D01*
X84963320Y-43214363D01*
X84963305Y-43214365D01*
X84743503Y-43273261D01*
X84743500Y-43273262D01*
X84537272Y-43369428D01*
X84537258Y-43369436D01*
X84350865Y-43499949D01*
X84189949Y-43660865D01*
X84059436Y-43847258D01*
X84059428Y-43847272D01*
X83963262Y-44053500D01*
X83963261Y-44053503D01*
X83904365Y-44273305D01*
X83904363Y-44273320D01*
X83884532Y-44499994D01*
X83884532Y-44500005D01*
X83904363Y-44726679D01*
X83904365Y-44726694D01*
X83963261Y-44946496D01*
X83963262Y-44946499D01*
X84059428Y-45152727D01*
X84059436Y-45152741D01*
X84189724Y-45338812D01*
X84189953Y-45339139D01*
X84350861Y-45500047D01*
X84350864Y-45500049D01*
X84393319Y-45529776D01*
X84460504Y-45599957D01*
X84495717Y-45690506D01*
X84499500Y-45733746D01*
X84499500Y-46418897D01*
X84480546Y-46514185D01*
X84426570Y-46594967D01*
X84345788Y-46648943D01*
X84250500Y-46667897D01*
X84155212Y-46648943D01*
X84142475Y-46643244D01*
X84137023Y-46640619D01*
X84137014Y-46640615D01*
X83897769Y-46566817D01*
X83897765Y-46566816D01*
X83897764Y-46566816D01*
X83704279Y-46537653D01*
X83650188Y-46529500D01*
X83650187Y-46529500D01*
X83399813Y-46529500D01*
X83399806Y-46529500D01*
X83392411Y-46530054D01*
X83295973Y-46518272D01*
X83211385Y-46470481D01*
X83197740Y-46457820D01*
X81573430Y-44833509D01*
X81519454Y-44752727D01*
X81500500Y-44657439D01*
X81500500Y-39483312D01*
X81519454Y-39388024D01*
X81573430Y-39307242D01*
X81654212Y-39253266D01*
X81749500Y-39234312D01*
X81771202Y-39235260D01*
X81782021Y-39236206D01*
X81782023Y-39236207D01*
X82000000Y-39255277D01*
X82217977Y-39236207D01*
X82429330Y-39179575D01*
X82627639Y-39087102D01*
X82806877Y-38961598D01*
X82961598Y-38806877D01*
X83087102Y-38627639D01*
X83179575Y-38429330D01*
X83233311Y-38228784D01*
X83276278Y-38141655D01*
X83297756Y-38117164D01*
X83366492Y-38048429D01*
X83447273Y-37994453D01*
X83542560Y-37975500D01*
X98521087Y-37975500D01*
X98616375Y-37994454D01*
X98697157Y-38048430D01*
X98751133Y-38129212D01*
X98770087Y-38224500D01*
X98761603Y-38288946D01*
X98721128Y-38439999D01*
X98721128Y-38440000D01*
X99346014Y-38440000D01*
X99441302Y-38458954D01*
X99522084Y-38512930D01*
X99576060Y-38593712D01*
X99595014Y-38689000D01*
X99595014Y-38691000D01*
X99576060Y-38786288D01*
X99522084Y-38867070D01*
X99441302Y-38921046D01*
X99346014Y-38940000D01*
X98721128Y-38940000D01*
X98773732Y-39136323D01*
X98869866Y-39342483D01*
X99000335Y-39528812D01*
X99161187Y-39689664D01*
X99347516Y-39820133D01*
X99553676Y-39916267D01*
X99749999Y-39968871D01*
X99750000Y-39968871D01*
X99750000Y-39339000D01*
X99768954Y-39243712D01*
X99822930Y-39162930D01*
X99903712Y-39108954D01*
X99999000Y-39090000D01*
X100001000Y-39090000D01*
X100096288Y-39108954D01*
X100177070Y-39162930D01*
X100231046Y-39243712D01*
X100250000Y-39339000D01*
X100250000Y-39968871D01*
X100446323Y-39916267D01*
X100652483Y-39820133D01*
X100838812Y-39689664D01*
X100999664Y-39528812D01*
X101130133Y-39342483D01*
X101226267Y-39136323D01*
X101278872Y-38940000D01*
X100653986Y-38940000D01*
X100558698Y-38921046D01*
X100477916Y-38867070D01*
X100423940Y-38786288D01*
X100404986Y-38691000D01*
X100404986Y-38689000D01*
X100423940Y-38593712D01*
X100477916Y-38512930D01*
X100558698Y-38458954D01*
X100653986Y-38440000D01*
X101278872Y-38440000D01*
X101278871Y-38439999D01*
X101238397Y-38288946D01*
X101232043Y-38191999D01*
X101263273Y-38100000D01*
X101327331Y-38026955D01*
X101414467Y-37983984D01*
X101478913Y-37975500D01*
X101741311Y-37975500D01*
X101836599Y-37994454D01*
X101917381Y-38048430D01*
X101935987Y-38069251D01*
X101972002Y-38114413D01*
X101972007Y-38114418D01*
X102155542Y-38284714D01*
X102362404Y-38425750D01*
X102362406Y-38425751D01*
X102362408Y-38425752D01*
X102489819Y-38487110D01*
X102587980Y-38534382D01*
X102587984Y-38534383D01*
X102587987Y-38534385D01*
X102827236Y-38608184D01*
X103044871Y-38640987D01*
X103074812Y-38645500D01*
X103074813Y-38645500D01*
X103325188Y-38645500D01*
X103351898Y-38641473D01*
X103572764Y-38608184D01*
X103812013Y-38534385D01*
X104037592Y-38425752D01*
X104244460Y-38284712D01*
X104427997Y-38114414D01*
X104584102Y-37918665D01*
X104709289Y-37701835D01*
X104800760Y-37468769D01*
X104856474Y-37224673D01*
X104875184Y-36975000D01*
X104856474Y-36725327D01*
X104800760Y-36481231D01*
X104800759Y-36481230D01*
X104800759Y-36481227D01*
X104749364Y-36350276D01*
X104732195Y-36254650D01*
X104752927Y-36159733D01*
X104808404Y-36079975D01*
X104890180Y-36027518D01*
X104985806Y-36010349D01*
X105080723Y-36031081D01*
X105087569Y-36034221D01*
X105087984Y-36034383D01*
X105087987Y-36034385D01*
X105327236Y-36108184D01*
X105544871Y-36140987D01*
X105574812Y-36145500D01*
X105574813Y-36145500D01*
X105825188Y-36145500D01*
X105851898Y-36141473D01*
X106072764Y-36108184D01*
X106312013Y-36034385D01*
X106537592Y-35925752D01*
X106744460Y-35784712D01*
X106927997Y-35614414D01*
X107084102Y-35418665D01*
X107209289Y-35201835D01*
X107300760Y-34968769D01*
X107356474Y-34724673D01*
X107375184Y-34475000D01*
X107356474Y-34225327D01*
X107300760Y-33981231D01*
X107209289Y-33748165D01*
X107084102Y-33531335D01*
X106927997Y-33335586D01*
X106889754Y-33300102D01*
X106744457Y-33165285D01*
X106537595Y-33024249D01*
X106537590Y-33024247D01*
X106312019Y-32915617D01*
X106312014Y-32915615D01*
X106072769Y-32841817D01*
X106072765Y-32841816D01*
X106072764Y-32841816D01*
X105919160Y-32818664D01*
X105825188Y-32804500D01*
X105825187Y-32804500D01*
X105574813Y-32804500D01*
X105574812Y-32804500D01*
X105423349Y-32827329D01*
X105327236Y-32841816D01*
X105327235Y-32841816D01*
X105327230Y-32841817D01*
X105087985Y-32915615D01*
X105079305Y-32919022D01*
X105078794Y-32917720D01*
X104995085Y-32939304D01*
X104898886Y-32925712D01*
X104815210Y-32876341D01*
X104756798Y-32798707D01*
X104732541Y-32704628D01*
X104746133Y-32608429D01*
X104749351Y-32599756D01*
X104800760Y-32468769D01*
X104856474Y-32224673D01*
X104875184Y-31975000D01*
X104856474Y-31725327D01*
X104800760Y-31481231D01*
X104709289Y-31248165D01*
X104584102Y-31031335D01*
X104427997Y-30835586D01*
X104416992Y-30825375D01*
X104244457Y-30665285D01*
X104037595Y-30524249D01*
X104037590Y-30524247D01*
X103812019Y-30415617D01*
X103812014Y-30415615D01*
X103572769Y-30341817D01*
X103572765Y-30341816D01*
X103572764Y-30341816D01*
X103419160Y-30318664D01*
X103325188Y-30304500D01*
X103325187Y-30304500D01*
X103074813Y-30304500D01*
X103074812Y-30304500D01*
X102923349Y-30327329D01*
X102827236Y-30341816D01*
X102827235Y-30341816D01*
X102827230Y-30341817D01*
X102587985Y-30415615D01*
X102587980Y-30415617D01*
X102362409Y-30524247D01*
X102362404Y-30524249D01*
X102155542Y-30665285D01*
X101972007Y-30835581D01*
X101972002Y-30835586D01*
X101815896Y-31031337D01*
X101690713Y-31248160D01*
X101599239Y-31481231D01*
X101543525Y-31725329D01*
X101524816Y-31975000D01*
X101543525Y-32224670D01*
X101599239Y-32468768D01*
X101690713Y-32701839D01*
X101783436Y-32862439D01*
X101815898Y-32918665D01*
X101887912Y-33008967D01*
X101956721Y-33095251D01*
X102001313Y-33181568D01*
X102009479Y-33278379D01*
X101979976Y-33370946D01*
X101917294Y-33445176D01*
X101830977Y-33489768D01*
X101762045Y-33499500D01*
X100322676Y-33499500D01*
X100233640Y-33497243D01*
X100233628Y-33497244D01*
X100175599Y-33507645D01*
X100166230Y-33508959D01*
X100136194Y-33512013D01*
X100089302Y-33512344D01*
X100017131Y-33506030D01*
X100000000Y-33504532D01*
X99999999Y-33504532D01*
X99999998Y-33504532D01*
X99999994Y-33504532D01*
X99773320Y-33524363D01*
X99773305Y-33524365D01*
X99553503Y-33583261D01*
X99553500Y-33583262D01*
X99347272Y-33679428D01*
X99347258Y-33679436D01*
X99160865Y-33809949D01*
X98999949Y-33970865D01*
X98869436Y-34157258D01*
X98869428Y-34157272D01*
X98773262Y-34363500D01*
X98773261Y-34363503D01*
X98714365Y-34583305D01*
X98714363Y-34583320D01*
X98694532Y-34809994D01*
X98694532Y-34810005D01*
X98714363Y-35036679D01*
X98714365Y-35036694D01*
X98773261Y-35256496D01*
X98773262Y-35256499D01*
X98869428Y-35462727D01*
X98869436Y-35462741D01*
X98953418Y-35582680D01*
X98992547Y-35671607D01*
X98994666Y-35768739D01*
X98959453Y-35859288D01*
X98892269Y-35929469D01*
X98803342Y-35968598D01*
X98749449Y-35974500D01*
X94249000Y-35974500D01*
X94153712Y-35955546D01*
X94072930Y-35901570D01*
X94018954Y-35820788D01*
X94000000Y-35725500D01*
X94000000Y-28354162D01*
X94018954Y-28258874D01*
X94072930Y-28178092D01*
X94153712Y-28124116D01*
X94249000Y-28105162D01*
X94344288Y-28124116D01*
X94354204Y-28128479D01*
X94391550Y-28145894D01*
X94604932Y-28203070D01*
X94825000Y-28222323D01*
X95045068Y-28203070D01*
X95258450Y-28145894D01*
X95458662Y-28052534D01*
X95639620Y-27925826D01*
X95795826Y-27769620D01*
X95891031Y-27633652D01*
X95961212Y-27566469D01*
X96051761Y-27531256D01*
X96148893Y-27533375D01*
X96237820Y-27572504D01*
X96298969Y-27633653D01*
X96341380Y-27694223D01*
X96394174Y-27769620D01*
X96550380Y-27925826D01*
X96731338Y-28052534D01*
X96931550Y-28145894D01*
X97144932Y-28203070D01*
X97365000Y-28222323D01*
X97585068Y-28203070D01*
X97798450Y-28145894D01*
X97998662Y-28052534D01*
X98179620Y-27925826D01*
X98335826Y-27769620D01*
X98388622Y-27694218D01*
X98458799Y-27627039D01*
X98549348Y-27591826D01*
X98646480Y-27593945D01*
X98735408Y-27633073D01*
X98802592Y-27703254D01*
X98818258Y-27731811D01*
X98869861Y-27842475D01*
X98869866Y-27842482D01*
X99000335Y-28028812D01*
X99161187Y-28189664D01*
X99347516Y-28320133D01*
X99553676Y-28416267D01*
X99749999Y-28468871D01*
X99750000Y-28468871D01*
X99750000Y-27839000D01*
X99768954Y-27743712D01*
X99822930Y-27662930D01*
X99903712Y-27608954D01*
X99999000Y-27590000D01*
X100001000Y-27590000D01*
X100096288Y-27608954D01*
X100177070Y-27662930D01*
X100231046Y-27743712D01*
X100250000Y-27839000D01*
X100250000Y-28468871D01*
X100446323Y-28416267D01*
X100652483Y-28320133D01*
X100838812Y-28189664D01*
X100999664Y-28028812D01*
X101130133Y-27842483D01*
X101226267Y-27636323D01*
X101278872Y-27440000D01*
X100653986Y-27440000D01*
X100558698Y-27421046D01*
X100477916Y-27367070D01*
X100423940Y-27286288D01*
X100404986Y-27191000D01*
X100404986Y-27189000D01*
X100423940Y-27093712D01*
X100477916Y-27012930D01*
X100558698Y-26958954D01*
X100653986Y-26940000D01*
X101278872Y-26940000D01*
X101278871Y-26939999D01*
X101226267Y-26743676D01*
X101130133Y-26537516D01*
X100999664Y-26351187D01*
X100838812Y-26190335D01*
X100652483Y-26059866D01*
X100446318Y-25963730D01*
X100250000Y-25911126D01*
X100250000Y-26541000D01*
X100231046Y-26636288D01*
X100177070Y-26717070D01*
X100096288Y-26771046D01*
X100001000Y-26790000D01*
X99999000Y-26790000D01*
X99903712Y-26771046D01*
X99822930Y-26717070D01*
X99768954Y-26636288D01*
X99750000Y-26541000D01*
X99750000Y-25911127D01*
X99749999Y-25911126D01*
X99553681Y-25963730D01*
X99347516Y-26059866D01*
X99161187Y-26190335D01*
X99000336Y-26351186D01*
X98933243Y-26447005D01*
X98863062Y-26514188D01*
X98772512Y-26549400D01*
X98675380Y-26547280D01*
X98586453Y-26508151D01*
X98519270Y-26437970D01*
X98503607Y-26409421D01*
X98462534Y-26321339D01*
X98462532Y-26321336D01*
X98462529Y-26321331D01*
X98335833Y-26140389D01*
X98335828Y-26140383D01*
X98335826Y-26140380D01*
X98179620Y-25984174D01*
X97998662Y-25857466D01*
X97798450Y-25764106D01*
X97798448Y-25764105D01*
X97694177Y-25736166D01*
X97585068Y-25706930D01*
X97365000Y-25687677D01*
X97144932Y-25706930D01*
X97092617Y-25720948D01*
X96931551Y-25764105D01*
X96731336Y-25857467D01*
X96731331Y-25857470D01*
X96550389Y-25984166D01*
X96550383Y-25984171D01*
X96394171Y-26140383D01*
X96394165Y-26140390D01*
X96298969Y-26276346D01*
X96228788Y-26343530D01*
X96138239Y-26378743D01*
X96041107Y-26376624D01*
X95952180Y-26337495D01*
X95891031Y-26276346D01*
X95795834Y-26140390D01*
X95795828Y-26140383D01*
X95795826Y-26140380D01*
X95639620Y-25984174D01*
X95458662Y-25857466D01*
X95258450Y-25764106D01*
X95258448Y-25764105D01*
X95154177Y-25736166D01*
X95045068Y-25706930D01*
X94825000Y-25687677D01*
X94604932Y-25706930D01*
X94552617Y-25720948D01*
X94391551Y-25764105D01*
X94191338Y-25857466D01*
X94117069Y-25909470D01*
X94028142Y-25948598D01*
X93974250Y-25954500D01*
X92557699Y-25954500D01*
X92468640Y-25952243D01*
X92468637Y-25952243D01*
X92410587Y-25962646D01*
X92401220Y-25963959D01*
X92342565Y-25969925D01*
X92342560Y-25969926D01*
X92313558Y-25979024D01*
X92298249Y-25982781D01*
X92268354Y-25988140D01*
X92260486Y-25990392D01*
X92191984Y-26000000D01*
X89280731Y-26000000D01*
X89185443Y-25981046D01*
X89137914Y-25954971D01*
X88998662Y-25857466D01*
X88798450Y-25764106D01*
X88798448Y-25764105D01*
X88694177Y-25736166D01*
X88585068Y-25706930D01*
X88365000Y-25687677D01*
X88144932Y-25706930D01*
X88092617Y-25720948D01*
X87931551Y-25764105D01*
X87731336Y-25857467D01*
X87731331Y-25857470D01*
X87592088Y-25954969D01*
X87503160Y-25994098D01*
X87449268Y-26000000D01*
X86740731Y-26000000D01*
X86645443Y-25981046D01*
X86597914Y-25954971D01*
X86458662Y-25857466D01*
X86258450Y-25764106D01*
X86258448Y-25764105D01*
X86154177Y-25736166D01*
X86045068Y-25706930D01*
X85825000Y-25687677D01*
X85604932Y-25706930D01*
X85552617Y-25720948D01*
X85391551Y-25764105D01*
X85191338Y-25857466D01*
X85117069Y-25909470D01*
X85028142Y-25948598D01*
X84974250Y-25954500D01*
X83057716Y-25954500D01*
X82968640Y-25952242D01*
X82968636Y-25952243D01*
X82910584Y-25962646D01*
X82901218Y-25963959D01*
X82842567Y-25969924D01*
X82842561Y-25969926D01*
X82813566Y-25979022D01*
X82798254Y-25982780D01*
X82768353Y-25988140D01*
X82768347Y-25988142D01*
X82768348Y-25988142D01*
X82750107Y-25995428D01*
X82713586Y-26010015D01*
X82704676Y-26013187D01*
X82648409Y-26030841D01*
X82648408Y-26030842D01*
X82621848Y-26045583D01*
X82607604Y-26052348D01*
X82579386Y-26063620D01*
X82579384Y-26063621D01*
X82530141Y-26096074D01*
X82522051Y-26100975D01*
X82470504Y-26129587D01*
X82470494Y-26129594D01*
X82447435Y-26149388D01*
X82434848Y-26158879D01*
X82409479Y-26175600D01*
X82409477Y-26175602D01*
X82367776Y-26217301D01*
X82360840Y-26223729D01*
X82316103Y-26262135D01*
X82297503Y-26286163D01*
X82287079Y-26297998D01*
X80978470Y-27606609D01*
X80897688Y-27660585D01*
X80802400Y-27679539D01*
X80707112Y-27660585D01*
X80626330Y-27606609D01*
X80572354Y-27525827D01*
X80553400Y-27430539D01*
X80561885Y-27366093D01*
X80593882Y-27246679D01*
X80613070Y-27175068D01*
X80632323Y-26955000D01*
X80613070Y-26734932D01*
X80555894Y-26521550D01*
X80462534Y-26321339D01*
X80462532Y-26321336D01*
X80462529Y-26321331D01*
X80335833Y-26140389D01*
X80335828Y-26140383D01*
X80335826Y-26140380D01*
X80179620Y-25984174D01*
X79998662Y-25857466D01*
X79798450Y-25764106D01*
X79798448Y-25764105D01*
X79694177Y-25736166D01*
X79585068Y-25706930D01*
X79365000Y-25687677D01*
X79144932Y-25706930D01*
X79092617Y-25720948D01*
X78931551Y-25764105D01*
X78731336Y-25857467D01*
X78731331Y-25857470D01*
X78550389Y-25984166D01*
X78550383Y-25984171D01*
X78394171Y-26140383D01*
X78394165Y-26140390D01*
X78298969Y-26276346D01*
X78228788Y-26343530D01*
X78138239Y-26378743D01*
X78041107Y-26376624D01*
X77952180Y-26337495D01*
X77891031Y-26276346D01*
X77795834Y-26140390D01*
X77795828Y-26140383D01*
X77795826Y-26140380D01*
X77639620Y-25984174D01*
X77458662Y-25857466D01*
X77258450Y-25764106D01*
X77258448Y-25764105D01*
X77154177Y-25736166D01*
X77045068Y-25706930D01*
X76825000Y-25687677D01*
X76824999Y-25687677D01*
X76707799Y-25697930D01*
X76611221Y-25687352D01*
X76526043Y-25640621D01*
X76465232Y-25564850D01*
X76438046Y-25471577D01*
X76448624Y-25374999D01*
X76495355Y-25289821D01*
X76510018Y-25273818D01*
X76783836Y-25000000D01*
X101419593Y-25000000D01*
X101439206Y-25374251D01*
X101497833Y-25744408D01*
X101497834Y-25744416D01*
X101594827Y-26106397D01*
X101729136Y-26456287D01*
X101729137Y-26456289D01*
X101899275Y-26790201D01*
X102103386Y-27104505D01*
X102250590Y-27286288D01*
X102339239Y-27395760D01*
X102604240Y-27660761D01*
X102828647Y-27842482D01*
X102895494Y-27896613D01*
X103015359Y-27974454D01*
X103135588Y-28052532D01*
X103209798Y-28100724D01*
X103543710Y-28270862D01*
X103543712Y-28270863D01*
X103543716Y-28270864D01*
X103543717Y-28270865D01*
X103893593Y-28405169D01*
X103893596Y-28405170D01*
X103893602Y-28405172D01*
X104255583Y-28502165D01*
X104255585Y-28502165D01*
X104255592Y-28502167D01*
X104625746Y-28560793D01*
X105000000Y-28580407D01*
X105374254Y-28560793D01*
X105744408Y-28502167D01*
X105744414Y-28502165D01*
X105744416Y-28502165D01*
X106106397Y-28405172D01*
X106106399Y-28405170D01*
X106106407Y-28405169D01*
X106456283Y-28270865D01*
X106790204Y-28100723D01*
X107104510Y-27896610D01*
X107395760Y-27660761D01*
X107660761Y-27395760D01*
X107896610Y-27104510D01*
X108100723Y-26790204D01*
X108270865Y-26456283D01*
X108405169Y-26106407D01*
X108406319Y-26102118D01*
X108502165Y-25744416D01*
X108502165Y-25744414D01*
X108502167Y-25744408D01*
X108560793Y-25374254D01*
X108580407Y-25000000D01*
X108560793Y-24625746D01*
X108502167Y-24255592D01*
X108502165Y-24255583D01*
X108405172Y-23893602D01*
X108398554Y-23876362D01*
X108270865Y-23543717D01*
X108270864Y-23543716D01*
X108270863Y-23543712D01*
X108270862Y-23543710D01*
X108100724Y-23209799D01*
X108087177Y-23188939D01*
X107896610Y-22895490D01*
X107660761Y-22604240D01*
X107395760Y-22339239D01*
X107336393Y-22291165D01*
X107127690Y-22122161D01*
X107104510Y-22103390D01*
X107104509Y-22103389D01*
X107104505Y-22103386D01*
X106790201Y-21899275D01*
X106456289Y-21729137D01*
X106456287Y-21729136D01*
X106106397Y-21594827D01*
X105744416Y-21497834D01*
X105744408Y-21497833D01*
X105374251Y-21439206D01*
X105000000Y-21419593D01*
X104625748Y-21439206D01*
X104255591Y-21497833D01*
X104255583Y-21497834D01*
X103893602Y-21594827D01*
X103543712Y-21729136D01*
X103543710Y-21729137D01*
X103209799Y-21899275D01*
X102895490Y-22103389D01*
X102604245Y-22339234D01*
X102339234Y-22604245D01*
X102103389Y-22895490D01*
X101899275Y-23209799D01*
X101729137Y-23543710D01*
X101729136Y-23543712D01*
X101594827Y-23893602D01*
X101497834Y-24255583D01*
X101497833Y-24255591D01*
X101439206Y-24625748D01*
X101419593Y-25000000D01*
X76783836Y-25000000D01*
X77415348Y-24368488D01*
X77422759Y-24361657D01*
X77464357Y-24326325D01*
X77514808Y-24259956D01*
X77567030Y-24194991D01*
X77567031Y-24194988D01*
X77573453Y-24184940D01*
X77579603Y-24174721D01*
X77614611Y-24099052D01*
X77647159Y-24033424D01*
X77651641Y-24024387D01*
X77651643Y-24024374D01*
X77655764Y-24013160D01*
X77659559Y-24001896D01*
X77659562Y-24001891D01*
X77677485Y-23920464D01*
X77697600Y-23839583D01*
X77697600Y-23839581D01*
X77700858Y-23826481D01*
X77702029Y-23826772D01*
X77729233Y-23747804D01*
X77768236Y-23697209D01*
X77795826Y-23669620D01*
X77891338Y-23533215D01*
X77961517Y-23466033D01*
X78052066Y-23430820D01*
X78149198Y-23432939D01*
X78238125Y-23472068D01*
X78299273Y-23533215D01*
X78313257Y-23553186D01*
X78739209Y-23127235D01*
X78819991Y-23073259D01*
X78915279Y-23054305D01*
X79010567Y-23073259D01*
X79068193Y-23106790D01*
X79069784Y-23108028D01*
X79133347Y-23181504D01*
X79163954Y-23273712D01*
X79156944Y-23370614D01*
X79113385Y-23457457D01*
X79092940Y-23480612D01*
X78666812Y-23906740D01*
X78666812Y-23906741D01*
X78731589Y-23952099D01*
X78931720Y-24045421D01*
X79145020Y-24102574D01*
X79145031Y-24102576D01*
X79364994Y-24121821D01*
X79365006Y-24121821D01*
X79584968Y-24102576D01*
X79584979Y-24102574D01*
X79798279Y-24045421D01*
X79998405Y-23952101D01*
X79998414Y-23952096D01*
X80063186Y-23906741D01*
X80063186Y-23906740D01*
X79634110Y-23477663D01*
X79580134Y-23396882D01*
X79561180Y-23301594D01*
X79580134Y-23206306D01*
X79626981Y-23132955D01*
X79628346Y-23131473D01*
X79706823Y-23074209D01*
X79801247Y-23051334D01*
X79897237Y-23066334D01*
X79980180Y-23116926D01*
X79987606Y-23124051D01*
X80416741Y-23553186D01*
X80462096Y-23488414D01*
X80462101Y-23488405D01*
X80555421Y-23288279D01*
X80612574Y-23074979D01*
X80612576Y-23074968D01*
X80629634Y-22880005D01*
X81194532Y-22880005D01*
X81214363Y-23106679D01*
X81214365Y-23106694D01*
X81273261Y-23326496D01*
X81273262Y-23326499D01*
X81369428Y-23532727D01*
X81369436Y-23532741D01*
X81499949Y-23719134D01*
X81499953Y-23719139D01*
X81660861Y-23880047D01*
X81660864Y-23880049D01*
X81660865Y-23880050D01*
X81847258Y-24010563D01*
X81847262Y-24010565D01*
X81847266Y-24010568D01*
X81847270Y-24010569D01*
X81847272Y-24010571D01*
X81971008Y-24068270D01*
X82053504Y-24106739D01*
X82273308Y-24165635D01*
X82292984Y-24167356D01*
X82499994Y-24185468D01*
X82500000Y-24185468D01*
X82500006Y-24185468D01*
X82679668Y-24169749D01*
X82726692Y-24165635D01*
X82946496Y-24106739D01*
X83152734Y-24010568D01*
X83339139Y-23880047D01*
X83390758Y-23828427D01*
X83471537Y-23774454D01*
X83566825Y-23755500D01*
X84836915Y-23755500D01*
X84932203Y-23774454D01*
X85000822Y-23820303D01*
X85002052Y-23818838D01*
X85010375Y-23825822D01*
X85010378Y-23825824D01*
X85010380Y-23825826D01*
X85191338Y-23952534D01*
X85391550Y-24045894D01*
X85604932Y-24103070D01*
X85825000Y-24122323D01*
X86045068Y-24103070D01*
X86258450Y-24045894D01*
X86458662Y-23952534D01*
X86639620Y-23825826D01*
X86795826Y-23669620D01*
X86891338Y-23533215D01*
X86961517Y-23466033D01*
X87052066Y-23430820D01*
X87149198Y-23432939D01*
X87238125Y-23472068D01*
X87299273Y-23533215D01*
X87313257Y-23553186D01*
X87739209Y-23127235D01*
X87819991Y-23073259D01*
X87915279Y-23054305D01*
X88010567Y-23073259D01*
X88068193Y-23106790D01*
X88069784Y-23108028D01*
X88133347Y-23181504D01*
X88163954Y-23273712D01*
X88156944Y-23370614D01*
X88113385Y-23457457D01*
X88092940Y-23480612D01*
X87666812Y-23906740D01*
X87666812Y-23906741D01*
X87731589Y-23952099D01*
X87931720Y-24045421D01*
X88145020Y-24102574D01*
X88145031Y-24102576D01*
X88364994Y-24121821D01*
X88365006Y-24121821D01*
X88584968Y-24102576D01*
X88584979Y-24102574D01*
X88798279Y-24045421D01*
X88998405Y-23952101D01*
X88998414Y-23952096D01*
X89063186Y-23906741D01*
X89063186Y-23906740D01*
X88634110Y-23477663D01*
X88580134Y-23396882D01*
X88561180Y-23301594D01*
X88580134Y-23206306D01*
X88626981Y-23132955D01*
X88628346Y-23131473D01*
X88706823Y-23074209D01*
X88801247Y-23051334D01*
X88897237Y-23066334D01*
X88980180Y-23116926D01*
X88987606Y-23124051D01*
X89416741Y-23553186D01*
X89462096Y-23488414D01*
X89462101Y-23488405D01*
X89555421Y-23288279D01*
X89612574Y-23074979D01*
X89612576Y-23074968D01*
X89629634Y-22880005D01*
X90194532Y-22880005D01*
X90214363Y-23106679D01*
X90214365Y-23106694D01*
X90273261Y-23326496D01*
X90273262Y-23326499D01*
X90369428Y-23532727D01*
X90369436Y-23532741D01*
X90499949Y-23719134D01*
X90499953Y-23719139D01*
X90660861Y-23880047D01*
X90660864Y-23880049D01*
X90660865Y-23880050D01*
X90847258Y-24010563D01*
X90847262Y-24010565D01*
X90847266Y-24010568D01*
X90847270Y-24010569D01*
X90847272Y-24010571D01*
X90971008Y-24068270D01*
X91053504Y-24106739D01*
X91273308Y-24165635D01*
X91292984Y-24167356D01*
X91499994Y-24185468D01*
X91500000Y-24185468D01*
X91500006Y-24185468D01*
X91679668Y-24169749D01*
X91726692Y-24165635D01*
X91946496Y-24106739D01*
X92152734Y-24010568D01*
X92339139Y-23880047D01*
X92390758Y-23828427D01*
X92471537Y-23774454D01*
X92566825Y-23755500D01*
X93836915Y-23755500D01*
X93932203Y-23774454D01*
X94000822Y-23820303D01*
X94002052Y-23818838D01*
X94010375Y-23825822D01*
X94010378Y-23825824D01*
X94010380Y-23825826D01*
X94191338Y-23952534D01*
X94391550Y-24045894D01*
X94604932Y-24103070D01*
X94825000Y-24122323D01*
X95045068Y-24103070D01*
X95258450Y-24045894D01*
X95458662Y-23952534D01*
X95639620Y-23825826D01*
X95795826Y-23669620D01*
X95891338Y-23533215D01*
X95961517Y-23466033D01*
X96052066Y-23430820D01*
X96149198Y-23432939D01*
X96238125Y-23472068D01*
X96299273Y-23533215D01*
X96313257Y-23553186D01*
X96739209Y-23127235D01*
X96819991Y-23073259D01*
X96915279Y-23054305D01*
X97010567Y-23073259D01*
X97068193Y-23106790D01*
X97069784Y-23108028D01*
X97133347Y-23181504D01*
X97163954Y-23273712D01*
X97156944Y-23370614D01*
X97113385Y-23457457D01*
X97092940Y-23480612D01*
X96666812Y-23906740D01*
X96666812Y-23906741D01*
X96731589Y-23952099D01*
X96931720Y-24045421D01*
X97145020Y-24102574D01*
X97145031Y-24102576D01*
X97364994Y-24121821D01*
X97365006Y-24121821D01*
X97584968Y-24102576D01*
X97584979Y-24102574D01*
X97798279Y-24045421D01*
X97998405Y-23952101D01*
X97998414Y-23952096D01*
X98063186Y-23906741D01*
X98063186Y-23906740D01*
X97634110Y-23477663D01*
X97580134Y-23396882D01*
X97561180Y-23301594D01*
X97580134Y-23206306D01*
X97626981Y-23132955D01*
X97628346Y-23131473D01*
X97706823Y-23074209D01*
X97801247Y-23051334D01*
X97897237Y-23066334D01*
X97980180Y-23116926D01*
X97987606Y-23124051D01*
X98416741Y-23553186D01*
X98462096Y-23488414D01*
X98462101Y-23488405D01*
X98555421Y-23288279D01*
X98612574Y-23074979D01*
X98612576Y-23074968D01*
X98631821Y-22855005D01*
X98631821Y-22854994D01*
X98612576Y-22635031D01*
X98612574Y-22635020D01*
X98555422Y-22421723D01*
X98462097Y-22221587D01*
X98462094Y-22221583D01*
X98416742Y-22156812D01*
X98416740Y-22156812D01*
X97990788Y-22582763D01*
X97910007Y-22636739D01*
X97814719Y-22655693D01*
X97719430Y-22636739D01*
X97661822Y-22603222D01*
X97660232Y-22601985D01*
X97596662Y-22528514D01*
X97566048Y-22436308D01*
X97573049Y-22339406D01*
X97616600Y-22252559D01*
X97637059Y-22229387D01*
X98063186Y-21803258D01*
X98063186Y-21803256D01*
X97998417Y-21757904D01*
X97998410Y-21757900D01*
X97798279Y-21664578D01*
X97584979Y-21607425D01*
X97584968Y-21607423D01*
X97365006Y-21588179D01*
X97364994Y-21588179D01*
X97145031Y-21607423D01*
X97145020Y-21607425D01*
X96931723Y-21664577D01*
X96731586Y-21757903D01*
X96666811Y-21803258D01*
X97095889Y-22232336D01*
X97149865Y-22313117D01*
X97168819Y-22408405D01*
X97149865Y-22503693D01*
X97103014Y-22577049D01*
X97101658Y-22578522D01*
X97023176Y-22635790D01*
X96928752Y-22658665D01*
X96832762Y-22643665D01*
X96749819Y-22593073D01*
X96742393Y-22585948D01*
X96313257Y-22156812D01*
X96299275Y-22176781D01*
X96229094Y-22243965D01*
X96138545Y-22279179D01*
X96041413Y-22277060D01*
X95952486Y-22237932D01*
X95891336Y-22176782D01*
X95795833Y-22040389D01*
X95795828Y-22040383D01*
X95795826Y-22040380D01*
X95639620Y-21884174D01*
X95458662Y-21757466D01*
X95258450Y-21664106D01*
X95258448Y-21664105D01*
X95159418Y-21637570D01*
X95045068Y-21606930D01*
X94825000Y-21587677D01*
X94604932Y-21606930D01*
X94587545Y-21611589D01*
X94391551Y-21664105D01*
X94191336Y-21757467D01*
X94191331Y-21757470D01*
X94010389Y-21884166D01*
X94010383Y-21884171D01*
X94010380Y-21884173D01*
X94010380Y-21884174D01*
X93962981Y-21931572D01*
X93882203Y-21985546D01*
X93786915Y-22004500D01*
X92566825Y-22004500D01*
X92471537Y-21985546D01*
X92390758Y-21931572D01*
X92339139Y-21879953D01*
X92339135Y-21879950D01*
X92339134Y-21879949D01*
X92152741Y-21749436D01*
X92152727Y-21749428D01*
X91946499Y-21653262D01*
X91946496Y-21653261D01*
X91726694Y-21594365D01*
X91726679Y-21594363D01*
X91500006Y-21574532D01*
X91499994Y-21574532D01*
X91273320Y-21594363D01*
X91273305Y-21594365D01*
X91053503Y-21653261D01*
X91053500Y-21653262D01*
X90847272Y-21749428D01*
X90847258Y-21749436D01*
X90660865Y-21879949D01*
X90499949Y-22040865D01*
X90369436Y-22227258D01*
X90369428Y-22227272D01*
X90273262Y-22433500D01*
X90273261Y-22433503D01*
X90214365Y-22653305D01*
X90214363Y-22653320D01*
X90194532Y-22879994D01*
X90194532Y-22880005D01*
X89629634Y-22880005D01*
X89631821Y-22855005D01*
X89631821Y-22854994D01*
X89612576Y-22635031D01*
X89612574Y-22635020D01*
X89555422Y-22421723D01*
X89462097Y-22221587D01*
X89462094Y-22221583D01*
X89416742Y-22156812D01*
X89416740Y-22156812D01*
X88990788Y-22582763D01*
X88910007Y-22636739D01*
X88814719Y-22655693D01*
X88719430Y-22636739D01*
X88661822Y-22603222D01*
X88660232Y-22601985D01*
X88596662Y-22528514D01*
X88566048Y-22436308D01*
X88573049Y-22339406D01*
X88616600Y-22252559D01*
X88637059Y-22229387D01*
X89063186Y-21803258D01*
X89063186Y-21803256D01*
X88998417Y-21757904D01*
X88998410Y-21757900D01*
X88798279Y-21664578D01*
X88584979Y-21607425D01*
X88584968Y-21607423D01*
X88365006Y-21588179D01*
X88364994Y-21588179D01*
X88145031Y-21607423D01*
X88145020Y-21607425D01*
X87931723Y-21664577D01*
X87731586Y-21757903D01*
X87666811Y-21803258D01*
X88095889Y-22232336D01*
X88149865Y-22313117D01*
X88168819Y-22408405D01*
X88149865Y-22503693D01*
X88103014Y-22577049D01*
X88101658Y-22578522D01*
X88023176Y-22635790D01*
X87928752Y-22658665D01*
X87832762Y-22643665D01*
X87749819Y-22593073D01*
X87742393Y-22585948D01*
X87313257Y-22156812D01*
X87299275Y-22176781D01*
X87229094Y-22243965D01*
X87138545Y-22279179D01*
X87041413Y-22277060D01*
X86952486Y-22237932D01*
X86891336Y-22176782D01*
X86795833Y-22040389D01*
X86795828Y-22040383D01*
X86795826Y-22040380D01*
X86639620Y-21884174D01*
X86458662Y-21757466D01*
X86258450Y-21664106D01*
X86258448Y-21664105D01*
X86159417Y-21637570D01*
X86045068Y-21606930D01*
X85825000Y-21587677D01*
X85604932Y-21606930D01*
X85587545Y-21611589D01*
X85391551Y-21664105D01*
X85191336Y-21757467D01*
X85191331Y-21757470D01*
X85010389Y-21884166D01*
X85010383Y-21884171D01*
X85010380Y-21884173D01*
X85010380Y-21884174D01*
X84962981Y-21931572D01*
X84882203Y-21985546D01*
X84786915Y-22004500D01*
X83566825Y-22004500D01*
X83471537Y-21985546D01*
X83390758Y-21931572D01*
X83339139Y-21879953D01*
X83339135Y-21879950D01*
X83339134Y-21879949D01*
X83152741Y-21749436D01*
X83152727Y-21749428D01*
X82946499Y-21653262D01*
X82946496Y-21653261D01*
X82726694Y-21594365D01*
X82726679Y-21594363D01*
X82500006Y-21574532D01*
X82499994Y-21574532D01*
X82273320Y-21594363D01*
X82273305Y-21594365D01*
X82053503Y-21653261D01*
X82053500Y-21653262D01*
X81847272Y-21749428D01*
X81847258Y-21749436D01*
X81660865Y-21879949D01*
X81499949Y-22040865D01*
X81369436Y-22227258D01*
X81369428Y-22227272D01*
X81273262Y-22433500D01*
X81273261Y-22433503D01*
X81214365Y-22653305D01*
X81214363Y-22653320D01*
X81194532Y-22879994D01*
X81194532Y-22880005D01*
X80629634Y-22880005D01*
X80631821Y-22855005D01*
X80631821Y-22854994D01*
X80612576Y-22635031D01*
X80612574Y-22635020D01*
X80555422Y-22421723D01*
X80462097Y-22221587D01*
X80462094Y-22221583D01*
X80416742Y-22156812D01*
X80416740Y-22156812D01*
X79990788Y-22582763D01*
X79910007Y-22636739D01*
X79814719Y-22655693D01*
X79719430Y-22636739D01*
X79661822Y-22603222D01*
X79660232Y-22601985D01*
X79596662Y-22528514D01*
X79566048Y-22436308D01*
X79573049Y-22339406D01*
X79616600Y-22252559D01*
X79637059Y-22229387D01*
X80063186Y-21803258D01*
X80063186Y-21803256D01*
X79998417Y-21757904D01*
X79998410Y-21757900D01*
X79798279Y-21664578D01*
X79584979Y-21607425D01*
X79584968Y-21607423D01*
X79365006Y-21588179D01*
X79364994Y-21588179D01*
X79145031Y-21607423D01*
X79145020Y-21607425D01*
X78931723Y-21664577D01*
X78731586Y-21757903D01*
X78666811Y-21803258D01*
X79095889Y-22232336D01*
X79149865Y-22313117D01*
X79168819Y-22408405D01*
X79149865Y-22503693D01*
X79103014Y-22577049D01*
X79101658Y-22578522D01*
X79023176Y-22635790D01*
X78928752Y-22658665D01*
X78832762Y-22643665D01*
X78749819Y-22593073D01*
X78742393Y-22585948D01*
X78313257Y-22156812D01*
X78299275Y-22176781D01*
X78229094Y-22243965D01*
X78138545Y-22279179D01*
X78041413Y-22277060D01*
X77952486Y-22237932D01*
X77891336Y-22176782D01*
X77795833Y-22040389D01*
X77795828Y-22040383D01*
X77795826Y-22040380D01*
X77639620Y-21884174D01*
X77458662Y-21757466D01*
X77258450Y-21664106D01*
X77258448Y-21664105D01*
X77159417Y-21637570D01*
X77045068Y-21606930D01*
X76825000Y-21587677D01*
X76604932Y-21606930D01*
X76587545Y-21611589D01*
X76391551Y-21664105D01*
X76191336Y-21757467D01*
X76191331Y-21757470D01*
X76010389Y-21884166D01*
X76010383Y-21884171D01*
X75854171Y-22040383D01*
X75854166Y-22040389D01*
X75727470Y-22221331D01*
X75727467Y-22221336D01*
X75634105Y-22421551D01*
X75605445Y-22528514D01*
X75576930Y-22634932D01*
X75557677Y-22855000D01*
X75576930Y-23075068D01*
X75600846Y-23164323D01*
X75628352Y-23266979D01*
X75634106Y-23288450D01*
X75677708Y-23381956D01*
X75682855Y-23392992D01*
X75705947Y-23487363D01*
X75691167Y-23583387D01*
X75640766Y-23666446D01*
X75633254Y-23674294D01*
X74432086Y-24875462D01*
X74351304Y-24929438D01*
X74256016Y-24948392D01*
X74160728Y-24929438D01*
X74079946Y-24875462D01*
X74030347Y-24804626D01*
X73960034Y-24653839D01*
X73960031Y-24653835D01*
X73960029Y-24653831D01*
X73833333Y-24472889D01*
X73833328Y-24472883D01*
X73833326Y-24472880D01*
X73677120Y-24316674D01*
X73496162Y-24189966D01*
X73330880Y-24112894D01*
X73252530Y-24055445D01*
X73202128Y-23972386D01*
X73187349Y-23876362D01*
X73210441Y-23781991D01*
X73267890Y-23703641D01*
X73330882Y-23661551D01*
X73495910Y-23584598D01*
X73495914Y-23584596D01*
X73560686Y-23539241D01*
X73560686Y-23539240D01*
X73131610Y-23110163D01*
X73077634Y-23029382D01*
X73058680Y-22934094D01*
X73077634Y-22838806D01*
X73124481Y-22765455D01*
X73125846Y-22763973D01*
X73204323Y-22706709D01*
X73298747Y-22683834D01*
X73394737Y-22698834D01*
X73477680Y-22749426D01*
X73485106Y-22756551D01*
X73914241Y-23185686D01*
X73959596Y-23120914D01*
X73959601Y-23120905D01*
X74052921Y-22920779D01*
X74110074Y-22707479D01*
X74110076Y-22707468D01*
X74129321Y-22487505D01*
X74129321Y-22487494D01*
X74110076Y-22267531D01*
X74110074Y-22267520D01*
X74052922Y-22054223D01*
X73959597Y-21854087D01*
X73959594Y-21854083D01*
X73914242Y-21789312D01*
X73914240Y-21789312D01*
X73488288Y-22215263D01*
X73407507Y-22269239D01*
X73312219Y-22288193D01*
X73216930Y-22269239D01*
X73159322Y-22235722D01*
X73157732Y-22234485D01*
X73094162Y-22161014D01*
X73063548Y-22068808D01*
X73070549Y-21971906D01*
X73114100Y-21885059D01*
X73134559Y-21861887D01*
X73560686Y-21435758D01*
X73560686Y-21435756D01*
X73495917Y-21390404D01*
X73495910Y-21390400D01*
X73295779Y-21297078D01*
X73082479Y-21239925D01*
X73082468Y-21239923D01*
X72862506Y-21220679D01*
X72862494Y-21220679D01*
X72642531Y-21239923D01*
X72642520Y-21239925D01*
X72429223Y-21297077D01*
X72229086Y-21390403D01*
X72164311Y-21435758D01*
X72593389Y-21864836D01*
X72647365Y-21945617D01*
X72666319Y-22040905D01*
X72647365Y-22136193D01*
X72600514Y-22209549D01*
X72599158Y-22211022D01*
X72520676Y-22268290D01*
X72426252Y-22291165D01*
X72330262Y-22276165D01*
X72247319Y-22225573D01*
X72239893Y-22218448D01*
X71810756Y-21789311D01*
X71807500Y-21789596D01*
X71746595Y-21847902D01*
X71656046Y-21883116D01*
X71558914Y-21880997D01*
X71469986Y-21841869D01*
X71408836Y-21780719D01*
X71333333Y-21672889D01*
X71333328Y-21672883D01*
X71333326Y-21672880D01*
X71177120Y-21516674D01*
X70996162Y-21389966D01*
X70795950Y-21296606D01*
X70795948Y-21296605D01*
X70696917Y-21270070D01*
X70582568Y-21239430D01*
X70362500Y-21220177D01*
X70142432Y-21239430D01*
X70085257Y-21254750D01*
X69929051Y-21296605D01*
X69728836Y-21389967D01*
X69728831Y-21389970D01*
X69547889Y-21516666D01*
X69547883Y-21516671D01*
X69547880Y-21516673D01*
X69547880Y-21516674D01*
X69525481Y-21539072D01*
X69444703Y-21593046D01*
X69349415Y-21612000D01*
X65933157Y-21612000D01*
X65923050Y-21611589D01*
X65868653Y-21607160D01*
X65868648Y-21607160D01*
X65855851Y-21608904D01*
X65758877Y-21602986D01*
X65757890Y-21602724D01*
X65726692Y-21594365D01*
X65726686Y-21594364D01*
X65726679Y-21594363D01*
X65500006Y-21574532D01*
X65499994Y-21574532D01*
X65273320Y-21594363D01*
X65273305Y-21594365D01*
X65053503Y-21653261D01*
X65053500Y-21653262D01*
X64847272Y-21749428D01*
X64847258Y-21749436D01*
X64660865Y-21879949D01*
X64499949Y-22040865D01*
X64369436Y-22227258D01*
X64369428Y-22227272D01*
X64273262Y-22433500D01*
X64273261Y-22433503D01*
X64214365Y-22653305D01*
X64214363Y-22653320D01*
X64194532Y-22879994D01*
X64194532Y-22880005D01*
X64214363Y-23106679D01*
X64214365Y-23106694D01*
X64273261Y-23326496D01*
X64273262Y-23326499D01*
X64369428Y-23532727D01*
X64369436Y-23532741D01*
X64499949Y-23719134D01*
X64499953Y-23719139D01*
X64660861Y-23880047D01*
X64660864Y-23880049D01*
X64660865Y-23880050D01*
X64847258Y-24010563D01*
X64847262Y-24010565D01*
X64847266Y-24010568D01*
X64847270Y-24010569D01*
X64847272Y-24010571D01*
X64971008Y-24068270D01*
X65053504Y-24106739D01*
X65273308Y-24165635D01*
X65292984Y-24167356D01*
X65499994Y-24185468D01*
X65500000Y-24185468D01*
X65500006Y-24185468D01*
X65679668Y-24169749D01*
X65726692Y-24165635D01*
X65946496Y-24106739D01*
X66152734Y-24010568D01*
X66339139Y-23880047D01*
X66500047Y-23719139D01*
X66630568Y-23532734D01*
X66642677Y-23506765D01*
X66700126Y-23428417D01*
X66783186Y-23378016D01*
X66868347Y-23363000D01*
X69349415Y-23363000D01*
X69444703Y-23381954D01*
X69525481Y-23435927D01*
X69547880Y-23458326D01*
X69728838Y-23585034D01*
X69893528Y-23661830D01*
X69971877Y-23719278D01*
X70022278Y-23802337D01*
X70037058Y-23898361D01*
X70013966Y-23992732D01*
X69956517Y-24071082D01*
X69893528Y-24113169D01*
X69873902Y-24122322D01*
X69728836Y-24189967D01*
X69728831Y-24189970D01*
X69547889Y-24316666D01*
X69547883Y-24316671D01*
X69391671Y-24472883D01*
X69391666Y-24472889D01*
X69264970Y-24653831D01*
X69264967Y-24653836D01*
X69171605Y-24854051D01*
X69150658Y-24932228D01*
X69114430Y-25067432D01*
X69095177Y-25287500D01*
X69114430Y-25507568D01*
X69129779Y-25564850D01*
X69165437Y-25697930D01*
X69171606Y-25720950D01*
X69264966Y-25921162D01*
X69391674Y-26102120D01*
X69547880Y-26258326D01*
X69728838Y-26385034D01*
X69830199Y-26432299D01*
X69908550Y-26489747D01*
X69958951Y-26572806D01*
X69973731Y-26668830D01*
X69950639Y-26763201D01*
X69901038Y-26834040D01*
X66946342Y-29788736D01*
X66865560Y-29842712D01*
X66770272Y-29861666D01*
X66674984Y-29842712D01*
X66594202Y-29788736D01*
X66566307Y-29755491D01*
X66500047Y-29660861D01*
X66339139Y-29499953D01*
X66339135Y-29499950D01*
X66339134Y-29499949D01*
X66152741Y-29369436D01*
X66152727Y-29369428D01*
X65946499Y-29273262D01*
X65946496Y-29273261D01*
X65726694Y-29214365D01*
X65726679Y-29214363D01*
X65500006Y-29194532D01*
X65499994Y-29194532D01*
X65273320Y-29214363D01*
X65273305Y-29214365D01*
X65053503Y-29273261D01*
X65053500Y-29273262D01*
X64847272Y-29369428D01*
X64847258Y-29369436D01*
X64660865Y-29499949D01*
X64499949Y-29660865D01*
X64369436Y-29847258D01*
X64369428Y-29847272D01*
X64273262Y-30053500D01*
X64273261Y-30053503D01*
X64214365Y-30273305D01*
X64214363Y-30273320D01*
X64194532Y-30499994D01*
X64194532Y-30500005D01*
X64214363Y-30726679D01*
X64214365Y-30726694D01*
X64273261Y-30946496D01*
X64273262Y-30946499D01*
X64369428Y-31152727D01*
X64369436Y-31152741D01*
X64499949Y-31339134D01*
X64499953Y-31339139D01*
X64660861Y-31500047D01*
X64755487Y-31566304D01*
X64822669Y-31636482D01*
X64857883Y-31727031D01*
X64855764Y-31824163D01*
X64816636Y-31913091D01*
X64788736Y-31946342D01*
X61514483Y-35220596D01*
X61514479Y-35220599D01*
X61472778Y-35262298D01*
X61465842Y-35268726D01*
X61421106Y-35307132D01*
X61402506Y-35331160D01*
X61392082Y-35342995D01*
X61288069Y-35447009D01*
X61207287Y-35500985D01*
X61111999Y-35519939D01*
X61016711Y-35500985D01*
X60935929Y-35447009D01*
X60881953Y-35366227D01*
X60862999Y-35270944D01*
X60862999Y-26138249D01*
X60881954Y-26042962D01*
X60908032Y-25995428D01*
X60908964Y-25994098D01*
X60960034Y-25921162D01*
X61053394Y-25720950D01*
X61110570Y-25507568D01*
X61129823Y-25287500D01*
X61110570Y-25067432D01*
X61053394Y-24854050D01*
X60960034Y-24653839D01*
X60960032Y-24653836D01*
X60960029Y-24653831D01*
X60833333Y-24472889D01*
X60833328Y-24472883D01*
X60833326Y-24472880D01*
X60677120Y-24316674D01*
X60496162Y-24189966D01*
X60330880Y-24112894D01*
X60252530Y-24055445D01*
X60202128Y-23972386D01*
X60187349Y-23876362D01*
X60210441Y-23781991D01*
X60267890Y-23703641D01*
X60330882Y-23661551D01*
X60495910Y-23584598D01*
X60495914Y-23584596D01*
X60560686Y-23539241D01*
X60560686Y-23539240D01*
X60131610Y-23110163D01*
X60077634Y-23029382D01*
X60058680Y-22934094D01*
X60077634Y-22838806D01*
X60124481Y-22765455D01*
X60125846Y-22763973D01*
X60204323Y-22706709D01*
X60298747Y-22683834D01*
X60394737Y-22698834D01*
X60477680Y-22749426D01*
X60485106Y-22756551D01*
X60914241Y-23185686D01*
X60959596Y-23120914D01*
X60959601Y-23120905D01*
X61052921Y-22920779D01*
X61110074Y-22707479D01*
X61110076Y-22707468D01*
X61129321Y-22487505D01*
X61129321Y-22487494D01*
X61110076Y-22267531D01*
X61110074Y-22267520D01*
X61052922Y-22054223D01*
X60959597Y-21854087D01*
X60959594Y-21854083D01*
X60914242Y-21789312D01*
X60914240Y-21789312D01*
X60488288Y-22215263D01*
X60407507Y-22269239D01*
X60312219Y-22288193D01*
X60216930Y-22269239D01*
X60159322Y-22235722D01*
X60157732Y-22234485D01*
X60094162Y-22161014D01*
X60063548Y-22068808D01*
X60070549Y-21971906D01*
X60114100Y-21885059D01*
X60134559Y-21861887D01*
X60560686Y-21435758D01*
X60560686Y-21435756D01*
X60495917Y-21390404D01*
X60495910Y-21390400D01*
X60295779Y-21297078D01*
X60082479Y-21239925D01*
X60082468Y-21239923D01*
X59862506Y-21220679D01*
X59862494Y-21220679D01*
X59642531Y-21239923D01*
X59642520Y-21239925D01*
X59429223Y-21297077D01*
X59229086Y-21390403D01*
X59164311Y-21435758D01*
X59593389Y-21864836D01*
X59647365Y-21945617D01*
X59666319Y-22040905D01*
X59647365Y-22136193D01*
X59600514Y-22209549D01*
X59599158Y-22211022D01*
X59520676Y-22268290D01*
X59426252Y-22291165D01*
X59330262Y-22276165D01*
X59247319Y-22225573D01*
X59239893Y-22218448D01*
X58810756Y-21789311D01*
X58807500Y-21789596D01*
X58746595Y-21847902D01*
X58656046Y-21883116D01*
X58558914Y-21880997D01*
X58469986Y-21841869D01*
X58408836Y-21780719D01*
X58333333Y-21672889D01*
X58333328Y-21672883D01*
X58333326Y-21672880D01*
X58177120Y-21516674D01*
X57996162Y-21389966D01*
X57795950Y-21296606D01*
X57795948Y-21296605D01*
X57696917Y-21270070D01*
X57582568Y-21239430D01*
X57362500Y-21220177D01*
X57142432Y-21239430D01*
X57085256Y-21254750D01*
X56929051Y-21296605D01*
X56728836Y-21389967D01*
X56728831Y-21389970D01*
X56547889Y-21516666D01*
X56547883Y-21516671D01*
X56391671Y-21672883D01*
X56391666Y-21672889D01*
X56264970Y-21853831D01*
X56264967Y-21853836D01*
X56171605Y-22054051D01*
X56140626Y-22169667D01*
X56126782Y-22221336D01*
X56114430Y-22267433D01*
X56114428Y-22267444D01*
X56100277Y-22429191D01*
X56073090Y-22522465D01*
X56028295Y-22583559D01*
X55409663Y-23202190D01*
X55402227Y-23209046D01*
X55360643Y-23244368D01*
X55360641Y-23244371D01*
X55310191Y-23310737D01*
X55257968Y-23375704D01*
X55251543Y-23385755D01*
X55245398Y-23395970D01*
X55210389Y-23471640D01*
X55173359Y-23546304D01*
X55169230Y-23557545D01*
X55165438Y-23568800D01*
X55147514Y-23650228D01*
X55147514Y-23650229D01*
X55130379Y-23719134D01*
X55127399Y-23731116D01*
X55125790Y-23742923D01*
X55124500Y-23754787D01*
X55124500Y-23838159D01*
X55122243Y-23921476D01*
X55123339Y-23934933D01*
X55122416Y-23935008D01*
X55124500Y-23956909D01*
X55124500Y-25751000D01*
X55105546Y-25846288D01*
X55051570Y-25927070D01*
X54970788Y-25981046D01*
X54875500Y-26000000D01*
X54280731Y-26000000D01*
X54185443Y-25981046D01*
X54137914Y-25954971D01*
X53998662Y-25857466D01*
X53798450Y-25764106D01*
X53798448Y-25764105D01*
X53694177Y-25736166D01*
X53585068Y-25706930D01*
X53365000Y-25687677D01*
X53144932Y-25706930D01*
X53092617Y-25720948D01*
X52931551Y-25764105D01*
X52731336Y-25857467D01*
X52731331Y-25857470D01*
X52592088Y-25954969D01*
X52503160Y-25994098D01*
X52449268Y-26000000D01*
X51998118Y-26000000D01*
X51923011Y-26050184D01*
X51827723Y-26069138D01*
X51732435Y-26050184D01*
X51651656Y-25996210D01*
X51639620Y-25984174D01*
X51458662Y-25857466D01*
X51258450Y-25764106D01*
X51258448Y-25764105D01*
X51154177Y-25736166D01*
X51045068Y-25706930D01*
X50825000Y-25687677D01*
X50604932Y-25706930D01*
X50552617Y-25720948D01*
X50391551Y-25764105D01*
X50191336Y-25857467D01*
X50191331Y-25857470D01*
X50010389Y-25984166D01*
X50010383Y-25984171D01*
X49854171Y-26140383D01*
X49854166Y-26140389D01*
X49727470Y-26321331D01*
X49727467Y-26321336D01*
X49634105Y-26521551D01*
X49616822Y-26586053D01*
X49577443Y-26733020D01*
X49576930Y-26734933D01*
X49576928Y-26734944D01*
X49562935Y-26894889D01*
X49543707Y-26971374D01*
X49540459Y-26978943D01*
X49540458Y-26978944D01*
X49528589Y-27036701D01*
X49526334Y-27045889D01*
X49510113Y-27102581D01*
X49510111Y-27102591D01*
X49507803Y-27132887D01*
X49505614Y-27148498D01*
X49499500Y-27178258D01*
X49499500Y-27237222D01*
X49499140Y-27246679D01*
X49494662Y-27305473D01*
X49494663Y-27305474D01*
X49498502Y-27335616D01*
X49499500Y-27351360D01*
X49499500Y-29584426D01*
X49480546Y-29679714D01*
X49426570Y-29760496D01*
X49345788Y-29814472D01*
X49250500Y-29833426D01*
X49155212Y-29814472D01*
X49074430Y-29760496D01*
X49046532Y-29727247D01*
X49000051Y-29660866D01*
X49000049Y-29660864D01*
X49000047Y-29660861D01*
X48839139Y-29499953D01*
X48839135Y-29499950D01*
X48839134Y-29499949D01*
X48652741Y-29369436D01*
X48652727Y-29369428D01*
X48446499Y-29273262D01*
X48446496Y-29273261D01*
X48226694Y-29214365D01*
X48226679Y-29214363D01*
X48000006Y-29194532D01*
X47999994Y-29194532D01*
X47773320Y-29214363D01*
X47773305Y-29214365D01*
X47553503Y-29273261D01*
X47553500Y-29273262D01*
X47347272Y-29369428D01*
X47347258Y-29369436D01*
X47160865Y-29499949D01*
X46999949Y-29660865D01*
X46869436Y-29847258D01*
X46869432Y-29847264D01*
X46785262Y-30027766D01*
X46727812Y-30106115D01*
X46644753Y-30156516D01*
X46548729Y-30171295D01*
X46454358Y-30148202D01*
X46383522Y-30098602D01*
X45654348Y-29369428D01*
X44799179Y-28514258D01*
X44745205Y-28433479D01*
X44726251Y-28338191D01*
X44745205Y-28242903D01*
X44799181Y-28162121D01*
X44870017Y-28112521D01*
X44998662Y-28052534D01*
X45179620Y-27925826D01*
X45335826Y-27769620D01*
X45462534Y-27588662D01*
X45555894Y-27388450D01*
X45613070Y-27175068D01*
X45632323Y-26955000D01*
X45613070Y-26734932D01*
X45555894Y-26521550D01*
X45462534Y-26321339D01*
X45462532Y-26321336D01*
X45462529Y-26321331D01*
X45335833Y-26140389D01*
X45335828Y-26140383D01*
X45335826Y-26140380D01*
X45179620Y-25984174D01*
X44998662Y-25857466D01*
X44798450Y-25764106D01*
X44798448Y-25764105D01*
X44694177Y-25736166D01*
X44585068Y-25706930D01*
X44365000Y-25687677D01*
X44144932Y-25706930D01*
X44092617Y-25720948D01*
X43931551Y-25764105D01*
X43731336Y-25857467D01*
X43731331Y-25857470D01*
X43550389Y-25984166D01*
X43550383Y-25984171D01*
X43394171Y-26140383D01*
X43394165Y-26140390D01*
X43298969Y-26276346D01*
X43228788Y-26343530D01*
X43138239Y-26378743D01*
X43041107Y-26376624D01*
X42952180Y-26337495D01*
X42891031Y-26276346D01*
X42795834Y-26140390D01*
X42795828Y-26140383D01*
X42795826Y-26140380D01*
X42639620Y-25984174D01*
X42458662Y-25857466D01*
X42258450Y-25764106D01*
X42258448Y-25764105D01*
X42154177Y-25736166D01*
X42045068Y-25706930D01*
X41825000Y-25687677D01*
X41604932Y-25706930D01*
X41552617Y-25720948D01*
X41391551Y-25764105D01*
X41191336Y-25857467D01*
X41191331Y-25857470D01*
X41010389Y-25984166D01*
X41010383Y-25984171D01*
X40854171Y-26140383D01*
X40854166Y-26140389D01*
X40727470Y-26321331D01*
X40727467Y-26321336D01*
X40634105Y-26521551D01*
X40616822Y-26586053D01*
X40576930Y-26734932D01*
X40557677Y-26955000D01*
X40576930Y-27175068D01*
X40596118Y-27246679D01*
X40624167Y-27351360D01*
X40634106Y-27388450D01*
X40727466Y-27588662D01*
X40854174Y-27769620D01*
X41010380Y-27925826D01*
X41191338Y-28052534D01*
X41391550Y-28145894D01*
X41604932Y-28203070D01*
X41604937Y-28203070D01*
X41613180Y-28205279D01*
X41700315Y-28248250D01*
X41724804Y-28269725D01*
X47926570Y-34471491D01*
X47980546Y-34552273D01*
X47999500Y-34647561D01*
X47999500Y-40750500D01*
X47980546Y-40845788D01*
X47926570Y-40926570D01*
X47845788Y-40980546D01*
X47750500Y-40999500D01*
X47173688Y-40999500D01*
X47078400Y-40980546D01*
X46997618Y-40926570D01*
X46943642Y-40845788D01*
X46924688Y-40750500D01*
X46943642Y-40655212D01*
X46954693Y-40632803D01*
X46957099Y-40627643D01*
X46957102Y-40627639D01*
X47049575Y-40429330D01*
X47106207Y-40217977D01*
X47125277Y-40000000D01*
X47106207Y-39782023D01*
X47049575Y-39570670D01*
X46983747Y-39429502D01*
X46957105Y-39372368D01*
X46957101Y-39372360D01*
X46911429Y-39307134D01*
X46831598Y-39193123D01*
X46676877Y-39038402D01*
X46647227Y-39017641D01*
X46497639Y-38912898D01*
X46426368Y-38879664D01*
X46299330Y-38820425D01*
X46299328Y-38820424D01*
X46299323Y-38820422D01*
X46098789Y-38766689D01*
X46011653Y-38723719D01*
X45987165Y-38702244D01*
X42703583Y-35418662D01*
X39401396Y-32116476D01*
X39347421Y-32035695D01*
X39328467Y-31940407D01*
X39347421Y-31845119D01*
X39401397Y-31764337D01*
X39472235Y-31714737D01*
X39640051Y-31636482D01*
X39652734Y-31630568D01*
X39839139Y-31500047D01*
X40000047Y-31339139D01*
X40130568Y-31152734D01*
X40226739Y-30946496D01*
X40285635Y-30726692D01*
X40299980Y-30562726D01*
X40305468Y-30500005D01*
X40305468Y-30499994D01*
X40285636Y-30273320D01*
X40285635Y-30273308D01*
X40226739Y-30053504D01*
X40137283Y-29861666D01*
X40130571Y-29847272D01*
X40130566Y-29847264D01*
X40130565Y-29847262D01*
X40130563Y-29847258D01*
X40000050Y-29660865D01*
X40000049Y-29660864D01*
X40000047Y-29660861D01*
X39839139Y-29499953D01*
X39839135Y-29499950D01*
X39839134Y-29499949D01*
X39652741Y-29369436D01*
X39652727Y-29369428D01*
X39446499Y-29273262D01*
X39446496Y-29273261D01*
X39226694Y-29214365D01*
X39226679Y-29214363D01*
X39000006Y-29194532D01*
X38999994Y-29194532D01*
X38773320Y-29214363D01*
X38773305Y-29214365D01*
X38553503Y-29273261D01*
X38553500Y-29273262D01*
X38347272Y-29369428D01*
X38347258Y-29369436D01*
X38160865Y-29499949D01*
X37999949Y-29660865D01*
X37869436Y-29847258D01*
X37869432Y-29847264D01*
X37785262Y-30027766D01*
X37727812Y-30106115D01*
X37644753Y-30156516D01*
X37548729Y-30171295D01*
X37454358Y-30148202D01*
X37383522Y-30098602D01*
X35799181Y-28514261D01*
X35745205Y-28433479D01*
X35726251Y-28338191D01*
X35745205Y-28242903D01*
X35799181Y-28162121D01*
X35870017Y-28112521D01*
X35998662Y-28052534D01*
X36179620Y-27925826D01*
X36335826Y-27769620D01*
X36462534Y-27588662D01*
X36555894Y-27388450D01*
X36613070Y-27175068D01*
X36632323Y-26955000D01*
X36613070Y-26734932D01*
X36555894Y-26521550D01*
X36462534Y-26321339D01*
X36462532Y-26321336D01*
X36462529Y-26321331D01*
X36335833Y-26140389D01*
X36335828Y-26140383D01*
X36335826Y-26140380D01*
X36179620Y-25984174D01*
X35998662Y-25857466D01*
X35798450Y-25764106D01*
X35798448Y-25764105D01*
X35694177Y-25736166D01*
X35585068Y-25706930D01*
X35365000Y-25687677D01*
X35144932Y-25706930D01*
X35092617Y-25720948D01*
X34931551Y-25764105D01*
X34731336Y-25857467D01*
X34731331Y-25857470D01*
X34550389Y-25984166D01*
X34550383Y-25984171D01*
X34394171Y-26140383D01*
X34394165Y-26140390D01*
X34298969Y-26276346D01*
X34228788Y-26343530D01*
X34138239Y-26378743D01*
X34041107Y-26376624D01*
X33952180Y-26337495D01*
X33891031Y-26276346D01*
X33795834Y-26140390D01*
X33795828Y-26140383D01*
X33795826Y-26140380D01*
X33639620Y-25984174D01*
X33458662Y-25857466D01*
X33258450Y-25764106D01*
X33258448Y-25764105D01*
X33154177Y-25736166D01*
X33045068Y-25706930D01*
X32825000Y-25687677D01*
X32604932Y-25706930D01*
X32552617Y-25720948D01*
X32391551Y-25764105D01*
X32191338Y-25857466D01*
X32117069Y-25909470D01*
X32028142Y-25948598D01*
X31974250Y-25954500D01*
X29413136Y-25954500D01*
X29324061Y-25952242D01*
X29324057Y-25952243D01*
X29266007Y-25962646D01*
X29256640Y-25963959D01*
X29197985Y-25969925D01*
X29197974Y-25969927D01*
X29168978Y-25979023D01*
X29153669Y-25982781D01*
X29123767Y-25988141D01*
X29068994Y-26010019D01*
X29060085Y-26013190D01*
X29003831Y-26030841D01*
X28977275Y-26045581D01*
X28963029Y-26052346D01*
X28934805Y-26063621D01*
X28934791Y-26063628D01*
X28885559Y-26096074D01*
X28877471Y-26100974D01*
X28837671Y-26123067D01*
X28745159Y-26152741D01*
X28648333Y-26144754D01*
X28561934Y-26100321D01*
X28499115Y-26026207D01*
X28469441Y-25933695D01*
X28476307Y-25840915D01*
X28502167Y-25744408D01*
X28560793Y-25374254D01*
X28580407Y-25000000D01*
X28560793Y-24625746D01*
X28502167Y-24255592D01*
X28502165Y-24255583D01*
X28405172Y-23893602D01*
X28398554Y-23876362D01*
X28270865Y-23543717D01*
X28270864Y-23543716D01*
X28270863Y-23543712D01*
X28270862Y-23543710D01*
X28100724Y-23209799D01*
X28087177Y-23188939D01*
X27896610Y-22895490D01*
X27884071Y-22880005D01*
X28694532Y-22880005D01*
X28714363Y-23106679D01*
X28714365Y-23106694D01*
X28773261Y-23326496D01*
X28773262Y-23326499D01*
X28869428Y-23532727D01*
X28869436Y-23532741D01*
X28999949Y-23719134D01*
X28999953Y-23719139D01*
X29160861Y-23880047D01*
X29160864Y-23880049D01*
X29160865Y-23880050D01*
X29347258Y-24010563D01*
X29347262Y-24010565D01*
X29347266Y-24010568D01*
X29347270Y-24010569D01*
X29347272Y-24010571D01*
X29471008Y-24068270D01*
X29553504Y-24106739D01*
X29773308Y-24165635D01*
X29792984Y-24167356D01*
X29999994Y-24185468D01*
X30000000Y-24185468D01*
X30000006Y-24185468D01*
X30179668Y-24169749D01*
X30226692Y-24165635D01*
X30446496Y-24106739D01*
X30652734Y-24010568D01*
X30839139Y-23880047D01*
X30890758Y-23828427D01*
X30971537Y-23774454D01*
X31066825Y-23755500D01*
X31836915Y-23755500D01*
X31932203Y-23774454D01*
X32000822Y-23820303D01*
X32002052Y-23818838D01*
X32010375Y-23825822D01*
X32010378Y-23825824D01*
X32010380Y-23825826D01*
X32191338Y-23952534D01*
X32391550Y-24045894D01*
X32604932Y-24103070D01*
X32825000Y-24122323D01*
X33045068Y-24103070D01*
X33258450Y-24045894D01*
X33458662Y-23952534D01*
X33639620Y-23825826D01*
X33795826Y-23669620D01*
X33891338Y-23533215D01*
X33961517Y-23466033D01*
X34052066Y-23430820D01*
X34149198Y-23432939D01*
X34238125Y-23472068D01*
X34299273Y-23533215D01*
X34313257Y-23553186D01*
X34739209Y-23127235D01*
X34819991Y-23073259D01*
X34915279Y-23054305D01*
X35010567Y-23073259D01*
X35068193Y-23106790D01*
X35069784Y-23108028D01*
X35133347Y-23181504D01*
X35163954Y-23273712D01*
X35156944Y-23370614D01*
X35113385Y-23457457D01*
X35092940Y-23480612D01*
X34666812Y-23906740D01*
X34666812Y-23906741D01*
X34731589Y-23952099D01*
X34931720Y-24045421D01*
X35145020Y-24102574D01*
X35145031Y-24102576D01*
X35364994Y-24121821D01*
X35365006Y-24121821D01*
X35584968Y-24102576D01*
X35584979Y-24102574D01*
X35798279Y-24045421D01*
X35998405Y-23952101D01*
X35998414Y-23952096D01*
X36063186Y-23906741D01*
X36063186Y-23906740D01*
X35634110Y-23477663D01*
X35580134Y-23396882D01*
X35561180Y-23301594D01*
X35580134Y-23206306D01*
X35626981Y-23132955D01*
X35628346Y-23131473D01*
X35706823Y-23074209D01*
X35801247Y-23051334D01*
X35897237Y-23066334D01*
X35980180Y-23116926D01*
X35987606Y-23124051D01*
X36416741Y-23553186D01*
X36462096Y-23488414D01*
X36462101Y-23488405D01*
X36555421Y-23288279D01*
X36612574Y-23074979D01*
X36612576Y-23074968D01*
X36629634Y-22880005D01*
X37694532Y-22880005D01*
X37714363Y-23106679D01*
X37714365Y-23106694D01*
X37773261Y-23326496D01*
X37773262Y-23326499D01*
X37869428Y-23532727D01*
X37869436Y-23532741D01*
X37999949Y-23719134D01*
X37999953Y-23719139D01*
X38160861Y-23880047D01*
X38160864Y-23880049D01*
X38160865Y-23880050D01*
X38347258Y-24010563D01*
X38347262Y-24010565D01*
X38347266Y-24010568D01*
X38347270Y-24010569D01*
X38347272Y-24010571D01*
X38471008Y-24068270D01*
X38553504Y-24106739D01*
X38773308Y-24165635D01*
X38792984Y-24167356D01*
X38999994Y-24185468D01*
X39000000Y-24185468D01*
X39000006Y-24185468D01*
X39179668Y-24169749D01*
X39226692Y-24165635D01*
X39446496Y-24106739D01*
X39652734Y-24010568D01*
X39839139Y-23880047D01*
X39890758Y-23828427D01*
X39971537Y-23774454D01*
X40066825Y-23755500D01*
X40836915Y-23755500D01*
X40932203Y-23774454D01*
X41000822Y-23820303D01*
X41002052Y-23818838D01*
X41010375Y-23825822D01*
X41010378Y-23825824D01*
X41010380Y-23825826D01*
X41191338Y-23952534D01*
X41391550Y-24045894D01*
X41604932Y-24103070D01*
X41825000Y-24122323D01*
X42045068Y-24103070D01*
X42258450Y-24045894D01*
X42458662Y-23952534D01*
X42639620Y-23825826D01*
X42795826Y-23669620D01*
X42891338Y-23533215D01*
X42961517Y-23466033D01*
X43052066Y-23430820D01*
X43149198Y-23432939D01*
X43238125Y-23472068D01*
X43299273Y-23533215D01*
X43313257Y-23553186D01*
X43739209Y-23127235D01*
X43819991Y-23073259D01*
X43915279Y-23054305D01*
X44010567Y-23073259D01*
X44068193Y-23106790D01*
X44069784Y-23108028D01*
X44133347Y-23181504D01*
X44163954Y-23273712D01*
X44156944Y-23370614D01*
X44113385Y-23457457D01*
X44092940Y-23480612D01*
X43666812Y-23906740D01*
X43666812Y-23906741D01*
X43731589Y-23952099D01*
X43931720Y-24045421D01*
X44145020Y-24102574D01*
X44145031Y-24102576D01*
X44364994Y-24121821D01*
X44365006Y-24121821D01*
X44584968Y-24102576D01*
X44584979Y-24102574D01*
X44798279Y-24045421D01*
X44998405Y-23952101D01*
X44998414Y-23952096D01*
X45063186Y-23906741D01*
X45063186Y-23906740D01*
X44634110Y-23477663D01*
X44580134Y-23396882D01*
X44561180Y-23301594D01*
X44580134Y-23206306D01*
X44626981Y-23132955D01*
X44628346Y-23131473D01*
X44706823Y-23074209D01*
X44801247Y-23051334D01*
X44897237Y-23066334D01*
X44980180Y-23116926D01*
X44987606Y-23124051D01*
X45416741Y-23553186D01*
X45462096Y-23488414D01*
X45462101Y-23488405D01*
X45555421Y-23288279D01*
X45612574Y-23074979D01*
X45612576Y-23074968D01*
X45629634Y-22880005D01*
X46694532Y-22880005D01*
X46714363Y-23106679D01*
X46714365Y-23106694D01*
X46773261Y-23326496D01*
X46773262Y-23326499D01*
X46869428Y-23532727D01*
X46869436Y-23532741D01*
X46999949Y-23719134D01*
X46999953Y-23719139D01*
X47160861Y-23880047D01*
X47160864Y-23880049D01*
X47160865Y-23880050D01*
X47347258Y-24010563D01*
X47347262Y-24010565D01*
X47347266Y-24010568D01*
X47347270Y-24010569D01*
X47347272Y-24010571D01*
X47471008Y-24068270D01*
X47553504Y-24106739D01*
X47773308Y-24165635D01*
X47792984Y-24167356D01*
X47999994Y-24185468D01*
X48000000Y-24185468D01*
X48000006Y-24185468D01*
X48179668Y-24169749D01*
X48226692Y-24165635D01*
X48446496Y-24106739D01*
X48652734Y-24010568D01*
X48839139Y-23880047D01*
X48890758Y-23828427D01*
X48971537Y-23774454D01*
X49066825Y-23755500D01*
X49836915Y-23755500D01*
X49932203Y-23774454D01*
X50000822Y-23820303D01*
X50002052Y-23818838D01*
X50010375Y-23825822D01*
X50010378Y-23825824D01*
X50010380Y-23825826D01*
X50191338Y-23952534D01*
X50391550Y-24045894D01*
X50604932Y-24103070D01*
X50825000Y-24122323D01*
X51045068Y-24103070D01*
X51258450Y-24045894D01*
X51458662Y-23952534D01*
X51639620Y-23825826D01*
X51795826Y-23669620D01*
X51891338Y-23533215D01*
X51961517Y-23466033D01*
X52052066Y-23430820D01*
X52149198Y-23432939D01*
X52238125Y-23472068D01*
X52299273Y-23533215D01*
X52313257Y-23553186D01*
X52739209Y-23127235D01*
X52819991Y-23073259D01*
X52915279Y-23054305D01*
X53010567Y-23073259D01*
X53068193Y-23106790D01*
X53069784Y-23108028D01*
X53133347Y-23181504D01*
X53163954Y-23273712D01*
X53156944Y-23370614D01*
X53113385Y-23457457D01*
X53092940Y-23480612D01*
X52666812Y-23906740D01*
X52666812Y-23906741D01*
X52731589Y-23952099D01*
X52931720Y-24045421D01*
X53145020Y-24102574D01*
X53145031Y-24102576D01*
X53364994Y-24121821D01*
X53365006Y-24121821D01*
X53584968Y-24102576D01*
X53584979Y-24102574D01*
X53798279Y-24045421D01*
X53998405Y-23952101D01*
X53998414Y-23952096D01*
X54063186Y-23906741D01*
X54063186Y-23906740D01*
X53634110Y-23477663D01*
X53580134Y-23396882D01*
X53561180Y-23301594D01*
X53580134Y-23206306D01*
X53626981Y-23132955D01*
X53628346Y-23131473D01*
X53706823Y-23074209D01*
X53801247Y-23051334D01*
X53897237Y-23066334D01*
X53980180Y-23116926D01*
X53987606Y-23124051D01*
X54416741Y-23553186D01*
X54462096Y-23488414D01*
X54462101Y-23488405D01*
X54555421Y-23288279D01*
X54612574Y-23074979D01*
X54612576Y-23074968D01*
X54631821Y-22855005D01*
X54631821Y-22854994D01*
X54612576Y-22635031D01*
X54612574Y-22635020D01*
X54555422Y-22421723D01*
X54462097Y-22221587D01*
X54462094Y-22221583D01*
X54416742Y-22156812D01*
X54416740Y-22156812D01*
X53990788Y-22582763D01*
X53910007Y-22636739D01*
X53814719Y-22655693D01*
X53719430Y-22636739D01*
X53661822Y-22603222D01*
X53660232Y-22601985D01*
X53596662Y-22528514D01*
X53566048Y-22436308D01*
X53573049Y-22339406D01*
X53616600Y-22252559D01*
X53637059Y-22229387D01*
X54063186Y-21803258D01*
X54063186Y-21803256D01*
X53998417Y-21757904D01*
X53998410Y-21757900D01*
X53798279Y-21664578D01*
X53584979Y-21607425D01*
X53584968Y-21607423D01*
X53365006Y-21588179D01*
X53364994Y-21588179D01*
X53145031Y-21607423D01*
X53145020Y-21607425D01*
X52931723Y-21664577D01*
X52731586Y-21757903D01*
X52666811Y-21803258D01*
X53095889Y-22232336D01*
X53149865Y-22313117D01*
X53168819Y-22408405D01*
X53149865Y-22503693D01*
X53103014Y-22577049D01*
X53101658Y-22578522D01*
X53023176Y-22635790D01*
X52928752Y-22658665D01*
X52832762Y-22643665D01*
X52749819Y-22593073D01*
X52742393Y-22585948D01*
X52313257Y-22156812D01*
X52299275Y-22176781D01*
X52229094Y-22243965D01*
X52138545Y-22279179D01*
X52041413Y-22277060D01*
X51952486Y-22237932D01*
X51891336Y-22176782D01*
X51795833Y-22040389D01*
X51795828Y-22040383D01*
X51795826Y-22040380D01*
X51639620Y-21884174D01*
X51458662Y-21757466D01*
X51258450Y-21664106D01*
X51258448Y-21664105D01*
X51159418Y-21637570D01*
X51045068Y-21606930D01*
X50825000Y-21587677D01*
X50824999Y-21587677D01*
X50751644Y-21594094D01*
X50604932Y-21606930D01*
X50587545Y-21611589D01*
X50391551Y-21664105D01*
X50191336Y-21757467D01*
X50191331Y-21757470D01*
X50010389Y-21884166D01*
X50010383Y-21884171D01*
X50010380Y-21884173D01*
X50010380Y-21884174D01*
X49962981Y-21931572D01*
X49882203Y-21985546D01*
X49786915Y-22004500D01*
X49066825Y-22004500D01*
X48971537Y-21985546D01*
X48890758Y-21931572D01*
X48839139Y-21879953D01*
X48839135Y-21879950D01*
X48839134Y-21879949D01*
X48652741Y-21749436D01*
X48652727Y-21749428D01*
X48446499Y-21653262D01*
X48446496Y-21653261D01*
X48226694Y-21594365D01*
X48226679Y-21594363D01*
X48000006Y-21574532D01*
X47999994Y-21574532D01*
X47773320Y-21594363D01*
X47773305Y-21594365D01*
X47553503Y-21653261D01*
X47553500Y-21653262D01*
X47347272Y-21749428D01*
X47347258Y-21749436D01*
X47160865Y-21879949D01*
X46999949Y-22040865D01*
X46869436Y-22227258D01*
X46869428Y-22227272D01*
X46773262Y-22433500D01*
X46773261Y-22433503D01*
X46714365Y-22653305D01*
X46714363Y-22653320D01*
X46694532Y-22879994D01*
X46694532Y-22880005D01*
X45629634Y-22880005D01*
X45631821Y-22855005D01*
X45631821Y-22854994D01*
X45612576Y-22635031D01*
X45612574Y-22635020D01*
X45555422Y-22421723D01*
X45462097Y-22221587D01*
X45462094Y-22221583D01*
X45416742Y-22156812D01*
X45416740Y-22156812D01*
X44990788Y-22582763D01*
X44910007Y-22636739D01*
X44814719Y-22655693D01*
X44719430Y-22636739D01*
X44661822Y-22603222D01*
X44660232Y-22601985D01*
X44596662Y-22528514D01*
X44566048Y-22436308D01*
X44573049Y-22339406D01*
X44616600Y-22252559D01*
X44637059Y-22229387D01*
X45063186Y-21803258D01*
X45063186Y-21803256D01*
X44998417Y-21757904D01*
X44998410Y-21757900D01*
X44798279Y-21664578D01*
X44584979Y-21607425D01*
X44584968Y-21607423D01*
X44365006Y-21588179D01*
X44364994Y-21588179D01*
X44145031Y-21607423D01*
X44145020Y-21607425D01*
X43931723Y-21664577D01*
X43731586Y-21757903D01*
X43666811Y-21803258D01*
X44095889Y-22232336D01*
X44149865Y-22313117D01*
X44168819Y-22408405D01*
X44149865Y-22503693D01*
X44103014Y-22577049D01*
X44101658Y-22578522D01*
X44023176Y-22635790D01*
X43928752Y-22658665D01*
X43832762Y-22643665D01*
X43749819Y-22593073D01*
X43742393Y-22585948D01*
X43313257Y-22156812D01*
X43299275Y-22176781D01*
X43229094Y-22243965D01*
X43138545Y-22279179D01*
X43041413Y-22277060D01*
X42952486Y-22237932D01*
X42891336Y-22176782D01*
X42795833Y-22040389D01*
X42795828Y-22040383D01*
X42795826Y-22040380D01*
X42639620Y-21884174D01*
X42458662Y-21757466D01*
X42258450Y-21664106D01*
X42258448Y-21664105D01*
X42159418Y-21637570D01*
X42045068Y-21606930D01*
X41825000Y-21587677D01*
X41824999Y-21587677D01*
X41751643Y-21594094D01*
X41604932Y-21606930D01*
X41587545Y-21611589D01*
X41391551Y-21664105D01*
X41191336Y-21757467D01*
X41191331Y-21757470D01*
X41010389Y-21884166D01*
X41010383Y-21884171D01*
X41010380Y-21884173D01*
X41010380Y-21884174D01*
X40962981Y-21931572D01*
X40882203Y-21985546D01*
X40786915Y-22004500D01*
X40066825Y-22004500D01*
X39971537Y-21985546D01*
X39890758Y-21931572D01*
X39839139Y-21879953D01*
X39839135Y-21879950D01*
X39839134Y-21879949D01*
X39652741Y-21749436D01*
X39652727Y-21749428D01*
X39446499Y-21653262D01*
X39446496Y-21653261D01*
X39226694Y-21594365D01*
X39226679Y-21594363D01*
X39000006Y-21574532D01*
X38999994Y-21574532D01*
X38773320Y-21594363D01*
X38773305Y-21594365D01*
X38553503Y-21653261D01*
X38553500Y-21653262D01*
X38347272Y-21749428D01*
X38347258Y-21749436D01*
X38160865Y-21879949D01*
X37999949Y-22040865D01*
X37869436Y-22227258D01*
X37869428Y-22227272D01*
X37773262Y-22433500D01*
X37773261Y-22433503D01*
X37714365Y-22653305D01*
X37714363Y-22653320D01*
X37694532Y-22879994D01*
X37694532Y-22880005D01*
X36629634Y-22880005D01*
X36631821Y-22855005D01*
X36631821Y-22854994D01*
X36612576Y-22635031D01*
X36612574Y-22635020D01*
X36555422Y-22421723D01*
X36462097Y-22221587D01*
X36462094Y-22221583D01*
X36416742Y-22156812D01*
X36416740Y-22156812D01*
X35990788Y-22582763D01*
X35910007Y-22636739D01*
X35814719Y-22655693D01*
X35719430Y-22636739D01*
X35661822Y-22603222D01*
X35660232Y-22601985D01*
X35596662Y-22528514D01*
X35566048Y-22436308D01*
X35573049Y-22339406D01*
X35616600Y-22252559D01*
X35637059Y-22229387D01*
X36063186Y-21803258D01*
X36063186Y-21803256D01*
X35998417Y-21757904D01*
X35998410Y-21757900D01*
X35798279Y-21664578D01*
X35584979Y-21607425D01*
X35584968Y-21607423D01*
X35365006Y-21588179D01*
X35364994Y-21588179D01*
X35145031Y-21607423D01*
X35145020Y-21607425D01*
X34931723Y-21664577D01*
X34731586Y-21757903D01*
X34666811Y-21803258D01*
X35095889Y-22232336D01*
X35149865Y-22313117D01*
X35168819Y-22408405D01*
X35149865Y-22503693D01*
X35103014Y-22577049D01*
X35101658Y-22578522D01*
X35023176Y-22635790D01*
X34928752Y-22658665D01*
X34832762Y-22643665D01*
X34749819Y-22593073D01*
X34742393Y-22585948D01*
X34313257Y-22156812D01*
X34299275Y-22176781D01*
X34229094Y-22243965D01*
X34138545Y-22279179D01*
X34041413Y-22277060D01*
X33952486Y-22237932D01*
X33891336Y-22176782D01*
X33795833Y-22040389D01*
X33795828Y-22040383D01*
X33795826Y-22040380D01*
X33639620Y-21884174D01*
X33458662Y-21757466D01*
X33258450Y-21664106D01*
X33258448Y-21664105D01*
X33159417Y-21637570D01*
X33045068Y-21606930D01*
X32825000Y-21587677D01*
X32824999Y-21587677D01*
X32751643Y-21594094D01*
X32604932Y-21606930D01*
X32587545Y-21611589D01*
X32391551Y-21664105D01*
X32191336Y-21757467D01*
X32191331Y-21757470D01*
X32010389Y-21884166D01*
X32010383Y-21884171D01*
X32010380Y-21884173D01*
X32010380Y-21884174D01*
X31962981Y-21931572D01*
X31882203Y-21985546D01*
X31786915Y-22004500D01*
X31066825Y-22004500D01*
X30971537Y-21985546D01*
X30890758Y-21931572D01*
X30839139Y-21879953D01*
X30839135Y-21879950D01*
X30839134Y-21879949D01*
X30652741Y-21749436D01*
X30652727Y-21749428D01*
X30446499Y-21653262D01*
X30446496Y-21653261D01*
X30226694Y-21594365D01*
X30226679Y-21594363D01*
X30000006Y-21574532D01*
X29999994Y-21574532D01*
X29773320Y-21594363D01*
X29773305Y-21594365D01*
X29553503Y-21653261D01*
X29553500Y-21653262D01*
X29347272Y-21749428D01*
X29347258Y-21749436D01*
X29160865Y-21879949D01*
X28999949Y-22040865D01*
X28869436Y-22227258D01*
X28869428Y-22227272D01*
X28773262Y-22433500D01*
X28773261Y-22433503D01*
X28714365Y-22653305D01*
X28714363Y-22653320D01*
X28694532Y-22879994D01*
X28694532Y-22880005D01*
X27884071Y-22880005D01*
X27660761Y-22604240D01*
X27395760Y-22339239D01*
X27336393Y-22291165D01*
X27127690Y-22122161D01*
X27104510Y-22103390D01*
X27104509Y-22103389D01*
X27104505Y-22103386D01*
X26790201Y-21899275D01*
X26456289Y-21729137D01*
X26456287Y-21729136D01*
X26106397Y-21594827D01*
X25744416Y-21497834D01*
X25744408Y-21497833D01*
X25374251Y-21439206D01*
X25000000Y-21419593D01*
X24625748Y-21439206D01*
X24255591Y-21497833D01*
X24255583Y-21497834D01*
X23893602Y-21594827D01*
X23543712Y-21729136D01*
X23543710Y-21729137D01*
X23209799Y-21899275D01*
X22895490Y-22103389D01*
X22604245Y-22339234D01*
X22339234Y-22604245D01*
X22103389Y-22895490D01*
X21899275Y-23209799D01*
X21729137Y-23543710D01*
X21729136Y-23543712D01*
X21594827Y-23893602D01*
X21497834Y-24255583D01*
X21497833Y-24255591D01*
X21439206Y-24625748D01*
X21419593Y-25000000D01*
X21439206Y-25374251D01*
X21497833Y-25744408D01*
X21497834Y-25744416D01*
X21594827Y-26106397D01*
X21729136Y-26456287D01*
X21729137Y-26456289D01*
X21899275Y-26790201D01*
X22103386Y-27104505D01*
X22250590Y-27286288D01*
X22339239Y-27395760D01*
X22604240Y-27660761D01*
X22828647Y-27842482D01*
X22895494Y-27896613D01*
X23015359Y-27974454D01*
X23135588Y-28052532D01*
X23209798Y-28100724D01*
X23543710Y-28270862D01*
X23543712Y-28270863D01*
X23543716Y-28270864D01*
X23543717Y-28270865D01*
X23893593Y-28405169D01*
X23893596Y-28405170D01*
X23893602Y-28405172D01*
X24255583Y-28502165D01*
X24255585Y-28502165D01*
X24255592Y-28502167D01*
X24625746Y-28560793D01*
X25000000Y-28580407D01*
X25374254Y-28560793D01*
X25744408Y-28502167D01*
X25794708Y-28488688D01*
X25891653Y-28482334D01*
X25983652Y-28513562D01*
X26056697Y-28577620D01*
X26099669Y-28664756D01*
X26106024Y-28761703D01*
X26074796Y-28853702D01*
X26035224Y-28905274D01*
X21931532Y-33008967D01*
X21866945Y-33070362D01*
X21833259Y-33118760D01*
X21827563Y-33126314D01*
X21790305Y-33172007D01*
X21790299Y-33172017D01*
X21776229Y-33198951D01*
X21768059Y-33212435D01*
X21750708Y-33237366D01*
X21750702Y-33237376D01*
X21727450Y-33291558D01*
X21723393Y-33300102D01*
X21696091Y-33352369D01*
X21696091Y-33352370D01*
X21687735Y-33381571D01*
X21682446Y-33396429D01*
X21670458Y-33424363D01*
X21670458Y-33424364D01*
X21658589Y-33482121D01*
X21656334Y-33491309D01*
X21640113Y-33548001D01*
X21640111Y-33548011D01*
X21637803Y-33578307D01*
X21635614Y-33593918D01*
X21629500Y-33623678D01*
X21629500Y-33682642D01*
X21629140Y-33692099D01*
X21624662Y-33750893D01*
X21624663Y-33750894D01*
X21628502Y-33781036D01*
X21629500Y-33796780D01*
X21629500Y-38842284D01*
X21627242Y-38931360D01*
X21637645Y-38989402D01*
X21638960Y-38998773D01*
X21644925Y-39057433D01*
X21644926Y-39057442D01*
X21654022Y-39086434D01*
X21657781Y-39101749D01*
X21663140Y-39131645D01*
X21663142Y-39131655D01*
X21685012Y-39186404D01*
X21688183Y-39195310D01*
X21700420Y-39234312D01*
X21705841Y-39251587D01*
X21705845Y-39251597D01*
X21720584Y-39278152D01*
X21727351Y-39292399D01*
X21738620Y-39320611D01*
X21738626Y-39320623D01*
X21765279Y-39361064D01*
X21767438Y-39364340D01*
X21771070Y-39369850D01*
X21775973Y-39377944D01*
X21804590Y-39429501D01*
X21824381Y-39452554D01*
X21833880Y-39465153D01*
X21850596Y-39490517D01*
X21892297Y-39532219D01*
X21898728Y-39539159D01*
X21937132Y-39583893D01*
X21937134Y-39583895D01*
X21961157Y-39602490D01*
X21972990Y-39612912D01*
X25062189Y-42702110D01*
X25116165Y-42782892D01*
X25135119Y-42878180D01*
X25134423Y-42896785D01*
X25124816Y-43024999D01*
X25143525Y-43274670D01*
X25199239Y-43518768D01*
X25219608Y-43570666D01*
X25245362Y-43636288D01*
X25250636Y-43649724D01*
X25267804Y-43745350D01*
X25247072Y-43840267D01*
X25191595Y-43920025D01*
X25109818Y-43972482D01*
X25014192Y-43989650D01*
X24919275Y-43968918D01*
X24912437Y-43965781D01*
X24912014Y-43965615D01*
X24672769Y-43891817D01*
X24672765Y-43891816D01*
X24672764Y-43891816D01*
X24519160Y-43868664D01*
X24425188Y-43854500D01*
X24425187Y-43854500D01*
X24174813Y-43854500D01*
X24174812Y-43854500D01*
X24029907Y-43876341D01*
X23927236Y-43891816D01*
X23927235Y-43891816D01*
X23927230Y-43891817D01*
X23687985Y-43965615D01*
X23687980Y-43965617D01*
X23462409Y-44074247D01*
X23462404Y-44074249D01*
X23255542Y-44215285D01*
X23072007Y-44385581D01*
X23072002Y-44385586D01*
X22915896Y-44581337D01*
X22790713Y-44798160D01*
X22699239Y-45031231D01*
X22643525Y-45275329D01*
X22624816Y-45525000D01*
X22643525Y-45774670D01*
X22699239Y-46018768D01*
X22790713Y-46251839D01*
X22915896Y-46468662D01*
X22915898Y-46468665D01*
X22979545Y-46548475D01*
X23072002Y-46664413D01*
X23072007Y-46664418D01*
X23255542Y-46834714D01*
X23462404Y-46975750D01*
X23462406Y-46975751D01*
X23462408Y-46975752D01*
X23578731Y-47031770D01*
X23687980Y-47084382D01*
X23687984Y-47084383D01*
X23687987Y-47084385D01*
X23927236Y-47158184D01*
X24144871Y-47190987D01*
X24174812Y-47195500D01*
X24174813Y-47195500D01*
X24425188Y-47195500D01*
X24451898Y-47191473D01*
X24672764Y-47158184D01*
X24912013Y-47084385D01*
X24912019Y-47084381D01*
X24920695Y-47080978D01*
X24921207Y-47082284D01*
X25004872Y-47060698D01*
X25101074Y-47074273D01*
X25184757Y-47123630D01*
X25243183Y-47201255D01*
X25267455Y-47295329D01*
X25253880Y-47391531D01*
X25250636Y-47400274D01*
X25199240Y-47531228D01*
X25143525Y-47775329D01*
X25124816Y-48025000D01*
X25143525Y-48274670D01*
X25199239Y-48518768D01*
X25252795Y-48655227D01*
X25267922Y-48693770D01*
X25290713Y-48751839D01*
X25393360Y-48929628D01*
X25415898Y-48968665D01*
X25479509Y-49048430D01*
X25572002Y-49164413D01*
X25572007Y-49164418D01*
X25755542Y-49334714D01*
X25962404Y-49475750D01*
X25962406Y-49475751D01*
X25962408Y-49475752D01*
X26032927Y-49509712D01*
X26187980Y-49584382D01*
X26187984Y-49584383D01*
X26187987Y-49584385D01*
X26427236Y-49658184D01*
X26644871Y-49690987D01*
X26674812Y-49695500D01*
X26674813Y-49695500D01*
X26925188Y-49695500D01*
X26951898Y-49691473D01*
X27172764Y-49658184D01*
X27412013Y-49584385D01*
X27637592Y-49475752D01*
X27844460Y-49334712D01*
X28027997Y-49164414D01*
X28184102Y-48968665D01*
X28309289Y-48751835D01*
X28400760Y-48518769D01*
X28456474Y-48274673D01*
X28475184Y-48025000D01*
X28456474Y-47775327D01*
X28400760Y-47531231D01*
X28309289Y-47298165D01*
X28184102Y-47081335D01*
X28043278Y-46904748D01*
X27998687Y-46818432D01*
X27990521Y-46721621D01*
X28020024Y-46629054D01*
X28082706Y-46554824D01*
X28169023Y-46510232D01*
X28237955Y-46500500D01*
X29082999Y-46500500D01*
X29178287Y-46519454D01*
X29225819Y-46545531D01*
X29347258Y-46630563D01*
X29347262Y-46630565D01*
X29347266Y-46630568D01*
X29347270Y-46630569D01*
X29347272Y-46630571D01*
X29412645Y-46661055D01*
X29553504Y-46726739D01*
X29773308Y-46785635D01*
X29792984Y-46787356D01*
X29999994Y-46805468D01*
X30000000Y-46805468D01*
X30000006Y-46805468D01*
X30179668Y-46789749D01*
X30226692Y-46785635D01*
X30446496Y-46726739D01*
X30652734Y-46630568D01*
X30839139Y-46500047D01*
X31000047Y-46339139D01*
X31130568Y-46152734D01*
X31226739Y-45946496D01*
X31285635Y-45726692D01*
X31290375Y-45672512D01*
X31305468Y-45500005D01*
X31305468Y-45499994D01*
X31285636Y-45273320D01*
X31285635Y-45273308D01*
X31226739Y-45053504D01*
X31160072Y-44910537D01*
X31130571Y-44847272D01*
X31130563Y-44847258D01*
X31000050Y-44660865D01*
X31000049Y-44660864D01*
X31000047Y-44660861D01*
X30839139Y-44499953D01*
X30839135Y-44499950D01*
X30839134Y-44499949D01*
X30652741Y-44369436D01*
X30652727Y-44369428D01*
X30446499Y-44273262D01*
X30446496Y-44273261D01*
X30359684Y-44250000D01*
X30274299Y-44227121D01*
X30187165Y-44184151D01*
X30162676Y-44162676D01*
X29750000Y-43750000D01*
X31721128Y-43750000D01*
X31773732Y-43946323D01*
X31869866Y-44152483D01*
X32000335Y-44338812D01*
X32161187Y-44499664D01*
X32347516Y-44630133D01*
X32553676Y-44726267D01*
X32750000Y-44778871D01*
X32750000Y-44149000D01*
X32768954Y-44053712D01*
X32822930Y-43972930D01*
X32903712Y-43918954D01*
X32999000Y-43900000D01*
X33001000Y-43900000D01*
X33096288Y-43918954D01*
X33177070Y-43972930D01*
X33231046Y-44053712D01*
X33250000Y-44149000D01*
X33250000Y-44778871D01*
X33446323Y-44726267D01*
X33652483Y-44630133D01*
X33838812Y-44499664D01*
X33999664Y-44338812D01*
X34130133Y-44152483D01*
X34226267Y-43946323D01*
X34278872Y-43750000D01*
X35221128Y-43750000D01*
X35273732Y-43946323D01*
X35369866Y-44152483D01*
X35500335Y-44338812D01*
X35661187Y-44499664D01*
X35847516Y-44630133D01*
X36053676Y-44726267D01*
X36249999Y-44778871D01*
X36250000Y-44778871D01*
X36250000Y-44149000D01*
X36268954Y-44053712D01*
X36322930Y-43972930D01*
X36403712Y-43918954D01*
X36499000Y-43900000D01*
X36501000Y-43900000D01*
X36596288Y-43918954D01*
X36677070Y-43972930D01*
X36731046Y-44053712D01*
X36750000Y-44149000D01*
X36750000Y-44778871D01*
X36946323Y-44726267D01*
X37152483Y-44630133D01*
X37338812Y-44499664D01*
X37499664Y-44338812D01*
X37630133Y-44152483D01*
X37726267Y-43946323D01*
X37778872Y-43750000D01*
X37153986Y-43750000D01*
X37058698Y-43731046D01*
X36977916Y-43677070D01*
X36923940Y-43596288D01*
X36904986Y-43501000D01*
X36904986Y-43499000D01*
X36923940Y-43403712D01*
X36977916Y-43322930D01*
X37058698Y-43268954D01*
X37153986Y-43250000D01*
X37778872Y-43250000D01*
X37778871Y-43249999D01*
X37726267Y-43053676D01*
X37630133Y-42847516D01*
X37499664Y-42661187D01*
X37338812Y-42500335D01*
X37152483Y-42369866D01*
X36946318Y-42273730D01*
X36750000Y-42221126D01*
X36750000Y-42851000D01*
X36731046Y-42946288D01*
X36677070Y-43027070D01*
X36596288Y-43081046D01*
X36501000Y-43100000D01*
X36499000Y-43100000D01*
X36403712Y-43081046D01*
X36322930Y-43027070D01*
X36268954Y-42946288D01*
X36250000Y-42851000D01*
X36250000Y-42221127D01*
X36249999Y-42221126D01*
X36053681Y-42273730D01*
X35847516Y-42369866D01*
X35661187Y-42500335D01*
X35500335Y-42661187D01*
X35369866Y-42847516D01*
X35273732Y-43053676D01*
X35221128Y-43249999D01*
X35221128Y-43250000D01*
X35846014Y-43250000D01*
X35941302Y-43268954D01*
X36022084Y-43322930D01*
X36076060Y-43403712D01*
X36095014Y-43499000D01*
X36095014Y-43501000D01*
X36076060Y-43596288D01*
X36022084Y-43677070D01*
X35941302Y-43731046D01*
X35846014Y-43750000D01*
X35221128Y-43750000D01*
X34278872Y-43750000D01*
X33653986Y-43750000D01*
X33558698Y-43731046D01*
X33477916Y-43677070D01*
X33423940Y-43596288D01*
X33404986Y-43501000D01*
X33404986Y-43499000D01*
X33423940Y-43403712D01*
X33477916Y-43322930D01*
X33558698Y-43268954D01*
X33653986Y-43250000D01*
X34278872Y-43250000D01*
X34278871Y-43249999D01*
X34226267Y-43053676D01*
X34130133Y-42847516D01*
X33999664Y-42661187D01*
X33919546Y-42581068D01*
X33865570Y-42500286D01*
X33846617Y-42404998D01*
X33865572Y-42309710D01*
X33919548Y-42228928D01*
X33999664Y-42148812D01*
X34130133Y-41962483D01*
X34226267Y-41756323D01*
X34278872Y-41560000D01*
X33653986Y-41560000D01*
X33558698Y-41541046D01*
X33477916Y-41487070D01*
X33423940Y-41406288D01*
X33404986Y-41311000D01*
X33404986Y-41309000D01*
X33423940Y-41213712D01*
X33477916Y-41132930D01*
X33558698Y-41078954D01*
X33653986Y-41060000D01*
X34278872Y-41060000D01*
X34278871Y-41059999D01*
X34226267Y-40863676D01*
X34130133Y-40657516D01*
X33999664Y-40471187D01*
X33838812Y-40310335D01*
X33652483Y-40179866D01*
X33446318Y-40083730D01*
X33250000Y-40031126D01*
X33250000Y-40661000D01*
X33231046Y-40756288D01*
X33177070Y-40837070D01*
X33096288Y-40891046D01*
X33001000Y-40910000D01*
X32999000Y-40910000D01*
X32903712Y-40891046D01*
X32822930Y-40837070D01*
X32768954Y-40756288D01*
X32750000Y-40661000D01*
X32750000Y-40031127D01*
X32749999Y-40031126D01*
X32553681Y-40083730D01*
X32347516Y-40179866D01*
X32161187Y-40310335D01*
X32000335Y-40471187D01*
X31869866Y-40657516D01*
X31773732Y-40863676D01*
X31721128Y-41059999D01*
X31721128Y-41060000D01*
X32346014Y-41060000D01*
X32441302Y-41078954D01*
X32522084Y-41132930D01*
X32576060Y-41213712D01*
X32595014Y-41309000D01*
X32595014Y-41311000D01*
X32576060Y-41406288D01*
X32522084Y-41487070D01*
X32441302Y-41541046D01*
X32346014Y-41560000D01*
X31721128Y-41560000D01*
X31773732Y-41756323D01*
X31869866Y-41962483D01*
X32000335Y-42148812D01*
X32080453Y-42228930D01*
X32134429Y-42309712D01*
X32153383Y-42405000D01*
X32134429Y-42500288D01*
X32080453Y-42581070D01*
X32000335Y-42661187D01*
X31869866Y-42847516D01*
X31773732Y-43053676D01*
X31721128Y-43249999D01*
X31721128Y-43250000D01*
X32346014Y-43250000D01*
X32441302Y-43268954D01*
X32522084Y-43322930D01*
X32576060Y-43403712D01*
X32595014Y-43499000D01*
X32595014Y-43501000D01*
X32576060Y-43596288D01*
X32522084Y-43677070D01*
X32441302Y-43731046D01*
X32346014Y-43750000D01*
X31721128Y-43750000D01*
X29750000Y-43750000D01*
X28347663Y-42347663D01*
X28308093Y-42296093D01*
X28184103Y-42081337D01*
X28184102Y-42081335D01*
X28054323Y-41918598D01*
X28009732Y-41832283D01*
X28000000Y-41763350D01*
X28000000Y-38459602D01*
X28018954Y-38364314D01*
X28072930Y-38283532D01*
X28079637Y-38277072D01*
X28092470Y-38265165D01*
X28227997Y-38139414D01*
X28291466Y-38059826D01*
X28365693Y-37997147D01*
X28458260Y-37967643D01*
X28555071Y-37975808D01*
X28641388Y-38020400D01*
X28704070Y-38094630D01*
X28726655Y-38150631D01*
X28773730Y-38326317D01*
X28773730Y-38326319D01*
X28869866Y-38532483D01*
X29000335Y-38718812D01*
X29161187Y-38879664D01*
X29347516Y-39010133D01*
X29553676Y-39106267D01*
X29749999Y-39158871D01*
X29750000Y-39158871D01*
X29750000Y-38529000D01*
X29768954Y-38433712D01*
X29822930Y-38352930D01*
X29903712Y-38298954D01*
X29999000Y-38280000D01*
X30001000Y-38280000D01*
X30096288Y-38298954D01*
X30177070Y-38352930D01*
X30231046Y-38433712D01*
X30250000Y-38529000D01*
X30250000Y-39158871D01*
X30446323Y-39106267D01*
X30652483Y-39010133D01*
X30838812Y-38879664D01*
X30999664Y-38718812D01*
X31130133Y-38532483D01*
X31226267Y-38326323D01*
X31278872Y-38130000D01*
X30653986Y-38130000D01*
X30558698Y-38111046D01*
X30477916Y-38057070D01*
X30423940Y-37976288D01*
X30404986Y-37881000D01*
X30404986Y-37879000D01*
X30423940Y-37783712D01*
X30477916Y-37702930D01*
X30558698Y-37648954D01*
X30653986Y-37630000D01*
X31278872Y-37630000D01*
X31278871Y-37629999D01*
X31226267Y-37433676D01*
X31130133Y-37227516D01*
X30999664Y-37041187D01*
X30838812Y-36880335D01*
X30652483Y-36749866D01*
X30446318Y-36653730D01*
X30250000Y-36601126D01*
X30250000Y-37231000D01*
X30231046Y-37326288D01*
X30177070Y-37407070D01*
X30096288Y-37461046D01*
X30001000Y-37480000D01*
X29999000Y-37480000D01*
X29903712Y-37461046D01*
X29822930Y-37407070D01*
X29768954Y-37326288D01*
X29750000Y-37231000D01*
X29750000Y-36601127D01*
X29749999Y-36601126D01*
X29553681Y-36653730D01*
X29347516Y-36749866D01*
X29161187Y-36880335D01*
X29084534Y-36956988D01*
X29003752Y-37010964D01*
X28908464Y-37029917D01*
X28813175Y-37010962D01*
X28732394Y-36956986D01*
X28678418Y-36876204D01*
X28660161Y-36799524D01*
X28656474Y-36750330D01*
X28656474Y-36750327D01*
X28600760Y-36506231D01*
X28509289Y-36273165D01*
X28384102Y-36056335D01*
X28227997Y-35860586D01*
X28227985Y-35860574D01*
X28079637Y-35722926D01*
X28022678Y-35644220D01*
X28000174Y-35549707D01*
X28000000Y-35540397D01*
X28000000Y-35249500D01*
X28018954Y-35154212D01*
X28072930Y-35073430D01*
X28153712Y-35019454D01*
X28249000Y-35000500D01*
X32677284Y-35000500D01*
X32766360Y-35002757D01*
X32766360Y-35002756D01*
X32766363Y-35002757D01*
X32766365Y-35002756D01*
X32778953Y-35001798D01*
X32778984Y-35002213D01*
X32803883Y-35000000D01*
X36981939Y-35000000D01*
X37077227Y-35018954D01*
X37158009Y-35072930D01*
X42927072Y-40841993D01*
X42981046Y-40922772D01*
X43000000Y-41018060D01*
X43000000Y-44839161D01*
X42981046Y-44934449D01*
X42927070Y-45015231D01*
X42846288Y-45069207D01*
X42830559Y-45074919D01*
X42828413Y-45075840D01*
X42801855Y-45090581D01*
X42787609Y-45097346D01*
X42759385Y-45108621D01*
X42759371Y-45108628D01*
X42710139Y-45141074D01*
X42702051Y-45145974D01*
X42650498Y-45174591D01*
X42650494Y-45174594D01*
X42627435Y-45194388D01*
X42614848Y-45203879D01*
X42589479Y-45220600D01*
X42589477Y-45220602D01*
X42547776Y-45262301D01*
X42540840Y-45268729D01*
X42496103Y-45307135D01*
X42477503Y-45331163D01*
X42467079Y-45342998D01*
X41352259Y-46457819D01*
X41271477Y-46511795D01*
X41176189Y-46530749D01*
X41157601Y-46530054D01*
X41150200Y-46529500D01*
X41150187Y-46529500D01*
X40899813Y-46529500D01*
X40899812Y-46529500D01*
X40773921Y-46548475D01*
X40652236Y-46566816D01*
X40652235Y-46566816D01*
X40652230Y-46566817D01*
X40412985Y-46640615D01*
X40412980Y-46640617D01*
X40187409Y-46749247D01*
X40187404Y-46749249D01*
X39980542Y-46890285D01*
X39797007Y-47060581D01*
X39797002Y-47060586D01*
X39640896Y-47256337D01*
X39515713Y-47473160D01*
X39424239Y-47706231D01*
X39368525Y-47950329D01*
X39349816Y-48200000D01*
X39368525Y-48449670D01*
X39384297Y-48518768D01*
X39424240Y-48693769D01*
X39512503Y-48918662D01*
X39515713Y-48926839D01*
X39640896Y-49143662D01*
X39761784Y-49295251D01*
X39806376Y-49381568D01*
X39814542Y-49478379D01*
X39785039Y-49570946D01*
X39722357Y-49645176D01*
X39636040Y-49689768D01*
X39567108Y-49699500D01*
X36932716Y-49699500D01*
X36843640Y-49697242D01*
X36843636Y-49697243D01*
X36785584Y-49707646D01*
X36776218Y-49708959D01*
X36717567Y-49714924D01*
X36717561Y-49714926D01*
X36688566Y-49724022D01*
X36673254Y-49727780D01*
X36643353Y-49733140D01*
X36643347Y-49733142D01*
X36643348Y-49733142D01*
X36594838Y-49752518D01*
X36588586Y-49755015D01*
X36579676Y-49758187D01*
X36523412Y-49775840D01*
X36496845Y-49790585D01*
X36482598Y-49797350D01*
X36456738Y-49807681D01*
X36386074Y-49824498D01*
X36273313Y-49834363D01*
X36053503Y-49893261D01*
X36053500Y-49893262D01*
X35847272Y-49989428D01*
X35847258Y-49989436D01*
X35660865Y-50119949D01*
X35499949Y-50280865D01*
X35369436Y-50467258D01*
X35369428Y-50467272D01*
X35273262Y-50673500D01*
X35273261Y-50673503D01*
X35214365Y-50893305D01*
X35214363Y-50893320D01*
X35194532Y-51119994D01*
X35194532Y-51120005D01*
X35214363Y-51346679D01*
X35214365Y-51346694D01*
X35244058Y-51457510D01*
X35273261Y-51566496D01*
X35303106Y-51630498D01*
X35309993Y-51645267D01*
X35333086Y-51739638D01*
X35318307Y-51835662D01*
X35267906Y-51918721D01*
X35189556Y-51976170D01*
X35095185Y-51999263D01*
X35084323Y-51999500D01*
X34415677Y-51999500D01*
X34320389Y-51980546D01*
X34239607Y-51926570D01*
X34185631Y-51845788D01*
X34166677Y-51750500D01*
X34185631Y-51655212D01*
X34190007Y-51645267D01*
X34196894Y-51630498D01*
X34226739Y-51566496D01*
X34285635Y-51346692D01*
X34298282Y-51202134D01*
X34305468Y-51120005D01*
X34305468Y-51119994D01*
X34285636Y-50893320D01*
X34285635Y-50893308D01*
X34226739Y-50673504D01*
X34130568Y-50467266D01*
X34130565Y-50467262D01*
X34130563Y-50467258D01*
X34000050Y-50280865D01*
X34000049Y-50280864D01*
X34000047Y-50280861D01*
X33839139Y-50119953D01*
X33839135Y-50119950D01*
X33839134Y-50119949D01*
X33652741Y-49989436D01*
X33652727Y-49989428D01*
X33446499Y-49893262D01*
X33446496Y-49893261D01*
X33226694Y-49834365D01*
X33226679Y-49834363D01*
X33000006Y-49814532D01*
X32999994Y-49814532D01*
X32773320Y-49834363D01*
X32773305Y-49834365D01*
X32553503Y-49893261D01*
X32553500Y-49893262D01*
X32347272Y-49989428D01*
X32347258Y-49989436D01*
X32160865Y-50119949D01*
X31999949Y-50280865D01*
X31869436Y-50467258D01*
X31869428Y-50467272D01*
X31773262Y-50673500D01*
X31773261Y-50673503D01*
X31714364Y-50893311D01*
X31714363Y-50893316D01*
X31712924Y-50909770D01*
X31685737Y-51003043D01*
X31640942Y-51064136D01*
X29456532Y-53248547D01*
X29391945Y-53309942D01*
X29358259Y-53358340D01*
X29352563Y-53365894D01*
X29315305Y-53411587D01*
X29315299Y-53411597D01*
X29301229Y-53438531D01*
X29293059Y-53452015D01*
X29275708Y-53476946D01*
X29275702Y-53476956D01*
X29252450Y-53531138D01*
X29248393Y-53539682D01*
X29221091Y-53591949D01*
X29221091Y-53591950D01*
X29212735Y-53621151D01*
X29207446Y-53636009D01*
X29195458Y-53663943D01*
X29195458Y-53663944D01*
X29183589Y-53721701D01*
X29181334Y-53730889D01*
X29165113Y-53787581D01*
X29165111Y-53787591D01*
X29162803Y-53817887D01*
X29160614Y-53833498D01*
X29154500Y-53863258D01*
X29154500Y-53922222D01*
X29154140Y-53931679D01*
X29149662Y-53990473D01*
X29149663Y-53990474D01*
X29153502Y-54020616D01*
X29154500Y-54036360D01*
X29154500Y-55961864D01*
X29152242Y-56050939D01*
X29152243Y-56050943D01*
X29162646Y-56108994D01*
X29163959Y-56118360D01*
X29169925Y-56177014D01*
X29179022Y-56206012D01*
X29182779Y-56221319D01*
X29185337Y-56235587D01*
X29188141Y-56251231D01*
X29188142Y-56251235D01*
X29210012Y-56305984D01*
X29213183Y-56314890D01*
X29226273Y-56356610D01*
X29230841Y-56371167D01*
X29230845Y-56371177D01*
X29245584Y-56397732D01*
X29252351Y-56411979D01*
X29263620Y-56440191D01*
X29263626Y-56440203D01*
X29296070Y-56489430D01*
X29300973Y-56497524D01*
X29329590Y-56549081D01*
X29349381Y-56572134D01*
X29358880Y-56584733D01*
X29375596Y-56610097D01*
X29417297Y-56651799D01*
X29423728Y-56658739D01*
X29462132Y-56703473D01*
X29462134Y-56703475D01*
X29486157Y-56722070D01*
X29497990Y-56732492D01*
X31163986Y-58398487D01*
X31225360Y-58463052D01*
X31273755Y-58496736D01*
X31281304Y-58502427D01*
X31312805Y-58528113D01*
X31327007Y-58539693D01*
X31327010Y-58539696D01*
X31327011Y-58539696D01*
X31327013Y-58539698D01*
X31353941Y-58553764D01*
X31367425Y-58561932D01*
X31392371Y-58579295D01*
X31392373Y-58579296D01*
X31392375Y-58579297D01*
X31392374Y-58579297D01*
X31446562Y-58602551D01*
X31455111Y-58606611D01*
X31507359Y-58633903D01*
X31507360Y-58633903D01*
X31507371Y-58633909D01*
X31536581Y-58642266D01*
X31551428Y-58647551D01*
X31579362Y-58659540D01*
X31637151Y-58671414D01*
X31646309Y-58673663D01*
X31679740Y-58683229D01*
X31702994Y-58689884D01*
X31702996Y-58689884D01*
X31703002Y-58689886D01*
X31733297Y-58692193D01*
X31748902Y-58694380D01*
X31778679Y-58700500D01*
X31837645Y-58700500D01*
X31847102Y-58700860D01*
X31863580Y-58702114D01*
X31905896Y-58705337D01*
X31936043Y-58701497D01*
X31951780Y-58700500D01*
X33066311Y-58700500D01*
X33161599Y-58719454D01*
X33242381Y-58773430D01*
X33260987Y-58794251D01*
X33297002Y-58839413D01*
X33297007Y-58839418D01*
X33480542Y-59009714D01*
X33687404Y-59150750D01*
X33687406Y-59150751D01*
X33687408Y-59150752D01*
X33750873Y-59181315D01*
X33912980Y-59259382D01*
X33912984Y-59259383D01*
X33912987Y-59259385D01*
X34152236Y-59333184D01*
X34369871Y-59365987D01*
X34399812Y-59370500D01*
X34399813Y-59370500D01*
X34650188Y-59370500D01*
X34676898Y-59366473D01*
X34897764Y-59333184D01*
X35137013Y-59259385D01*
X35362592Y-59150752D01*
X35569460Y-59009712D01*
X35752997Y-58839414D01*
X35909102Y-58643665D01*
X36034289Y-58426835D01*
X36125760Y-58193769D01*
X36181474Y-57949673D01*
X36200184Y-57700000D01*
X36181474Y-57450327D01*
X36125760Y-57206231D01*
X36125759Y-57206230D01*
X36125759Y-57206227D01*
X36085836Y-57104505D01*
X36074363Y-57075274D01*
X36057195Y-56979650D01*
X36077927Y-56884733D01*
X36133404Y-56804975D01*
X36215180Y-56752518D01*
X36310806Y-56735349D01*
X36405723Y-56756081D01*
X36412569Y-56759221D01*
X36412984Y-56759383D01*
X36412987Y-56759385D01*
X36652236Y-56833184D01*
X36869871Y-56865987D01*
X36899812Y-56870500D01*
X36899813Y-56870500D01*
X37150188Y-56870500D01*
X37176898Y-56866473D01*
X37397764Y-56833184D01*
X37637013Y-56759385D01*
X37862592Y-56650752D01*
X38069460Y-56509712D01*
X38252997Y-56339414D01*
X38409102Y-56143665D01*
X38534289Y-55926835D01*
X38625760Y-55693769D01*
X38681474Y-55449673D01*
X38700184Y-55200000D01*
X38681474Y-54950327D01*
X38625760Y-54706231D01*
X38534289Y-54473165D01*
X38477035Y-54373998D01*
X38445806Y-54282002D01*
X38452160Y-54185055D01*
X38495131Y-54097919D01*
X38568175Y-54033860D01*
X38660174Y-54002630D01*
X38692676Y-54000500D01*
X46670171Y-54000500D01*
X46765459Y-54019454D01*
X46812991Y-54045530D01*
X46872361Y-54087102D01*
X47070670Y-54179575D01*
X47282023Y-54236207D01*
X47500000Y-54255277D01*
X47717977Y-54236207D01*
X47929330Y-54179575D01*
X48127639Y-54087102D01*
X48306877Y-53961598D01*
X48402181Y-53866293D01*
X48482959Y-53812319D01*
X48578247Y-53793365D01*
X48673535Y-53812319D01*
X48754317Y-53866295D01*
X48754318Y-53866295D01*
X51036510Y-56148487D01*
X51097885Y-56213053D01*
X51146292Y-56246746D01*
X51153824Y-56252425D01*
X51199537Y-56289698D01*
X51226468Y-56303765D01*
X51239957Y-56311938D01*
X51264896Y-56329296D01*
X51319086Y-56352550D01*
X51327615Y-56356600D01*
X51379895Y-56383909D01*
X51409119Y-56392270D01*
X51423948Y-56397550D01*
X51451886Y-56409540D01*
X51509664Y-56421413D01*
X51518813Y-56423659D01*
X51575526Y-56439887D01*
X51605831Y-56442194D01*
X51621431Y-56444381D01*
X51651203Y-56450500D01*
X51710168Y-56450500D01*
X51719625Y-56450860D01*
X51778418Y-56455337D01*
X51778418Y-56455336D01*
X51778421Y-56455337D01*
X51808568Y-56451497D01*
X51824305Y-56450500D01*
X53485383Y-56450500D01*
X53580671Y-56469454D01*
X53661453Y-56523430D01*
X54731510Y-57593487D01*
X54792885Y-57658053D01*
X54841292Y-57691746D01*
X54848824Y-57697425D01*
X54894537Y-57734698D01*
X54921468Y-57748765D01*
X54934957Y-57756938D01*
X54959896Y-57774296D01*
X55014086Y-57797550D01*
X55022615Y-57801600D01*
X55074895Y-57828909D01*
X55104119Y-57837270D01*
X55118948Y-57842550D01*
X55146886Y-57854540D01*
X55204664Y-57866413D01*
X55213813Y-57868659D01*
X55270526Y-57884887D01*
X55300831Y-57887194D01*
X55316431Y-57889381D01*
X55346203Y-57895500D01*
X55405168Y-57895500D01*
X55414625Y-57895860D01*
X55473418Y-57900337D01*
X55473418Y-57900336D01*
X55473421Y-57900337D01*
X55503568Y-57896497D01*
X55519305Y-57895500D01*
X58777439Y-57895500D01*
X58872727Y-57914454D01*
X58953508Y-57968430D01*
X59881025Y-58895946D01*
X59935002Y-58976728D01*
X59953105Y-59051452D01*
X59963864Y-59181297D01*
X59963868Y-59181315D01*
X60020841Y-59406293D01*
X60020842Y-59406297D01*
X60114074Y-59618847D01*
X60118972Y-59627895D01*
X60117001Y-59628961D01*
X60147358Y-59704430D01*
X60146361Y-59801580D01*
X60108263Y-59890953D01*
X60038863Y-59958944D01*
X59948727Y-59995201D01*
X59902657Y-59999500D01*
X22503770Y-59999500D01*
X22496250Y-59999273D01*
X22401100Y-59993517D01*
X22197229Y-59980154D01*
X22182919Y-59978380D01*
X22050790Y-59954167D01*
X21887603Y-59921707D01*
X21874851Y-59918462D01*
X21808776Y-59897872D01*
X21738842Y-59876079D01*
X21587795Y-59824805D01*
X21576712Y-59820442D01*
X21443517Y-59760495D01*
X21385162Y-59731718D01*
X21302564Y-59690985D01*
X21293218Y-59685868D01*
X21215287Y-59638758D01*
X21168796Y-59610653D01*
X21164068Y-59607646D01*
X21129829Y-59584768D01*
X21036383Y-59522328D01*
X21028769Y-59516814D01*
X20913794Y-59426738D01*
X20908485Y-59422336D01*
X20890191Y-59406293D01*
X20793473Y-59321473D01*
X20787526Y-59315903D01*
X20684095Y-59212472D01*
X20678525Y-59206525D01*
X20577654Y-59091503D01*
X20573260Y-59086204D01*
X20483184Y-58971229D01*
X20477670Y-58963615D01*
X20432454Y-58895946D01*
X20392338Y-58835909D01*
X20389360Y-58831226D01*
X20324735Y-58724324D01*
X20314130Y-58706780D01*
X20309013Y-58697433D01*
X20296179Y-58671408D01*
X20239515Y-58556507D01*
X20179551Y-58423273D01*
X20175193Y-58412203D01*
X20123925Y-58261175D01*
X20081535Y-58125139D01*
X20078295Y-58112411D01*
X20045831Y-57949203D01*
X20021615Y-57817058D01*
X20019845Y-57802780D01*
X20006479Y-57598851D01*
X20005732Y-57586508D01*
X20000727Y-57503749D01*
X20000500Y-57496233D01*
X20000500Y-55000000D01*
X21419593Y-55000000D01*
X21439206Y-55374251D01*
X21497833Y-55744408D01*
X21497834Y-55744416D01*
X21594827Y-56106397D01*
X21729136Y-56456287D01*
X21729137Y-56456289D01*
X21899275Y-56790201D01*
X22103386Y-57104505D01*
X22103389Y-57104509D01*
X22103390Y-57104510D01*
X22339239Y-57395760D01*
X22604240Y-57660761D01*
X22894119Y-57895500D01*
X22895494Y-57896613D01*
X23006083Y-57968430D01*
X23206066Y-58098301D01*
X23209798Y-58100724D01*
X23543710Y-58270862D01*
X23543712Y-58270863D01*
X23543716Y-58270864D01*
X23543717Y-58270865D01*
X23893593Y-58405169D01*
X23893596Y-58405170D01*
X23893602Y-58405172D01*
X24255583Y-58502165D01*
X24255585Y-58502165D01*
X24255592Y-58502167D01*
X24625746Y-58560793D01*
X25000000Y-58580407D01*
X25374254Y-58560793D01*
X25744408Y-58502167D01*
X25744414Y-58502165D01*
X25744416Y-58502165D01*
X26106397Y-58405172D01*
X26106399Y-58405170D01*
X26106407Y-58405169D01*
X26456283Y-58270865D01*
X26790204Y-58100723D01*
X27104510Y-57896610D01*
X27395760Y-57660761D01*
X27660761Y-57395760D01*
X27896610Y-57104510D01*
X28100723Y-56790204D01*
X28270865Y-56456283D01*
X28405169Y-56106407D01*
X28406527Y-56101341D01*
X28502165Y-55744416D01*
X28502165Y-55744414D01*
X28502167Y-55744408D01*
X28560793Y-55374254D01*
X28580407Y-55000000D01*
X28560793Y-54625746D01*
X28502167Y-54255592D01*
X28502083Y-54255277D01*
X28405172Y-53893602D01*
X28394690Y-53866296D01*
X28270865Y-53543717D01*
X28270864Y-53543716D01*
X28270863Y-53543712D01*
X28270862Y-53543710D01*
X28100724Y-53209799D01*
X28087177Y-53188939D01*
X27896610Y-52895490D01*
X27660761Y-52604240D01*
X27395760Y-52339239D01*
X27104510Y-52103390D01*
X27104509Y-52103389D01*
X27104505Y-52103386D01*
X26790201Y-51899275D01*
X26456289Y-51729137D01*
X26456287Y-51729136D01*
X26106397Y-51594827D01*
X25744416Y-51497834D01*
X25744408Y-51497833D01*
X25374251Y-51439206D01*
X25000000Y-51419593D01*
X24625748Y-51439206D01*
X24255591Y-51497833D01*
X24255583Y-51497834D01*
X23893602Y-51594827D01*
X23543712Y-51729136D01*
X23543710Y-51729137D01*
X23209799Y-51899275D01*
X22895490Y-52103389D01*
X22604245Y-52339234D01*
X22339234Y-52604245D01*
X22103389Y-52895490D01*
X21899275Y-53209799D01*
X21729137Y-53543710D01*
X21729136Y-53543712D01*
X21594827Y-53893602D01*
X21497834Y-54255583D01*
X21497833Y-54255591D01*
X21439206Y-54625748D01*
X21419593Y-55000000D01*
X20000500Y-55000000D01*
X20000500Y-22503763D01*
X20000727Y-22496246D01*
X20001256Y-22487494D01*
X20006489Y-22400972D01*
X20019845Y-22197214D01*
X20021614Y-22182947D01*
X20045843Y-22050732D01*
X20078297Y-21887579D01*
X20081530Y-21874873D01*
X20123922Y-21738834D01*
X20175199Y-21587778D01*
X20179545Y-21576740D01*
X20239516Y-21443491D01*
X20309030Y-21302531D01*
X20314120Y-21293235D01*
X20389384Y-21168732D01*
X20392312Y-21164130D01*
X20477679Y-21036369D01*
X20483184Y-21028769D01*
X20573285Y-20913763D01*
X20577624Y-20908530D01*
X20678556Y-20793439D01*
X20684080Y-20787541D01*
X20787541Y-20684080D01*
X20793439Y-20678556D01*
X20908530Y-20577624D01*
X20913763Y-20573285D01*
X21028776Y-20483178D01*
X21036369Y-20477679D01*
X21164130Y-20392312D01*
X21168732Y-20389384D01*
X21293235Y-20314120D01*
X21302531Y-20309030D01*
X21443491Y-20239516D01*
X21576740Y-20179545D01*
X21587778Y-20175199D01*
X21738814Y-20123928D01*
X21874873Y-20081530D01*
X21887579Y-20078297D01*
X22050732Y-20045843D01*
X22182947Y-20021614D01*
X22197214Y-20019845D01*
X22401027Y-20006486D01*
X22489955Y-20001107D01*
X22496248Y-20000727D01*
X22503766Y-20000500D01*
X107496233Y-20000500D01*
X107503751Y-20000727D01*
G37*
%TD.AperFunction*%
%TA.AperFunction,Conductor*%
G36*
X74265459Y-41019454D02*
G01*
X74312991Y-41045530D01*
X74372361Y-41087102D01*
X74570670Y-41179575D01*
X74782023Y-41236207D01*
X75000000Y-41255277D01*
X75217977Y-41236207D01*
X75429330Y-41179575D01*
X75470268Y-41160485D01*
X75564636Y-41137392D01*
X75660660Y-41152170D01*
X75743720Y-41202571D01*
X75801169Y-41280920D01*
X75824263Y-41375291D01*
X75824500Y-41386155D01*
X75824500Y-45758759D01*
X75805546Y-45854047D01*
X75751570Y-45934829D01*
X70864830Y-50821570D01*
X70784048Y-50875546D01*
X70688760Y-50894500D01*
X68697716Y-50894500D01*
X68608641Y-50892242D01*
X68608637Y-50892243D01*
X68550587Y-50902646D01*
X68541220Y-50903959D01*
X68482565Y-50909925D01*
X68482554Y-50909927D01*
X68453558Y-50919023D01*
X68438249Y-50922781D01*
X68408347Y-50928141D01*
X68353574Y-50950019D01*
X68344665Y-50953190D01*
X68288411Y-50970841D01*
X68261855Y-50985581D01*
X68247609Y-50992346D01*
X68219385Y-51003621D01*
X68219371Y-51003628D01*
X68170139Y-51036074D01*
X68162051Y-51040974D01*
X68110498Y-51069591D01*
X68110494Y-51069594D01*
X68087435Y-51089388D01*
X68074848Y-51098879D01*
X68049479Y-51115600D01*
X68049477Y-51115602D01*
X68007776Y-51157301D01*
X68000840Y-51163729D01*
X67956103Y-51202135D01*
X67937503Y-51226163D01*
X67927079Y-51237998D01*
X67134274Y-52030804D01*
X67053492Y-52084780D01*
X66958204Y-52103734D01*
X66936507Y-52102787D01*
X66785000Y-52089532D01*
X66784997Y-52089532D01*
X66784995Y-52089532D01*
X66784994Y-52089532D01*
X66558320Y-52109363D01*
X66558305Y-52109365D01*
X66338503Y-52168261D01*
X66338500Y-52168262D01*
X66132272Y-52264428D01*
X66132258Y-52264436D01*
X65945865Y-52394949D01*
X65784948Y-52555866D01*
X65718967Y-52650097D01*
X65648786Y-52717281D01*
X65558236Y-52752493D01*
X65461105Y-52750373D01*
X65372178Y-52711244D01*
X65311030Y-52650096D01*
X65245047Y-52555861D01*
X65084139Y-52394953D01*
X65084135Y-52394950D01*
X65084134Y-52394949D01*
X64897741Y-52264436D01*
X64897727Y-52264428D01*
X64691499Y-52168262D01*
X64691496Y-52168261D01*
X64471694Y-52109365D01*
X64471679Y-52109363D01*
X64245006Y-52089532D01*
X64244994Y-52089532D01*
X64018320Y-52109363D01*
X64018305Y-52109365D01*
X63798503Y-52168261D01*
X63798500Y-52168262D01*
X63592272Y-52264428D01*
X63592258Y-52264436D01*
X63405865Y-52394949D01*
X63244949Y-52555865D01*
X63178969Y-52650096D01*
X63108788Y-52717280D01*
X63018239Y-52752493D01*
X62921107Y-52750374D01*
X62832180Y-52711245D01*
X62771029Y-52650093D01*
X62750529Y-52620815D01*
X62711401Y-52531888D01*
X62705500Y-52477998D01*
X62705500Y-52217675D01*
X62707756Y-52128637D01*
X62703230Y-52103389D01*
X62697353Y-52070599D01*
X62696039Y-52061229D01*
X62690074Y-52002562D01*
X62680977Y-51973571D01*
X62677216Y-51958245D01*
X62671859Y-51928352D01*
X62671858Y-51928351D01*
X62671858Y-51928347D01*
X62649981Y-51873581D01*
X62646811Y-51864674D01*
X62643194Y-51853145D01*
X62629159Y-51808412D01*
X62614411Y-51781841D01*
X62607646Y-51767595D01*
X62596378Y-51739386D01*
X62596377Y-51739383D01*
X62563916Y-51690129D01*
X62559026Y-51682056D01*
X62530412Y-51630502D01*
X62530408Y-51630497D01*
X62526547Y-51626000D01*
X62521923Y-51620613D01*
X62510617Y-51607443D01*
X62501123Y-51594852D01*
X62484402Y-51569481D01*
X62481416Y-51566495D01*
X62442695Y-51527773D01*
X62436275Y-51520846D01*
X62397866Y-51476105D01*
X62373838Y-51457505D01*
X62362005Y-51447083D01*
X60911451Y-49996531D01*
X60850062Y-49931950D01*
X60850061Y-49931948D01*
X60830496Y-49918331D01*
X60801650Y-49898253D01*
X60794111Y-49892569D01*
X60748407Y-49855302D01*
X60721470Y-49841231D01*
X60707981Y-49833058D01*
X60683054Y-49815708D01*
X60683050Y-49815706D01*
X60683049Y-49815705D01*
X60683046Y-49815703D01*
X60683041Y-49815701D01*
X60628855Y-49792447D01*
X60620309Y-49788389D01*
X60568047Y-49761090D01*
X60538840Y-49752733D01*
X60523982Y-49747443D01*
X60496054Y-49735458D01*
X60438290Y-49723587D01*
X60429103Y-49721332D01*
X60372421Y-49705113D01*
X60342116Y-49702805D01*
X60326498Y-49700614D01*
X60296742Y-49694500D01*
X60296741Y-49694500D01*
X60237777Y-49694500D01*
X60228320Y-49694140D01*
X60169526Y-49689662D01*
X60169525Y-49689663D01*
X60169524Y-49689663D01*
X60139376Y-49693502D01*
X60123640Y-49694500D01*
X54212560Y-49694500D01*
X54117272Y-49675546D01*
X54036490Y-49621570D01*
X53973430Y-49558510D01*
X53919454Y-49477728D01*
X53900500Y-49382440D01*
X53900500Y-47718668D01*
X53919454Y-47623380D01*
X53973426Y-47542603D01*
X54198468Y-47317561D01*
X54263053Y-47256169D01*
X54296749Y-47207754D01*
X54302428Y-47200222D01*
X54339698Y-47154517D01*
X54353763Y-47127588D01*
X54361941Y-47114092D01*
X54366809Y-47107096D01*
X54379295Y-47089159D01*
X54402554Y-47034957D01*
X54406597Y-47026442D01*
X54433909Y-46974159D01*
X54442265Y-46944952D01*
X54447554Y-46930094D01*
X54459540Y-46902168D01*
X54471413Y-46844383D01*
X54473665Y-46835213D01*
X54473809Y-46834712D01*
X54489886Y-46778528D01*
X54492193Y-46748231D01*
X54494384Y-46732611D01*
X54495591Y-46726737D01*
X54500500Y-46702851D01*
X54500500Y-46643884D01*
X54500860Y-46634426D01*
X54502384Y-46614413D01*
X54505337Y-46575634D01*
X54501497Y-46545487D01*
X54500500Y-46529748D01*
X54500500Y-45167560D01*
X54519454Y-45072272D01*
X54573428Y-44991492D01*
X54908131Y-44656788D01*
X54988912Y-44602814D01*
X55084200Y-44583860D01*
X55179488Y-44602814D01*
X55260270Y-44656790D01*
X55314246Y-44737572D01*
X55333200Y-44832860D01*
X55331773Y-44859477D01*
X55324500Y-44927121D01*
X55324500Y-47422865D01*
X55324501Y-47422869D01*
X55330908Y-47482480D01*
X55330909Y-47482484D01*
X55375520Y-47602092D01*
X55381204Y-47617331D01*
X55467454Y-47732546D01*
X55582669Y-47818796D01*
X55717517Y-47869091D01*
X55777127Y-47875500D01*
X57472872Y-47875499D01*
X57532483Y-47869091D01*
X57667331Y-47818796D01*
X57782546Y-47732546D01*
X57868796Y-47617331D01*
X57869043Y-47616666D01*
X57870037Y-47615058D01*
X57877330Y-47601702D01*
X57878045Y-47602092D01*
X57920094Y-47534011D01*
X57998894Y-47477181D01*
X58093443Y-47454831D01*
X58189348Y-47470366D01*
X58272008Y-47521419D01*
X58278388Y-47527574D01*
X58325861Y-47575047D01*
X58325864Y-47575049D01*
X58325865Y-47575050D01*
X58512258Y-47705563D01*
X58512262Y-47705565D01*
X58512266Y-47705568D01*
X58512270Y-47705569D01*
X58512272Y-47705571D01*
X58554639Y-47725327D01*
X58718504Y-47801739D01*
X58938308Y-47860635D01*
X58957984Y-47862356D01*
X59164994Y-47880468D01*
X59165000Y-47880468D01*
X59165006Y-47880468D01*
X59344668Y-47864749D01*
X59391692Y-47860635D01*
X59611496Y-47801739D01*
X59817734Y-47705568D01*
X60004139Y-47575047D01*
X60165047Y-47414139D01*
X60231031Y-47319902D01*
X60301211Y-47252719D01*
X60391760Y-47217506D01*
X60488892Y-47219625D01*
X60577819Y-47258753D01*
X60638968Y-47319902D01*
X60704953Y-47414139D01*
X60865861Y-47575047D01*
X60865864Y-47575049D01*
X60865865Y-47575050D01*
X61052258Y-47705563D01*
X61052262Y-47705565D01*
X61052266Y-47705568D01*
X61052270Y-47705569D01*
X61052272Y-47705571D01*
X61094639Y-47725327D01*
X61258504Y-47801739D01*
X61478308Y-47860635D01*
X61497984Y-47862356D01*
X61704994Y-47880468D01*
X61705000Y-47880468D01*
X61705006Y-47880468D01*
X61884668Y-47864749D01*
X61931692Y-47860635D01*
X62151496Y-47801739D01*
X62357734Y-47705568D01*
X62544139Y-47575047D01*
X62705047Y-47414139D01*
X62771031Y-47319902D01*
X62841211Y-47252719D01*
X62931760Y-47217506D01*
X63028892Y-47219625D01*
X63117819Y-47258753D01*
X63178968Y-47319902D01*
X63244953Y-47414139D01*
X63405861Y-47575047D01*
X63405864Y-47575049D01*
X63405865Y-47575050D01*
X63592258Y-47705563D01*
X63592262Y-47705565D01*
X63592266Y-47705568D01*
X63592270Y-47705569D01*
X63592272Y-47705571D01*
X63634639Y-47725327D01*
X63798504Y-47801739D01*
X64018308Y-47860635D01*
X64037984Y-47862356D01*
X64244994Y-47880468D01*
X64245000Y-47880468D01*
X64245006Y-47880468D01*
X64424668Y-47864749D01*
X64471692Y-47860635D01*
X64691496Y-47801739D01*
X64897734Y-47705568D01*
X65084139Y-47575047D01*
X65245047Y-47414139D01*
X65311031Y-47319902D01*
X65381211Y-47252719D01*
X65471760Y-47217506D01*
X65568892Y-47219625D01*
X65657819Y-47258753D01*
X65718968Y-47319902D01*
X65784953Y-47414139D01*
X65945861Y-47575047D01*
X65945864Y-47575049D01*
X65945865Y-47575050D01*
X66132258Y-47705563D01*
X66132262Y-47705565D01*
X66132266Y-47705568D01*
X66132270Y-47705569D01*
X66132272Y-47705571D01*
X66174639Y-47725327D01*
X66338504Y-47801739D01*
X66558308Y-47860635D01*
X66577984Y-47862356D01*
X66784994Y-47880468D01*
X66785000Y-47880468D01*
X66785006Y-47880468D01*
X66964668Y-47864749D01*
X67011692Y-47860635D01*
X67231496Y-47801739D01*
X67437734Y-47705568D01*
X67624139Y-47575047D01*
X67785047Y-47414139D01*
X67851337Y-47319465D01*
X67921515Y-47252284D01*
X68012064Y-47217070D01*
X68109196Y-47219189D01*
X68198124Y-47258317D01*
X68259274Y-47319466D01*
X68325337Y-47413814D01*
X68486187Y-47574664D01*
X68672516Y-47705133D01*
X68878676Y-47801267D01*
X69074999Y-47853871D01*
X69075000Y-47853871D01*
X69075000Y-46824000D01*
X69093954Y-46728712D01*
X69147930Y-46647930D01*
X69228712Y-46593954D01*
X69324000Y-46575000D01*
X69326000Y-46575000D01*
X69421288Y-46593954D01*
X69502070Y-46647930D01*
X69556046Y-46728712D01*
X69575000Y-46824000D01*
X69575000Y-47853871D01*
X69771323Y-47801267D01*
X69977483Y-47705133D01*
X70163812Y-47574664D01*
X70324664Y-47413812D01*
X70455133Y-47227483D01*
X70551267Y-47021323D01*
X70610140Y-46801603D01*
X70610140Y-46801602D01*
X70625000Y-46631763D01*
X70625000Y-46425001D01*
X70624999Y-46425000D01*
X69978986Y-46425000D01*
X69883698Y-46406046D01*
X69802916Y-46352070D01*
X69748940Y-46271288D01*
X69729986Y-46176000D01*
X69729986Y-46174000D01*
X69748940Y-46078712D01*
X69802916Y-45997930D01*
X69883698Y-45943954D01*
X69978986Y-45925000D01*
X70624999Y-45925000D01*
X70625000Y-45924999D01*
X70625000Y-45718237D01*
X70610140Y-45548397D01*
X70610140Y-45548396D01*
X70551267Y-45328676D01*
X70455133Y-45122516D01*
X70324664Y-44936187D01*
X70163812Y-44775335D01*
X70075035Y-44713173D01*
X70007851Y-44642992D01*
X69972638Y-44552443D01*
X69974757Y-44455311D01*
X70013886Y-44366384D01*
X70041777Y-44333142D01*
X73301490Y-41073430D01*
X73382273Y-41019454D01*
X73477561Y-41000500D01*
X74170171Y-41000500D01*
X74265459Y-41019454D01*
G37*
%TD.AperFunction*%
%TA.AperFunction,Conductor*%
G36*
X59508067Y-22705759D02*
G01*
X59565693Y-22739290D01*
X59567284Y-22740528D01*
X59630847Y-22814004D01*
X59661454Y-22906212D01*
X59654444Y-23003114D01*
X59610885Y-23089957D01*
X59590440Y-23113112D01*
X59164312Y-23539240D01*
X59164312Y-23539241D01*
X59229089Y-23584599D01*
X59394118Y-23661552D01*
X59472468Y-23719000D01*
X59522870Y-23802059D01*
X59537650Y-23898083D01*
X59514558Y-23992454D01*
X59457110Y-24070804D01*
X59394120Y-24112893D01*
X59228841Y-24189964D01*
X59228831Y-24189970D01*
X59047889Y-24316666D01*
X59047883Y-24316671D01*
X58891665Y-24472889D01*
X58816469Y-24580283D01*
X58746288Y-24647467D01*
X58655739Y-24682680D01*
X58558607Y-24680561D01*
X58469680Y-24641432D01*
X58408531Y-24580283D01*
X58333334Y-24472889D01*
X58333328Y-24472883D01*
X58333326Y-24472880D01*
X58177120Y-24316674D01*
X57996162Y-24189966D01*
X57831471Y-24113169D01*
X57753123Y-24055723D01*
X57702721Y-23972664D01*
X57687941Y-23876640D01*
X57711033Y-23782269D01*
X57768481Y-23703919D01*
X57831470Y-23661830D01*
X57996162Y-23585034D01*
X58177120Y-23458326D01*
X58333326Y-23302120D01*
X58408836Y-23194279D01*
X58479017Y-23127096D01*
X58569566Y-23091883D01*
X58666698Y-23094002D01*
X58755625Y-23133131D01*
X58807934Y-23185439D01*
X58810757Y-23185686D01*
X59236709Y-22759735D01*
X59317491Y-22705759D01*
X59412779Y-22686805D01*
X59508067Y-22705759D01*
G37*
%TD.AperFunction*%
%TA.AperFunction,Conductor*%
G36*
X72508067Y-22705759D02*
G01*
X72565693Y-22739290D01*
X72567284Y-22740528D01*
X72630847Y-22814004D01*
X72661454Y-22906212D01*
X72654444Y-23003114D01*
X72610885Y-23089957D01*
X72590440Y-23113112D01*
X72164312Y-23539240D01*
X72164312Y-23539241D01*
X72229089Y-23584599D01*
X72394118Y-23661552D01*
X72472468Y-23719000D01*
X72522870Y-23802059D01*
X72537650Y-23898083D01*
X72514558Y-23992454D01*
X72457110Y-24070804D01*
X72394120Y-24112893D01*
X72228841Y-24189964D01*
X72228831Y-24189970D01*
X72047889Y-24316666D01*
X72047883Y-24316671D01*
X71891665Y-24472889D01*
X71816469Y-24580283D01*
X71746288Y-24647467D01*
X71655739Y-24682680D01*
X71558607Y-24680561D01*
X71469680Y-24641432D01*
X71408531Y-24580283D01*
X71333334Y-24472889D01*
X71333328Y-24472883D01*
X71333326Y-24472880D01*
X71177120Y-24316674D01*
X70996162Y-24189966D01*
X70831471Y-24113169D01*
X70753123Y-24055723D01*
X70702721Y-23972664D01*
X70687941Y-23876640D01*
X70711033Y-23782269D01*
X70768481Y-23703919D01*
X70831470Y-23661830D01*
X70996162Y-23585034D01*
X71177120Y-23458326D01*
X71333326Y-23302120D01*
X71408836Y-23194279D01*
X71479017Y-23127096D01*
X71569566Y-23091883D01*
X71666698Y-23094002D01*
X71755625Y-23133131D01*
X71807934Y-23185439D01*
X71810757Y-23185686D01*
X72236709Y-22759735D01*
X72317491Y-22705759D01*
X72412779Y-22686805D01*
X72508067Y-22705759D01*
G37*
%TD.AperFunction*%
%TD*%
%TA.AperFunction,Conductor*%
%TO.N,VDD*%
G36*
X77232077Y-55519685D02*
G01*
X77252718Y-55536318D01*
X77614867Y-55898467D01*
X77676261Y-55963053D01*
X77676264Y-55963055D01*
X77676267Y-55963058D01*
X77710373Y-55986795D01*
X77726623Y-55998106D01*
X77730364Y-56000926D01*
X77777913Y-56039698D01*
X77808365Y-56055604D01*
X77815078Y-56059672D01*
X77843271Y-56079295D01*
X77899649Y-56103489D01*
X77903898Y-56105507D01*
X77958271Y-56133909D01*
X77985809Y-56141788D01*
X77991294Y-56143358D01*
X77998688Y-56145990D01*
X78030262Y-56159540D01*
X78030265Y-56159540D01*
X78030266Y-56159541D01*
X78090342Y-56171887D01*
X78094920Y-56173010D01*
X78108821Y-56176987D01*
X78153902Y-56189887D01*
X78188159Y-56192495D01*
X78195934Y-56193586D01*
X78229575Y-56200500D01*
X78229579Y-56200500D01*
X78290918Y-56200500D01*
X78295624Y-56200678D01*
X78330382Y-56203325D01*
X78356795Y-56205337D01*
X78356795Y-56205336D01*
X78356796Y-56205337D01*
X78390879Y-56200996D01*
X78398709Y-56200500D01*
X91376000Y-56200500D01*
X91443039Y-56220185D01*
X91488794Y-56272989D01*
X91500000Y-56324500D01*
X91500000Y-59875500D01*
X91480315Y-59942539D01*
X91427511Y-59988294D01*
X91376000Y-59999500D01*
X70624000Y-59999500D01*
X70556961Y-59979815D01*
X70511206Y-59927011D01*
X70500000Y-59875500D01*
X70500000Y-58359505D01*
X70519685Y-58292466D01*
X70536314Y-58271829D01*
X72271825Y-56536319D01*
X72333148Y-56502834D01*
X72359506Y-56500000D01*
X73000000Y-56500000D01*
X73963681Y-55536318D01*
X74025004Y-55502834D01*
X74051362Y-55500000D01*
X77165038Y-55500000D01*
X77232077Y-55519685D01*
G37*
%TD.AperFunction*%
%TD*%
M02*
