%TF.GenerationSoftware,KiCad,Pcbnew,7.0.7*%
%TF.CreationDate,2023-08-23T01:14:16+09:00*%
%TF.ProjectId,maincircuit,6d61696e-6369-4726-9375-69742e6b6963,rev?*%
%TF.SameCoordinates,Original*%
%TF.FileFunction,Copper,L1,Top*%
%TF.FilePolarity,Positive*%
%FSLAX46Y46*%
G04 Gerber Fmt 4.6, Leading zero omitted, Abs format (unit mm)*
G04 Created by KiCad (PCBNEW 7.0.7) date 2023-08-23 01:14:16*
%MOMM*%
%LPD*%
G01*
G04 APERTURE LIST*
G04 Aperture macros list*
%AMHorizOval*
0 Thick line with rounded ends*
0 $1 width*
0 $2 $3 position (X,Y) of the first rounded end (center of the circle)*
0 $4 $5 position (X,Y) of the second rounded end (center of the circle)*
0 Add line between two ends*
20,1,$1,$2,$3,$4,$5,0*
0 Add two circle primitives to create the rounded ends*
1,1,$1,$2,$3*
1,1,$1,$4,$5*%
%AMRotRect*
0 Rectangle, with rotation*
0 The origin of the aperture is its center*
0 $1 length*
0 $2 width*
0 $3 Rotation angle, in degrees counterclockwise*
0 Add horizontal line*
21,1,$1,$2,0,0,$3*%
G04 Aperture macros list end*
%TA.AperFunction,ComponentPad*%
%ADD10C,1.600000*%
%TD*%
%TA.AperFunction,ComponentPad*%
%ADD11O,1.600000X1.600000*%
%TD*%
%TA.AperFunction,ComponentPad*%
%ADD12HorizOval,1.600000X0.000000X0.000000X0.000000X0.000000X0*%
%TD*%
%TA.AperFunction,ComponentPad*%
%ADD13O,1.700000X1.700000*%
%TD*%
%TA.AperFunction,ComponentPad*%
%ADD14R,1.700000X1.700000*%
%TD*%
%TA.AperFunction,ComponentPad*%
%ADD15O,2.400000X1.600000*%
%TD*%
%TA.AperFunction,ComponentPad*%
%ADD16R,2.400000X1.600000*%
%TD*%
%TA.AperFunction,ComponentPad*%
%ADD17HorizOval,1.600000X0.000000X0.000000X0.000000X0.000000X0*%
%TD*%
%TA.AperFunction,ComponentPad*%
%ADD18HorizOval,1.600000X0.000000X0.000000X0.000000X0.000000X0*%
%TD*%
%TA.AperFunction,ComponentPad*%
%ADD19HorizOval,1.600000X0.000000X0.000000X0.000000X0.000000X0*%
%TD*%
%TA.AperFunction,ComponentPad*%
%ADD20HorizOval,1.600000X0.000000X0.000000X0.000000X0.000000X0*%
%TD*%
%TA.AperFunction,ComponentPad*%
%ADD21O,1.600000X2.400000*%
%TD*%
%TA.AperFunction,ComponentPad*%
%ADD22R,1.600000X2.400000*%
%TD*%
%TA.AperFunction,ComponentPad*%
%ADD23C,2.000000*%
%TD*%
%TA.AperFunction,ComponentPad*%
%ADD24C,1.800000*%
%TD*%
%TA.AperFunction,ComponentPad*%
%ADD25R,1.800000X1.800000*%
%TD*%
%TA.AperFunction,ComponentPad*%
%ADD26C,1.300000*%
%TD*%
%TA.AperFunction,ComponentPad*%
%ADD27R,1.300000X1.300000*%
%TD*%
%TA.AperFunction,ComponentPad*%
%ADD28RotRect,1.800000X1.800000X225.000000*%
%TD*%
%TA.AperFunction,ComponentPad*%
%ADD29RotRect,1.800000X1.800000X157.500000*%
%TD*%
%TA.AperFunction,ComponentPad*%
%ADD30R,1.600000X1.600000*%
%TD*%
%TA.AperFunction,ComponentPad*%
%ADD31O,2.610000X1.740000*%
%TD*%
%TA.AperFunction,ComponentPad*%
%ADD32R,2.610000X1.740000*%
%TD*%
%TA.AperFunction,ComponentPad*%
%ADD33RotRect,1.800000X1.800000X315.000000*%
%TD*%
%TA.AperFunction,ComponentPad*%
%ADD34RotRect,1.800000X1.800000X45.000000*%
%TD*%
%TA.AperFunction,ComponentPad*%
%ADD35RotRect,1.800000X1.800000X67.500000*%
%TD*%
%TA.AperFunction,ComponentPad*%
%ADD36RotRect,1.800000X1.800000X337.500000*%
%TD*%
%TA.AperFunction,ComponentPad*%
%ADD37RotRect,1.800000X1.800000X202.500000*%
%TD*%
%TA.AperFunction,ComponentPad*%
%ADD38RotRect,1.800000X1.800000X247.500000*%
%TD*%
%TA.AperFunction,ComponentPad*%
%ADD39RotRect,1.800000X1.800000X135.000000*%
%TD*%
%TA.AperFunction,ComponentPad*%
%ADD40RotRect,1.800000X1.800000X292.500000*%
%TD*%
%TA.AperFunction,ComponentPad*%
%ADD41RotRect,1.800000X1.800000X112.500000*%
%TD*%
%TA.AperFunction,ComponentPad*%
%ADD42O,2.200000X3.500000*%
%TD*%
%TA.AperFunction,ComponentPad*%
%ADD43R,1.500000X2.500000*%
%TD*%
%TA.AperFunction,ComponentPad*%
%ADD44O,1.500000X2.500000*%
%TD*%
%TA.AperFunction,ComponentPad*%
%ADD45R,2.000000X2.000000*%
%TD*%
%TA.AperFunction,ComponentPad*%
%ADD46RotRect,1.800000X1.800000X22.500000*%
%TD*%
%TA.AperFunction,ViaPad*%
%ADD47C,1.500000*%
%TD*%
%TA.AperFunction,Conductor*%
%ADD48C,0.500000*%
%TD*%
%TA.AperFunction,Conductor*%
%ADD49C,0.750000*%
%TD*%
%TA.AperFunction,Conductor*%
%ADD50C,1.500000*%
%TD*%
G04 APERTURE END LIST*
D10*
%TO.P,R6,1*%
%TO.N,/Motordrive/L_PWM*%
X61000000Y-55090000D03*
D11*
%TO.P,R6,2*%
%TO.N,GND*%
X61000000Y-65250000D03*
%TD*%
D10*
%TO.P,R20,1*%
%TO.N,Net-(LED10-K)*%
X64000000Y-51590000D03*
D11*
%TO.P,R20,2*%
%TO.N,/16x2LEDs/LED10*%
X64000000Y-59210000D03*
%TD*%
D10*
%TO.P,R10,1*%
%TO.N,/Motordrive/R_SEL1*%
X46400000Y-79900000D03*
D11*
%TO.P,R10,2*%
%TO.N,GND*%
X46400000Y-87520000D03*
%TD*%
D10*
%TO.P,R8,1*%
%TO.N,/Motordrive/R_SEL2*%
X38400000Y-79880000D03*
D11*
%TO.P,R8,2*%
%TO.N,GND*%
X38400000Y-87500000D03*
%TD*%
D10*
%TO.P,R7,1*%
%TO.N,/Motordrive/L_SEL1*%
X46800000Y-45500000D03*
D12*
%TO.P,R7,2*%
%TO.N,GND*%
X53984205Y-38315795D03*
%TD*%
%TO.P,R5,2*%
%TO.N,GND*%
X58588154Y-38511846D03*
D10*
%TO.P,R5,1*%
%TO.N,/Motordrive/L_SEL2*%
X53200000Y-43900000D03*
%TD*%
D13*
%TO.P,BT1,2,-*%
%TO.N,GND*%
X23500000Y-56400000D03*
D14*
%TO.P,BT1,1,+*%
%TO.N,Net-(BT1-+)*%
X26040000Y-56400000D03*
%TD*%
D15*
%TO.P,U1,14,VCC*%
%TO.N,VDD*%
X50180000Y-62625000D03*
%TO.P,U1,13*%
%TO.N,/Motordrive/R_SEL2*%
X50180000Y-60085000D03*
%TO.P,U1,12*%
%TO.N,/Motordrive/R_PWM*%
X50180000Y-57545000D03*
%TO.P,U1,11*%
%TO.N,Net-(Q2-G_4)*%
X50180000Y-55005000D03*
%TO.P,U1,10*%
%TO.N,/Motordrive/R_PWM*%
X50180000Y-52465000D03*
%TO.P,U1,9*%
%TO.N,/Motordrive/R_SEL1*%
X50180000Y-49925000D03*
%TO.P,U1,8*%
%TO.N,Net-(Q2-G_3)*%
X50180000Y-47385000D03*
%TO.P,U1,7,GND*%
%TO.N,GND*%
X57800000Y-47385000D03*
%TO.P,U1,6*%
%TO.N,Net-(Q1-G_4)*%
X57800000Y-49925000D03*
%TO.P,U1,5*%
%TO.N,/Motordrive/L_SEL2*%
X57800000Y-52465000D03*
%TO.P,U1,4*%
%TO.N,/Motordrive/L_PWM*%
X57800000Y-55005000D03*
%TO.P,U1,3*%
%TO.N,Net-(Q1-G_3)*%
X57800000Y-57545000D03*
%TO.P,U1,2*%
%TO.N,/Motordrive/L_PWM*%
X57800000Y-60085000D03*
D16*
%TO.P,U1,1*%
%TO.N,/Motordrive/L_SEL1*%
X57800000Y-62625000D03*
%TD*%
D10*
%TO.P,R26,1*%
%TO.N,Net-(LED16-K)*%
X71388154Y-86788154D03*
D17*
%TO.P,R26,2*%
%TO.N,/16x2LEDs/LED16*%
X66000000Y-81400000D03*
%TD*%
D11*
%TO.P,R9,2*%
%TO.N,GND*%
X70995000Y-46900000D03*
D10*
%TO.P,R9,1*%
%TO.N,/Motordrive/R_PWM*%
X68455000Y-46900000D03*
%TD*%
%TO.P,R25,1*%
%TO.N,Net-(LED15-K)*%
X66888154Y-86788154D03*
D17*
%TO.P,R25,2*%
%TO.N,/16x2LEDs/LED15*%
X61500000Y-81400000D03*
%TD*%
D10*
%TO.P,R24,1*%
%TO.N,Net-(LED14-K)*%
X63000000Y-70280000D03*
D11*
%TO.P,R24,2*%
%TO.N,/16x2LEDs/LED14*%
X63000000Y-77900000D03*
%TD*%
%TO.P,R23,2*%
%TO.N,/16x2LEDs/LED13*%
X60000000Y-77900000D03*
D10*
%TO.P,R23,1*%
%TO.N,Net-(LED13-K)*%
X60000000Y-70280000D03*
%TD*%
D18*
%TO.P,R22,2*%
%TO.N,/16x2LEDs/LED12*%
X75011976Y-73979981D03*
D10*
%TO.P,R22,1*%
%TO.N,Net-(LED12-K)*%
X77928024Y-66940019D03*
%TD*%
D18*
%TO.P,R21,2*%
%TO.N,/16x2LEDs/LED11*%
X74171976Y-68119981D03*
D10*
%TO.P,R21,1*%
%TO.N,Net-(LED11-K)*%
X77088024Y-61080019D03*
%TD*%
D19*
%TO.P,R19,2*%
%TO.N,/16x2LEDs/LED9*%
X67305923Y-55594077D03*
D10*
%TO.P,R19,1*%
%TO.N,Net-(LED9-K)*%
X72694077Y-50205923D03*
%TD*%
%TO.P,R18,1*%
%TO.N,Net-(LED8-K)*%
X102190000Y-57400000D03*
D11*
%TO.P,R18,2*%
%TO.N,/16x2LEDs/LED8*%
X109810000Y-57400000D03*
%TD*%
D10*
%TO.P,R17,1*%
%TO.N,Net-(LED7-K)*%
X105690000Y-61900000D03*
D11*
%TO.P,R17,2*%
%TO.N,/16x2LEDs/LED7*%
X113310000Y-61900000D03*
%TD*%
D10*
%TO.P,R16,1*%
%TO.N,Net-(LED6-K)*%
X105690000Y-64900000D03*
D11*
%TO.P,R16,2*%
%TO.N,/16x2LEDs/LED6*%
X113310000Y-64900000D03*
%TD*%
D20*
%TO.P,R15,2*%
%TO.N,/16x2LEDs/LED5*%
X93041976Y-61380019D03*
D10*
%TO.P,R15,1*%
%TO.N,Net-(LED5-K)*%
X95958024Y-68419981D03*
%TD*%
%TO.P,R14,1*%
%TO.N,Net-(LED4-K)*%
X94996048Y-74019962D03*
D20*
%TO.P,R14,2*%
%TO.N,/16x2LEDs/LED4*%
X92080000Y-66980000D03*
%TD*%
D10*
%TO.P,R13,1*%
%TO.N,Net-(LED3-K)*%
X101005923Y-83994077D03*
D12*
%TO.P,R13,2*%
%TO.N,/16x2LEDs/LED3*%
X106394077Y-78605923D03*
%TD*%
D10*
%TO.P,R12,1*%
%TO.N,Net-(LED2-K)*%
X101811846Y-87488154D03*
D12*
%TO.P,R12,2*%
%TO.N,/16x2LEDs/LED2*%
X107200000Y-82100000D03*
%TD*%
D11*
%TO.P,R11,2*%
%TO.N,/16x2LEDs/LED1*%
X122805000Y-78900000D03*
D10*
%TO.P,R11,1*%
%TO.N,Net-(LED1-K)*%
X115185000Y-78900000D03*
%TD*%
D11*
%TO.P,R2,2*%
%TO.N,GND*%
X23100000Y-37520000D03*
D10*
%TO.P,R2,1*%
%TO.N,Net-(PWR1-K)*%
X23100000Y-42600000D03*
%TD*%
D21*
%TO.P,IC1,28,RB7/ICSPDAT*%
%TO.N,PICKit3_ICSPDAT*%
X96525000Y-43820000D03*
%TO.P,IC1,27,RB6/ICSPCLK*%
%TO.N,PICKit3_ICSPCLK*%
X93985000Y-43820000D03*
%TO.P,IC1,26,RB5*%
%TO.N,/16x2LEDs/Select_Green*%
X91445000Y-43820000D03*
%TO.P,IC1,25,RB4*%
%TO.N,/16x2LEDs/Select_Red*%
X88905000Y-43820000D03*
%TO.P,IC1,24,RB3*%
%TO.N,/16x2LEDs/Flash*%
X86365000Y-43820000D03*
%TO.P,IC1,23,RB2*%
%TO.N,/16x2LEDs/Clock*%
X83825000Y-43820000D03*
%TO.P,IC1,22,RB1*%
%TO.N,/16x2LEDs/Data*%
X81285000Y-43820000D03*
%TO.P,IC1,21,RB0*%
%TO.N,I^{2}C_SDA*%
X78745000Y-43820000D03*
%TO.P,IC1,20,VDD*%
%TO.N,VDD*%
X76205000Y-43820000D03*
%TO.P,IC1,19,VSS_2*%
%TO.N,GND*%
X73665000Y-43820000D03*
%TO.P,IC1,18,RC7*%
%TO.N,I^{2}C_SCL*%
X71125000Y-43820000D03*
%TO.P,IC1,17,RC6*%
%TO.N,/Motordrive/R_PWM*%
X68585000Y-43820000D03*
%TO.P,IC1,16,RC5*%
%TO.N,/Motordrive/R_SEL1*%
X66045000Y-43820000D03*
%TO.P,IC1,15,RC4*%
%TO.N,/Motordrive/R_SEL2*%
X63505000Y-43820000D03*
%TO.P,IC1,14,RC3*%
%TO.N,/Motordrive/L_SEL2*%
X63505000Y-36200000D03*
%TO.P,IC1,13,RC2*%
%TO.N,/Motordrive/L_SEL1*%
X66045000Y-36200000D03*
%TO.P,IC1,12,RC1*%
%TO.N,/Motordrive/L_PWM*%
X68585000Y-36200000D03*
%TO.P,IC1,11,RC0*%
%TO.N,unconnected-(IC1-RC0-Pad11)*%
X71125000Y-36200000D03*
%TO.P,IC1,10,RA6*%
%TO.N,unconnected-(IC1-RA6-Pad10)*%
X73665000Y-36200000D03*
%TO.P,IC1,9,RA7*%
%TO.N,Net-(IC1-RA7)*%
X76205000Y-36200000D03*
%TO.P,IC1,8,VSS_1*%
%TO.N,GND*%
X78745000Y-36200000D03*
%TO.P,IC1,7,RA5*%
%TO.N,Net-(IC1-RA5)*%
X81285000Y-36200000D03*
%TO.P,IC1,6,RA4*%
%TO.N,Net-(IC1-RA4)*%
X83825000Y-36200000D03*
%TO.P,IC1,5,RA3*%
%TO.N,Sensor_SEL2*%
X86365000Y-36200000D03*
%TO.P,IC1,4,RA2*%
%TO.N,Sensor_SEL1*%
X88905000Y-36200000D03*
%TO.P,IC1,3,RA1*%
%TO.N,Sensor_AN*%
X91445000Y-36200000D03*
%TO.P,IC1,2,RA0*%
%TO.N,Sensor_DI*%
X93985000Y-36200000D03*
D22*
%TO.P,IC1,1,VPP/~{MCLR}/RE3*%
%TO.N,PICKit3_MCLR*%
X96525000Y-36200000D03*
%TD*%
D10*
%TO.P,R3,1*%
%TO.N,VDD*%
X37000000Y-47400000D03*
D11*
%TO.P,R3,2*%
%TO.N,Net-(Q1-S_3)*%
X37000000Y-27080000D03*
%TD*%
%TO.P,R4,2*%
%TO.N,Net-(Q2-S_3)*%
X42400000Y-63100000D03*
D10*
%TO.P,R4,1*%
%TO.N,VDD*%
X42400000Y-50400000D03*
%TD*%
D22*
%TO.P,U2,1,QB*%
%TO.N,/16x2LEDs/LED2*%
X125875000Y-68140500D03*
D21*
%TO.P,U2,2,QC*%
%TO.N,/16x2LEDs/LED3*%
X123335000Y-68140500D03*
%TO.P,U2,3,QD*%
%TO.N,/16x2LEDs/LED4*%
X120795000Y-68140500D03*
%TO.P,U2,4,QE*%
%TO.N,/16x2LEDs/LED5*%
X118255000Y-68140500D03*
%TO.P,U2,5,QF*%
%TO.N,/16x2LEDs/LED6*%
X115715000Y-68140500D03*
%TO.P,U2,6,QG*%
%TO.N,/16x2LEDs/LED7*%
X113175000Y-68140500D03*
%TO.P,U2,7,QH*%
%TO.N,/16x2LEDs/LED8*%
X110635000Y-68140500D03*
%TO.P,U2,8,GND*%
%TO.N,GND*%
X108095000Y-68140500D03*
%TO.P,U2,9,QH'*%
%TO.N,Net-(U2-QH')*%
X108095000Y-75760500D03*
%TO.P,U2,10,~{SRCLR}*%
%TO.N,VDD*%
X110635000Y-75760500D03*
%TO.P,U2,11,SRCLK*%
%TO.N,/16x2LEDs/Clock*%
X113175000Y-75760500D03*
%TO.P,U2,12,RCLK*%
%TO.N,/16x2LEDs/Flash*%
X115715000Y-75760500D03*
%TO.P,U2,13,~{OE}*%
%TO.N,GND*%
X118255000Y-75760500D03*
%TO.P,U2,14,SER*%
%TO.N,/16x2LEDs/Data*%
X120795000Y-75760500D03*
%TO.P,U2,15,QA*%
%TO.N,/16x2LEDs/LED1*%
X123335000Y-75760500D03*
%TO.P,U2,16,VCC*%
%TO.N,VDD*%
X125875000Y-75760500D03*
%TD*%
D23*
%TO.P,SW2,1,1*%
%TO.N,GND*%
X105000000Y-23900000D03*
X111500000Y-23900000D03*
%TO.P,SW2,2,2*%
%TO.N,PICKit3_MCLR*%
X105000000Y-28400000D03*
X111500000Y-28400000D03*
%TD*%
D24*
%TO.P,LED1,3,A2*%
%TO.N,/16x2LEDs/Green_Src*%
X85000000Y-88080000D03*
%TO.P,LED1,2,K*%
%TO.N,Net-(LED1-K)*%
X85000000Y-85540000D03*
D25*
%TO.P,LED1,1,A1*%
%TO.N,/16x2LEDs/Red_Src*%
X85000000Y-83000000D03*
%TD*%
D24*
%TO.P,J2,6,Pin_6*%
%TO.N,GND*%
X96500000Y-31500000D03*
%TO.P,J2,5,Pin_5*%
%TO.N,Sensor_DI*%
X94000000Y-31500000D03*
%TO.P,J2,4,Pin_4*%
%TO.N,Sensor_AN*%
X91500000Y-31500000D03*
%TO.P,J2,3,Pin_3*%
%TO.N,Sensor_SEL1*%
X89000000Y-31500000D03*
%TO.P,J2,2,Pin_2*%
%TO.N,Sensor_SEL2*%
X86500000Y-31500000D03*
D25*
%TO.P,J2,1,Pin_1*%
%TO.N,VDD*%
X84000000Y-31500000D03*
%TD*%
D23*
%TO.P,SW4,2,2*%
%TO.N,Net-(IC1-RA5)*%
X68250000Y-28400000D03*
X61750000Y-28400000D03*
%TO.P,SW4,1,1*%
%TO.N,GND*%
X68250000Y-23900000D03*
X61750000Y-23900000D03*
%TD*%
D11*
%TO.P,R1,2*%
%TO.N,PICKit3_MCLR*%
X100000000Y-27405000D03*
D10*
%TO.P,R1,1*%
%TO.N,VDD*%
X100000000Y-29945000D03*
%TD*%
D26*
%TO.P,Tr2,3,C*%
%TO.N,VDD*%
X127270000Y-53760000D03*
%TO.P,Tr2,2,E*%
%TO.N,/16x2LEDs/Green_Src*%
X126000000Y-52490000D03*
D27*
%TO.P,Tr2,1,B*%
%TO.N,/16x2LEDs/Select_Green*%
X124730000Y-53760000D03*
%TD*%
D24*
%TO.P,LED15,3,A2*%
%TO.N,/16x2LEDs/Green_Src*%
X71407898Y-82592102D03*
%TO.P,LED15,2,K*%
%TO.N,Net-(LED15-K)*%
X73203949Y-80796051D03*
D28*
%TO.P,LED15,1,A1*%
%TO.N,/16x2LEDs/Red_Src*%
X75000000Y-79000000D03*
%TD*%
D24*
%TO.P,LED12,3,A2*%
%TO.N,/16x2LEDs/Green_Src*%
X67306692Y-61555968D03*
%TO.P,LED12,2,K*%
%TO.N,Net-(LED12-K)*%
X69653346Y-62527984D03*
D29*
%TO.P,LED12,1,A1*%
%TO.N,/16x2LEDs/Red_Src*%
X72000000Y-63500000D03*
%TD*%
D30*
%TO.P,C5,1*%
%TO.N,Net-(Q2-S_3)*%
X37750000Y-61955113D03*
D10*
%TO.P,C5,2*%
%TO.N,GND*%
X37750000Y-59955113D03*
%TD*%
D31*
%TO.P,Q1,10,S_3*%
%TO.N,Net-(Q1-S_3)*%
X31250000Y-24090000D03*
%TO.P,Q1,9,D_3*%
%TO.N,Net-(J5-Pin_1)*%
X31250000Y-26630000D03*
%TO.P,Q1,8,G_4*%
%TO.N,Net-(Q1-G_4)*%
X31250000Y-29170000D03*
%TO.P,Q1,7,D_2*%
%TO.N,Net-(J5-Pin_2)*%
X31250000Y-31710000D03*
%TO.P,Q1,6,G_3*%
%TO.N,Net-(Q1-G_3)*%
X31250000Y-34250000D03*
%TO.P,Q1,5,S_2*%
%TO.N,Net-(J5-Pin_1)*%
X31250000Y-36790000D03*
%TO.P,Q1,4,G_2*%
%TO.N,/Motordrive/L_SEL1*%
X31250000Y-39330000D03*
%TO.P,Q1,3,D_1*%
%TO.N,Net-(J5-Pin_2)*%
X31250000Y-41870000D03*
%TO.P,Q1,2,G_1*%
%TO.N,/Motordrive/L_SEL2*%
X31250000Y-44410000D03*
D32*
%TO.P,Q1,1,S_1*%
%TO.N,GND*%
X31250000Y-46950000D03*
%TD*%
D24*
%TO.P,LED3,3,A2*%
%TO.N,/16x2LEDs/Green_Src*%
X98592102Y-82592102D03*
%TO.P,LED3,2,K*%
%TO.N,Net-(LED3-K)*%
X96796051Y-80796051D03*
D33*
%TO.P,LED3,1,A1*%
%TO.N,/16x2LEDs/Red_Src*%
X95000000Y-79000000D03*
%TD*%
D14*
%TO.P,J1,1,Pin_1*%
%TO.N,PICKit3_MCLR*%
X125350000Y-37400000D03*
D13*
%TO.P,J1,2,Pin_2*%
%TO.N,VDD*%
X122810000Y-37400000D03*
%TO.P,J1,3,Pin_3*%
%TO.N,GND*%
X120270000Y-37400000D03*
%TO.P,J1,4,Pin_4*%
%TO.N,PICKit3_ICSPDAT*%
X117730000Y-37400000D03*
%TO.P,J1,5,Pin_5*%
%TO.N,PICKit3_ICSPCLK*%
X115190000Y-37400000D03*
%TO.P,J1,6,Pin_6*%
%TO.N,unconnected-(J1-Pin_6-Pad6)*%
X112650000Y-37400000D03*
%TD*%
D10*
%TO.P,C3,2*%
%TO.N,GND*%
X47150000Y-65900000D03*
%TO.P,C3,1*%
%TO.N,VDD*%
X49650000Y-65900000D03*
%TD*%
D24*
%TO.P,LED7,3,A2*%
%TO.N,/16x2LEDs/Green_Src*%
X98592102Y-55407898D03*
%TO.P,LED7,2,K*%
%TO.N,Net-(LED7-K)*%
X96796051Y-57203949D03*
D34*
%TO.P,LED7,1,A1*%
%TO.N,/16x2LEDs/Red_Src*%
X95000000Y-59000000D03*
%TD*%
D15*
%TO.P,U3,16,VCC*%
%TO.N,VDD*%
X88795000Y-61225000D03*
%TO.P,U3,15,QA*%
%TO.N,/16x2LEDs/LED9*%
X88795000Y-63765000D03*
%TO.P,U3,14,SER*%
%TO.N,Net-(U2-QH')*%
X88795000Y-66305000D03*
%TO.P,U3,13,~{OE}*%
%TO.N,GND*%
X88795000Y-68845000D03*
%TO.P,U3,12,RCLK*%
%TO.N,/16x2LEDs/Flash*%
X88795000Y-71385000D03*
%TO.P,U3,11,SRCLK*%
%TO.N,/16x2LEDs/Clock*%
X88795000Y-73925000D03*
%TO.P,U3,10,~{SRCLR}*%
%TO.N,VDD*%
X88795000Y-76465000D03*
%TO.P,U3,9,QH'*%
%TO.N,unconnected-(U3-QH'-Pad9)*%
X88795000Y-79005000D03*
%TO.P,U3,8,GND*%
%TO.N,GND*%
X81175000Y-79005000D03*
%TO.P,U3,7,QH*%
%TO.N,/16x2LEDs/LED16*%
X81175000Y-76465000D03*
%TO.P,U3,6,QG*%
%TO.N,/16x2LEDs/LED15*%
X81175000Y-73925000D03*
%TO.P,U3,5,QF*%
%TO.N,/16x2LEDs/LED14*%
X81175000Y-71385000D03*
%TO.P,U3,4,QE*%
%TO.N,/16x2LEDs/LED13*%
X81175000Y-68845000D03*
%TO.P,U3,3,QD*%
%TO.N,/16x2LEDs/LED12*%
X81175000Y-66305000D03*
%TO.P,U3,2,QC*%
%TO.N,/16x2LEDs/LED11*%
X81175000Y-63765000D03*
D16*
%TO.P,U3,1,QB*%
%TO.N,/16x2LEDs/LED10*%
X81175000Y-61225000D03*
%TD*%
D24*
%TO.P,LED8,3,A2*%
%TO.N,/16x2LEDs/Green_Src*%
X92444032Y-51306692D03*
%TO.P,LED8,2,K*%
%TO.N,Net-(LED8-K)*%
X91472016Y-53653346D03*
D35*
%TO.P,LED8,1,A1*%
%TO.N,/16x2LEDs/Red_Src*%
X90500000Y-56000000D03*
%TD*%
D23*
%TO.P,SW3,2,2*%
%TO.N,Net-(IC1-RA4)*%
X79450000Y-28400000D03*
X72950000Y-28400000D03*
%TO.P,SW3,1,1*%
%TO.N,GND*%
X79450000Y-23900000D03*
X72950000Y-23900000D03*
%TD*%
D24*
%TO.P,LED4,3,A2*%
%TO.N,/16x2LEDs/Green_Src*%
X102693308Y-76444032D03*
%TO.P,LED4,2,K*%
%TO.N,Net-(LED4-K)*%
X100346654Y-75472016D03*
D36*
%TO.P,LED4,1,A1*%
%TO.N,/16x2LEDs/Red_Src*%
X98000000Y-74500000D03*
%TD*%
D24*
%TO.P,LED14,3,A2*%
%TO.N,/16x2LEDs/Green_Src*%
X67306692Y-76444032D03*
%TO.P,LED14,2,K*%
%TO.N,Net-(LED14-K)*%
X69653346Y-75472016D03*
D37*
%TO.P,LED14,1,A1*%
%TO.N,/16x2LEDs/Red_Src*%
X72000000Y-74500000D03*
%TD*%
D24*
%TO.P,LED9,3,A2*%
%TO.N,/16x2LEDs/Green_Src*%
X85000000Y-49920000D03*
%TO.P,LED9,2,K*%
%TO.N,Net-(LED9-K)*%
X85000000Y-52460000D03*
D25*
%TO.P,LED9,1,A1*%
%TO.N,/16x2LEDs/Red_Src*%
X85000000Y-55000000D03*
%TD*%
D10*
%TO.P,C6,1*%
%TO.N,VDD*%
X126250000Y-64900000D03*
%TO.P,C6,2*%
%TO.N,GND*%
X123750000Y-64900000D03*
%TD*%
D24*
%TO.P,LED16,3,A2*%
%TO.N,/16x2LEDs/Green_Src*%
X77555968Y-86693308D03*
%TO.P,LED16,2,K*%
%TO.N,Net-(LED16-K)*%
X78527984Y-84346654D03*
D38*
%TO.P,LED16,1,A1*%
%TO.N,/16x2LEDs/Red_Src*%
X79500000Y-82000000D03*
%TD*%
D24*
%TO.P,LED11,3,A2*%
%TO.N,/16x2LEDs/Green_Src*%
X71407898Y-55407898D03*
%TO.P,LED11,2,K*%
%TO.N,Net-(LED11-K)*%
X73203949Y-57203949D03*
D39*
%TO.P,LED11,1,A1*%
%TO.N,/16x2LEDs/Red_Src*%
X75000000Y-59000000D03*
%TD*%
D24*
%TO.P,LED2,3,A2*%
%TO.N,/16x2LEDs/Green_Src*%
X92444032Y-86693308D03*
%TO.P,LED2,2,K*%
%TO.N,Net-(LED2-K)*%
X91472016Y-84346654D03*
D40*
%TO.P,LED2,1,A1*%
%TO.N,/16x2LEDs/Red_Src*%
X90500000Y-82000000D03*
%TD*%
D10*
%TO.P,C2,2*%
%TO.N,GND*%
X36200000Y-55800000D03*
D30*
%TO.P,C2,1*%
%TO.N,VDD*%
X36200000Y-52300000D03*
%TD*%
D24*
%TO.P,LED10,3,A2*%
%TO.N,/16x2LEDs/Green_Src*%
X77555968Y-51306692D03*
%TO.P,LED10,2,K*%
%TO.N,Net-(LED10-K)*%
X78527984Y-53653346D03*
D41*
%TO.P,LED10,1,A1*%
%TO.N,/16x2LEDs/Red_Src*%
X79500000Y-56000000D03*
%TD*%
D13*
%TO.P,P1,2,Pin_2*%
%TO.N,/16x2LEDs/Green_Src*%
X128040000Y-57900000D03*
D14*
%TO.P,P1,1,Pin_1*%
%TO.N,/16x2LEDs/Red_Src*%
X125500000Y-57900000D03*
%TD*%
D42*
%TO.P,SW1,*%
%TO.N,*%
X22800000Y-51900000D03*
X31000000Y-51900000D03*
D43*
%TO.P,SW1,1,A*%
%TO.N,Net-(PWR1-A1)*%
X24900000Y-51900000D03*
D44*
%TO.P,SW1,2,B*%
%TO.N,Net-(BT1-+)*%
X26900000Y-51900000D03*
%TO.P,SW1,3,C*%
%TO.N,VDD*%
X28900000Y-51900000D03*
%TD*%
D24*
%TO.P,J3,4,Pin_4*%
%TO.N,GND*%
X120000000Y-45900000D03*
%TO.P,J3,3,Pin_3*%
%TO.N,I^{2}C_SCL*%
X122500000Y-45900000D03*
%TO.P,J3,2,Pin_2*%
%TO.N,I^{2}C_SDA*%
X125000000Y-45900000D03*
D25*
%TO.P,J3,1,Pin_1*%
%TO.N,VDD*%
X127500000Y-45900000D03*
%TD*%
D10*
%TO.P,C7,2*%
%TO.N,GND*%
X84250000Y-57900000D03*
%TO.P,C7,1*%
%TO.N,VDD*%
X86750000Y-57900000D03*
%TD*%
D24*
%TO.P,J6,2,Pin_2*%
%TO.N,Net-(J6-Pin_2)*%
X23000000Y-79400000D03*
D25*
%TO.P,J6,1,Pin_1*%
%TO.N,Net-(J6-Pin_1)*%
X23000000Y-76900000D03*
%TD*%
D23*
%TO.P,LS1,2,2*%
%TO.N,GND*%
X52000000Y-27100000D03*
D45*
%TO.P,LS1,1,1*%
%TO.N,Net-(IC1-RA7)*%
X52000000Y-32100000D03*
%TD*%
D24*
%TO.P,LED13,3,A2*%
%TO.N,/16x2LEDs/Green_Src*%
X65920000Y-69000000D03*
%TO.P,LED13,2,K*%
%TO.N,Net-(LED13-K)*%
X68460000Y-69000000D03*
D25*
%TO.P,LED13,1,A1*%
%TO.N,/16x2LEDs/Red_Src*%
X71000000Y-69000000D03*
%TD*%
%TO.P,J5,1,Pin_1*%
%TO.N,Net-(J5-Pin_1)*%
X23000000Y-30400000D03*
D24*
%TO.P,J5,2,Pin_2*%
%TO.N,Net-(J5-Pin_2)*%
X23000000Y-32900000D03*
%TD*%
D27*
%TO.P,Tr1,1,B*%
%TO.N,/16x2LEDs/Select_Red*%
X119230000Y-58540000D03*
D26*
%TO.P,Tr1,2,E*%
%TO.N,/16x2LEDs/Red_Src*%
X120500000Y-57270000D03*
%TO.P,Tr1,3,C*%
%TO.N,VDD*%
X121770000Y-58540000D03*
%TD*%
D24*
%TO.P,PWR1,3,A2*%
%TO.N,VDD*%
X27630000Y-46400000D03*
%TO.P,PWR1,2,K*%
%TO.N,Net-(PWR1-K)*%
X25090000Y-46400000D03*
D25*
%TO.P,PWR1,1,A1*%
%TO.N,Net-(PWR1-A1)*%
X22550000Y-46400000D03*
%TD*%
D10*
%TO.P,C4,2*%
%TO.N,GND*%
X37750000Y-22000000D03*
D30*
%TO.P,C4,1*%
%TO.N,Net-(Q1-S_3)*%
X37750000Y-24000000D03*
%TD*%
D46*
%TO.P,LED6,1,A1*%
%TO.N,/16x2LEDs/Red_Src*%
X98000000Y-63500000D03*
D24*
%TO.P,LED6,2,K*%
%TO.N,Net-(LED6-K)*%
X100346654Y-62527984D03*
%TO.P,LED6,3,A2*%
%TO.N,/16x2LEDs/Green_Src*%
X102693308Y-61555968D03*
%TD*%
D10*
%TO.P,C1,2*%
%TO.N,GND*%
X73700000Y-46900000D03*
%TO.P,C1,1*%
%TO.N,VDD*%
X76200000Y-46900000D03*
%TD*%
D24*
%TO.P,LED5,3,A2*%
%TO.N,/16x2LEDs/Green_Src*%
X104080000Y-69000000D03*
%TO.P,LED5,2,K*%
%TO.N,Net-(LED5-K)*%
X101540000Y-69000000D03*
D25*
%TO.P,LED5,1,A1*%
%TO.N,/16x2LEDs/Red_Src*%
X99000000Y-69000000D03*
%TD*%
D32*
%TO.P,Q2,1,S_1*%
%TO.N,GND*%
X31250000Y-86000000D03*
D31*
%TO.P,Q2,2,G_1*%
%TO.N,/Motordrive/R_SEL2*%
X31250000Y-83460000D03*
%TO.P,Q2,3,D_1*%
%TO.N,Net-(J6-Pin_2)*%
X31250000Y-80920000D03*
%TO.P,Q2,4,G_2*%
%TO.N,/Motordrive/R_SEL1*%
X31250000Y-78380000D03*
%TO.P,Q2,5,S_2*%
%TO.N,Net-(J6-Pin_1)*%
X31250000Y-75840000D03*
%TO.P,Q2,6,G_3*%
%TO.N,Net-(Q2-G_3)*%
X31250000Y-73300000D03*
%TO.P,Q2,7,D_2*%
%TO.N,Net-(J6-Pin_2)*%
X31250000Y-70760000D03*
%TO.P,Q2,8,G_4*%
%TO.N,Net-(Q2-G_4)*%
X31250000Y-68220000D03*
%TO.P,Q2,9,D_3*%
%TO.N,Net-(J6-Pin_1)*%
X31250000Y-65680000D03*
%TO.P,Q2,10,S_3*%
%TO.N,Net-(Q2-S_3)*%
X31250000Y-63140000D03*
%TD*%
D47*
%TO.N,/16x2LEDs/Clock*%
X88900000Y-47300000D03*
X88974500Y-51024500D03*
%TO.N,GND*%
X84113051Y-70100000D03*
X87212551Y-70095595D03*
X127200000Y-39900000D03*
X125200000Y-41900000D03*
%TO.N,VDD*%
X56600000Y-39500000D03*
X66260308Y-48639692D03*
X56600000Y-41100000D03*
X65200000Y-49700000D03*
%TO.N,/Motordrive/R_PWM*%
X63449500Y-49900000D03*
X56700000Y-43200000D03*
%TO.N,GND*%
X120453378Y-39657028D03*
X117501825Y-42599500D03*
X106000000Y-42599500D03*
X109600000Y-42700000D03*
X106400000Y-34650500D03*
X108200000Y-34650500D03*
X107800000Y-42700000D03*
X110000000Y-34650500D03*
%TO.N,Net-(Q2-G_3)*%
X45800000Y-76100000D03*
%TO.N,/Motordrive/R_SEL2*%
X40200000Y-79900000D03*
X52400000Y-67700000D03*
%TO.N,Net-(Q2-G_3)*%
X54400000Y-67500000D03*
%TO.N,Net-(Q2-G_4)*%
X42383150Y-76100000D03*
X54200000Y-64300000D03*
%TO.N,/Motordrive/R_SEL1*%
X43600000Y-79900000D03*
X58498528Y-65098528D03*
%TO.N,/Motordrive/L_SEL1*%
X38250000Y-34650000D03*
X49250000Y-45650000D03*
%TO.N,Net-(Q1-G_3)*%
X39500000Y-33400000D03*
X50500000Y-44400000D03*
%TO.N,/Motordrive/L_SEL2*%
X40750000Y-32150000D03*
X51750000Y-43150000D03*
%TO.N,Net-(Q1-G_4)*%
X42000000Y-30900000D03*
X53000000Y-41900000D03*
%TO.N,/16x2LEDs/LED9*%
X90000000Y-59400000D03*
X81000000Y-59400000D03*
%TO.N,I^{2}C_SCL*%
X72500000Y-41400000D03*
X82500000Y-41400000D03*
X93000000Y-41400000D03*
X101500000Y-41400000D03*
%TO.N,I^{2}C_SDA*%
X94500000Y-39900000D03*
X100500000Y-39900000D03*
%TO.N,GND*%
X108500000Y-48400000D03*
X108500000Y-54400000D03*
X102500000Y-48400000D03*
X104500000Y-48400000D03*
X106500000Y-48400000D03*
X106500000Y-54400000D03*
X104500000Y-54400000D03*
X102500000Y-54400000D03*
X96000000Y-24400000D03*
X94000000Y-24400000D03*
X92000000Y-24400000D03*
X90000000Y-24400000D03*
X90000000Y-27900000D03*
X92000000Y-27900000D03*
X94000000Y-27900000D03*
X96000000Y-27900000D03*
%TO.N,Net-(J5-Pin_1)*%
X26450000Y-30750000D03*
X28000000Y-30750000D03*
X28000000Y-35000000D03*
X26500000Y-35000000D03*
%TO.N,Net-(J6-Pin_2)*%
X26300497Y-73000000D03*
X26300497Y-77900000D03*
X27800000Y-77900000D03*
X27800000Y-73000000D03*
%TD*%
D48*
%TO.N,/16x2LEDs/Green_Src*%
X92444032Y-51306692D02*
X91526224Y-52224500D01*
X91526224Y-52224500D02*
X87304500Y-52224500D01*
X87304500Y-52224500D02*
X85000000Y-49920000D01*
%TO.N,/16x2LEDs/Clock*%
X88974500Y-47374500D02*
X88900000Y-47300000D01*
X88974500Y-51024500D02*
X88974500Y-47374500D01*
%TO.N,GND*%
X84113051Y-70100000D02*
X86382794Y-70100000D01*
X86382794Y-70100000D02*
X86387199Y-70095595D01*
X86387199Y-70095595D02*
X87212551Y-70095595D01*
%TO.N,/Motordrive/R_SEL1*%
X43697057Y-79900000D02*
X43600000Y-79900000D01*
X58498528Y-65098528D02*
X43697057Y-79900000D01*
%TO.N,GND*%
X125200000Y-41900000D02*
X127200000Y-39900000D01*
X110000000Y-34650500D02*
X109600000Y-35050500D01*
X109600000Y-35050500D02*
X109600000Y-42700000D01*
X108200000Y-34650500D02*
X107800000Y-35050500D01*
X107800000Y-35050500D02*
X107800000Y-42700000D01*
X106400000Y-34650500D02*
X106000000Y-35050500D01*
X106000000Y-35050500D02*
X106000000Y-42599500D01*
%TO.N,/Motordrive/R_PWM*%
X56700000Y-43200000D02*
X63400000Y-49900000D01*
X63400000Y-49900000D02*
X63449500Y-49900000D01*
D49*
%TO.N,VDD*%
X56600000Y-39500000D02*
X56600000Y-40300000D01*
X56600000Y-40300000D02*
X64939692Y-48639692D01*
X64939692Y-48639692D02*
X66260308Y-48639692D01*
X59525000Y-44025000D02*
X65200000Y-49700000D01*
X56673833Y-41100000D02*
X59525000Y-43951167D01*
X56600000Y-41100000D02*
X56673833Y-41100000D01*
X59525000Y-43951167D02*
X59525000Y-44025000D01*
D48*
%TO.N,Net-(Q2-G_4)*%
X54102943Y-64300000D02*
X42383150Y-76019793D01*
X54200000Y-64300000D02*
X54102943Y-64300000D01*
X42383150Y-76019793D02*
X42383150Y-76100000D01*
D50*
%TO.N,Net-(J6-Pin_2)*%
X27800000Y-77900000D02*
X27800000Y-73000000D01*
X26300497Y-77900000D02*
X26300497Y-73000000D01*
D48*
%TO.N,GND*%
X117510906Y-42599500D02*
X120453378Y-39657028D01*
X117501825Y-42599500D02*
X117510906Y-42599500D01*
%TO.N,/Motordrive/R_SEL2*%
X40200000Y-79900000D02*
X40280207Y-79900000D01*
X43583150Y-76516850D02*
X52400000Y-67700000D01*
X40280207Y-79900000D02*
X43583150Y-76597057D01*
X43583150Y-76597057D02*
X43583150Y-76516850D01*
%TO.N,Net-(Q2-G_3)*%
X54400000Y-67500000D02*
X45800000Y-76100000D01*
%TO.N,/Motordrive/L_SEL1*%
X49250000Y-45650000D02*
X38250000Y-34650000D01*
%TO.N,/Motordrive/L_SEL2*%
X51750000Y-43150000D02*
X40750000Y-32150000D01*
%TO.N,Net-(Q1-G_3)*%
X39500000Y-33400000D02*
X50500000Y-44400000D01*
%TO.N,Net-(Q1-G_4)*%
X53000000Y-41900000D02*
X42000000Y-30900000D01*
%TO.N,/16x2LEDs/LED9*%
X81000000Y-59400000D02*
X90000000Y-59400000D01*
%TO.N,I^{2}C_SCL*%
X82500000Y-41400000D02*
X72500000Y-41400000D01*
X101500000Y-41400000D02*
X93000000Y-41400000D01*
%TO.N,I^{2}C_SDA*%
X100500000Y-39900000D02*
X94500000Y-39900000D01*
%TO.N,/16x2LEDs/Red_Src*%
X96450000Y-60450000D02*
X101890087Y-60450000D01*
X101890087Y-60450000D02*
X102134119Y-60205968D01*
X102134119Y-60205968D02*
X103053358Y-60205968D01*
X103053358Y-60205968D02*
X103559327Y-59700000D01*
X103559327Y-59700000D02*
X110289950Y-59700000D01*
X113930050Y-60650000D02*
X119110050Y-55470000D01*
X110289950Y-59700000D02*
X111239950Y-60650000D01*
X111239950Y-60650000D02*
X113930050Y-60650000D01*
X119110050Y-55470000D02*
X123070000Y-55470000D01*
X123070000Y-55470000D02*
X125500000Y-57900000D01*
%TO.N,/16x2LEDs/Green_Src*%
X102693308Y-61555968D02*
X103849276Y-60400000D01*
X103849276Y-60400000D02*
X110000000Y-60400000D01*
X113827767Y-63150000D02*
X114560000Y-62417767D01*
X110000000Y-60400000D02*
X112750000Y-63150000D01*
X112750000Y-63150000D02*
X113827767Y-63150000D01*
X114560000Y-62417767D02*
X114560000Y-61010000D01*
X126740000Y-59200000D02*
X128040000Y-57900000D01*
X114560000Y-61010000D02*
X119400000Y-56170000D01*
X119400000Y-56170000D02*
X120955635Y-56170000D01*
X120955635Y-56170000D02*
X123985635Y-59200000D01*
X123985635Y-59200000D02*
X126740000Y-59200000D01*
%TO.N,GND*%
X108500000Y-48400000D02*
X108500000Y-54400000D01*
X106500000Y-48400000D02*
X106500000Y-54400000D01*
X104500000Y-54400000D02*
X104500000Y-48400000D01*
X102500000Y-48400000D02*
X102500000Y-54400000D01*
%TO.N,/16x2LEDs/Red_Src*%
X96450000Y-60450000D02*
X95000000Y-59000000D01*
X98000000Y-62000000D02*
X96450000Y-60450000D01*
%TO.N,/16x2LEDs/Green_Src*%
X65920000Y-69000000D02*
X65920000Y-75057340D01*
X65920000Y-75057340D02*
X67306692Y-76444032D01*
D49*
%TO.N,GND*%
X90000000Y-24400000D02*
X90000000Y-27900000D01*
X92000000Y-27900000D02*
X92000000Y-24400000D01*
X94000000Y-27900000D02*
X94000000Y-24400000D01*
X96000000Y-27900000D02*
X96000000Y-24400000D01*
D48*
%TO.N,PICKit3_MCLR*%
X105000000Y-28400000D02*
X111500000Y-28400000D01*
%TO.N,Net-(IC1-RA4)*%
X72950000Y-28400000D02*
X79450000Y-28400000D01*
%TO.N,Net-(IC1-RA5)*%
X68250000Y-28400000D02*
X61750000Y-28400000D01*
D50*
%TO.N,Net-(J5-Pin_1)*%
X28000000Y-30750000D02*
X28000000Y-35000000D01*
X26500000Y-30800000D02*
X26500000Y-35000000D01*
X26450000Y-30750000D02*
X26500000Y-30800000D01*
D48*
%TO.N,/16x2LEDs/Red_Src*%
X85000000Y-55000000D02*
X80500000Y-55000000D01*
X90500000Y-56000000D02*
X92000000Y-56000000D01*
X99000000Y-69000000D02*
X99000000Y-64500000D01*
X72000000Y-62000000D02*
X75000000Y-59000000D01*
X72000000Y-74500000D02*
X72000000Y-76000000D01*
X79500000Y-82000000D02*
X78000000Y-82000000D01*
X71000000Y-69000000D02*
X71000000Y-73500000D01*
X89500000Y-55000000D02*
X90500000Y-56000000D01*
X92000000Y-82000000D02*
X95000000Y-79000000D01*
X89500000Y-83000000D02*
X90500000Y-82000000D01*
X79500000Y-56000000D02*
X78000000Y-56000000D01*
X99000000Y-73500000D02*
X98000000Y-74500000D01*
X80500000Y-83000000D02*
X79500000Y-82000000D01*
X71000000Y-64500000D02*
X72000000Y-63500000D01*
X72000000Y-76000000D02*
X75000000Y-79000000D01*
X71000000Y-73500000D02*
X72000000Y-74500000D01*
X80500000Y-55000000D02*
X79500000Y-56000000D01*
X98000000Y-76000000D02*
X95000000Y-79000000D01*
X85000000Y-83000000D02*
X80500000Y-83000000D01*
X90500000Y-82000000D02*
X92000000Y-82000000D01*
X72000000Y-63500000D02*
X72000000Y-62000000D01*
X98000000Y-74500000D02*
X98000000Y-76000000D01*
X98000000Y-63500000D02*
X98000000Y-62000000D01*
X85000000Y-83000000D02*
X89500000Y-83000000D01*
X71000000Y-69000000D02*
X71000000Y-64500000D01*
X92000000Y-56000000D02*
X95000000Y-59000000D01*
X99000000Y-69000000D02*
X99000000Y-73500000D01*
X78000000Y-56000000D02*
X75000000Y-59000000D01*
X99000000Y-64500000D02*
X98000000Y-63500000D01*
X78000000Y-82000000D02*
X75000000Y-79000000D01*
X85000000Y-55000000D02*
X89500000Y-55000000D01*
%TO.N,/16x2LEDs/Green_Src*%
X94490896Y-51306692D02*
X98592102Y-55407898D01*
X104080000Y-69000000D02*
X104080000Y-75057340D01*
X67306692Y-76444032D02*
X67306692Y-78490896D01*
X104080000Y-69000000D02*
X104080000Y-62942660D01*
X85000000Y-49920000D02*
X78942660Y-49920000D01*
X65920000Y-69000000D02*
X65920000Y-62942660D01*
X75509104Y-86693308D02*
X71407898Y-82592102D01*
X85000000Y-88080000D02*
X91057340Y-88080000D01*
X94490896Y-86693308D02*
X98592102Y-82592102D01*
X77555968Y-51306692D02*
X75509104Y-51306692D01*
X104080000Y-75057340D02*
X102693308Y-76444032D01*
X85000000Y-88080000D02*
X78942660Y-88080000D01*
X75509104Y-51306692D02*
X71407898Y-55407898D01*
X92444032Y-86693308D02*
X94490896Y-86693308D01*
X78942660Y-88080000D02*
X77555968Y-86693308D01*
X91057340Y-88080000D02*
X92444032Y-86693308D01*
X104080000Y-62942660D02*
X102693308Y-61555968D01*
X77555968Y-86693308D02*
X75509104Y-86693308D01*
X102693308Y-78490896D02*
X98592102Y-82592102D01*
X67306692Y-59509104D02*
X71407898Y-55407898D01*
X92444032Y-51306692D02*
X94490896Y-51306692D01*
X67306692Y-78490896D02*
X71407898Y-82592102D01*
X78942660Y-49920000D02*
X77555968Y-51306692D01*
X67306692Y-61555968D02*
X67306692Y-59509104D01*
X65920000Y-62942660D02*
X67306692Y-61555968D01*
X102693308Y-76444032D02*
X102693308Y-78490896D01*
%TD*%
M02*
