%TF.GenerationSoftware,KiCad,Pcbnew,7.0.7*%
%TF.CreationDate,2023-08-23T01:14:16+09:00*%
%TF.ProjectId,maincircuit,6d61696e-6369-4726-9375-69742e6b6963,rev?*%
%TF.SameCoordinates,Original*%
%TF.FileFunction,Legend,Bot*%
%TF.FilePolarity,Positive*%
%FSLAX46Y46*%
G04 Gerber Fmt 4.6, Leading zero omitted, Abs format (unit mm)*
G04 Created by KiCad (PCBNEW 7.0.7) date 2023-08-23 01:14:16*
%MOMM*%
%LPD*%
G01*
G04 APERTURE LIST*
%ADD10C,0.150000*%
%ADD11C,0.010000*%
%ADD12C,0.100000*%
G04 APERTURE END LIST*
D10*
X75000000Y-59000000D02*
X95000000Y-59000000D01*
X95000000Y-79000000D01*
X75000000Y-79000000D01*
X75000000Y-59000000D01*
X75000000Y-79000000D02*
X71000000Y-69000000D01*
X85000000Y-55000000D02*
X71000000Y-69000000D01*
X99000000Y-69000000D02*
X95000000Y-79000000D01*
X85000000Y-83000000D02*
X99000000Y-69000000D01*
X71000000Y-69000000D02*
X75000000Y-59000000D01*
X75000000Y-59000000D02*
X85000000Y-55000000D01*
X99000000Y-69000000D02*
X85000000Y-55000000D01*
X71000000Y-69000000D02*
X85000000Y-83000000D01*
X85000000Y-55000000D02*
X95000000Y-59000000D01*
X85000000Y-83000000D02*
X75000000Y-79000000D01*
X95000000Y-59000000D02*
X99000000Y-69000000D01*
X95000000Y-79000000D02*
X85000000Y-83000000D01*
%TO.C,REF\u002A\u002A*%
D11*
X57554602Y-84558753D02*
X57577867Y-84600505D01*
X57578980Y-84648168D01*
X57551696Y-84690024D01*
X57545486Y-84695185D01*
X57532881Y-84702462D01*
X57514666Y-84708063D01*
X57487347Y-84712206D01*
X57447433Y-84715108D01*
X57391430Y-84716986D01*
X57315847Y-84718059D01*
X57217190Y-84718543D01*
X57091966Y-84718656D01*
X56663873Y-84718656D01*
X56635142Y-84683174D01*
X56615477Y-84651604D01*
X56606410Y-84620963D01*
X56614242Y-84592998D01*
X56635142Y-84558753D01*
X56663873Y-84523271D01*
X57525871Y-84523271D01*
X57554602Y-84558753D01*
G36*
X57554602Y-84558753D02*
G01*
X57577867Y-84600505D01*
X57578980Y-84648168D01*
X57551696Y-84690024D01*
X57545486Y-84695185D01*
X57532881Y-84702462D01*
X57514666Y-84708063D01*
X57487347Y-84712206D01*
X57447433Y-84715108D01*
X57391430Y-84716986D01*
X57315847Y-84718059D01*
X57217190Y-84718543D01*
X57091966Y-84718656D01*
X56663873Y-84718656D01*
X56635142Y-84683174D01*
X56615477Y-84651604D01*
X56606410Y-84620963D01*
X56614242Y-84592998D01*
X56635142Y-84558753D01*
X56663873Y-84523271D01*
X57525871Y-84523271D01*
X57554602Y-84558753D01*
G37*
X57172797Y-77226438D02*
X57278091Y-77226728D01*
X57359227Y-77227539D01*
X57419866Y-77229125D01*
X57463669Y-77231738D01*
X57494296Y-77235634D01*
X57515409Y-77241067D01*
X57530667Y-77248290D01*
X57543733Y-77257557D01*
X57576209Y-77298069D01*
X57580042Y-77344590D01*
X57554626Y-77393825D01*
X57550000Y-77399395D01*
X57538646Y-77410280D01*
X57523268Y-77418349D01*
X57499526Y-77424184D01*
X57463084Y-77428367D01*
X57409604Y-77431479D01*
X57334747Y-77434103D01*
X57234177Y-77436821D01*
X56942435Y-77444336D01*
X57262814Y-77797531D01*
X57351718Y-77895831D01*
X57429091Y-77982609D01*
X57488946Y-78052098D01*
X57532777Y-78106783D01*
X57562077Y-78149146D01*
X57578340Y-78181668D01*
X57583060Y-78206834D01*
X57577731Y-78227125D01*
X57563846Y-78245024D01*
X57542899Y-78263013D01*
X57531605Y-78271328D01*
X57517523Y-78278826D01*
X57498673Y-78284432D01*
X57471443Y-78288362D01*
X57432221Y-78290832D01*
X57377394Y-78292056D01*
X57303348Y-78292249D01*
X57206471Y-78291627D01*
X57083150Y-78290406D01*
X56663835Y-78285993D01*
X56635123Y-78250511D01*
X56613566Y-78215809D01*
X56609877Y-78172063D01*
X56635110Y-78126090D01*
X56639882Y-78120349D01*
X56651238Y-78109522D01*
X56666671Y-78101495D01*
X56690510Y-78095690D01*
X56727084Y-78091526D01*
X56780722Y-78088424D01*
X56855754Y-78085807D01*
X56956508Y-78083094D01*
X57249207Y-78075579D01*
X57031138Y-77835105D01*
X56926448Y-77719626D01*
X56835392Y-77618747D01*
X56761702Y-77536021D01*
X56703960Y-77469322D01*
X56660749Y-77416524D01*
X56630649Y-77375501D01*
X56612244Y-77344126D01*
X56604116Y-77320273D01*
X56604846Y-77301816D01*
X56613017Y-77286628D01*
X56627212Y-77272584D01*
X56646011Y-77257557D01*
X56653948Y-77251629D01*
X56667920Y-77243643D01*
X56686327Y-77237546D01*
X56712827Y-77233084D01*
X56751083Y-77230003D01*
X56804755Y-77228049D01*
X56877503Y-77226967D01*
X56972988Y-77226505D01*
X57094872Y-77226407D01*
X57172797Y-77226438D01*
G36*
X57172797Y-77226438D02*
G01*
X57278091Y-77226728D01*
X57359227Y-77227539D01*
X57419866Y-77229125D01*
X57463669Y-77231738D01*
X57494296Y-77235634D01*
X57515409Y-77241067D01*
X57530667Y-77248290D01*
X57543733Y-77257557D01*
X57576209Y-77298069D01*
X57580042Y-77344590D01*
X57554626Y-77393825D01*
X57550000Y-77399395D01*
X57538646Y-77410280D01*
X57523268Y-77418349D01*
X57499526Y-77424184D01*
X57463084Y-77428367D01*
X57409604Y-77431479D01*
X57334747Y-77434103D01*
X57234177Y-77436821D01*
X56942435Y-77444336D01*
X57262814Y-77797531D01*
X57351718Y-77895831D01*
X57429091Y-77982609D01*
X57488946Y-78052098D01*
X57532777Y-78106783D01*
X57562077Y-78149146D01*
X57578340Y-78181668D01*
X57583060Y-78206834D01*
X57577731Y-78227125D01*
X57563846Y-78245024D01*
X57542899Y-78263013D01*
X57531605Y-78271328D01*
X57517523Y-78278826D01*
X57498673Y-78284432D01*
X57471443Y-78288362D01*
X57432221Y-78290832D01*
X57377394Y-78292056D01*
X57303348Y-78292249D01*
X57206471Y-78291627D01*
X57083150Y-78290406D01*
X56663835Y-78285993D01*
X56635123Y-78250511D01*
X56613566Y-78215809D01*
X56609877Y-78172063D01*
X56635110Y-78126090D01*
X56639882Y-78120349D01*
X56651238Y-78109522D01*
X56666671Y-78101495D01*
X56690510Y-78095690D01*
X56727084Y-78091526D01*
X56780722Y-78088424D01*
X56855754Y-78085807D01*
X56956508Y-78083094D01*
X57249207Y-78075579D01*
X57031138Y-77835105D01*
X56926448Y-77719626D01*
X56835392Y-77618747D01*
X56761702Y-77536021D01*
X56703960Y-77469322D01*
X56660749Y-77416524D01*
X56630649Y-77375501D01*
X56612244Y-77344126D01*
X56604116Y-77320273D01*
X56604846Y-77301816D01*
X56613017Y-77286628D01*
X56627212Y-77272584D01*
X56646011Y-77257557D01*
X56653948Y-77251629D01*
X56667920Y-77243643D01*
X56686327Y-77237546D01*
X56712827Y-77233084D01*
X56751083Y-77230003D01*
X56804755Y-77228049D01*
X56877503Y-77226967D01*
X56972988Y-77226505D01*
X57094872Y-77226407D01*
X57172797Y-77226438D01*
G37*
X56716711Y-82676074D02*
X56762731Y-82693201D01*
X56827096Y-82719507D01*
X56905645Y-82753090D01*
X56994221Y-82792048D01*
X57088661Y-82834478D01*
X57184807Y-82878478D01*
X57278499Y-82922146D01*
X57365576Y-82963580D01*
X57441880Y-83000877D01*
X57503249Y-83032136D01*
X57545525Y-83055454D01*
X57564547Y-83068929D01*
X57582345Y-83114738D01*
X57573876Y-83170252D01*
X57567622Y-83177394D01*
X57538131Y-83198468D01*
X57489190Y-83228027D01*
X57425661Y-83263197D01*
X57352407Y-83301106D01*
X57140397Y-83407314D01*
X57335563Y-83504752D01*
X57361246Y-83517660D01*
X57430940Y-83553579D01*
X57490571Y-83585569D01*
X57534486Y-83610551D01*
X57557032Y-83625444D01*
X57558687Y-83626970D01*
X57579039Y-83664409D01*
X57581280Y-83711089D01*
X57564547Y-83752416D01*
X57560754Y-83755646D01*
X57533294Y-83771969D01*
X57483300Y-83798246D01*
X57414298Y-83832734D01*
X57329814Y-83873690D01*
X57233373Y-83919370D01*
X57128503Y-83968031D01*
X57069759Y-83994978D01*
X56962281Y-84043936D01*
X56877502Y-84081822D01*
X56812353Y-84109813D01*
X56763764Y-84129088D01*
X56728667Y-84140822D01*
X56703992Y-84146195D01*
X56686672Y-84146384D01*
X56673636Y-84142566D01*
X56645834Y-84123052D01*
X56618806Y-84087634D01*
X56618350Y-84086628D01*
X56609030Y-84060547D01*
X56608324Y-84037308D01*
X56618940Y-84014792D01*
X56643585Y-83990881D01*
X56684966Y-83963454D01*
X56745790Y-83930393D01*
X56828763Y-83889580D01*
X56936594Y-83838896D01*
X56978376Y-83819413D01*
X57062496Y-83779807D01*
X57135196Y-83745065D01*
X57192507Y-83717114D01*
X57230455Y-83697880D01*
X57245069Y-83689289D01*
X57244296Y-83687480D01*
X57225727Y-83674177D01*
X57186401Y-83651156D01*
X57130994Y-83621072D01*
X57064180Y-83586578D01*
X57022258Y-83565313D01*
X56948562Y-83526770D01*
X56896617Y-83496830D01*
X56862697Y-83472578D01*
X56843079Y-83451102D01*
X56834040Y-83429488D01*
X56831854Y-83404823D01*
X56832487Y-83390840D01*
X56838088Y-83369384D01*
X56852552Y-83348995D01*
X56879542Y-83326897D01*
X56922725Y-83300311D01*
X56985765Y-83266460D01*
X57072328Y-83222566D01*
X57097963Y-83209608D01*
X57160096Y-83177046D01*
X57208241Y-83150105D01*
X57238049Y-83131290D01*
X57245168Y-83123103D01*
X57240813Y-83121283D01*
X57212975Y-83108802D01*
X57163796Y-83086354D01*
X57097426Y-83055844D01*
X57018014Y-83019177D01*
X56929707Y-82978258D01*
X56853525Y-82942691D01*
X56770995Y-82903251D01*
X56710100Y-82872535D01*
X56667442Y-82848599D01*
X56639625Y-82829498D01*
X56623253Y-82813287D01*
X56614931Y-82798022D01*
X56611080Y-82785494D01*
X56610882Y-82752070D01*
X56631308Y-82715933D01*
X56632620Y-82714202D01*
X56662756Y-82684800D01*
X56692345Y-82670091D01*
X56693197Y-82670029D01*
X56716711Y-82676074D01*
G36*
X56716711Y-82676074D02*
G01*
X56762731Y-82693201D01*
X56827096Y-82719507D01*
X56905645Y-82753090D01*
X56994221Y-82792048D01*
X57088661Y-82834478D01*
X57184807Y-82878478D01*
X57278499Y-82922146D01*
X57365576Y-82963580D01*
X57441880Y-83000877D01*
X57503249Y-83032136D01*
X57545525Y-83055454D01*
X57564547Y-83068929D01*
X57582345Y-83114738D01*
X57573876Y-83170252D01*
X57567622Y-83177394D01*
X57538131Y-83198468D01*
X57489190Y-83228027D01*
X57425661Y-83263197D01*
X57352407Y-83301106D01*
X57140397Y-83407314D01*
X57335563Y-83504752D01*
X57361246Y-83517660D01*
X57430940Y-83553579D01*
X57490571Y-83585569D01*
X57534486Y-83610551D01*
X57557032Y-83625444D01*
X57558687Y-83626970D01*
X57579039Y-83664409D01*
X57581280Y-83711089D01*
X57564547Y-83752416D01*
X57560754Y-83755646D01*
X57533294Y-83771969D01*
X57483300Y-83798246D01*
X57414298Y-83832734D01*
X57329814Y-83873690D01*
X57233373Y-83919370D01*
X57128503Y-83968031D01*
X57069759Y-83994978D01*
X56962281Y-84043936D01*
X56877502Y-84081822D01*
X56812353Y-84109813D01*
X56763764Y-84129088D01*
X56728667Y-84140822D01*
X56703992Y-84146195D01*
X56686672Y-84146384D01*
X56673636Y-84142566D01*
X56645834Y-84123052D01*
X56618806Y-84087634D01*
X56618350Y-84086628D01*
X56609030Y-84060547D01*
X56608324Y-84037308D01*
X56618940Y-84014792D01*
X56643585Y-83990881D01*
X56684966Y-83963454D01*
X56745790Y-83930393D01*
X56828763Y-83889580D01*
X56936594Y-83838896D01*
X56978376Y-83819413D01*
X57062496Y-83779807D01*
X57135196Y-83745065D01*
X57192507Y-83717114D01*
X57230455Y-83697880D01*
X57245069Y-83689289D01*
X57244296Y-83687480D01*
X57225727Y-83674177D01*
X57186401Y-83651156D01*
X57130994Y-83621072D01*
X57064180Y-83586578D01*
X57022258Y-83565313D01*
X56948562Y-83526770D01*
X56896617Y-83496830D01*
X56862697Y-83472578D01*
X56843079Y-83451102D01*
X56834040Y-83429488D01*
X56831854Y-83404823D01*
X56832487Y-83390840D01*
X56838088Y-83369384D01*
X56852552Y-83348995D01*
X56879542Y-83326897D01*
X56922725Y-83300311D01*
X56985765Y-83266460D01*
X57072328Y-83222566D01*
X57097963Y-83209608D01*
X57160096Y-83177046D01*
X57208241Y-83150105D01*
X57238049Y-83131290D01*
X57245168Y-83123103D01*
X57240813Y-83121283D01*
X57212975Y-83108802D01*
X57163796Y-83086354D01*
X57097426Y-83055844D01*
X57018014Y-83019177D01*
X56929707Y-82978258D01*
X56853525Y-82942691D01*
X56770995Y-82903251D01*
X56710100Y-82872535D01*
X56667442Y-82848599D01*
X56639625Y-82829498D01*
X56623253Y-82813287D01*
X56614931Y-82798022D01*
X56611080Y-82785494D01*
X56610882Y-82752070D01*
X56631308Y-82715933D01*
X56632620Y-82714202D01*
X56662756Y-82684800D01*
X56692345Y-82670091D01*
X56693197Y-82670029D01*
X56716711Y-82676074D01*
G37*
X56774310Y-85051636D02*
X56776245Y-85053447D01*
X56787376Y-85068362D01*
X56794771Y-85091132D01*
X56799157Y-85127304D01*
X56801256Y-85182427D01*
X56801795Y-85262050D01*
X56801795Y-85447591D01*
X57152963Y-85447591D01*
X57253918Y-85447691D01*
X57342674Y-85448234D01*
X57408955Y-85449542D01*
X57456773Y-85451933D01*
X57490146Y-85455729D01*
X57513086Y-85461248D01*
X57529610Y-85468812D01*
X57543733Y-85478741D01*
X57547469Y-85481790D01*
X57577614Y-85523300D01*
X57579696Y-85569071D01*
X57553274Y-85612916D01*
X57542523Y-85622207D01*
X57528412Y-85629492D01*
X57507319Y-85634844D01*
X57475398Y-85638560D01*
X57428802Y-85640936D01*
X57363685Y-85642266D01*
X57276201Y-85642847D01*
X57162505Y-85642975D01*
X56801795Y-85642975D01*
X56801795Y-85837269D01*
X56801794Y-85852047D01*
X56801494Y-85927292D01*
X56799977Y-85979008D01*
X56796250Y-86012815D01*
X56789318Y-86034332D01*
X56778186Y-86049179D01*
X56761860Y-86062976D01*
X56721003Y-86084074D01*
X56676029Y-86079944D01*
X56632712Y-86045803D01*
X56627763Y-86039225D01*
X56621325Y-86025631D01*
X56616314Y-86005094D01*
X56612557Y-85974311D01*
X56609876Y-85929980D01*
X56608096Y-85868799D01*
X56607043Y-85787465D01*
X56606539Y-85682677D01*
X56606410Y-85551133D01*
X56606412Y-85524469D01*
X56606532Y-85399157D01*
X56606984Y-85299952D01*
X56607972Y-85223522D01*
X56609697Y-85166541D01*
X56612361Y-85125677D01*
X56616169Y-85097603D01*
X56621321Y-85078988D01*
X56628020Y-85066504D01*
X56636470Y-85056821D01*
X56680029Y-85031784D01*
X56730057Y-85029858D01*
X56774310Y-85051636D01*
G36*
X56774310Y-85051636D02*
G01*
X56776245Y-85053447D01*
X56787376Y-85068362D01*
X56794771Y-85091132D01*
X56799157Y-85127304D01*
X56801256Y-85182427D01*
X56801795Y-85262050D01*
X56801795Y-85447591D01*
X57152963Y-85447591D01*
X57253918Y-85447691D01*
X57342674Y-85448234D01*
X57408955Y-85449542D01*
X57456773Y-85451933D01*
X57490146Y-85455729D01*
X57513086Y-85461248D01*
X57529610Y-85468812D01*
X57543733Y-85478741D01*
X57547469Y-85481790D01*
X57577614Y-85523300D01*
X57579696Y-85569071D01*
X57553274Y-85612916D01*
X57542523Y-85622207D01*
X57528412Y-85629492D01*
X57507319Y-85634844D01*
X57475398Y-85638560D01*
X57428802Y-85640936D01*
X57363685Y-85642266D01*
X57276201Y-85642847D01*
X57162505Y-85642975D01*
X56801795Y-85642975D01*
X56801795Y-85837269D01*
X56801794Y-85852047D01*
X56801494Y-85927292D01*
X56799977Y-85979008D01*
X56796250Y-86012815D01*
X56789318Y-86034332D01*
X56778186Y-86049179D01*
X56761860Y-86062976D01*
X56721003Y-86084074D01*
X56676029Y-86079944D01*
X56632712Y-86045803D01*
X56627763Y-86039225D01*
X56621325Y-86025631D01*
X56616314Y-86005094D01*
X56612557Y-85974311D01*
X56609876Y-85929980D01*
X56608096Y-85868799D01*
X56607043Y-85787465D01*
X56606539Y-85682677D01*
X56606410Y-85551133D01*
X56606412Y-85524469D01*
X56606532Y-85399157D01*
X56606984Y-85299952D01*
X56607972Y-85223522D01*
X56609697Y-85166541D01*
X56612361Y-85125677D01*
X56616169Y-85097603D01*
X56621321Y-85078988D01*
X56628020Y-85066504D01*
X56636470Y-85056821D01*
X56680029Y-85031784D01*
X56730057Y-85029858D01*
X56774310Y-85051636D01*
G37*
X57119241Y-75650389D02*
X57187583Y-75667619D01*
X57262840Y-75698457D01*
X57334622Y-75738254D01*
X57392542Y-75782360D01*
X57406319Y-75795935D01*
X57475250Y-75885250D01*
X57528362Y-75991926D01*
X57560849Y-76106703D01*
X57571649Y-76179880D01*
X57580442Y-76304300D01*
X57577663Y-76423830D01*
X57564023Y-76533654D01*
X57540232Y-76628956D01*
X57506998Y-76704921D01*
X57465033Y-76756733D01*
X57462403Y-76758564D01*
X57428818Y-76768000D01*
X57365910Y-76773644D01*
X57273428Y-76775520D01*
X57190574Y-76774375D01*
X57127491Y-76768091D01*
X57084750Y-76752528D01*
X57058719Y-76723545D01*
X57045764Y-76677002D01*
X57042253Y-76608759D01*
X57044554Y-76514676D01*
X57048564Y-76449945D01*
X57059471Y-76383116D01*
X57078181Y-76339855D01*
X57106453Y-76316611D01*
X57146048Y-76309833D01*
X57152094Y-76309974D01*
X57198417Y-76321560D01*
X57229594Y-76353525D01*
X57247168Y-76408464D01*
X57252683Y-76488969D01*
X57252683Y-76580135D01*
X57303743Y-76580135D01*
X57315906Y-76580068D01*
X57338873Y-76577112D01*
X57352578Y-76564774D01*
X57361814Y-76536308D01*
X57371376Y-76484969D01*
X57372620Y-76477681D01*
X57385805Y-76348605D01*
X57381918Y-76228794D01*
X57362307Y-76121076D01*
X57328317Y-76028282D01*
X57281293Y-75953240D01*
X57222581Y-75898780D01*
X57153527Y-75867730D01*
X57075478Y-75862921D01*
X57037008Y-75870268D01*
X56962599Y-75905793D01*
X56901810Y-75967287D01*
X56855431Y-76053801D01*
X56824252Y-76164386D01*
X56818329Y-76197237D01*
X56804351Y-76316166D01*
X56805987Y-76422418D01*
X56823209Y-76526387D01*
X56832248Y-76573176D01*
X56833603Y-76633670D01*
X56816919Y-76675361D01*
X56781256Y-76702193D01*
X56743649Y-76710692D01*
X56702078Y-76698062D01*
X56684204Y-76685642D01*
X56652875Y-76640064D01*
X56629082Y-76570005D01*
X56613776Y-76478784D01*
X56607909Y-76369721D01*
X56613217Y-76240379D01*
X56634938Y-76099246D01*
X56672285Y-75974348D01*
X56724083Y-75869443D01*
X56789162Y-75788291D01*
X56832913Y-75753582D01*
X56898414Y-75714297D01*
X56970119Y-75680651D01*
X57038241Y-75657153D01*
X57092993Y-75648312D01*
X57119241Y-75650389D01*
G36*
X57119241Y-75650389D02*
G01*
X57187583Y-75667619D01*
X57262840Y-75698457D01*
X57334622Y-75738254D01*
X57392542Y-75782360D01*
X57406319Y-75795935D01*
X57475250Y-75885250D01*
X57528362Y-75991926D01*
X57560849Y-76106703D01*
X57571649Y-76179880D01*
X57580442Y-76304300D01*
X57577663Y-76423830D01*
X57564023Y-76533654D01*
X57540232Y-76628956D01*
X57506998Y-76704921D01*
X57465033Y-76756733D01*
X57462403Y-76758564D01*
X57428818Y-76768000D01*
X57365910Y-76773644D01*
X57273428Y-76775520D01*
X57190574Y-76774375D01*
X57127491Y-76768091D01*
X57084750Y-76752528D01*
X57058719Y-76723545D01*
X57045764Y-76677002D01*
X57042253Y-76608759D01*
X57044554Y-76514676D01*
X57048564Y-76449945D01*
X57059471Y-76383116D01*
X57078181Y-76339855D01*
X57106453Y-76316611D01*
X57146048Y-76309833D01*
X57152094Y-76309974D01*
X57198417Y-76321560D01*
X57229594Y-76353525D01*
X57247168Y-76408464D01*
X57252683Y-76488969D01*
X57252683Y-76580135D01*
X57303743Y-76580135D01*
X57315906Y-76580068D01*
X57338873Y-76577112D01*
X57352578Y-76564774D01*
X57361814Y-76536308D01*
X57371376Y-76484969D01*
X57372620Y-76477681D01*
X57385805Y-76348605D01*
X57381918Y-76228794D01*
X57362307Y-76121076D01*
X57328317Y-76028282D01*
X57281293Y-75953240D01*
X57222581Y-75898780D01*
X57153527Y-75867730D01*
X57075478Y-75862921D01*
X57037008Y-75870268D01*
X56962599Y-75905793D01*
X56901810Y-75967287D01*
X56855431Y-76053801D01*
X56824252Y-76164386D01*
X56818329Y-76197237D01*
X56804351Y-76316166D01*
X56805987Y-76422418D01*
X56823209Y-76526387D01*
X56832248Y-76573176D01*
X56833603Y-76633670D01*
X56816919Y-76675361D01*
X56781256Y-76702193D01*
X56743649Y-76710692D01*
X56702078Y-76698062D01*
X56684204Y-76685642D01*
X56652875Y-76640064D01*
X56629082Y-76570005D01*
X56613776Y-76478784D01*
X56607909Y-76369721D01*
X56613217Y-76240379D01*
X56634938Y-76099246D01*
X56672285Y-75974348D01*
X56724083Y-75869443D01*
X56789162Y-75788291D01*
X56832913Y-75753582D01*
X56898414Y-75714297D01*
X56970119Y-75680651D01*
X57038241Y-75657153D01*
X57092993Y-75648312D01*
X57119241Y-75650389D01*
G37*
X56940802Y-73515347D02*
X56973816Y-73523059D01*
X57002666Y-73542773D01*
X57039080Y-73580014D01*
X57048837Y-73590636D01*
X57076666Y-73622202D01*
X57099260Y-73652016D01*
X57117837Y-73684014D01*
X57133615Y-73722128D01*
X57147812Y-73770292D01*
X57161647Y-73832440D01*
X57176338Y-73912506D01*
X57193103Y-74014424D01*
X57213161Y-74142126D01*
X57217200Y-74166575D01*
X57235334Y-74249558D01*
X57256281Y-74309759D01*
X57279009Y-74344753D01*
X57302487Y-74352114D01*
X57308172Y-74348625D01*
X57328229Y-74324750D01*
X57350375Y-74287305D01*
X57358351Y-74270264D01*
X57367927Y-74241908D01*
X57374287Y-74206779D01*
X57378040Y-74159057D01*
X57379794Y-74092924D01*
X57380158Y-74002561D01*
X57380061Y-73978883D01*
X57378582Y-73888855D01*
X57375619Y-73802398D01*
X57371537Y-73728341D01*
X57366698Y-73675511D01*
X57361282Y-73628233D01*
X57360240Y-73589288D01*
X57366363Y-73564124D01*
X57380576Y-73544002D01*
X57385359Y-73539134D01*
X57427662Y-73517377D01*
X57475130Y-73519135D01*
X57515895Y-73544373D01*
X57531346Y-73571494D01*
X57548248Y-73619401D01*
X57561628Y-73675882D01*
X57562425Y-73680476D01*
X57569370Y-73737284D01*
X57575193Y-73813687D01*
X57579304Y-73900248D01*
X57581113Y-73987531D01*
X57581169Y-74009143D01*
X57577870Y-74140032D01*
X57567211Y-74246610D01*
X57547864Y-74333388D01*
X57518502Y-74404876D01*
X57477798Y-74465587D01*
X57424424Y-74520031D01*
X57389507Y-74546819D01*
X57350169Y-74562298D01*
X57297292Y-74566170D01*
X57281357Y-74565983D01*
X57237846Y-74560827D01*
X57202531Y-74544338D01*
X57161460Y-74510835D01*
X57131984Y-74482594D01*
X57101967Y-74447451D01*
X57077513Y-74407887D01*
X57057202Y-74359653D01*
X57039612Y-74298500D01*
X57023323Y-74220181D01*
X57006913Y-74120446D01*
X56988962Y-73995046D01*
X56979630Y-73934720D01*
X56960246Y-73844248D01*
X56938280Y-73778831D01*
X56914451Y-73739466D01*
X56889482Y-73727150D01*
X56864093Y-73742882D01*
X56839005Y-73787658D01*
X56837389Y-73791713D01*
X56821309Y-73853434D01*
X56810391Y-73936844D01*
X56804852Y-74034611D01*
X56804909Y-74139402D01*
X56810778Y-74243885D01*
X56822675Y-74340727D01*
X56823539Y-74345955D01*
X56833800Y-74410947D01*
X56838608Y-74453886D01*
X56837813Y-74481841D01*
X56831261Y-74501883D01*
X56818801Y-74521082D01*
X56817642Y-74522639D01*
X56777204Y-74555280D01*
X56729939Y-74561662D01*
X56683899Y-74540617D01*
X56677966Y-74534565D01*
X56657810Y-74495138D01*
X56640338Y-74432588D01*
X56625959Y-74352302D01*
X56615084Y-74259663D01*
X56608121Y-74160058D01*
X56605479Y-74058870D01*
X56607568Y-73961485D01*
X56614797Y-73873287D01*
X56627576Y-73799662D01*
X56647361Y-73731919D01*
X56691472Y-73636976D01*
X56748298Y-73568868D01*
X56817615Y-73527831D01*
X56899199Y-73514099D01*
X56940802Y-73515347D01*
G36*
X56940802Y-73515347D02*
G01*
X56973816Y-73523059D01*
X57002666Y-73542773D01*
X57039080Y-73580014D01*
X57048837Y-73590636D01*
X57076666Y-73622202D01*
X57099260Y-73652016D01*
X57117837Y-73684014D01*
X57133615Y-73722128D01*
X57147812Y-73770292D01*
X57161647Y-73832440D01*
X57176338Y-73912506D01*
X57193103Y-74014424D01*
X57213161Y-74142126D01*
X57217200Y-74166575D01*
X57235334Y-74249558D01*
X57256281Y-74309759D01*
X57279009Y-74344753D01*
X57302487Y-74352114D01*
X57308172Y-74348625D01*
X57328229Y-74324750D01*
X57350375Y-74287305D01*
X57358351Y-74270264D01*
X57367927Y-74241908D01*
X57374287Y-74206779D01*
X57378040Y-74159057D01*
X57379794Y-74092924D01*
X57380158Y-74002561D01*
X57380061Y-73978883D01*
X57378582Y-73888855D01*
X57375619Y-73802398D01*
X57371537Y-73728341D01*
X57366698Y-73675511D01*
X57361282Y-73628233D01*
X57360240Y-73589288D01*
X57366363Y-73564124D01*
X57380576Y-73544002D01*
X57385359Y-73539134D01*
X57427662Y-73517377D01*
X57475130Y-73519135D01*
X57515895Y-73544373D01*
X57531346Y-73571494D01*
X57548248Y-73619401D01*
X57561628Y-73675882D01*
X57562425Y-73680476D01*
X57569370Y-73737284D01*
X57575193Y-73813687D01*
X57579304Y-73900248D01*
X57581113Y-73987531D01*
X57581169Y-74009143D01*
X57577870Y-74140032D01*
X57567211Y-74246610D01*
X57547864Y-74333388D01*
X57518502Y-74404876D01*
X57477798Y-74465587D01*
X57424424Y-74520031D01*
X57389507Y-74546819D01*
X57350169Y-74562298D01*
X57297292Y-74566170D01*
X57281357Y-74565983D01*
X57237846Y-74560827D01*
X57202531Y-74544338D01*
X57161460Y-74510835D01*
X57131984Y-74482594D01*
X57101967Y-74447451D01*
X57077513Y-74407887D01*
X57057202Y-74359653D01*
X57039612Y-74298500D01*
X57023323Y-74220181D01*
X57006913Y-74120446D01*
X56988962Y-73995046D01*
X56979630Y-73934720D01*
X56960246Y-73844248D01*
X56938280Y-73778831D01*
X56914451Y-73739466D01*
X56889482Y-73727150D01*
X56864093Y-73742882D01*
X56839005Y-73787658D01*
X56837389Y-73791713D01*
X56821309Y-73853434D01*
X56810391Y-73936844D01*
X56804852Y-74034611D01*
X56804909Y-74139402D01*
X56810778Y-74243885D01*
X56822675Y-74340727D01*
X56823539Y-74345955D01*
X56833800Y-74410947D01*
X56838608Y-74453886D01*
X56837813Y-74481841D01*
X56831261Y-74501883D01*
X56818801Y-74521082D01*
X56817642Y-74522639D01*
X56777204Y-74555280D01*
X56729939Y-74561662D01*
X56683899Y-74540617D01*
X56677966Y-74534565D01*
X56657810Y-74495138D01*
X56640338Y-74432588D01*
X56625959Y-74352302D01*
X56615084Y-74259663D01*
X56608121Y-74160058D01*
X56605479Y-74058870D01*
X56607568Y-73961485D01*
X56614797Y-73873287D01*
X56627576Y-73799662D01*
X56647361Y-73731919D01*
X56691472Y-73636976D01*
X56748298Y-73568868D01*
X56817615Y-73527831D01*
X56899199Y-73514099D01*
X56940802Y-73515347D01*
G37*
X48888539Y-74373968D02*
X48955270Y-74377650D01*
X49007334Y-74386678D01*
X49056686Y-74403306D01*
X49115286Y-74429788D01*
X49130902Y-74437448D01*
X49273893Y-74527994D01*
X49391543Y-74641875D01*
X49481089Y-74775859D01*
X49539772Y-74926714D01*
X49556147Y-75004119D01*
X49563810Y-75161151D01*
X49539016Y-75313247D01*
X49484306Y-75455946D01*
X49402223Y-75584788D01*
X49295309Y-75695314D01*
X49166107Y-75783064D01*
X49017158Y-75843577D01*
X48895265Y-75865717D01*
X48760751Y-75867712D01*
X48629908Y-75849705D01*
X48516572Y-75812554D01*
X48435543Y-75769628D01*
X48306987Y-75674067D01*
X48205527Y-75560779D01*
X48131172Y-75433929D01*
X48083933Y-75297682D01*
X48063818Y-75156205D01*
X48070839Y-75013663D01*
X48105005Y-74874221D01*
X48166325Y-74742045D01*
X48254810Y-74621301D01*
X48370470Y-74516154D01*
X48513313Y-74430770D01*
X48563633Y-74407879D01*
X48614636Y-74389334D01*
X48665624Y-74378928D01*
X48728691Y-74374367D01*
X48815929Y-74373357D01*
X48888539Y-74373968D01*
G36*
X48888539Y-74373968D02*
G01*
X48955270Y-74377650D01*
X49007334Y-74386678D01*
X49056686Y-74403306D01*
X49115286Y-74429788D01*
X49130902Y-74437448D01*
X49273893Y-74527994D01*
X49391543Y-74641875D01*
X49481089Y-74775859D01*
X49539772Y-74926714D01*
X49556147Y-75004119D01*
X49563810Y-75161151D01*
X49539016Y-75313247D01*
X49484306Y-75455946D01*
X49402223Y-75584788D01*
X49295309Y-75695314D01*
X49166107Y-75783064D01*
X49017158Y-75843577D01*
X48895265Y-75865717D01*
X48760751Y-75867712D01*
X48629908Y-75849705D01*
X48516572Y-75812554D01*
X48435543Y-75769628D01*
X48306987Y-75674067D01*
X48205527Y-75560779D01*
X48131172Y-75433929D01*
X48083933Y-75297682D01*
X48063818Y-75156205D01*
X48070839Y-75013663D01*
X48105005Y-74874221D01*
X48166325Y-74742045D01*
X48254810Y-74621301D01*
X48370470Y-74516154D01*
X48513313Y-74430770D01*
X48563633Y-74407879D01*
X48614636Y-74389334D01*
X48665624Y-74378928D01*
X48728691Y-74374367D01*
X48815929Y-74373357D01*
X48888539Y-74373968D01*
G37*
X57150357Y-86393392D02*
X57305286Y-86394036D01*
X57324158Y-86394128D01*
X57406386Y-86394908D01*
X57464544Y-86396669D01*
X57503660Y-86400058D01*
X57528761Y-86405723D01*
X57544876Y-86414312D01*
X57557032Y-86426473D01*
X57580220Y-86471017D01*
X57576357Y-86517546D01*
X57543733Y-86558689D01*
X57526155Y-86570684D01*
X57501477Y-86580604D01*
X57466824Y-86586419D01*
X57415505Y-86589155D01*
X57340833Y-86589839D01*
X57177535Y-86589839D01*
X57177535Y-87251141D01*
X57357038Y-87251141D01*
X57404688Y-87251238D01*
X57466370Y-87252253D01*
X57507022Y-87255151D01*
X57532358Y-87260872D01*
X57548092Y-87270356D01*
X57559937Y-87284544D01*
X57580000Y-87327482D01*
X57576449Y-87374461D01*
X57543733Y-87415375D01*
X57535405Y-87421574D01*
X57521394Y-87429476D01*
X57502848Y-87435509D01*
X57476123Y-87439923D01*
X57437570Y-87442971D01*
X57383544Y-87444903D01*
X57310398Y-87445972D01*
X57214486Y-87446429D01*
X57092162Y-87446525D01*
X56680192Y-87446525D01*
X56643301Y-87409635D01*
X56613688Y-87367859D01*
X56610107Y-87323619D01*
X56636470Y-87281200D01*
X56649478Y-87270169D01*
X56670636Y-87260301D01*
X56702545Y-87254526D01*
X56751636Y-87251816D01*
X56824339Y-87251141D01*
X56982150Y-87251141D01*
X56982150Y-86589839D01*
X56828360Y-86589839D01*
X56759533Y-86589256D01*
X56713568Y-86586641D01*
X56683511Y-86580629D01*
X56662407Y-86569853D01*
X56643301Y-86552948D01*
X56613688Y-86511172D01*
X56610107Y-86466933D01*
X56636470Y-86424514D01*
X56644711Y-86417015D01*
X56655636Y-86410238D01*
X56671315Y-86404798D01*
X56694559Y-86400566D01*
X56728181Y-86397416D01*
X56774992Y-86395218D01*
X56837803Y-86393845D01*
X56919427Y-86393168D01*
X57022674Y-86393060D01*
X57150357Y-86393392D01*
G36*
X57150357Y-86393392D02*
G01*
X57305286Y-86394036D01*
X57324158Y-86394128D01*
X57406386Y-86394908D01*
X57464544Y-86396669D01*
X57503660Y-86400058D01*
X57528761Y-86405723D01*
X57544876Y-86414312D01*
X57557032Y-86426473D01*
X57580220Y-86471017D01*
X57576357Y-86517546D01*
X57543733Y-86558689D01*
X57526155Y-86570684D01*
X57501477Y-86580604D01*
X57466824Y-86586419D01*
X57415505Y-86589155D01*
X57340833Y-86589839D01*
X57177535Y-86589839D01*
X57177535Y-87251141D01*
X57357038Y-87251141D01*
X57404688Y-87251238D01*
X57466370Y-87252253D01*
X57507022Y-87255151D01*
X57532358Y-87260872D01*
X57548092Y-87270356D01*
X57559937Y-87284544D01*
X57580000Y-87327482D01*
X57576449Y-87374461D01*
X57543733Y-87415375D01*
X57535405Y-87421574D01*
X57521394Y-87429476D01*
X57502848Y-87435509D01*
X57476123Y-87439923D01*
X57437570Y-87442971D01*
X57383544Y-87444903D01*
X57310398Y-87445972D01*
X57214486Y-87446429D01*
X57092162Y-87446525D01*
X56680192Y-87446525D01*
X56643301Y-87409635D01*
X56613688Y-87367859D01*
X56610107Y-87323619D01*
X56636470Y-87281200D01*
X56649478Y-87270169D01*
X56670636Y-87260301D01*
X56702545Y-87254526D01*
X56751636Y-87251816D01*
X56824339Y-87251141D01*
X56982150Y-87251141D01*
X56982150Y-86589839D01*
X56828360Y-86589839D01*
X56759533Y-86589256D01*
X56713568Y-86586641D01*
X56683511Y-86580629D01*
X56662407Y-86569853D01*
X56643301Y-86552948D01*
X56613688Y-86511172D01*
X56610107Y-86466933D01*
X56636470Y-86424514D01*
X56644711Y-86417015D01*
X56655636Y-86410238D01*
X56671315Y-86404798D01*
X56694559Y-86400566D01*
X56728181Y-86397416D01*
X56774992Y-86395218D01*
X56837803Y-86393845D01*
X56919427Y-86393168D01*
X57022674Y-86393060D01*
X57150357Y-86393392D01*
G37*
X57194401Y-72221604D02*
X57298481Y-72221935D01*
X57378648Y-72222782D01*
X57438398Y-72224376D01*
X57481228Y-72226947D01*
X57510634Y-72230725D01*
X57530112Y-72235942D01*
X57543160Y-72242829D01*
X57553274Y-72251614D01*
X57557504Y-72256053D01*
X57565640Y-72267399D01*
X57571863Y-72283378D01*
X57576430Y-72307623D01*
X57579595Y-72343765D01*
X57581613Y-72395437D01*
X57582739Y-72466272D01*
X57583227Y-72559902D01*
X57583334Y-72679957D01*
X57583318Y-72736019D01*
X57583075Y-72844055D01*
X57582339Y-72927255D01*
X57580854Y-72989251D01*
X57578365Y-73033675D01*
X57574618Y-73064160D01*
X57569357Y-73084338D01*
X57562327Y-73097841D01*
X57553274Y-73108301D01*
X57524518Y-73127907D01*
X57485641Y-73138360D01*
X57453813Y-73131039D01*
X57418008Y-73108301D01*
X57411873Y-73101672D01*
X57403503Y-73088658D01*
X57397345Y-73069865D01*
X57393063Y-73041247D01*
X57390320Y-72998757D01*
X57388778Y-72938349D01*
X57388100Y-72855976D01*
X57387949Y-72747591D01*
X57387949Y-72416940D01*
X57177535Y-72416940D01*
X57177535Y-72631525D01*
X57177341Y-72679211D01*
X57175048Y-72766580D01*
X57169143Y-72829475D01*
X57158353Y-72871726D01*
X57141404Y-72897163D01*
X57117021Y-72909616D01*
X57083931Y-72912916D01*
X57056963Y-72911854D01*
X57027905Y-72904862D01*
X57007467Y-72887829D01*
X56994159Y-72856755D01*
X56986496Y-72807643D01*
X56982989Y-72736492D01*
X56982150Y-72639304D01*
X56982150Y-72415440D01*
X56809310Y-72424454D01*
X56805251Y-72754255D01*
X56804081Y-72837586D01*
X56802158Y-72928732D01*
X56799588Y-72996504D01*
X56796059Y-73044770D01*
X56791261Y-73077398D01*
X56784885Y-73098254D01*
X56776620Y-73111207D01*
X56768095Y-73119216D01*
X56725916Y-73136535D01*
X56678404Y-73131795D01*
X56637055Y-73105467D01*
X56633163Y-73101137D01*
X56624707Y-73089182D01*
X56618247Y-73073068D01*
X56613515Y-73049095D01*
X56610244Y-73013563D01*
X56608165Y-72962773D01*
X56607012Y-72893024D01*
X56606516Y-72800616D01*
X56606410Y-72681850D01*
X56606432Y-72608980D01*
X56606688Y-72506337D01*
X56607466Y-72427858D01*
X56609052Y-72369828D01*
X56611732Y-72328531D01*
X56615790Y-72300250D01*
X56621512Y-72281268D01*
X56629183Y-72267871D01*
X56639090Y-72256340D01*
X56641327Y-72253964D01*
X56651364Y-72244320D01*
X56663370Y-72236809D01*
X56680857Y-72231163D01*
X56707334Y-72227117D01*
X56746315Y-72224404D01*
X56801310Y-72222758D01*
X56875830Y-72221912D01*
X56973387Y-72221600D01*
X57097492Y-72221555D01*
X57194401Y-72221604D01*
G36*
X57194401Y-72221604D02*
G01*
X57298481Y-72221935D01*
X57378648Y-72222782D01*
X57438398Y-72224376D01*
X57481228Y-72226947D01*
X57510634Y-72230725D01*
X57530112Y-72235942D01*
X57543160Y-72242829D01*
X57553274Y-72251614D01*
X57557504Y-72256053D01*
X57565640Y-72267399D01*
X57571863Y-72283378D01*
X57576430Y-72307623D01*
X57579595Y-72343765D01*
X57581613Y-72395437D01*
X57582739Y-72466272D01*
X57583227Y-72559902D01*
X57583334Y-72679957D01*
X57583318Y-72736019D01*
X57583075Y-72844055D01*
X57582339Y-72927255D01*
X57580854Y-72989251D01*
X57578365Y-73033675D01*
X57574618Y-73064160D01*
X57569357Y-73084338D01*
X57562327Y-73097841D01*
X57553274Y-73108301D01*
X57524518Y-73127907D01*
X57485641Y-73138360D01*
X57453813Y-73131039D01*
X57418008Y-73108301D01*
X57411873Y-73101672D01*
X57403503Y-73088658D01*
X57397345Y-73069865D01*
X57393063Y-73041247D01*
X57390320Y-72998757D01*
X57388778Y-72938349D01*
X57388100Y-72855976D01*
X57387949Y-72747591D01*
X57387949Y-72416940D01*
X57177535Y-72416940D01*
X57177535Y-72631525D01*
X57177341Y-72679211D01*
X57175048Y-72766580D01*
X57169143Y-72829475D01*
X57158353Y-72871726D01*
X57141404Y-72897163D01*
X57117021Y-72909616D01*
X57083931Y-72912916D01*
X57056963Y-72911854D01*
X57027905Y-72904862D01*
X57007467Y-72887829D01*
X56994159Y-72856755D01*
X56986496Y-72807643D01*
X56982989Y-72736492D01*
X56982150Y-72639304D01*
X56982150Y-72415440D01*
X56809310Y-72424454D01*
X56805251Y-72754255D01*
X56804081Y-72837586D01*
X56802158Y-72928732D01*
X56799588Y-72996504D01*
X56796059Y-73044770D01*
X56791261Y-73077398D01*
X56784885Y-73098254D01*
X56776620Y-73111207D01*
X56768095Y-73119216D01*
X56725916Y-73136535D01*
X56678404Y-73131795D01*
X56637055Y-73105467D01*
X56633163Y-73101137D01*
X56624707Y-73089182D01*
X56618247Y-73073068D01*
X56613515Y-73049095D01*
X56610244Y-73013563D01*
X56608165Y-72962773D01*
X56607012Y-72893024D01*
X56606516Y-72800616D01*
X56606410Y-72681850D01*
X56606432Y-72608980D01*
X56606688Y-72506337D01*
X56607466Y-72427858D01*
X56609052Y-72369828D01*
X56611732Y-72328531D01*
X56615790Y-72300250D01*
X56621512Y-72281268D01*
X56629183Y-72267871D01*
X56639090Y-72256340D01*
X56641327Y-72253964D01*
X56651364Y-72244320D01*
X56663370Y-72236809D01*
X56680857Y-72231163D01*
X56707334Y-72227117D01*
X56746315Y-72224404D01*
X56801310Y-72222758D01*
X56875830Y-72221912D01*
X56973387Y-72221600D01*
X57097492Y-72221555D01*
X57194401Y-72221604D01*
G37*
X53873204Y-68776183D02*
X54162398Y-68776338D01*
X54423091Y-68776661D01*
X54656784Y-68777199D01*
X54864976Y-68777999D01*
X55049168Y-68779108D01*
X55156857Y-68780084D01*
X55210860Y-68780572D01*
X55351553Y-68782440D01*
X55472746Y-68784759D01*
X55575940Y-68787575D01*
X55662635Y-68790936D01*
X55734332Y-68794890D01*
X55792530Y-68799483D01*
X55838730Y-68804762D01*
X55874433Y-68810775D01*
X55901137Y-68817570D01*
X55920345Y-68825192D01*
X55933555Y-68833691D01*
X55942268Y-68843111D01*
X55947985Y-68853502D01*
X55952206Y-68864910D01*
X55956430Y-68877382D01*
X55962159Y-68890966D01*
X55965030Y-68898609D01*
X55968165Y-68912629D01*
X55971037Y-68933462D01*
X55973659Y-68962579D01*
X55976040Y-69001456D01*
X55978194Y-69051566D01*
X55980130Y-69114383D01*
X55981862Y-69191380D01*
X55983400Y-69284031D01*
X55984756Y-69393810D01*
X55985941Y-69522190D01*
X55986968Y-69670646D01*
X55987846Y-69840650D01*
X55988589Y-70033677D01*
X55989207Y-70251200D01*
X55989713Y-70494692D01*
X55990116Y-70765629D01*
X55990430Y-71065483D01*
X55990665Y-71395727D01*
X55990834Y-71757836D01*
X55990947Y-72153284D01*
X55991016Y-72583544D01*
X55991029Y-72719892D01*
X55991038Y-73140814D01*
X55990985Y-73527353D01*
X55990860Y-73880966D01*
X55990652Y-74203110D01*
X55990351Y-74495239D01*
X55989946Y-74758812D01*
X55989426Y-74995284D01*
X55988782Y-75206110D01*
X55988002Y-75392749D01*
X55987076Y-75556655D01*
X55985993Y-75699285D01*
X55984743Y-75822095D01*
X55983315Y-75926542D01*
X55981698Y-76014081D01*
X55979883Y-76086170D01*
X55977858Y-76144264D01*
X55975613Y-76189820D01*
X55973137Y-76224293D01*
X55970420Y-76249141D01*
X55967451Y-76265819D01*
X55964220Y-76275783D01*
X55962782Y-76278954D01*
X55958058Y-76291933D01*
X55954608Y-76303835D01*
X55950930Y-76314708D01*
X55945521Y-76324602D01*
X55936879Y-76333563D01*
X55923502Y-76341641D01*
X55903886Y-76348884D01*
X55876531Y-76355339D01*
X55839933Y-76361055D01*
X55792590Y-76366081D01*
X55733000Y-76370464D01*
X55659659Y-76374253D01*
X55571067Y-76377496D01*
X55465720Y-76380241D01*
X55342117Y-76382537D01*
X55198754Y-76384432D01*
X55034129Y-76385974D01*
X54846740Y-76387211D01*
X54635085Y-76388192D01*
X54397661Y-76388965D01*
X54132966Y-76389578D01*
X53839498Y-76390079D01*
X53515753Y-76390516D01*
X53160230Y-76390939D01*
X52771426Y-76391395D01*
X52347840Y-76391932D01*
X52296560Y-76392001D01*
X51875657Y-76392600D01*
X51489362Y-76393173D01*
X51136172Y-76393677D01*
X50814584Y-76394070D01*
X50523094Y-76394310D01*
X50260200Y-76394354D01*
X50024398Y-76394160D01*
X49814186Y-76393686D01*
X49628060Y-76392888D01*
X49464517Y-76391726D01*
X49322055Y-76390156D01*
X49199170Y-76388136D01*
X49094359Y-76385623D01*
X49006119Y-76382576D01*
X48932947Y-76378951D01*
X48873340Y-76374707D01*
X48825795Y-76369802D01*
X48788808Y-76364192D01*
X48760878Y-76357835D01*
X48740500Y-76350689D01*
X48726171Y-76342712D01*
X48716390Y-76333861D01*
X48709651Y-76324094D01*
X48704454Y-76313368D01*
X48699293Y-76301642D01*
X48692667Y-76288872D01*
X48690556Y-76285135D01*
X48670118Y-76228595D01*
X48661717Y-76166700D01*
X48661720Y-76096928D01*
X48820467Y-76095766D01*
X48838735Y-76095471D01*
X49024427Y-76073294D01*
X49199147Y-76016812D01*
X49361043Y-75926808D01*
X49508265Y-75804068D01*
X49548433Y-75760007D01*
X51111000Y-75760007D01*
X52993322Y-75765182D01*
X54875643Y-75770357D01*
X54984008Y-75821097D01*
X55037719Y-75847849D01*
X55091524Y-75878140D01*
X55124615Y-75901016D01*
X55124679Y-75901074D01*
X55132367Y-75906627D01*
X55138725Y-75906102D01*
X55143877Y-75896479D01*
X55147950Y-75874736D01*
X55151070Y-75837852D01*
X55153365Y-75782807D01*
X55154959Y-75706581D01*
X55155979Y-75606152D01*
X55156551Y-75478499D01*
X55156802Y-75320602D01*
X55156857Y-75129441D01*
X55156857Y-74328686D01*
X55034393Y-74396379D01*
X54911929Y-74464071D01*
X51355929Y-74464071D01*
X51233465Y-74396379D01*
X51111000Y-74328686D01*
X51111000Y-75760007D01*
X49548433Y-75760007D01*
X49568311Y-75738202D01*
X49667838Y-75591546D01*
X49737242Y-75431530D01*
X49776487Y-75262815D01*
X49785537Y-75090061D01*
X49764353Y-74917928D01*
X49712899Y-74751078D01*
X49631138Y-74594170D01*
X49519032Y-74451864D01*
X49479510Y-74412305D01*
X49333175Y-74295380D01*
X49174367Y-74212412D01*
X49002063Y-74162957D01*
X48815238Y-74146571D01*
X48661715Y-74146571D01*
X48661715Y-74006873D01*
X49641429Y-74006873D01*
X49698862Y-73927043D01*
X49752841Y-73859530D01*
X49840886Y-73764397D01*
X49951230Y-73656493D01*
X50079670Y-73539903D01*
X50222000Y-73418715D01*
X50260062Y-73387506D01*
X50325343Y-73334371D01*
X50410988Y-73264917D01*
X50514140Y-73181444D01*
X50631939Y-73086254D01*
X50761528Y-72981646D01*
X50900047Y-72869923D01*
X51044639Y-72753385D01*
X51111000Y-72699933D01*
X51192444Y-72634333D01*
X51340603Y-72515068D01*
X51486260Y-72397891D01*
X51626554Y-72285104D01*
X51758627Y-72179006D01*
X51879621Y-72081899D01*
X51986678Y-71996084D01*
X52076938Y-71923862D01*
X52147543Y-71867534D01*
X52195635Y-71829401D01*
X52218355Y-71811763D01*
X52226893Y-71810308D01*
X52243132Y-71815150D01*
X52268679Y-71827698D01*
X52305347Y-71849203D01*
X52354949Y-71880920D01*
X52419295Y-71924100D01*
X52500198Y-71979995D01*
X52599471Y-72049859D01*
X52718926Y-72134943D01*
X52860374Y-72236501D01*
X53025629Y-72355784D01*
X53216501Y-72494046D01*
X53434804Y-72652538D01*
X53608571Y-72778823D01*
X53820407Y-72932895D01*
X54006440Y-73068420D01*
X54168734Y-73186976D01*
X54309354Y-73290139D01*
X54430365Y-73379485D01*
X54533832Y-73456589D01*
X54621818Y-73523028D01*
X54696390Y-73580377D01*
X54759610Y-73630214D01*
X54813545Y-73674114D01*
X54860258Y-73713653D01*
X54901814Y-73750407D01*
X54940279Y-73785953D01*
X54977715Y-73821865D01*
X55016189Y-73859722D01*
X55156857Y-73999229D01*
X55156933Y-72123643D01*
X55043275Y-72129536D01*
X55037564Y-72129821D01*
X54992127Y-72130940D01*
X54948593Y-72128819D01*
X54904576Y-72122042D01*
X54857693Y-72109188D01*
X54805558Y-72088840D01*
X54745786Y-72059580D01*
X54675994Y-72019988D01*
X54593797Y-71968647D01*
X54496809Y-71904138D01*
X54382647Y-71825043D01*
X54248925Y-71729943D01*
X54093260Y-71617419D01*
X53913265Y-71486054D01*
X53706557Y-71334428D01*
X52977911Y-70799214D01*
X53822755Y-70794499D01*
X53901562Y-70794081D01*
X54113832Y-70793344D01*
X54294381Y-70793679D01*
X54446628Y-70795481D01*
X54573988Y-70799144D01*
X54679878Y-70805064D01*
X54767715Y-70813633D01*
X54840916Y-70825249D01*
X54902898Y-70840303D01*
X54957076Y-70859193D01*
X55006869Y-70882311D01*
X55055693Y-70910053D01*
X55106964Y-70942813D01*
X55156857Y-70975744D01*
X55156857Y-69264296D01*
X55097893Y-69308504D01*
X55088565Y-69315428D01*
X55003070Y-69370779D01*
X54916644Y-69408936D01*
X54817613Y-69433992D01*
X54694304Y-69450041D01*
X54688929Y-69450482D01*
X54638067Y-69452811D01*
X54553206Y-69454913D01*
X54436286Y-69456781D01*
X54289246Y-69458404D01*
X54114026Y-69459773D01*
X53912563Y-69460880D01*
X53686798Y-69461715D01*
X53438669Y-69462268D01*
X53170115Y-69462532D01*
X52883077Y-69462497D01*
X52579492Y-69462153D01*
X52261300Y-69461492D01*
X51975881Y-69460791D01*
X51665196Y-69460042D01*
X51387226Y-69459304D01*
X51140022Y-69458485D01*
X50921637Y-69457493D01*
X50730125Y-69456234D01*
X50563537Y-69454617D01*
X50419925Y-69452548D01*
X50297344Y-69449935D01*
X50193844Y-69446685D01*
X50107479Y-69442707D01*
X50036301Y-69437906D01*
X49978363Y-69432191D01*
X49931717Y-69425468D01*
X49894416Y-69417646D01*
X49864512Y-69408632D01*
X49840058Y-69398333D01*
X49819106Y-69386656D01*
X49799709Y-69373508D01*
X49779920Y-69358798D01*
X49757791Y-69342433D01*
X49735615Y-69326604D01*
X49691769Y-69296009D01*
X49664107Y-69277683D01*
X49662949Y-69277241D01*
X49657718Y-69283640D01*
X49653353Y-69306221D01*
X49649788Y-69347498D01*
X49646954Y-69409983D01*
X49644787Y-69496188D01*
X49643217Y-69608627D01*
X49642179Y-69749812D01*
X49641605Y-69922255D01*
X49641429Y-70128470D01*
X49641429Y-70992940D01*
X49695574Y-70947379D01*
X49732763Y-70920974D01*
X49820446Y-70877022D01*
X49929499Y-70838505D01*
X50050468Y-70809107D01*
X50061952Y-70807234D01*
X50122492Y-70801659D01*
X50216056Y-70797437D01*
X50343292Y-70794557D01*
X50504846Y-70793008D01*
X50701368Y-70792779D01*
X50933504Y-70793857D01*
X51708508Y-70799214D01*
X51008742Y-71352571D01*
X50988698Y-71368421D01*
X50811052Y-71508747D01*
X50658914Y-71628547D01*
X50529698Y-71729730D01*
X50420817Y-71814200D01*
X50329685Y-71883865D01*
X50253714Y-71940632D01*
X50190317Y-71986406D01*
X50136908Y-72023094D01*
X50090901Y-72052604D01*
X50049707Y-72076841D01*
X50010741Y-72097712D01*
X49971415Y-72117123D01*
X49901805Y-72146985D01*
X49828372Y-72166276D01*
X49749165Y-72171408D01*
X49641429Y-72170892D01*
X49641429Y-74006873D01*
X48661715Y-74006873D01*
X48661714Y-71542170D01*
X48661707Y-71379460D01*
X48661660Y-71029911D01*
X48661626Y-70714144D01*
X48661673Y-70430412D01*
X48661872Y-70176969D01*
X48662291Y-69952069D01*
X48662998Y-69753966D01*
X48664065Y-69580913D01*
X48665558Y-69431165D01*
X48667547Y-69302975D01*
X48670102Y-69194597D01*
X48673291Y-69104285D01*
X48677183Y-69030293D01*
X48681848Y-68970875D01*
X48687354Y-68924284D01*
X48693771Y-68888774D01*
X48701167Y-68862600D01*
X48709611Y-68844014D01*
X48719173Y-68831272D01*
X48729922Y-68822626D01*
X48741926Y-68816330D01*
X48755255Y-68810640D01*
X48769978Y-68803807D01*
X48770218Y-68803684D01*
X48779856Y-68800367D01*
X48795993Y-68797324D01*
X48820121Y-68794544D01*
X48853727Y-68792015D01*
X48898301Y-68789726D01*
X48955333Y-68787666D01*
X49026311Y-68785821D01*
X49112725Y-68784183D01*
X49216064Y-68782737D01*
X49337818Y-68781474D01*
X49479475Y-68780381D01*
X49642526Y-68779447D01*
X49828458Y-68778660D01*
X50038762Y-68778009D01*
X50274927Y-68777483D01*
X50538442Y-68777069D01*
X50830797Y-68776756D01*
X51153480Y-68776533D01*
X51507981Y-68776388D01*
X51895789Y-68776309D01*
X52318393Y-68776286D01*
X52401414Y-68776285D01*
X52819614Y-68776245D01*
X53203313Y-68776183D01*
X53554009Y-68776146D01*
X53873204Y-68776183D01*
G36*
X53873204Y-68776183D02*
G01*
X54162398Y-68776338D01*
X54423091Y-68776661D01*
X54656784Y-68777199D01*
X54864976Y-68777999D01*
X55049168Y-68779108D01*
X55156857Y-68780084D01*
X55210860Y-68780572D01*
X55351553Y-68782440D01*
X55472746Y-68784759D01*
X55575940Y-68787575D01*
X55662635Y-68790936D01*
X55734332Y-68794890D01*
X55792530Y-68799483D01*
X55838730Y-68804762D01*
X55874433Y-68810775D01*
X55901137Y-68817570D01*
X55920345Y-68825192D01*
X55933555Y-68833691D01*
X55942268Y-68843111D01*
X55947985Y-68853502D01*
X55952206Y-68864910D01*
X55956430Y-68877382D01*
X55962159Y-68890966D01*
X55965030Y-68898609D01*
X55968165Y-68912629D01*
X55971037Y-68933462D01*
X55973659Y-68962579D01*
X55976040Y-69001456D01*
X55978194Y-69051566D01*
X55980130Y-69114383D01*
X55981862Y-69191380D01*
X55983400Y-69284031D01*
X55984756Y-69393810D01*
X55985941Y-69522190D01*
X55986968Y-69670646D01*
X55987846Y-69840650D01*
X55988589Y-70033677D01*
X55989207Y-70251200D01*
X55989713Y-70494692D01*
X55990116Y-70765629D01*
X55990430Y-71065483D01*
X55990665Y-71395727D01*
X55990834Y-71757836D01*
X55990947Y-72153284D01*
X55991016Y-72583544D01*
X55991029Y-72719892D01*
X55991038Y-73140814D01*
X55990985Y-73527353D01*
X55990860Y-73880966D01*
X55990652Y-74203110D01*
X55990351Y-74495239D01*
X55989946Y-74758812D01*
X55989426Y-74995284D01*
X55988782Y-75206110D01*
X55988002Y-75392749D01*
X55987076Y-75556655D01*
X55985993Y-75699285D01*
X55984743Y-75822095D01*
X55983315Y-75926542D01*
X55981698Y-76014081D01*
X55979883Y-76086170D01*
X55977858Y-76144264D01*
X55975613Y-76189820D01*
X55973137Y-76224293D01*
X55970420Y-76249141D01*
X55967451Y-76265819D01*
X55964220Y-76275783D01*
X55962782Y-76278954D01*
X55958058Y-76291933D01*
X55954608Y-76303835D01*
X55950930Y-76314708D01*
X55945521Y-76324602D01*
X55936879Y-76333563D01*
X55923502Y-76341641D01*
X55903886Y-76348884D01*
X55876531Y-76355339D01*
X55839933Y-76361055D01*
X55792590Y-76366081D01*
X55733000Y-76370464D01*
X55659659Y-76374253D01*
X55571067Y-76377496D01*
X55465720Y-76380241D01*
X55342117Y-76382537D01*
X55198754Y-76384432D01*
X55034129Y-76385974D01*
X54846740Y-76387211D01*
X54635085Y-76388192D01*
X54397661Y-76388965D01*
X54132966Y-76389578D01*
X53839498Y-76390079D01*
X53515753Y-76390516D01*
X53160230Y-76390939D01*
X52771426Y-76391395D01*
X52347840Y-76391932D01*
X52296560Y-76392001D01*
X51875657Y-76392600D01*
X51489362Y-76393173D01*
X51136172Y-76393677D01*
X50814584Y-76394070D01*
X50523094Y-76394310D01*
X50260200Y-76394354D01*
X50024398Y-76394160D01*
X49814186Y-76393686D01*
X49628060Y-76392888D01*
X49464517Y-76391726D01*
X49322055Y-76390156D01*
X49199170Y-76388136D01*
X49094359Y-76385623D01*
X49006119Y-76382576D01*
X48932947Y-76378951D01*
X48873340Y-76374707D01*
X48825795Y-76369802D01*
X48788808Y-76364192D01*
X48760878Y-76357835D01*
X48740500Y-76350689D01*
X48726171Y-76342712D01*
X48716390Y-76333861D01*
X48709651Y-76324094D01*
X48704454Y-76313368D01*
X48699293Y-76301642D01*
X48692667Y-76288872D01*
X48690556Y-76285135D01*
X48670118Y-76228595D01*
X48661717Y-76166700D01*
X48661720Y-76096928D01*
X48820467Y-76095766D01*
X48838735Y-76095471D01*
X49024427Y-76073294D01*
X49199147Y-76016812D01*
X49361043Y-75926808D01*
X49508265Y-75804068D01*
X49548433Y-75760007D01*
X51111000Y-75760007D01*
X52993322Y-75765182D01*
X54875643Y-75770357D01*
X54984008Y-75821097D01*
X55037719Y-75847849D01*
X55091524Y-75878140D01*
X55124615Y-75901016D01*
X55124679Y-75901074D01*
X55132367Y-75906627D01*
X55138725Y-75906102D01*
X55143877Y-75896479D01*
X55147950Y-75874736D01*
X55151070Y-75837852D01*
X55153365Y-75782807D01*
X55154959Y-75706581D01*
X55155979Y-75606152D01*
X55156551Y-75478499D01*
X55156802Y-75320602D01*
X55156857Y-75129441D01*
X55156857Y-74328686D01*
X55034393Y-74396379D01*
X54911929Y-74464071D01*
X51355929Y-74464071D01*
X51233465Y-74396379D01*
X51111000Y-74328686D01*
X51111000Y-75760007D01*
X49548433Y-75760007D01*
X49568311Y-75738202D01*
X49667838Y-75591546D01*
X49737242Y-75431530D01*
X49776487Y-75262815D01*
X49785537Y-75090061D01*
X49764353Y-74917928D01*
X49712899Y-74751078D01*
X49631138Y-74594170D01*
X49519032Y-74451864D01*
X49479510Y-74412305D01*
X49333175Y-74295380D01*
X49174367Y-74212412D01*
X49002063Y-74162957D01*
X48815238Y-74146571D01*
X48661715Y-74146571D01*
X48661715Y-74006873D01*
X49641429Y-74006873D01*
X49698862Y-73927043D01*
X49752841Y-73859530D01*
X49840886Y-73764397D01*
X49951230Y-73656493D01*
X50079670Y-73539903D01*
X50222000Y-73418715D01*
X50260062Y-73387506D01*
X50325343Y-73334371D01*
X50410988Y-73264917D01*
X50514140Y-73181444D01*
X50631939Y-73086254D01*
X50761528Y-72981646D01*
X50900047Y-72869923D01*
X51044639Y-72753385D01*
X51111000Y-72699933D01*
X51192444Y-72634333D01*
X51340603Y-72515068D01*
X51486260Y-72397891D01*
X51626554Y-72285104D01*
X51758627Y-72179006D01*
X51879621Y-72081899D01*
X51986678Y-71996084D01*
X52076938Y-71923862D01*
X52147543Y-71867534D01*
X52195635Y-71829401D01*
X52218355Y-71811763D01*
X52226893Y-71810308D01*
X52243132Y-71815150D01*
X52268679Y-71827698D01*
X52305347Y-71849203D01*
X52354949Y-71880920D01*
X52419295Y-71924100D01*
X52500198Y-71979995D01*
X52599471Y-72049859D01*
X52718926Y-72134943D01*
X52860374Y-72236501D01*
X53025629Y-72355784D01*
X53216501Y-72494046D01*
X53434804Y-72652538D01*
X53608571Y-72778823D01*
X53820407Y-72932895D01*
X54006440Y-73068420D01*
X54168734Y-73186976D01*
X54309354Y-73290139D01*
X54430365Y-73379485D01*
X54533832Y-73456589D01*
X54621818Y-73523028D01*
X54696390Y-73580377D01*
X54759610Y-73630214D01*
X54813545Y-73674114D01*
X54860258Y-73713653D01*
X54901814Y-73750407D01*
X54940279Y-73785953D01*
X54977715Y-73821865D01*
X55016189Y-73859722D01*
X55156857Y-73999229D01*
X55156933Y-72123643D01*
X55043275Y-72129536D01*
X55037564Y-72129821D01*
X54992127Y-72130940D01*
X54948593Y-72128819D01*
X54904576Y-72122042D01*
X54857693Y-72109188D01*
X54805558Y-72088840D01*
X54745786Y-72059580D01*
X54675994Y-72019988D01*
X54593797Y-71968647D01*
X54496809Y-71904138D01*
X54382647Y-71825043D01*
X54248925Y-71729943D01*
X54093260Y-71617419D01*
X53913265Y-71486054D01*
X53706557Y-71334428D01*
X52977911Y-70799214D01*
X53822755Y-70794499D01*
X53901562Y-70794081D01*
X54113832Y-70793344D01*
X54294381Y-70793679D01*
X54446628Y-70795481D01*
X54573988Y-70799144D01*
X54679878Y-70805064D01*
X54767715Y-70813633D01*
X54840916Y-70825249D01*
X54902898Y-70840303D01*
X54957076Y-70859193D01*
X55006869Y-70882311D01*
X55055693Y-70910053D01*
X55106964Y-70942813D01*
X55156857Y-70975744D01*
X55156857Y-69264296D01*
X55097893Y-69308504D01*
X55088565Y-69315428D01*
X55003070Y-69370779D01*
X54916644Y-69408936D01*
X54817613Y-69433992D01*
X54694304Y-69450041D01*
X54688929Y-69450482D01*
X54638067Y-69452811D01*
X54553206Y-69454913D01*
X54436286Y-69456781D01*
X54289246Y-69458404D01*
X54114026Y-69459773D01*
X53912563Y-69460880D01*
X53686798Y-69461715D01*
X53438669Y-69462268D01*
X53170115Y-69462532D01*
X52883077Y-69462497D01*
X52579492Y-69462153D01*
X52261300Y-69461492D01*
X51975881Y-69460791D01*
X51665196Y-69460042D01*
X51387226Y-69459304D01*
X51140022Y-69458485D01*
X50921637Y-69457493D01*
X50730125Y-69456234D01*
X50563537Y-69454617D01*
X50419925Y-69452548D01*
X50297344Y-69449935D01*
X50193844Y-69446685D01*
X50107479Y-69442707D01*
X50036301Y-69437906D01*
X49978363Y-69432191D01*
X49931717Y-69425468D01*
X49894416Y-69417646D01*
X49864512Y-69408632D01*
X49840058Y-69398333D01*
X49819106Y-69386656D01*
X49799709Y-69373508D01*
X49779920Y-69358798D01*
X49757791Y-69342433D01*
X49735615Y-69326604D01*
X49691769Y-69296009D01*
X49664107Y-69277683D01*
X49662949Y-69277241D01*
X49657718Y-69283640D01*
X49653353Y-69306221D01*
X49649788Y-69347498D01*
X49646954Y-69409983D01*
X49644787Y-69496188D01*
X49643217Y-69608627D01*
X49642179Y-69749812D01*
X49641605Y-69922255D01*
X49641429Y-70128470D01*
X49641429Y-70992940D01*
X49695574Y-70947379D01*
X49732763Y-70920974D01*
X49820446Y-70877022D01*
X49929499Y-70838505D01*
X50050468Y-70809107D01*
X50061952Y-70807234D01*
X50122492Y-70801659D01*
X50216056Y-70797437D01*
X50343292Y-70794557D01*
X50504846Y-70793008D01*
X50701368Y-70792779D01*
X50933504Y-70793857D01*
X51708508Y-70799214D01*
X51008742Y-71352571D01*
X50988698Y-71368421D01*
X50811052Y-71508747D01*
X50658914Y-71628547D01*
X50529698Y-71729730D01*
X50420817Y-71814200D01*
X50329685Y-71883865D01*
X50253714Y-71940632D01*
X50190317Y-71986406D01*
X50136908Y-72023094D01*
X50090901Y-72052604D01*
X50049707Y-72076841D01*
X50010741Y-72097712D01*
X49971415Y-72117123D01*
X49901805Y-72146985D01*
X49828372Y-72166276D01*
X49749165Y-72171408D01*
X49641429Y-72170892D01*
X49641429Y-74006873D01*
X48661715Y-74006873D01*
X48661714Y-71542170D01*
X48661707Y-71379460D01*
X48661660Y-71029911D01*
X48661626Y-70714144D01*
X48661673Y-70430412D01*
X48661872Y-70176969D01*
X48662291Y-69952069D01*
X48662998Y-69753966D01*
X48664065Y-69580913D01*
X48665558Y-69431165D01*
X48667547Y-69302975D01*
X48670102Y-69194597D01*
X48673291Y-69104285D01*
X48677183Y-69030293D01*
X48681848Y-68970875D01*
X48687354Y-68924284D01*
X48693771Y-68888774D01*
X48701167Y-68862600D01*
X48709611Y-68844014D01*
X48719173Y-68831272D01*
X48729922Y-68822626D01*
X48741926Y-68816330D01*
X48755255Y-68810640D01*
X48769978Y-68803807D01*
X48770218Y-68803684D01*
X48779856Y-68800367D01*
X48795993Y-68797324D01*
X48820121Y-68794544D01*
X48853727Y-68792015D01*
X48898301Y-68789726D01*
X48955333Y-68787666D01*
X49026311Y-68785821D01*
X49112725Y-68784183D01*
X49216064Y-68782737D01*
X49337818Y-68781474D01*
X49479475Y-68780381D01*
X49642526Y-68779447D01*
X49828458Y-68778660D01*
X50038762Y-68778009D01*
X50274927Y-68777483D01*
X50538442Y-68777069D01*
X50830797Y-68776756D01*
X51153480Y-68776533D01*
X51507981Y-68776388D01*
X51895789Y-68776309D01*
X52318393Y-68776286D01*
X52401414Y-68776285D01*
X52819614Y-68776245D01*
X53203313Y-68776183D01*
X53554009Y-68776146D01*
X53873204Y-68776183D01*
G37*
X57208852Y-75017113D02*
X57307668Y-75017457D01*
X57383226Y-75018350D01*
X57439104Y-75020051D01*
X57478882Y-75022819D01*
X57506136Y-75026912D01*
X57524447Y-75032591D01*
X57537391Y-75040112D01*
X57548548Y-75049737D01*
X57577125Y-75091626D01*
X57579476Y-75138444D01*
X57553274Y-75182383D01*
X57545461Y-75189449D01*
X57533367Y-75196704D01*
X57515605Y-75202250D01*
X57488690Y-75206317D01*
X57449138Y-75209131D01*
X57393465Y-75210923D01*
X57318185Y-75211919D01*
X57219816Y-75212350D01*
X57094872Y-75212443D01*
X56994140Y-75212390D01*
X56890414Y-75212051D01*
X56810519Y-75211193D01*
X56750971Y-75209590D01*
X56708284Y-75207012D01*
X56678975Y-75203231D01*
X56659559Y-75198018D01*
X56646552Y-75191145D01*
X56636470Y-75182383D01*
X56611145Y-75143530D01*
X56612264Y-75099421D01*
X56643301Y-75053949D01*
X56680192Y-75017058D01*
X57096978Y-75017058D01*
X57208852Y-75017113D01*
G36*
X57208852Y-75017113D02*
G01*
X57307668Y-75017457D01*
X57383226Y-75018350D01*
X57439104Y-75020051D01*
X57478882Y-75022819D01*
X57506136Y-75026912D01*
X57524447Y-75032591D01*
X57537391Y-75040112D01*
X57548548Y-75049737D01*
X57577125Y-75091626D01*
X57579476Y-75138444D01*
X57553274Y-75182383D01*
X57545461Y-75189449D01*
X57533367Y-75196704D01*
X57515605Y-75202250D01*
X57488690Y-75206317D01*
X57449138Y-75209131D01*
X57393465Y-75210923D01*
X57318185Y-75211919D01*
X57219816Y-75212350D01*
X57094872Y-75212443D01*
X56994140Y-75212390D01*
X56890414Y-75212051D01*
X56810519Y-75211193D01*
X56750971Y-75209590D01*
X56708284Y-75207012D01*
X56678975Y-75203231D01*
X56659559Y-75198018D01*
X56646552Y-75191145D01*
X56636470Y-75182383D01*
X56611145Y-75143530D01*
X56612264Y-75099421D01*
X56643301Y-75053949D01*
X56680192Y-75017058D01*
X57096978Y-75017058D01*
X57208852Y-75017113D01*
G37*
X57174181Y-80157210D02*
X57279072Y-80157510D01*
X57359900Y-80158332D01*
X57387949Y-80159074D01*
X57420311Y-80159929D01*
X57463950Y-80162551D01*
X57494466Y-80166450D01*
X57515504Y-80171878D01*
X57530711Y-80179086D01*
X57543733Y-80188326D01*
X57583334Y-80219476D01*
X57582543Y-80440072D01*
X57582146Y-80486398D01*
X57577579Y-80617515D01*
X57567351Y-80725304D01*
X57550632Y-80814631D01*
X57526595Y-80890363D01*
X57494409Y-80957366D01*
X57491857Y-80961838D01*
X57442972Y-81038806D01*
X57393757Y-81095195D01*
X57335862Y-81138885D01*
X57260937Y-81177761D01*
X57248135Y-81183461D01*
X57164012Y-81213520D01*
X57090284Y-81222801D01*
X57017024Y-81211349D01*
X56934304Y-81179208D01*
X56932050Y-81178149D01*
X56839624Y-81124293D01*
X56764271Y-81056814D01*
X56704935Y-80973303D01*
X56660563Y-80871353D01*
X56630101Y-80748555D01*
X56612493Y-80602501D01*
X56606687Y-80430783D01*
X56606681Y-80426028D01*
X56606817Y-80367591D01*
X56801795Y-80367591D01*
X56802392Y-80484070D01*
X56805688Y-80573164D01*
X56820668Y-80696179D01*
X56846682Y-80801776D01*
X56882594Y-80884287D01*
X56910191Y-80925479D01*
X56949820Y-80962917D01*
X57006307Y-80993990D01*
X57027564Y-81003479D01*
X57070836Y-81019221D01*
X57103362Y-81022456D01*
X57136284Y-81014983D01*
X57157424Y-81007360D01*
X57237183Y-80963518D01*
X57298097Y-80900494D01*
X57342212Y-80815599D01*
X57371575Y-80706149D01*
X57372243Y-80702430D01*
X57380181Y-80640807D01*
X57385810Y-80565723D01*
X57387949Y-80492582D01*
X57387949Y-80367591D01*
X56801795Y-80367591D01*
X56606817Y-80367591D01*
X56606867Y-80346119D01*
X56608247Y-80290294D01*
X56611701Y-80252865D01*
X56618108Y-80228143D01*
X56628348Y-80210440D01*
X56643301Y-80194067D01*
X56680192Y-80157176D01*
X57092162Y-80157176D01*
X57174181Y-80157210D01*
G36*
X57174181Y-80157210D02*
G01*
X57279072Y-80157510D01*
X57359900Y-80158332D01*
X57387949Y-80159074D01*
X57420311Y-80159929D01*
X57463950Y-80162551D01*
X57494466Y-80166450D01*
X57515504Y-80171878D01*
X57530711Y-80179086D01*
X57543733Y-80188326D01*
X57583334Y-80219476D01*
X57582543Y-80440072D01*
X57582146Y-80486398D01*
X57577579Y-80617515D01*
X57567351Y-80725304D01*
X57550632Y-80814631D01*
X57526595Y-80890363D01*
X57494409Y-80957366D01*
X57491857Y-80961838D01*
X57442972Y-81038806D01*
X57393757Y-81095195D01*
X57335862Y-81138885D01*
X57260937Y-81177761D01*
X57248135Y-81183461D01*
X57164012Y-81213520D01*
X57090284Y-81222801D01*
X57017024Y-81211349D01*
X56934304Y-81179208D01*
X56932050Y-81178149D01*
X56839624Y-81124293D01*
X56764271Y-81056814D01*
X56704935Y-80973303D01*
X56660563Y-80871353D01*
X56630101Y-80748555D01*
X56612493Y-80602501D01*
X56606687Y-80430783D01*
X56606681Y-80426028D01*
X56606817Y-80367591D01*
X56801795Y-80367591D01*
X56802392Y-80484070D01*
X56805688Y-80573164D01*
X56820668Y-80696179D01*
X56846682Y-80801776D01*
X56882594Y-80884287D01*
X56910191Y-80925479D01*
X56949820Y-80962917D01*
X57006307Y-80993990D01*
X57027564Y-81003479D01*
X57070836Y-81019221D01*
X57103362Y-81022456D01*
X57136284Y-81014983D01*
X57157424Y-81007360D01*
X57237183Y-80963518D01*
X57298097Y-80900494D01*
X57342212Y-80815599D01*
X57371575Y-80706149D01*
X57372243Y-80702430D01*
X57380181Y-80640807D01*
X57385810Y-80565723D01*
X57387949Y-80492582D01*
X57387949Y-80367591D01*
X56801795Y-80367591D01*
X56606817Y-80367591D01*
X56606867Y-80346119D01*
X56608247Y-80290294D01*
X56611701Y-80252865D01*
X56618108Y-80228143D01*
X56628348Y-80210440D01*
X56643301Y-80194067D01*
X56680192Y-80157176D01*
X57092162Y-80157176D01*
X57174181Y-80157210D01*
G37*
X57189339Y-78804552D02*
X57293607Y-78804861D01*
X57373845Y-78805687D01*
X57433621Y-78807275D01*
X57476502Y-78809868D01*
X57506056Y-78813709D01*
X57525852Y-78819042D01*
X57539457Y-78826110D01*
X57550440Y-78835158D01*
X57556641Y-78841169D01*
X57565277Y-78852126D01*
X57571816Y-78867250D01*
X57576550Y-78890240D01*
X57579769Y-78924796D01*
X57581766Y-78974614D01*
X57582831Y-79043396D01*
X57583256Y-79134839D01*
X57583334Y-79252643D01*
X57583325Y-79278837D01*
X57582970Y-79394698D01*
X57581951Y-79484768D01*
X57580068Y-79552607D01*
X57577123Y-79601776D01*
X57572919Y-79635838D01*
X57567256Y-79658354D01*
X57559937Y-79672885D01*
X57546642Y-79686855D01*
X57505214Y-79704510D01*
X57457434Y-79702936D01*
X57415434Y-79681415D01*
X57412404Y-79678500D01*
X57404059Y-79666934D01*
X57397847Y-79649171D01*
X57393458Y-79621235D01*
X57390584Y-79579149D01*
X57388914Y-79518935D01*
X57388139Y-79436618D01*
X57387949Y-79328220D01*
X57387949Y-78999898D01*
X57177535Y-78999898D01*
X57177535Y-79216162D01*
X57177428Y-79263650D01*
X57176366Y-79337900D01*
X57173697Y-79390007D01*
X57168849Y-79425226D01*
X57161249Y-79448815D01*
X57150325Y-79466029D01*
X57146086Y-79470879D01*
X57104847Y-79495386D01*
X57056471Y-79496230D01*
X57011711Y-79472880D01*
X57011620Y-79472797D01*
X57000135Y-79459922D01*
X56992073Y-79442223D01*
X56986839Y-79414654D01*
X56983837Y-79372169D01*
X56982473Y-79309721D01*
X56982150Y-79222263D01*
X56982150Y-78998398D01*
X56895730Y-79002906D01*
X56809310Y-79007413D01*
X56805245Y-79329705D01*
X56804809Y-79363011D01*
X56802839Y-79471676D01*
X56799665Y-79554646D01*
X56794345Y-79615374D01*
X56785940Y-79657315D01*
X56773506Y-79683922D01*
X56756103Y-79698651D01*
X56732790Y-79704955D01*
X56702626Y-79706289D01*
X56699476Y-79706281D01*
X56672808Y-79704745D01*
X56651782Y-79698357D01*
X56635731Y-79683968D01*
X56623984Y-79658427D01*
X56615874Y-79618581D01*
X56610730Y-79561282D01*
X56607884Y-79483377D01*
X56606667Y-79381716D01*
X56606410Y-79253148D01*
X56606410Y-78866814D01*
X56646011Y-78835664D01*
X56654910Y-78829075D01*
X56668984Y-78821294D01*
X56687739Y-78815355D01*
X56714799Y-78811009D01*
X56753790Y-78808010D01*
X56808339Y-78806108D01*
X56882069Y-78805057D01*
X56978608Y-78804608D01*
X57101580Y-78804514D01*
X57189339Y-78804552D01*
G36*
X57189339Y-78804552D02*
G01*
X57293607Y-78804861D01*
X57373845Y-78805687D01*
X57433621Y-78807275D01*
X57476502Y-78809868D01*
X57506056Y-78813709D01*
X57525852Y-78819042D01*
X57539457Y-78826110D01*
X57550440Y-78835158D01*
X57556641Y-78841169D01*
X57565277Y-78852126D01*
X57571816Y-78867250D01*
X57576550Y-78890240D01*
X57579769Y-78924796D01*
X57581766Y-78974614D01*
X57582831Y-79043396D01*
X57583256Y-79134839D01*
X57583334Y-79252643D01*
X57583325Y-79278837D01*
X57582970Y-79394698D01*
X57581951Y-79484768D01*
X57580068Y-79552607D01*
X57577123Y-79601776D01*
X57572919Y-79635838D01*
X57567256Y-79658354D01*
X57559937Y-79672885D01*
X57546642Y-79686855D01*
X57505214Y-79704510D01*
X57457434Y-79702936D01*
X57415434Y-79681415D01*
X57412404Y-79678500D01*
X57404059Y-79666934D01*
X57397847Y-79649171D01*
X57393458Y-79621235D01*
X57390584Y-79579149D01*
X57388914Y-79518935D01*
X57388139Y-79436618D01*
X57387949Y-79328220D01*
X57387949Y-78999898D01*
X57177535Y-78999898D01*
X57177535Y-79216162D01*
X57177428Y-79263650D01*
X57176366Y-79337900D01*
X57173697Y-79390007D01*
X57168849Y-79425226D01*
X57161249Y-79448815D01*
X57150325Y-79466029D01*
X57146086Y-79470879D01*
X57104847Y-79495386D01*
X57056471Y-79496230D01*
X57011711Y-79472880D01*
X57011620Y-79472797D01*
X57000135Y-79459922D01*
X56992073Y-79442223D01*
X56986839Y-79414654D01*
X56983837Y-79372169D01*
X56982473Y-79309721D01*
X56982150Y-79222263D01*
X56982150Y-78998398D01*
X56895730Y-79002906D01*
X56809310Y-79007413D01*
X56805245Y-79329705D01*
X56804809Y-79363011D01*
X56802839Y-79471676D01*
X56799665Y-79554646D01*
X56794345Y-79615374D01*
X56785940Y-79657315D01*
X56773506Y-79683922D01*
X56756103Y-79698651D01*
X56732790Y-79704955D01*
X56702626Y-79706289D01*
X56699476Y-79706281D01*
X56672808Y-79704745D01*
X56651782Y-79698357D01*
X56635731Y-79683968D01*
X56623984Y-79658427D01*
X56615874Y-79618581D01*
X56610730Y-79561282D01*
X56607884Y-79483377D01*
X56606667Y-79381716D01*
X56606410Y-79253148D01*
X56606410Y-78866814D01*
X56646011Y-78835664D01*
X56654910Y-78829075D01*
X56668984Y-78821294D01*
X56687739Y-78815355D01*
X56714799Y-78811009D01*
X56753790Y-78808010D01*
X56808339Y-78806108D01*
X56882069Y-78805057D01*
X56978608Y-78804608D01*
X57101580Y-78804514D01*
X57189339Y-78804552D01*
G37*
X53514433Y-85056745D02*
X53662502Y-85067753D01*
X53798798Y-85086771D01*
X53931375Y-85114651D01*
X54068286Y-85152246D01*
X54231936Y-85209257D01*
X54452857Y-85313964D01*
X54650734Y-85442402D01*
X54823697Y-85592607D01*
X54969876Y-85762613D01*
X55087401Y-85950455D01*
X55174402Y-86154168D01*
X55229009Y-86371788D01*
X55229447Y-86374407D01*
X55244750Y-86533447D01*
X55242707Y-86708191D01*
X55224579Y-86886180D01*
X55191624Y-87054954D01*
X55145101Y-87202052D01*
X55116791Y-87264839D01*
X55073761Y-87346613D01*
X55024546Y-87430641D01*
X54974563Y-87508155D01*
X54929229Y-87570388D01*
X54893960Y-87608571D01*
X54884277Y-87617337D01*
X54880892Y-87627786D01*
X54897696Y-87634771D01*
X54940045Y-87639918D01*
X55013295Y-87644857D01*
X55165929Y-87653928D01*
X55175433Y-89043640D01*
X55093393Y-88995561D01*
X55088543Y-88992695D01*
X55065772Y-88978715D01*
X55045487Y-88966031D01*
X55025925Y-88954577D01*
X55005324Y-88944285D01*
X54981920Y-88935085D01*
X54953953Y-88926910D01*
X54919660Y-88919691D01*
X54877278Y-88913360D01*
X54825046Y-88907849D01*
X54761200Y-88903090D01*
X54683979Y-88899015D01*
X54591620Y-88895554D01*
X54482361Y-88892641D01*
X54354440Y-88890206D01*
X54206094Y-88888182D01*
X54035562Y-88886499D01*
X53841081Y-88885091D01*
X53620888Y-88883888D01*
X53373221Y-88882823D01*
X53096318Y-88881827D01*
X52788417Y-88880832D01*
X52447756Y-88879769D01*
X52072572Y-88878571D01*
X49305786Y-88869500D01*
X49301042Y-88148321D01*
X49300723Y-88095876D01*
X49300089Y-87941571D01*
X49299961Y-87800436D01*
X49300311Y-87676323D01*
X49301112Y-87573085D01*
X49302340Y-87494574D01*
X49303967Y-87444643D01*
X49305967Y-87427143D01*
X49312305Y-87429382D01*
X49342356Y-87446083D01*
X49386057Y-87473745D01*
X49390235Y-87476505D01*
X49423977Y-87497952D01*
X49456806Y-87515935D01*
X49492105Y-87530758D01*
X49533255Y-87542726D01*
X49583638Y-87552144D01*
X49646634Y-87559317D01*
X49725627Y-87564550D01*
X49823997Y-87568148D01*
X49945126Y-87570416D01*
X50092396Y-87571658D01*
X50269188Y-87572179D01*
X50478884Y-87572286D01*
X50642603Y-87572095D01*
X50803339Y-87571513D01*
X50949083Y-87570581D01*
X51076286Y-87569341D01*
X51181400Y-87567836D01*
X51260875Y-87566107D01*
X51311163Y-87564198D01*
X51328714Y-87562150D01*
X51325990Y-87555545D01*
X51306807Y-87526510D01*
X51275303Y-87485043D01*
X51232936Y-87424928D01*
X51170511Y-87311979D01*
X51114828Y-87182884D01*
X51071525Y-87049691D01*
X51070025Y-87042090D01*
X51974622Y-87042090D01*
X51987214Y-87182087D01*
X52027185Y-87324267D01*
X52094771Y-87463428D01*
X52154584Y-87563214D01*
X54040556Y-87563214D01*
X54100057Y-87472500D01*
X54121491Y-87437614D01*
X54164311Y-87357735D01*
X54198410Y-87282000D01*
X54209955Y-87248832D01*
X54233004Y-87143295D01*
X54244773Y-87009857D01*
X54247222Y-86942004D01*
X54246666Y-86879020D01*
X54240375Y-86832134D01*
X54226626Y-86790080D01*
X54203692Y-86741591D01*
X54142259Y-86648405D01*
X54055358Y-86567676D01*
X53943369Y-86503055D01*
X53804539Y-86453927D01*
X53637111Y-86419679D01*
X53439329Y-86399694D01*
X53209440Y-86393359D01*
X53157175Y-86393667D01*
X52915015Y-86402775D01*
X52704302Y-86424891D01*
X52522814Y-86460553D01*
X52368327Y-86510299D01*
X52238619Y-86574667D01*
X52131466Y-86654195D01*
X52098763Y-86687188D01*
X52030632Y-86789440D01*
X51989173Y-86909474D01*
X51974622Y-87042090D01*
X51070025Y-87042090D01*
X51049444Y-86937785D01*
X51035368Y-86798413D01*
X51030492Y-86647574D01*
X51034820Y-86496907D01*
X51048359Y-86358054D01*
X51071115Y-86242655D01*
X51109447Y-86125153D01*
X51202371Y-85929131D01*
X51325908Y-85747629D01*
X51477212Y-85583996D01*
X51653440Y-85441581D01*
X51851746Y-85323730D01*
X51912556Y-85294472D01*
X52117670Y-85212482D01*
X52340285Y-85148381D01*
X52584325Y-85101358D01*
X52853713Y-85070605D01*
X53152374Y-85055310D01*
X53209440Y-85054600D01*
X53346537Y-85052895D01*
X53514433Y-85056745D01*
G36*
X53514433Y-85056745D02*
G01*
X53662502Y-85067753D01*
X53798798Y-85086771D01*
X53931375Y-85114651D01*
X54068286Y-85152246D01*
X54231936Y-85209257D01*
X54452857Y-85313964D01*
X54650734Y-85442402D01*
X54823697Y-85592607D01*
X54969876Y-85762613D01*
X55087401Y-85950455D01*
X55174402Y-86154168D01*
X55229009Y-86371788D01*
X55229447Y-86374407D01*
X55244750Y-86533447D01*
X55242707Y-86708191D01*
X55224579Y-86886180D01*
X55191624Y-87054954D01*
X55145101Y-87202052D01*
X55116791Y-87264839D01*
X55073761Y-87346613D01*
X55024546Y-87430641D01*
X54974563Y-87508155D01*
X54929229Y-87570388D01*
X54893960Y-87608571D01*
X54884277Y-87617337D01*
X54880892Y-87627786D01*
X54897696Y-87634771D01*
X54940045Y-87639918D01*
X55013295Y-87644857D01*
X55165929Y-87653928D01*
X55175433Y-89043640D01*
X55093393Y-88995561D01*
X55088543Y-88992695D01*
X55065772Y-88978715D01*
X55045487Y-88966031D01*
X55025925Y-88954577D01*
X55005324Y-88944285D01*
X54981920Y-88935085D01*
X54953953Y-88926910D01*
X54919660Y-88919691D01*
X54877278Y-88913360D01*
X54825046Y-88907849D01*
X54761200Y-88903090D01*
X54683979Y-88899015D01*
X54591620Y-88895554D01*
X54482361Y-88892641D01*
X54354440Y-88890206D01*
X54206094Y-88888182D01*
X54035562Y-88886499D01*
X53841081Y-88885091D01*
X53620888Y-88883888D01*
X53373221Y-88882823D01*
X53096318Y-88881827D01*
X52788417Y-88880832D01*
X52447756Y-88879769D01*
X52072572Y-88878571D01*
X49305786Y-88869500D01*
X49301042Y-88148321D01*
X49300723Y-88095876D01*
X49300089Y-87941571D01*
X49299961Y-87800436D01*
X49300311Y-87676323D01*
X49301112Y-87573085D01*
X49302340Y-87494574D01*
X49303967Y-87444643D01*
X49305967Y-87427143D01*
X49312305Y-87429382D01*
X49342356Y-87446083D01*
X49386057Y-87473745D01*
X49390235Y-87476505D01*
X49423977Y-87497952D01*
X49456806Y-87515935D01*
X49492105Y-87530758D01*
X49533255Y-87542726D01*
X49583638Y-87552144D01*
X49646634Y-87559317D01*
X49725627Y-87564550D01*
X49823997Y-87568148D01*
X49945126Y-87570416D01*
X50092396Y-87571658D01*
X50269188Y-87572179D01*
X50478884Y-87572286D01*
X50642603Y-87572095D01*
X50803339Y-87571513D01*
X50949083Y-87570581D01*
X51076286Y-87569341D01*
X51181400Y-87567836D01*
X51260875Y-87566107D01*
X51311163Y-87564198D01*
X51328714Y-87562150D01*
X51325990Y-87555545D01*
X51306807Y-87526510D01*
X51275303Y-87485043D01*
X51232936Y-87424928D01*
X51170511Y-87311979D01*
X51114828Y-87182884D01*
X51071525Y-87049691D01*
X51070025Y-87042090D01*
X51974622Y-87042090D01*
X51987214Y-87182087D01*
X52027185Y-87324267D01*
X52094771Y-87463428D01*
X52154584Y-87563214D01*
X54040556Y-87563214D01*
X54100057Y-87472500D01*
X54121491Y-87437614D01*
X54164311Y-87357735D01*
X54198410Y-87282000D01*
X54209955Y-87248832D01*
X54233004Y-87143295D01*
X54244773Y-87009857D01*
X54247222Y-86942004D01*
X54246666Y-86879020D01*
X54240375Y-86832134D01*
X54226626Y-86790080D01*
X54203692Y-86741591D01*
X54142259Y-86648405D01*
X54055358Y-86567676D01*
X53943369Y-86503055D01*
X53804539Y-86453927D01*
X53637111Y-86419679D01*
X53439329Y-86399694D01*
X53209440Y-86393359D01*
X53157175Y-86393667D01*
X52915015Y-86402775D01*
X52704302Y-86424891D01*
X52522814Y-86460553D01*
X52368327Y-86510299D01*
X52238619Y-86574667D01*
X52131466Y-86654195D01*
X52098763Y-86687188D01*
X52030632Y-86789440D01*
X51989173Y-86909474D01*
X51974622Y-87042090D01*
X51070025Y-87042090D01*
X51049444Y-86937785D01*
X51035368Y-86798413D01*
X51030492Y-86647574D01*
X51034820Y-86496907D01*
X51048359Y-86358054D01*
X51071115Y-86242655D01*
X51109447Y-86125153D01*
X51202371Y-85929131D01*
X51325908Y-85747629D01*
X51477212Y-85583996D01*
X51653440Y-85441581D01*
X51851746Y-85323730D01*
X51912556Y-85294472D01*
X52117670Y-85212482D01*
X52340285Y-85148381D01*
X52584325Y-85101358D01*
X52853713Y-85070605D01*
X53152374Y-85055310D01*
X53209440Y-85054600D01*
X53346537Y-85052895D01*
X53514433Y-85056745D01*
G37*
X54063722Y-80960158D02*
X54199833Y-80977768D01*
X54313214Y-81004341D01*
X54429867Y-81046741D01*
X54622110Y-81145024D01*
X54791247Y-81270650D01*
X54936126Y-81422319D01*
X55055594Y-81598729D01*
X55148499Y-81798580D01*
X55213689Y-82020571D01*
X55228392Y-82111093D01*
X55238611Y-82240448D01*
X55240909Y-82381325D01*
X55235472Y-82521950D01*
X55222485Y-82650551D01*
X55202133Y-82755357D01*
X55186109Y-82808021D01*
X55139219Y-82927631D01*
X55079688Y-83049217D01*
X55013971Y-83160235D01*
X54948524Y-83248141D01*
X54947579Y-83249222D01*
X54906736Y-83297393D01*
X54877653Y-83334455D01*
X54866572Y-83352463D01*
X54869217Y-83354432D01*
X54897794Y-83358887D01*
X54951094Y-83361982D01*
X55020786Y-83363143D01*
X55175000Y-83363143D01*
X55175000Y-84043500D01*
X55174997Y-84061611D01*
X55174731Y-84213510D01*
X55174070Y-84352922D01*
X55173062Y-84475882D01*
X55171758Y-84578421D01*
X55170205Y-84656574D01*
X55168454Y-84706375D01*
X55166553Y-84723857D01*
X55164893Y-84723450D01*
X55140377Y-84712012D01*
X55094317Y-84688038D01*
X55035018Y-84655821D01*
X54911929Y-84587785D01*
X53632857Y-84577286D01*
X53446561Y-84575725D01*
X53208965Y-84573542D01*
X53002698Y-84571250D01*
X52824842Y-84568665D01*
X52672481Y-84565600D01*
X52542696Y-84561872D01*
X52432572Y-84557295D01*
X52339190Y-84551684D01*
X52259635Y-84544853D01*
X52190988Y-84536617D01*
X52130333Y-84526792D01*
X52074752Y-84515192D01*
X52021329Y-84501632D01*
X51967146Y-84485927D01*
X51909286Y-84467891D01*
X51727898Y-84396839D01*
X51560258Y-84299536D01*
X51416732Y-84178359D01*
X51296570Y-84032197D01*
X51199020Y-83859943D01*
X51123331Y-83660485D01*
X51068753Y-83432715D01*
X51034535Y-83175523D01*
X51027730Y-83085632D01*
X51022755Y-82934240D01*
X51027235Y-82784186D01*
X51041927Y-82628446D01*
X51067584Y-82459995D01*
X51104962Y-82271807D01*
X51154818Y-82056857D01*
X51166881Y-82007172D01*
X51196565Y-81882399D01*
X51223898Y-81764139D01*
X51247263Y-81659564D01*
X51265047Y-81575846D01*
X51275636Y-81520155D01*
X51296740Y-81391667D01*
X51734549Y-81572305D01*
X51843859Y-81617488D01*
X51950969Y-81661939D01*
X52042418Y-81700077D01*
X52113733Y-81730031D01*
X52160437Y-81749929D01*
X52178058Y-81757897D01*
X52178310Y-81759150D01*
X52170443Y-81782242D01*
X52150283Y-81827647D01*
X52121417Y-81887176D01*
X52065203Y-82010904D01*
X52003740Y-82181163D01*
X51956670Y-82355422D01*
X51925177Y-82526867D01*
X51910443Y-82688683D01*
X51913650Y-82834056D01*
X51935979Y-82956171D01*
X51971409Y-83041399D01*
X52044017Y-83138191D01*
X52142518Y-83212703D01*
X52263883Y-83262801D01*
X52405080Y-83286351D01*
X52535215Y-83294645D01*
X52536070Y-82982143D01*
X53370298Y-82982143D01*
X53370299Y-83001974D01*
X53371414Y-83093304D01*
X53374108Y-83171756D01*
X53378029Y-83229529D01*
X53382824Y-83258821D01*
X53384380Y-83262192D01*
X53394154Y-83273090D01*
X53413794Y-83280808D01*
X53448585Y-83285881D01*
X53503809Y-83288843D01*
X53584750Y-83290228D01*
X53696689Y-83290571D01*
X53792703Y-83290065D01*
X53893587Y-83287613D01*
X53966507Y-83282810D01*
X54016212Y-83275305D01*
X54047449Y-83264750D01*
X54069755Y-83251172D01*
X54130561Y-83200038D01*
X54193863Y-83131525D01*
X54250265Y-83056432D01*
X54290370Y-82985560D01*
X54305085Y-82946239D01*
X54324677Y-82855698D01*
X54334694Y-82737445D01*
X54333177Y-82612768D01*
X54312574Y-82494373D01*
X54270011Y-82395551D01*
X54203571Y-82310052D01*
X54178995Y-82286000D01*
X54095185Y-82223378D01*
X54004850Y-82189496D01*
X53896151Y-82179321D01*
X53838725Y-82182078D01*
X53720507Y-82209339D01*
X53619039Y-82266610D01*
X53533179Y-82354932D01*
X53461784Y-82475349D01*
X53403714Y-82628903D01*
X53388475Y-82690807D01*
X53378041Y-82765749D01*
X53372246Y-82860063D01*
X53370298Y-82982143D01*
X52536070Y-82982143D01*
X52536400Y-82861715D01*
X52537624Y-82715715D01*
X52541972Y-82554229D01*
X52550178Y-82416275D01*
X52563039Y-82294719D01*
X52581354Y-82182423D01*
X52605919Y-82072253D01*
X52637533Y-81957071D01*
X52697709Y-81784732D01*
X52796806Y-81582025D01*
X52918190Y-81404124D01*
X53060155Y-81252783D01*
X53220993Y-81129757D01*
X53398997Y-81036801D01*
X53592460Y-80975670D01*
X53644565Y-80966096D01*
X53773533Y-80953823D01*
X53896151Y-80952278D01*
X53917437Y-80952010D01*
X54063722Y-80960158D01*
G36*
X54063722Y-80960158D02*
G01*
X54199833Y-80977768D01*
X54313214Y-81004341D01*
X54429867Y-81046741D01*
X54622110Y-81145024D01*
X54791247Y-81270650D01*
X54936126Y-81422319D01*
X55055594Y-81598729D01*
X55148499Y-81798580D01*
X55213689Y-82020571D01*
X55228392Y-82111093D01*
X55238611Y-82240448D01*
X55240909Y-82381325D01*
X55235472Y-82521950D01*
X55222485Y-82650551D01*
X55202133Y-82755357D01*
X55186109Y-82808021D01*
X55139219Y-82927631D01*
X55079688Y-83049217D01*
X55013971Y-83160235D01*
X54948524Y-83248141D01*
X54947579Y-83249222D01*
X54906736Y-83297393D01*
X54877653Y-83334455D01*
X54866572Y-83352463D01*
X54869217Y-83354432D01*
X54897794Y-83358887D01*
X54951094Y-83361982D01*
X55020786Y-83363143D01*
X55175000Y-83363143D01*
X55175000Y-84043500D01*
X55174997Y-84061611D01*
X55174731Y-84213510D01*
X55174070Y-84352922D01*
X55173062Y-84475882D01*
X55171758Y-84578421D01*
X55170205Y-84656574D01*
X55168454Y-84706375D01*
X55166553Y-84723857D01*
X55164893Y-84723450D01*
X55140377Y-84712012D01*
X55094317Y-84688038D01*
X55035018Y-84655821D01*
X54911929Y-84587785D01*
X53632857Y-84577286D01*
X53446561Y-84575725D01*
X53208965Y-84573542D01*
X53002698Y-84571250D01*
X52824842Y-84568665D01*
X52672481Y-84565600D01*
X52542696Y-84561872D01*
X52432572Y-84557295D01*
X52339190Y-84551684D01*
X52259635Y-84544853D01*
X52190988Y-84536617D01*
X52130333Y-84526792D01*
X52074752Y-84515192D01*
X52021329Y-84501632D01*
X51967146Y-84485927D01*
X51909286Y-84467891D01*
X51727898Y-84396839D01*
X51560258Y-84299536D01*
X51416732Y-84178359D01*
X51296570Y-84032197D01*
X51199020Y-83859943D01*
X51123331Y-83660485D01*
X51068753Y-83432715D01*
X51034535Y-83175523D01*
X51027730Y-83085632D01*
X51022755Y-82934240D01*
X51027235Y-82784186D01*
X51041927Y-82628446D01*
X51067584Y-82459995D01*
X51104962Y-82271807D01*
X51154818Y-82056857D01*
X51166881Y-82007172D01*
X51196565Y-81882399D01*
X51223898Y-81764139D01*
X51247263Y-81659564D01*
X51265047Y-81575846D01*
X51275636Y-81520155D01*
X51296740Y-81391667D01*
X51734549Y-81572305D01*
X51843859Y-81617488D01*
X51950969Y-81661939D01*
X52042418Y-81700077D01*
X52113733Y-81730031D01*
X52160437Y-81749929D01*
X52178058Y-81757897D01*
X52178310Y-81759150D01*
X52170443Y-81782242D01*
X52150283Y-81827647D01*
X52121417Y-81887176D01*
X52065203Y-82010904D01*
X52003740Y-82181163D01*
X51956670Y-82355422D01*
X51925177Y-82526867D01*
X51910443Y-82688683D01*
X51913650Y-82834056D01*
X51935979Y-82956171D01*
X51971409Y-83041399D01*
X52044017Y-83138191D01*
X52142518Y-83212703D01*
X52263883Y-83262801D01*
X52405080Y-83286351D01*
X52535215Y-83294645D01*
X52536070Y-82982143D01*
X53370298Y-82982143D01*
X53370299Y-83001974D01*
X53371414Y-83093304D01*
X53374108Y-83171756D01*
X53378029Y-83229529D01*
X53382824Y-83258821D01*
X53384380Y-83262192D01*
X53394154Y-83273090D01*
X53413794Y-83280808D01*
X53448585Y-83285881D01*
X53503809Y-83288843D01*
X53584750Y-83290228D01*
X53696689Y-83290571D01*
X53792703Y-83290065D01*
X53893587Y-83287613D01*
X53966507Y-83282810D01*
X54016212Y-83275305D01*
X54047449Y-83264750D01*
X54069755Y-83251172D01*
X54130561Y-83200038D01*
X54193863Y-83131525D01*
X54250265Y-83056432D01*
X54290370Y-82985560D01*
X54305085Y-82946239D01*
X54324677Y-82855698D01*
X54334694Y-82737445D01*
X54333177Y-82612768D01*
X54312574Y-82494373D01*
X54270011Y-82395551D01*
X54203571Y-82310052D01*
X54178995Y-82286000D01*
X54095185Y-82223378D01*
X54004850Y-82189496D01*
X53896151Y-82179321D01*
X53838725Y-82182078D01*
X53720507Y-82209339D01*
X53619039Y-82266610D01*
X53533179Y-82354932D01*
X53461784Y-82475349D01*
X53403714Y-82628903D01*
X53388475Y-82690807D01*
X53378041Y-82765749D01*
X53372246Y-82860063D01*
X53370298Y-82982143D01*
X52536070Y-82982143D01*
X52536400Y-82861715D01*
X52537624Y-82715715D01*
X52541972Y-82554229D01*
X52550178Y-82416275D01*
X52563039Y-82294719D01*
X52581354Y-82182423D01*
X52605919Y-82072253D01*
X52637533Y-81957071D01*
X52697709Y-81784732D01*
X52796806Y-81582025D01*
X52918190Y-81404124D01*
X53060155Y-81252783D01*
X53220993Y-81129757D01*
X53398997Y-81036801D01*
X53592460Y-80975670D01*
X53644565Y-80966096D01*
X53773533Y-80953823D01*
X53896151Y-80952278D01*
X53917437Y-80952010D01*
X54063722Y-80960158D01*
G37*
X52739528Y-76789944D02*
X53066276Y-76828999D01*
X53372149Y-76895410D01*
X53659317Y-76989773D01*
X53929949Y-77112680D01*
X54186214Y-77264727D01*
X54382000Y-77407550D01*
X54602289Y-77604757D01*
X54790974Y-77819704D01*
X54947993Y-78052297D01*
X55073285Y-78302442D01*
X55166786Y-78570043D01*
X55228437Y-78855008D01*
X55228917Y-78858260D01*
X55233732Y-78913138D01*
X55237304Y-78995951D01*
X55239465Y-79099042D01*
X55240050Y-79214754D01*
X55238891Y-79335428D01*
X55237192Y-79420003D01*
X55233258Y-79545488D01*
X55227626Y-79646042D01*
X55219694Y-79728917D01*
X55208863Y-79801366D01*
X55194530Y-79870643D01*
X55176007Y-79948584D01*
X55154914Y-80029901D01*
X55132787Y-80103444D01*
X55107033Y-80175888D01*
X55075060Y-80253907D01*
X55034278Y-80344175D01*
X54982093Y-80453369D01*
X54915915Y-80588161D01*
X54731677Y-80960964D01*
X54241231Y-80662372D01*
X54177041Y-80623281D01*
X54061810Y-80553050D01*
X53958794Y-80490189D01*
X53871748Y-80436996D01*
X53804432Y-80395767D01*
X53760601Y-80368800D01*
X53744015Y-80358393D01*
X53744510Y-80355498D01*
X53760742Y-80332180D01*
X53794429Y-80291214D01*
X53840345Y-80239073D01*
X53919678Y-80146213D01*
X54036990Y-79980438D01*
X54118771Y-79819597D01*
X54159611Y-79703369D01*
X54201348Y-79506778D01*
X54208746Y-79313622D01*
X54182309Y-79126701D01*
X54122540Y-78948817D01*
X54029943Y-78782770D01*
X53905022Y-78631363D01*
X53813014Y-78547114D01*
X53642831Y-78428426D01*
X53445342Y-78331036D01*
X53219536Y-78254481D01*
X52964401Y-78198293D01*
X52948562Y-78195744D01*
X52845903Y-78183967D01*
X52718351Y-78175200D01*
X52574622Y-78169514D01*
X52423431Y-78166979D01*
X52273493Y-78167667D01*
X52133524Y-78171648D01*
X52012241Y-78178994D01*
X51918357Y-78189775D01*
X51705692Y-78231100D01*
X51457270Y-78300635D01*
X51239781Y-78388085D01*
X51053393Y-78493335D01*
X50898273Y-78616268D01*
X50774590Y-78756765D01*
X50682512Y-78914712D01*
X50622209Y-79089990D01*
X50614724Y-79128879D01*
X50604951Y-79226334D01*
X50601761Y-79340227D01*
X50604979Y-79457796D01*
X50614429Y-79566283D01*
X50629936Y-79652928D01*
X50679313Y-79797268D01*
X50769456Y-79964772D01*
X50888084Y-80113920D01*
X50913073Y-80140244D01*
X50957285Y-80187943D01*
X50987042Y-80221655D01*
X50996941Y-80235351D01*
X50992207Y-80238723D01*
X50962313Y-80259477D01*
X50908033Y-80296972D01*
X50832962Y-80348730D01*
X50740694Y-80412272D01*
X50634823Y-80485123D01*
X50518944Y-80564803D01*
X50044817Y-80890714D01*
X50023004Y-80817908D01*
X50020532Y-80810310D01*
X50000898Y-80760855D01*
X49969239Y-80689553D01*
X49929362Y-80604772D01*
X49885076Y-80514880D01*
X49865496Y-80475708D01*
X49764409Y-80258196D01*
X49686238Y-80057717D01*
X49628985Y-79866562D01*
X49590649Y-79677019D01*
X49569231Y-79481378D01*
X49562731Y-79271928D01*
X49566031Y-79126166D01*
X49588413Y-78882362D01*
X49633551Y-78655868D01*
X49703345Y-78438258D01*
X49799696Y-78221109D01*
X49922715Y-78006155D01*
X50090422Y-77775466D01*
X50284323Y-77561541D01*
X50499618Y-77369089D01*
X50731507Y-77202820D01*
X50975190Y-77067447D01*
X51001258Y-77055159D01*
X51252881Y-76952250D01*
X51514345Y-76874054D01*
X51790646Y-76819561D01*
X52086779Y-76787759D01*
X52407739Y-76777640D01*
X52739528Y-76789944D01*
G36*
X52739528Y-76789944D02*
G01*
X53066276Y-76828999D01*
X53372149Y-76895410D01*
X53659317Y-76989773D01*
X53929949Y-77112680D01*
X54186214Y-77264727D01*
X54382000Y-77407550D01*
X54602289Y-77604757D01*
X54790974Y-77819704D01*
X54947993Y-78052297D01*
X55073285Y-78302442D01*
X55166786Y-78570043D01*
X55228437Y-78855008D01*
X55228917Y-78858260D01*
X55233732Y-78913138D01*
X55237304Y-78995951D01*
X55239465Y-79099042D01*
X55240050Y-79214754D01*
X55238891Y-79335428D01*
X55237192Y-79420003D01*
X55233258Y-79545488D01*
X55227626Y-79646042D01*
X55219694Y-79728917D01*
X55208863Y-79801366D01*
X55194530Y-79870643D01*
X55176007Y-79948584D01*
X55154914Y-80029901D01*
X55132787Y-80103444D01*
X55107033Y-80175888D01*
X55075060Y-80253907D01*
X55034278Y-80344175D01*
X54982093Y-80453369D01*
X54915915Y-80588161D01*
X54731677Y-80960964D01*
X54241231Y-80662372D01*
X54177041Y-80623281D01*
X54061810Y-80553050D01*
X53958794Y-80490189D01*
X53871748Y-80436996D01*
X53804432Y-80395767D01*
X53760601Y-80368800D01*
X53744015Y-80358393D01*
X53744510Y-80355498D01*
X53760742Y-80332180D01*
X53794429Y-80291214D01*
X53840345Y-80239073D01*
X53919678Y-80146213D01*
X54036990Y-79980438D01*
X54118771Y-79819597D01*
X54159611Y-79703369D01*
X54201348Y-79506778D01*
X54208746Y-79313622D01*
X54182309Y-79126701D01*
X54122540Y-78948817D01*
X54029943Y-78782770D01*
X53905022Y-78631363D01*
X53813014Y-78547114D01*
X53642831Y-78428426D01*
X53445342Y-78331036D01*
X53219536Y-78254481D01*
X52964401Y-78198293D01*
X52948562Y-78195744D01*
X52845903Y-78183967D01*
X52718351Y-78175200D01*
X52574622Y-78169514D01*
X52423431Y-78166979D01*
X52273493Y-78167667D01*
X52133524Y-78171648D01*
X52012241Y-78178994D01*
X51918357Y-78189775D01*
X51705692Y-78231100D01*
X51457270Y-78300635D01*
X51239781Y-78388085D01*
X51053393Y-78493335D01*
X50898273Y-78616268D01*
X50774590Y-78756765D01*
X50682512Y-78914712D01*
X50622209Y-79089990D01*
X50614724Y-79128879D01*
X50604951Y-79226334D01*
X50601761Y-79340227D01*
X50604979Y-79457796D01*
X50614429Y-79566283D01*
X50629936Y-79652928D01*
X50679313Y-79797268D01*
X50769456Y-79964772D01*
X50888084Y-80113920D01*
X50913073Y-80140244D01*
X50957285Y-80187943D01*
X50987042Y-80221655D01*
X50996941Y-80235351D01*
X50992207Y-80238723D01*
X50962313Y-80259477D01*
X50908033Y-80296972D01*
X50832962Y-80348730D01*
X50740694Y-80412272D01*
X50634823Y-80485123D01*
X50518944Y-80564803D01*
X50044817Y-80890714D01*
X50023004Y-80817908D01*
X50020532Y-80810310D01*
X50000898Y-80760855D01*
X49969239Y-80689553D01*
X49929362Y-80604772D01*
X49885076Y-80514880D01*
X49865496Y-80475708D01*
X49764409Y-80258196D01*
X49686238Y-80057717D01*
X49628985Y-79866562D01*
X49590649Y-79677019D01*
X49569231Y-79481378D01*
X49562731Y-79271928D01*
X49566031Y-79126166D01*
X49588413Y-78882362D01*
X49633551Y-78655868D01*
X49703345Y-78438258D01*
X49799696Y-78221109D01*
X49922715Y-78006155D01*
X50090422Y-77775466D01*
X50284323Y-77561541D01*
X50499618Y-77369089D01*
X50731507Y-77202820D01*
X50975190Y-77067447D01*
X51001258Y-77055159D01*
X51252881Y-76952250D01*
X51514345Y-76874054D01*
X51790646Y-76819561D01*
X52086779Y-76787759D01*
X52407739Y-76777640D01*
X52739528Y-76789944D01*
G37*
X57094872Y-70718597D02*
X57195605Y-70718649D01*
X57299330Y-70718989D01*
X57379225Y-70719846D01*
X57438773Y-70721449D01*
X57481460Y-70724027D01*
X57510769Y-70727808D01*
X57530185Y-70733021D01*
X57543192Y-70739894D01*
X57553274Y-70748656D01*
X57561574Y-70757932D01*
X57571293Y-70775237D01*
X57577622Y-70800730D01*
X57581266Y-70839877D01*
X57582935Y-70898145D01*
X57583334Y-70981000D01*
X57582834Y-71046166D01*
X57576938Y-71188434D01*
X57563508Y-71307229D01*
X57541423Y-71406812D01*
X57509563Y-71491448D01*
X57466808Y-71565400D01*
X57412038Y-71632933D01*
X57404246Y-71640905D01*
X57339663Y-71689989D01*
X57258705Y-71731393D01*
X57173174Y-71759995D01*
X57094872Y-71770668D01*
X57066625Y-71768965D01*
X56990184Y-71752573D01*
X56910421Y-71722579D01*
X56838462Y-71683663D01*
X56785433Y-71640505D01*
X56762769Y-71614488D01*
X56710597Y-71541647D01*
X56670483Y-71461362D01*
X56641246Y-71369237D01*
X56621699Y-71260875D01*
X56610660Y-71131881D01*
X56607851Y-71015431D01*
X56801776Y-71015431D01*
X56801788Y-71019462D01*
X56804404Y-71087521D01*
X56810694Y-71167539D01*
X56819386Y-71243039D01*
X56831763Y-71309551D01*
X56866735Y-71409073D01*
X56919056Y-71485638D01*
X56989665Y-71540891D01*
X57057919Y-71569139D01*
X57121593Y-71571026D01*
X57189406Y-71546686D01*
X57250538Y-71507184D01*
X57307000Y-71445014D01*
X57346678Y-71363283D01*
X57372155Y-71257910D01*
X57372472Y-71255926D01*
X57380183Y-71190728D01*
X57385696Y-71112585D01*
X57387835Y-71037975D01*
X57387949Y-70913981D01*
X56801795Y-70913981D01*
X56801776Y-71015431D01*
X56607851Y-71015431D01*
X56606944Y-70977857D01*
X56606409Y-70925292D01*
X56605859Y-70864434D01*
X56608261Y-70816771D01*
X56616625Y-70780703D01*
X56633960Y-70754632D01*
X56663275Y-70736959D01*
X56707579Y-70726085D01*
X56769881Y-70720410D01*
X56801795Y-70719616D01*
X56853192Y-70718338D01*
X56960519Y-70718266D01*
X57094872Y-70718597D01*
G36*
X57094872Y-70718597D02*
G01*
X57195605Y-70718649D01*
X57299330Y-70718989D01*
X57379225Y-70719846D01*
X57438773Y-70721449D01*
X57481460Y-70724027D01*
X57510769Y-70727808D01*
X57530185Y-70733021D01*
X57543192Y-70739894D01*
X57553274Y-70748656D01*
X57561574Y-70757932D01*
X57571293Y-70775237D01*
X57577622Y-70800730D01*
X57581266Y-70839877D01*
X57582935Y-70898145D01*
X57583334Y-70981000D01*
X57582834Y-71046166D01*
X57576938Y-71188434D01*
X57563508Y-71307229D01*
X57541423Y-71406812D01*
X57509563Y-71491448D01*
X57466808Y-71565400D01*
X57412038Y-71632933D01*
X57404246Y-71640905D01*
X57339663Y-71689989D01*
X57258705Y-71731393D01*
X57173174Y-71759995D01*
X57094872Y-71770668D01*
X57066625Y-71768965D01*
X56990184Y-71752573D01*
X56910421Y-71722579D01*
X56838462Y-71683663D01*
X56785433Y-71640505D01*
X56762769Y-71614488D01*
X56710597Y-71541647D01*
X56670483Y-71461362D01*
X56641246Y-71369237D01*
X56621699Y-71260875D01*
X56610660Y-71131881D01*
X56607851Y-71015431D01*
X56801776Y-71015431D01*
X56801788Y-71019462D01*
X56804404Y-71087521D01*
X56810694Y-71167539D01*
X56819386Y-71243039D01*
X56831763Y-71309551D01*
X56866735Y-71409073D01*
X56919056Y-71485638D01*
X56989665Y-71540891D01*
X57057919Y-71569139D01*
X57121593Y-71571026D01*
X57189406Y-71546686D01*
X57250538Y-71507184D01*
X57307000Y-71445014D01*
X57346678Y-71363283D01*
X57372155Y-71257910D01*
X57372472Y-71255926D01*
X57380183Y-71190728D01*
X57385696Y-71112585D01*
X57387835Y-71037975D01*
X57387949Y-70913981D01*
X56801795Y-70913981D01*
X56801776Y-71015431D01*
X56607851Y-71015431D01*
X56606944Y-70977857D01*
X56606409Y-70925292D01*
X56605859Y-70864434D01*
X56608261Y-70816771D01*
X56616625Y-70780703D01*
X56633960Y-70754632D01*
X56663275Y-70736959D01*
X56707579Y-70726085D01*
X56769881Y-70720410D01*
X56801795Y-70719616D01*
X56853192Y-70718338D01*
X56960519Y-70718266D01*
X57094872Y-70718597D01*
G37*
D12*
%TO.C,Q2*%
X28700000Y-87170000D02*
X32700000Y-87170000D01*
X32700000Y-87170000D02*
X32700000Y-61970000D01*
X28700000Y-61970000D02*
X28700000Y-87170000D01*
X32700000Y-61970000D02*
X28700000Y-61970000D01*
%TD*%
M02*
