%TF.GenerationSoftware,KiCad,Pcbnew,7.0.7*%
%TF.CreationDate,2023-08-23T01:14:16+09:00*%
%TF.ProjectId,maincircuit,6d61696e-6369-4726-9375-69742e6b6963,rev?*%
%TF.SameCoordinates,Original*%
%TF.FileFunction,Legend,Top*%
%TF.FilePolarity,Positive*%
%FSLAX46Y46*%
G04 Gerber Fmt 4.6, Leading zero omitted, Abs format (unit mm)*
G04 Created by KiCad (PCBNEW 7.0.7) date 2023-08-23 01:14:16*
%MOMM*%
%LPD*%
G01*
G04 APERTURE LIST*
%ADD10C,0.150000*%
%ADD11C,0.254000*%
%ADD12C,0.120000*%
%ADD13C,0.200000*%
%ADD14C,0.100000*%
G04 APERTURE END LIST*
D10*
X63824819Y-62066666D02*
X63348628Y-62399999D01*
X63824819Y-62638094D02*
X62824819Y-62638094D01*
X62824819Y-62638094D02*
X62824819Y-62257142D01*
X62824819Y-62257142D02*
X62872438Y-62161904D01*
X62872438Y-62161904D02*
X62920057Y-62114285D01*
X62920057Y-62114285D02*
X63015295Y-62066666D01*
X63015295Y-62066666D02*
X63158152Y-62066666D01*
X63158152Y-62066666D02*
X63253390Y-62114285D01*
X63253390Y-62114285D02*
X63301009Y-62161904D01*
X63301009Y-62161904D02*
X63348628Y-62257142D01*
X63348628Y-62257142D02*
X63348628Y-62638094D01*
X62824819Y-61209523D02*
X62824819Y-61399999D01*
X62824819Y-61399999D02*
X62872438Y-61495237D01*
X62872438Y-61495237D02*
X62920057Y-61542856D01*
X62920057Y-61542856D02*
X63062914Y-61638094D01*
X63062914Y-61638094D02*
X63253390Y-61685713D01*
X63253390Y-61685713D02*
X63634342Y-61685713D01*
X63634342Y-61685713D02*
X63729580Y-61638094D01*
X63729580Y-61638094D02*
X63777200Y-61590475D01*
X63777200Y-61590475D02*
X63824819Y-61495237D01*
X63824819Y-61495237D02*
X63824819Y-61304761D01*
X63824819Y-61304761D02*
X63777200Y-61209523D01*
X63777200Y-61209523D02*
X63729580Y-61161904D01*
X63729580Y-61161904D02*
X63634342Y-61114285D01*
X63634342Y-61114285D02*
X63396247Y-61114285D01*
X63396247Y-61114285D02*
X63301009Y-61161904D01*
X63301009Y-61161904D02*
X63253390Y-61209523D01*
X63253390Y-61209523D02*
X63205771Y-61304761D01*
X63205771Y-61304761D02*
X63205771Y-61495237D01*
X63205771Y-61495237D02*
X63253390Y-61590475D01*
X63253390Y-61590475D02*
X63301009Y-61638094D01*
X63301009Y-61638094D02*
X63396247Y-61685713D01*
X66824819Y-59042857D02*
X66348628Y-59376190D01*
X66824819Y-59614285D02*
X65824819Y-59614285D01*
X65824819Y-59614285D02*
X65824819Y-59233333D01*
X65824819Y-59233333D02*
X65872438Y-59138095D01*
X65872438Y-59138095D02*
X65920057Y-59090476D01*
X65920057Y-59090476D02*
X66015295Y-59042857D01*
X66015295Y-59042857D02*
X66158152Y-59042857D01*
X66158152Y-59042857D02*
X66253390Y-59090476D01*
X66253390Y-59090476D02*
X66301009Y-59138095D01*
X66301009Y-59138095D02*
X66348628Y-59233333D01*
X66348628Y-59233333D02*
X66348628Y-59614285D01*
X65920057Y-58661904D02*
X65872438Y-58614285D01*
X65872438Y-58614285D02*
X65824819Y-58519047D01*
X65824819Y-58519047D02*
X65824819Y-58280952D01*
X65824819Y-58280952D02*
X65872438Y-58185714D01*
X65872438Y-58185714D02*
X65920057Y-58138095D01*
X65920057Y-58138095D02*
X66015295Y-58090476D01*
X66015295Y-58090476D02*
X66110533Y-58090476D01*
X66110533Y-58090476D02*
X66253390Y-58138095D01*
X66253390Y-58138095D02*
X66824819Y-58709523D01*
X66824819Y-58709523D02*
X66824819Y-58090476D01*
X65824819Y-57471428D02*
X65824819Y-57376190D01*
X65824819Y-57376190D02*
X65872438Y-57280952D01*
X65872438Y-57280952D02*
X65920057Y-57233333D01*
X65920057Y-57233333D02*
X66015295Y-57185714D01*
X66015295Y-57185714D02*
X66205771Y-57138095D01*
X66205771Y-57138095D02*
X66443866Y-57138095D01*
X66443866Y-57138095D02*
X66634342Y-57185714D01*
X66634342Y-57185714D02*
X66729580Y-57233333D01*
X66729580Y-57233333D02*
X66777200Y-57280952D01*
X66777200Y-57280952D02*
X66824819Y-57376190D01*
X66824819Y-57376190D02*
X66824819Y-57471428D01*
X66824819Y-57471428D02*
X66777200Y-57566666D01*
X66777200Y-57566666D02*
X66729580Y-57614285D01*
X66729580Y-57614285D02*
X66634342Y-57661904D01*
X66634342Y-57661904D02*
X66443866Y-57709523D01*
X66443866Y-57709523D02*
X66205771Y-57709523D01*
X66205771Y-57709523D02*
X66015295Y-57661904D01*
X66015295Y-57661904D02*
X65920057Y-57614285D01*
X65920057Y-57614285D02*
X65872438Y-57566666D01*
X65872438Y-57566666D02*
X65824819Y-57471428D01*
X49224819Y-84352857D02*
X48748628Y-84686190D01*
X49224819Y-84924285D02*
X48224819Y-84924285D01*
X48224819Y-84924285D02*
X48224819Y-84543333D01*
X48224819Y-84543333D02*
X48272438Y-84448095D01*
X48272438Y-84448095D02*
X48320057Y-84400476D01*
X48320057Y-84400476D02*
X48415295Y-84352857D01*
X48415295Y-84352857D02*
X48558152Y-84352857D01*
X48558152Y-84352857D02*
X48653390Y-84400476D01*
X48653390Y-84400476D02*
X48701009Y-84448095D01*
X48701009Y-84448095D02*
X48748628Y-84543333D01*
X48748628Y-84543333D02*
X48748628Y-84924285D01*
X49224819Y-83400476D02*
X49224819Y-83971904D01*
X49224819Y-83686190D02*
X48224819Y-83686190D01*
X48224819Y-83686190D02*
X48367676Y-83781428D01*
X48367676Y-83781428D02*
X48462914Y-83876666D01*
X48462914Y-83876666D02*
X48510533Y-83971904D01*
X48224819Y-82781428D02*
X48224819Y-82686190D01*
X48224819Y-82686190D02*
X48272438Y-82590952D01*
X48272438Y-82590952D02*
X48320057Y-82543333D01*
X48320057Y-82543333D02*
X48415295Y-82495714D01*
X48415295Y-82495714D02*
X48605771Y-82448095D01*
X48605771Y-82448095D02*
X48843866Y-82448095D01*
X48843866Y-82448095D02*
X49034342Y-82495714D01*
X49034342Y-82495714D02*
X49129580Y-82543333D01*
X49129580Y-82543333D02*
X49177200Y-82590952D01*
X49177200Y-82590952D02*
X49224819Y-82686190D01*
X49224819Y-82686190D02*
X49224819Y-82781428D01*
X49224819Y-82781428D02*
X49177200Y-82876666D01*
X49177200Y-82876666D02*
X49129580Y-82924285D01*
X49129580Y-82924285D02*
X49034342Y-82971904D01*
X49034342Y-82971904D02*
X48843866Y-83019523D01*
X48843866Y-83019523D02*
X48605771Y-83019523D01*
X48605771Y-83019523D02*
X48415295Y-82971904D01*
X48415295Y-82971904D02*
X48320057Y-82924285D01*
X48320057Y-82924285D02*
X48272438Y-82876666D01*
X48272438Y-82876666D02*
X48224819Y-82781428D01*
X41224819Y-83856666D02*
X40748628Y-84189999D01*
X41224819Y-84428094D02*
X40224819Y-84428094D01*
X40224819Y-84428094D02*
X40224819Y-84047142D01*
X40224819Y-84047142D02*
X40272438Y-83951904D01*
X40272438Y-83951904D02*
X40320057Y-83904285D01*
X40320057Y-83904285D02*
X40415295Y-83856666D01*
X40415295Y-83856666D02*
X40558152Y-83856666D01*
X40558152Y-83856666D02*
X40653390Y-83904285D01*
X40653390Y-83904285D02*
X40701009Y-83951904D01*
X40701009Y-83951904D02*
X40748628Y-84047142D01*
X40748628Y-84047142D02*
X40748628Y-84428094D01*
X40653390Y-83285237D02*
X40605771Y-83380475D01*
X40605771Y-83380475D02*
X40558152Y-83428094D01*
X40558152Y-83428094D02*
X40462914Y-83475713D01*
X40462914Y-83475713D02*
X40415295Y-83475713D01*
X40415295Y-83475713D02*
X40320057Y-83428094D01*
X40320057Y-83428094D02*
X40272438Y-83380475D01*
X40272438Y-83380475D02*
X40224819Y-83285237D01*
X40224819Y-83285237D02*
X40224819Y-83094761D01*
X40224819Y-83094761D02*
X40272438Y-82999523D01*
X40272438Y-82999523D02*
X40320057Y-82951904D01*
X40320057Y-82951904D02*
X40415295Y-82904285D01*
X40415295Y-82904285D02*
X40462914Y-82904285D01*
X40462914Y-82904285D02*
X40558152Y-82951904D01*
X40558152Y-82951904D02*
X40605771Y-82999523D01*
X40605771Y-82999523D02*
X40653390Y-83094761D01*
X40653390Y-83094761D02*
X40653390Y-83285237D01*
X40653390Y-83285237D02*
X40701009Y-83380475D01*
X40701009Y-83380475D02*
X40748628Y-83428094D01*
X40748628Y-83428094D02*
X40843866Y-83475713D01*
X40843866Y-83475713D02*
X41034342Y-83475713D01*
X41034342Y-83475713D02*
X41129580Y-83428094D01*
X41129580Y-83428094D02*
X41177200Y-83380475D01*
X41177200Y-83380475D02*
X41224819Y-83285237D01*
X41224819Y-83285237D02*
X41224819Y-83094761D01*
X41224819Y-83094761D02*
X41177200Y-82999523D01*
X41177200Y-82999523D02*
X41129580Y-82951904D01*
X41129580Y-82951904D02*
X41034342Y-82904285D01*
X41034342Y-82904285D02*
X40843866Y-82904285D01*
X40843866Y-82904285D02*
X40748628Y-82951904D01*
X40748628Y-82951904D02*
X40701009Y-82999523D01*
X40701009Y-82999523D02*
X40653390Y-83094761D01*
X51703754Y-37729456D02*
X51131335Y-37628441D01*
X51299693Y-38133517D02*
X50592587Y-37426410D01*
X50592587Y-37426410D02*
X50861961Y-37157036D01*
X50861961Y-37157036D02*
X50962976Y-37123364D01*
X50962976Y-37123364D02*
X51030319Y-37123364D01*
X51030319Y-37123364D02*
X51131335Y-37157036D01*
X51131335Y-37157036D02*
X51232350Y-37258051D01*
X51232350Y-37258051D02*
X51266022Y-37359067D01*
X51266022Y-37359067D02*
X51266022Y-37426410D01*
X51266022Y-37426410D02*
X51232350Y-37527425D01*
X51232350Y-37527425D02*
X50962976Y-37796799D01*
X51232350Y-36786647D02*
X51703754Y-36315242D01*
X51703754Y-36315242D02*
X52107815Y-37325395D01*
X56803754Y-37424456D02*
X56231335Y-37323441D01*
X56399693Y-37828517D02*
X55692587Y-37121410D01*
X55692587Y-37121410D02*
X55961961Y-36852036D01*
X55961961Y-36852036D02*
X56062976Y-36818364D01*
X56062976Y-36818364D02*
X56130319Y-36818364D01*
X56130319Y-36818364D02*
X56231335Y-36852036D01*
X56231335Y-36852036D02*
X56332350Y-36953051D01*
X56332350Y-36953051D02*
X56366022Y-37054067D01*
X56366022Y-37054067D02*
X56366022Y-37121410D01*
X56366022Y-37121410D02*
X56332350Y-37222425D01*
X56332350Y-37222425D02*
X56062976Y-37491799D01*
X56736411Y-36077586D02*
X56399693Y-36414303D01*
X56399693Y-36414303D02*
X56702739Y-36784693D01*
X56702739Y-36784693D02*
X56702739Y-36717349D01*
X56702739Y-36717349D02*
X56736411Y-36616334D01*
X56736411Y-36616334D02*
X56904770Y-36447975D01*
X56904770Y-36447975D02*
X57005785Y-36414303D01*
X57005785Y-36414303D02*
X57073128Y-36414303D01*
X57073128Y-36414303D02*
X57174144Y-36447975D01*
X57174144Y-36447975D02*
X57342502Y-36616334D01*
X57342502Y-36616334D02*
X57376174Y-36717349D01*
X57376174Y-36717349D02*
X57376174Y-36784693D01*
X57376174Y-36784693D02*
X57342502Y-36885708D01*
X57342502Y-36885708D02*
X57174144Y-37054067D01*
X57174144Y-37054067D02*
X57073128Y-37087738D01*
X57073128Y-37087738D02*
X57005785Y-37087738D01*
X28301009Y-57185714D02*
X28348628Y-57042857D01*
X28348628Y-57042857D02*
X28396247Y-56995238D01*
X28396247Y-56995238D02*
X28491485Y-56947619D01*
X28491485Y-56947619D02*
X28634342Y-56947619D01*
X28634342Y-56947619D02*
X28729580Y-56995238D01*
X28729580Y-56995238D02*
X28777200Y-57042857D01*
X28777200Y-57042857D02*
X28824819Y-57138095D01*
X28824819Y-57138095D02*
X28824819Y-57519047D01*
X28824819Y-57519047D02*
X27824819Y-57519047D01*
X27824819Y-57519047D02*
X27824819Y-57185714D01*
X27824819Y-57185714D02*
X27872438Y-57090476D01*
X27872438Y-57090476D02*
X27920057Y-57042857D01*
X27920057Y-57042857D02*
X28015295Y-56995238D01*
X28015295Y-56995238D02*
X28110533Y-56995238D01*
X28110533Y-56995238D02*
X28205771Y-57042857D01*
X28205771Y-57042857D02*
X28253390Y-57090476D01*
X28253390Y-57090476D02*
X28301009Y-57185714D01*
X28301009Y-57185714D02*
X28301009Y-57519047D01*
X27824819Y-56661904D02*
X27824819Y-56090476D01*
X28824819Y-56376190D02*
X27824819Y-56376190D01*
X28824819Y-55233333D02*
X28824819Y-55804761D01*
X28824819Y-55519047D02*
X27824819Y-55519047D01*
X27824819Y-55519047D02*
X27967676Y-55614285D01*
X27967676Y-55614285D02*
X28062914Y-55709523D01*
X28062914Y-55709523D02*
X28110533Y-55804761D01*
X53228095Y-64409819D02*
X53228095Y-65219342D01*
X53228095Y-65219342D02*
X53275714Y-65314580D01*
X53275714Y-65314580D02*
X53323333Y-65362200D01*
X53323333Y-65362200D02*
X53418571Y-65409819D01*
X53418571Y-65409819D02*
X53609047Y-65409819D01*
X53609047Y-65409819D02*
X53704285Y-65362200D01*
X53704285Y-65362200D02*
X53751904Y-65314580D01*
X53751904Y-65314580D02*
X53799523Y-65219342D01*
X53799523Y-65219342D02*
X53799523Y-64409819D01*
X54799523Y-65409819D02*
X54228095Y-65409819D01*
X54513809Y-65409819D02*
X54513809Y-64409819D01*
X54513809Y-64409819D02*
X54418571Y-64552676D01*
X54418571Y-64552676D02*
X54323333Y-64647914D01*
X54323333Y-64647914D02*
X54228095Y-64695533D01*
X72223825Y-88367036D02*
X72324840Y-87794617D01*
X71819764Y-87962975D02*
X72526871Y-87255869D01*
X72526871Y-87255869D02*
X72796245Y-87525243D01*
X72796245Y-87525243D02*
X72829917Y-87626258D01*
X72829917Y-87626258D02*
X72829917Y-87693601D01*
X72829917Y-87693601D02*
X72796245Y-87794617D01*
X72796245Y-87794617D02*
X72695230Y-87895632D01*
X72695230Y-87895632D02*
X72594214Y-87929304D01*
X72594214Y-87929304D02*
X72526871Y-87929304D01*
X72526871Y-87929304D02*
X72425856Y-87895632D01*
X72425856Y-87895632D02*
X72156482Y-87626258D01*
X73132962Y-87996647D02*
X73200306Y-87996647D01*
X73200306Y-87996647D02*
X73301321Y-88030319D01*
X73301321Y-88030319D02*
X73469680Y-88198678D01*
X73469680Y-88198678D02*
X73503352Y-88299693D01*
X73503352Y-88299693D02*
X73503352Y-88367036D01*
X73503352Y-88367036D02*
X73469680Y-88468052D01*
X73469680Y-88468052D02*
X73402336Y-88535395D01*
X73402336Y-88535395D02*
X73267649Y-88602739D01*
X73267649Y-88602739D02*
X72459527Y-88602739D01*
X72459527Y-88602739D02*
X72897260Y-89040471D01*
X74210459Y-88939456D02*
X74075772Y-88804769D01*
X74075772Y-88804769D02*
X73974756Y-88771098D01*
X73974756Y-88771098D02*
X73907413Y-88771098D01*
X73907413Y-88771098D02*
X73739054Y-88804769D01*
X73739054Y-88804769D02*
X73570695Y-88905785D01*
X73570695Y-88905785D02*
X73301321Y-89175159D01*
X73301321Y-89175159D02*
X73267650Y-89276174D01*
X73267650Y-89276174D02*
X73267650Y-89343517D01*
X73267650Y-89343517D02*
X73301321Y-89444533D01*
X73301321Y-89444533D02*
X73436008Y-89579220D01*
X73436008Y-89579220D02*
X73537024Y-89612891D01*
X73537024Y-89612891D02*
X73604367Y-89612891D01*
X73604367Y-89612891D02*
X73705382Y-89579220D01*
X73705382Y-89579220D02*
X73873741Y-89410861D01*
X73873741Y-89410861D02*
X73907413Y-89309846D01*
X73907413Y-89309846D02*
X73907413Y-89242502D01*
X73907413Y-89242502D02*
X73873741Y-89141487D01*
X73873741Y-89141487D02*
X73739054Y-89006800D01*
X73739054Y-89006800D02*
X73638039Y-88973128D01*
X73638039Y-88973128D02*
X73570695Y-88973128D01*
X73570695Y-88973128D02*
X73469680Y-89006800D01*
X65633333Y-47354819D02*
X65300000Y-46878628D01*
X65061905Y-47354819D02*
X65061905Y-46354819D01*
X65061905Y-46354819D02*
X65442857Y-46354819D01*
X65442857Y-46354819D02*
X65538095Y-46402438D01*
X65538095Y-46402438D02*
X65585714Y-46450057D01*
X65585714Y-46450057D02*
X65633333Y-46545295D01*
X65633333Y-46545295D02*
X65633333Y-46688152D01*
X65633333Y-46688152D02*
X65585714Y-46783390D01*
X65585714Y-46783390D02*
X65538095Y-46831009D01*
X65538095Y-46831009D02*
X65442857Y-46878628D01*
X65442857Y-46878628D02*
X65061905Y-46878628D01*
X66109524Y-47354819D02*
X66300000Y-47354819D01*
X66300000Y-47354819D02*
X66395238Y-47307200D01*
X66395238Y-47307200D02*
X66442857Y-47259580D01*
X66442857Y-47259580D02*
X66538095Y-47116723D01*
X66538095Y-47116723D02*
X66585714Y-46926247D01*
X66585714Y-46926247D02*
X66585714Y-46545295D01*
X66585714Y-46545295D02*
X66538095Y-46450057D01*
X66538095Y-46450057D02*
X66490476Y-46402438D01*
X66490476Y-46402438D02*
X66395238Y-46354819D01*
X66395238Y-46354819D02*
X66204762Y-46354819D01*
X66204762Y-46354819D02*
X66109524Y-46402438D01*
X66109524Y-46402438D02*
X66061905Y-46450057D01*
X66061905Y-46450057D02*
X66014286Y-46545295D01*
X66014286Y-46545295D02*
X66014286Y-46783390D01*
X66014286Y-46783390D02*
X66061905Y-46878628D01*
X66061905Y-46878628D02*
X66109524Y-46926247D01*
X66109524Y-46926247D02*
X66204762Y-46973866D01*
X66204762Y-46973866D02*
X66395238Y-46973866D01*
X66395238Y-46973866D02*
X66490476Y-46926247D01*
X66490476Y-46926247D02*
X66538095Y-46878628D01*
X66538095Y-46878628D02*
X66585714Y-46783390D01*
X67823825Y-88367036D02*
X67924840Y-87794617D01*
X67419764Y-87962975D02*
X68126871Y-87255869D01*
X68126871Y-87255869D02*
X68396245Y-87525243D01*
X68396245Y-87525243D02*
X68429917Y-87626258D01*
X68429917Y-87626258D02*
X68429917Y-87693601D01*
X68429917Y-87693601D02*
X68396245Y-87794617D01*
X68396245Y-87794617D02*
X68295230Y-87895632D01*
X68295230Y-87895632D02*
X68194214Y-87929304D01*
X68194214Y-87929304D02*
X68126871Y-87929304D01*
X68126871Y-87929304D02*
X68025856Y-87895632D01*
X68025856Y-87895632D02*
X67756482Y-87626258D01*
X68732962Y-87996647D02*
X68800306Y-87996647D01*
X68800306Y-87996647D02*
X68901321Y-88030319D01*
X68901321Y-88030319D02*
X69069680Y-88198678D01*
X69069680Y-88198678D02*
X69103352Y-88299693D01*
X69103352Y-88299693D02*
X69103352Y-88367036D01*
X69103352Y-88367036D02*
X69069680Y-88468052D01*
X69069680Y-88468052D02*
X69002336Y-88535395D01*
X69002336Y-88535395D02*
X68867649Y-88602739D01*
X68867649Y-88602739D02*
X68059527Y-88602739D01*
X68059527Y-88602739D02*
X68497260Y-89040471D01*
X69844130Y-88973128D02*
X69507413Y-88636410D01*
X69507413Y-88636410D02*
X69137024Y-88939456D01*
X69137024Y-88939456D02*
X69204367Y-88939456D01*
X69204367Y-88939456D02*
X69305382Y-88973128D01*
X69305382Y-88973128D02*
X69473741Y-89141487D01*
X69473741Y-89141487D02*
X69507413Y-89242502D01*
X69507413Y-89242502D02*
X69507413Y-89309846D01*
X69507413Y-89309846D02*
X69473741Y-89410861D01*
X69473741Y-89410861D02*
X69305382Y-89579220D01*
X69305382Y-89579220D02*
X69204367Y-89612891D01*
X69204367Y-89612891D02*
X69137024Y-89612891D01*
X69137024Y-89612891D02*
X69036008Y-89579220D01*
X69036008Y-89579220D02*
X68867650Y-89410861D01*
X68867650Y-89410861D02*
X68833978Y-89309846D01*
X68833978Y-89309846D02*
X68833978Y-89242502D01*
X63454819Y-68142857D02*
X62978628Y-68476190D01*
X63454819Y-68714285D02*
X62454819Y-68714285D01*
X62454819Y-68714285D02*
X62454819Y-68333333D01*
X62454819Y-68333333D02*
X62502438Y-68238095D01*
X62502438Y-68238095D02*
X62550057Y-68190476D01*
X62550057Y-68190476D02*
X62645295Y-68142857D01*
X62645295Y-68142857D02*
X62788152Y-68142857D01*
X62788152Y-68142857D02*
X62883390Y-68190476D01*
X62883390Y-68190476D02*
X62931009Y-68238095D01*
X62931009Y-68238095D02*
X62978628Y-68333333D01*
X62978628Y-68333333D02*
X62978628Y-68714285D01*
X62550057Y-67761904D02*
X62502438Y-67714285D01*
X62502438Y-67714285D02*
X62454819Y-67619047D01*
X62454819Y-67619047D02*
X62454819Y-67380952D01*
X62454819Y-67380952D02*
X62502438Y-67285714D01*
X62502438Y-67285714D02*
X62550057Y-67238095D01*
X62550057Y-67238095D02*
X62645295Y-67190476D01*
X62645295Y-67190476D02*
X62740533Y-67190476D01*
X62740533Y-67190476D02*
X62883390Y-67238095D01*
X62883390Y-67238095D02*
X63454819Y-67809523D01*
X63454819Y-67809523D02*
X63454819Y-67190476D01*
X62788152Y-66333333D02*
X63454819Y-66333333D01*
X62407200Y-66571428D02*
X63121485Y-66809523D01*
X63121485Y-66809523D02*
X63121485Y-66190476D01*
X60454819Y-68142857D02*
X59978628Y-68476190D01*
X60454819Y-68714285D02*
X59454819Y-68714285D01*
X59454819Y-68714285D02*
X59454819Y-68333333D01*
X59454819Y-68333333D02*
X59502438Y-68238095D01*
X59502438Y-68238095D02*
X59550057Y-68190476D01*
X59550057Y-68190476D02*
X59645295Y-68142857D01*
X59645295Y-68142857D02*
X59788152Y-68142857D01*
X59788152Y-68142857D02*
X59883390Y-68190476D01*
X59883390Y-68190476D02*
X59931009Y-68238095D01*
X59931009Y-68238095D02*
X59978628Y-68333333D01*
X59978628Y-68333333D02*
X59978628Y-68714285D01*
X59550057Y-67761904D02*
X59502438Y-67714285D01*
X59502438Y-67714285D02*
X59454819Y-67619047D01*
X59454819Y-67619047D02*
X59454819Y-67380952D01*
X59454819Y-67380952D02*
X59502438Y-67285714D01*
X59502438Y-67285714D02*
X59550057Y-67238095D01*
X59550057Y-67238095D02*
X59645295Y-67190476D01*
X59645295Y-67190476D02*
X59740533Y-67190476D01*
X59740533Y-67190476D02*
X59883390Y-67238095D01*
X59883390Y-67238095D02*
X60454819Y-67809523D01*
X60454819Y-67809523D02*
X60454819Y-67190476D01*
X59454819Y-66857142D02*
X59454819Y-66238095D01*
X59454819Y-66238095D02*
X59835771Y-66571428D01*
X59835771Y-66571428D02*
X59835771Y-66428571D01*
X59835771Y-66428571D02*
X59883390Y-66333333D01*
X59883390Y-66333333D02*
X59931009Y-66285714D01*
X59931009Y-66285714D02*
X60026247Y-66238095D01*
X60026247Y-66238095D02*
X60264342Y-66238095D01*
X60264342Y-66238095D02*
X60359580Y-66285714D01*
X60359580Y-66285714D02*
X60407200Y-66333333D01*
X60407200Y-66333333D02*
X60454819Y-66428571D01*
X60454819Y-66428571D02*
X60454819Y-66714285D01*
X60454819Y-66714285D02*
X60407200Y-66809523D01*
X60407200Y-66809523D02*
X60359580Y-66857142D01*
X78833782Y-72134934D02*
X78266278Y-72260663D01*
X78615105Y-72662865D02*
X77691226Y-72280182D01*
X77691226Y-72280182D02*
X77837010Y-71928227D01*
X77837010Y-71928227D02*
X77917450Y-71858462D01*
X77917450Y-71858462D02*
X77979668Y-71832691D01*
X77979668Y-71832691D02*
X78085879Y-71825142D01*
X78085879Y-71825142D02*
X78217862Y-71879812D01*
X78217862Y-71879812D02*
X78287628Y-71960252D01*
X78287628Y-71960252D02*
X78313399Y-72022469D01*
X78313399Y-72022469D02*
X78320947Y-72128681D01*
X78320947Y-72128681D02*
X78175163Y-72480635D01*
X78143675Y-71436742D02*
X78117904Y-71374525D01*
X78117904Y-71374525D02*
X78110355Y-71268313D01*
X78110355Y-71268313D02*
X78201471Y-71048342D01*
X78201471Y-71048342D02*
X78281911Y-70978577D01*
X78281911Y-70978577D02*
X78344128Y-70952805D01*
X78344128Y-70952805D02*
X78450340Y-70945257D01*
X78450340Y-70945257D02*
X78538328Y-70981703D01*
X78538328Y-70981703D02*
X78652088Y-71080367D01*
X78652088Y-71080367D02*
X78961343Y-71826974D01*
X78961343Y-71826974D02*
X79198242Y-71255049D01*
X78508135Y-70556857D02*
X78482364Y-70494640D01*
X78482364Y-70494640D02*
X78474816Y-70388428D01*
X78474816Y-70388428D02*
X78565931Y-70168457D01*
X78565931Y-70168457D02*
X78646371Y-70098691D01*
X78646371Y-70098691D02*
X78708589Y-70072920D01*
X78708589Y-70072920D02*
X78814800Y-70065372D01*
X78814800Y-70065372D02*
X78902789Y-70101818D01*
X78902789Y-70101818D02*
X79016548Y-70200481D01*
X79016548Y-70200481D02*
X79325803Y-70947089D01*
X79325803Y-70947089D02*
X79562703Y-70375163D01*
X78774187Y-64867974D02*
X78206683Y-64993703D01*
X78555510Y-65395905D02*
X77631631Y-65013222D01*
X77631631Y-65013222D02*
X77777415Y-64661267D01*
X77777415Y-64661267D02*
X77857855Y-64591502D01*
X77857855Y-64591502D02*
X77920073Y-64565731D01*
X77920073Y-64565731D02*
X78026284Y-64558182D01*
X78026284Y-64558182D02*
X78158267Y-64612852D01*
X78158267Y-64612852D02*
X78228033Y-64693292D01*
X78228033Y-64693292D02*
X78253804Y-64755509D01*
X78253804Y-64755509D02*
X78261352Y-64861721D01*
X78261352Y-64861721D02*
X78115568Y-65213675D01*
X78084080Y-64169782D02*
X78058309Y-64107565D01*
X78058309Y-64107565D02*
X78050760Y-64001353D01*
X78050760Y-64001353D02*
X78141876Y-63781382D01*
X78141876Y-63781382D02*
X78222316Y-63711617D01*
X78222316Y-63711617D02*
X78284533Y-63685845D01*
X78284533Y-63685845D02*
X78390745Y-63678297D01*
X78390745Y-63678297D02*
X78478733Y-63714743D01*
X78478733Y-63714743D02*
X78592493Y-63813407D01*
X78592493Y-63813407D02*
X78901748Y-64560014D01*
X78901748Y-64560014D02*
X79138647Y-63988089D01*
X79503108Y-63108203D02*
X79284431Y-63636134D01*
X79393769Y-63372169D02*
X78469890Y-62989485D01*
X78469890Y-62989485D02*
X78565427Y-63132143D01*
X78565427Y-63132143D02*
X78616969Y-63256578D01*
X78616969Y-63256578D02*
X78624517Y-63362789D01*
X68367036Y-51876174D02*
X67794617Y-51775159D01*
X67962975Y-52280235D02*
X67255869Y-51573128D01*
X67255869Y-51573128D02*
X67525243Y-51303754D01*
X67525243Y-51303754D02*
X67626258Y-51270082D01*
X67626258Y-51270082D02*
X67693601Y-51270082D01*
X67693601Y-51270082D02*
X67794617Y-51303754D01*
X67794617Y-51303754D02*
X67895632Y-51404769D01*
X67895632Y-51404769D02*
X67929304Y-51505785D01*
X67929304Y-51505785D02*
X67929304Y-51573128D01*
X67929304Y-51573128D02*
X67895632Y-51674143D01*
X67895632Y-51674143D02*
X67626258Y-51943517D01*
X69040471Y-51202739D02*
X68636410Y-51606800D01*
X68838441Y-51404769D02*
X68131334Y-50697663D01*
X68131334Y-50697663D02*
X68165006Y-50866021D01*
X68165006Y-50866021D02*
X68165006Y-51000708D01*
X68165006Y-51000708D02*
X68131334Y-51101724D01*
X69377189Y-50866021D02*
X69511876Y-50731334D01*
X69511876Y-50731334D02*
X69545548Y-50630319D01*
X69545548Y-50630319D02*
X69545548Y-50562975D01*
X69545548Y-50562975D02*
X69511876Y-50394617D01*
X69511876Y-50394617D02*
X69410861Y-50226258D01*
X69410861Y-50226258D02*
X69141487Y-49956884D01*
X69141487Y-49956884D02*
X69040472Y-49923212D01*
X69040472Y-49923212D02*
X68973128Y-49923212D01*
X68973128Y-49923212D02*
X68872113Y-49956884D01*
X68872113Y-49956884D02*
X68737426Y-50091571D01*
X68737426Y-50091571D02*
X68703754Y-50192586D01*
X68703754Y-50192586D02*
X68703754Y-50259930D01*
X68703754Y-50259930D02*
X68737426Y-50360945D01*
X68737426Y-50360945D02*
X68905785Y-50529304D01*
X68905785Y-50529304D02*
X69006800Y-50562975D01*
X69006800Y-50562975D02*
X69074143Y-50562975D01*
X69074143Y-50562975D02*
X69175159Y-50529304D01*
X69175159Y-50529304D02*
X69309846Y-50394617D01*
X69309846Y-50394617D02*
X69343517Y-50293601D01*
X69343517Y-50293601D02*
X69343517Y-50226258D01*
X69343517Y-50226258D02*
X69309846Y-50125243D01*
X111757142Y-57954819D02*
X111423809Y-57478628D01*
X111185714Y-57954819D02*
X111185714Y-56954819D01*
X111185714Y-56954819D02*
X111566666Y-56954819D01*
X111566666Y-56954819D02*
X111661904Y-57002438D01*
X111661904Y-57002438D02*
X111709523Y-57050057D01*
X111709523Y-57050057D02*
X111757142Y-57145295D01*
X111757142Y-57145295D02*
X111757142Y-57288152D01*
X111757142Y-57288152D02*
X111709523Y-57383390D01*
X111709523Y-57383390D02*
X111661904Y-57431009D01*
X111661904Y-57431009D02*
X111566666Y-57478628D01*
X111566666Y-57478628D02*
X111185714Y-57478628D01*
X112709523Y-57954819D02*
X112138095Y-57954819D01*
X112423809Y-57954819D02*
X112423809Y-56954819D01*
X112423809Y-56954819D02*
X112328571Y-57097676D01*
X112328571Y-57097676D02*
X112233333Y-57192914D01*
X112233333Y-57192914D02*
X112138095Y-57240533D01*
X113280952Y-57383390D02*
X113185714Y-57335771D01*
X113185714Y-57335771D02*
X113138095Y-57288152D01*
X113138095Y-57288152D02*
X113090476Y-57192914D01*
X113090476Y-57192914D02*
X113090476Y-57145295D01*
X113090476Y-57145295D02*
X113138095Y-57050057D01*
X113138095Y-57050057D02*
X113185714Y-57002438D01*
X113185714Y-57002438D02*
X113280952Y-56954819D01*
X113280952Y-56954819D02*
X113471428Y-56954819D01*
X113471428Y-56954819D02*
X113566666Y-57002438D01*
X113566666Y-57002438D02*
X113614285Y-57050057D01*
X113614285Y-57050057D02*
X113661904Y-57145295D01*
X113661904Y-57145295D02*
X113661904Y-57192914D01*
X113661904Y-57192914D02*
X113614285Y-57288152D01*
X113614285Y-57288152D02*
X113566666Y-57335771D01*
X113566666Y-57335771D02*
X113471428Y-57383390D01*
X113471428Y-57383390D02*
X113280952Y-57383390D01*
X113280952Y-57383390D02*
X113185714Y-57431009D01*
X113185714Y-57431009D02*
X113138095Y-57478628D01*
X113138095Y-57478628D02*
X113090476Y-57573866D01*
X113090476Y-57573866D02*
X113090476Y-57764342D01*
X113090476Y-57764342D02*
X113138095Y-57859580D01*
X113138095Y-57859580D02*
X113185714Y-57907200D01*
X113185714Y-57907200D02*
X113280952Y-57954819D01*
X113280952Y-57954819D02*
X113471428Y-57954819D01*
X113471428Y-57954819D02*
X113566666Y-57907200D01*
X113566666Y-57907200D02*
X113614285Y-57859580D01*
X113614285Y-57859580D02*
X113661904Y-57764342D01*
X113661904Y-57764342D02*
X113661904Y-57573866D01*
X113661904Y-57573866D02*
X113614285Y-57478628D01*
X113614285Y-57478628D02*
X113566666Y-57431009D01*
X113566666Y-57431009D02*
X113471428Y-57383390D01*
X115357142Y-62354819D02*
X115023809Y-61878628D01*
X114785714Y-62354819D02*
X114785714Y-61354819D01*
X114785714Y-61354819D02*
X115166666Y-61354819D01*
X115166666Y-61354819D02*
X115261904Y-61402438D01*
X115261904Y-61402438D02*
X115309523Y-61450057D01*
X115309523Y-61450057D02*
X115357142Y-61545295D01*
X115357142Y-61545295D02*
X115357142Y-61688152D01*
X115357142Y-61688152D02*
X115309523Y-61783390D01*
X115309523Y-61783390D02*
X115261904Y-61831009D01*
X115261904Y-61831009D02*
X115166666Y-61878628D01*
X115166666Y-61878628D02*
X114785714Y-61878628D01*
X116309523Y-62354819D02*
X115738095Y-62354819D01*
X116023809Y-62354819D02*
X116023809Y-61354819D01*
X116023809Y-61354819D02*
X115928571Y-61497676D01*
X115928571Y-61497676D02*
X115833333Y-61592914D01*
X115833333Y-61592914D02*
X115738095Y-61640533D01*
X116642857Y-61354819D02*
X117309523Y-61354819D01*
X117309523Y-61354819D02*
X116880952Y-62354819D01*
X115357142Y-65354819D02*
X115023809Y-64878628D01*
X114785714Y-65354819D02*
X114785714Y-64354819D01*
X114785714Y-64354819D02*
X115166666Y-64354819D01*
X115166666Y-64354819D02*
X115261904Y-64402438D01*
X115261904Y-64402438D02*
X115309523Y-64450057D01*
X115309523Y-64450057D02*
X115357142Y-64545295D01*
X115357142Y-64545295D02*
X115357142Y-64688152D01*
X115357142Y-64688152D02*
X115309523Y-64783390D01*
X115309523Y-64783390D02*
X115261904Y-64831009D01*
X115261904Y-64831009D02*
X115166666Y-64878628D01*
X115166666Y-64878628D02*
X114785714Y-64878628D01*
X116309523Y-65354819D02*
X115738095Y-65354819D01*
X116023809Y-65354819D02*
X116023809Y-64354819D01*
X116023809Y-64354819D02*
X115928571Y-64497676D01*
X115928571Y-64497676D02*
X115833333Y-64592914D01*
X115833333Y-64592914D02*
X115738095Y-64640533D01*
X117166666Y-64354819D02*
X116976190Y-64354819D01*
X116976190Y-64354819D02*
X116880952Y-64402438D01*
X116880952Y-64402438D02*
X116833333Y-64450057D01*
X116833333Y-64450057D02*
X116738095Y-64592914D01*
X116738095Y-64592914D02*
X116690476Y-64783390D01*
X116690476Y-64783390D02*
X116690476Y-65164342D01*
X116690476Y-65164342D02*
X116738095Y-65259580D01*
X116738095Y-65259580D02*
X116785714Y-65307200D01*
X116785714Y-65307200D02*
X116880952Y-65354819D01*
X116880952Y-65354819D02*
X117071428Y-65354819D01*
X117071428Y-65354819D02*
X117166666Y-65307200D01*
X117166666Y-65307200D02*
X117214285Y-65259580D01*
X117214285Y-65259580D02*
X117261904Y-65164342D01*
X117261904Y-65164342D02*
X117261904Y-64926247D01*
X117261904Y-64926247D02*
X117214285Y-64831009D01*
X117214285Y-64831009D02*
X117166666Y-64783390D01*
X117166666Y-64783390D02*
X117071428Y-64735771D01*
X117071428Y-64735771D02*
X116880952Y-64735771D01*
X116880952Y-64735771D02*
X116785714Y-64783390D01*
X116785714Y-64783390D02*
X116738095Y-64831009D01*
X116738095Y-64831009D02*
X116690476Y-64926247D01*
X90933791Y-63880129D02*
X91246172Y-63389939D01*
X90715114Y-63352197D02*
X91638994Y-62969514D01*
X91638994Y-62969514D02*
X91784778Y-63321468D01*
X91784778Y-63321468D02*
X91777230Y-63427680D01*
X91777230Y-63427680D02*
X91751459Y-63489897D01*
X91751459Y-63489897D02*
X91681693Y-63570337D01*
X91681693Y-63570337D02*
X91549710Y-63625006D01*
X91549710Y-63625006D02*
X91443499Y-63617458D01*
X91443499Y-63617458D02*
X91381282Y-63591687D01*
X91381282Y-63591687D02*
X91300841Y-63521921D01*
X91300841Y-63521921D02*
X91155057Y-63169967D01*
X91298251Y-64760014D02*
X91079575Y-64232083D01*
X91188913Y-64496048D02*
X92112793Y-64113365D01*
X92112793Y-64113365D02*
X91944364Y-64080045D01*
X91944364Y-64080045D02*
X91819929Y-64028503D01*
X91819929Y-64028503D02*
X91739489Y-63958737D01*
X92568368Y-65213221D02*
X92386138Y-64773279D01*
X92386138Y-64773279D02*
X91927972Y-64911515D01*
X91927972Y-64911515D02*
X91990189Y-64937286D01*
X91990189Y-64937286D02*
X92070630Y-65007052D01*
X92070630Y-65007052D02*
X92161745Y-65227023D01*
X92161745Y-65227023D02*
X92154197Y-65333234D01*
X92154197Y-65333234D02*
X92128425Y-65395452D01*
X92128425Y-65395452D02*
X92058660Y-65475892D01*
X92058660Y-65475892D02*
X91838689Y-65567007D01*
X91838689Y-65567007D02*
X91732477Y-65559459D01*
X91732477Y-65559459D02*
X91670260Y-65533688D01*
X91670260Y-65533688D02*
X91589819Y-65463922D01*
X91589819Y-65463922D02*
X91498704Y-65243951D01*
X91498704Y-65243951D02*
X91506253Y-65137739D01*
X91506253Y-65137739D02*
X91532024Y-65075522D01*
X90682221Y-70987070D02*
X90994602Y-70496880D01*
X90463544Y-70459138D02*
X91387424Y-70076455D01*
X91387424Y-70076455D02*
X91533208Y-70428409D01*
X91533208Y-70428409D02*
X91525660Y-70534621D01*
X91525660Y-70534621D02*
X91499889Y-70596838D01*
X91499889Y-70596838D02*
X91430123Y-70677278D01*
X91430123Y-70677278D02*
X91298140Y-70731947D01*
X91298140Y-70731947D02*
X91191929Y-70724399D01*
X91191929Y-70724399D02*
X91129712Y-70698628D01*
X91129712Y-70698628D02*
X91049271Y-70628862D01*
X91049271Y-70628862D02*
X90903487Y-70276908D01*
X91046681Y-71866955D02*
X90828005Y-71339024D01*
X90937343Y-71602989D02*
X91861223Y-71220306D01*
X91861223Y-71220306D02*
X91692794Y-71186986D01*
X91692794Y-71186986D02*
X91568359Y-71135444D01*
X91568359Y-71135444D02*
X91487919Y-71065678D01*
X91990615Y-72403729D02*
X91374695Y-72658852D01*
X92251454Y-72037974D02*
X91500425Y-72091348D01*
X91500425Y-72091348D02*
X91737324Y-72663273D01*
X104267036Y-78276174D02*
X103694617Y-78175159D01*
X103862975Y-78680235D02*
X103155869Y-77973128D01*
X103155869Y-77973128D02*
X103425243Y-77703754D01*
X103425243Y-77703754D02*
X103526258Y-77670082D01*
X103526258Y-77670082D02*
X103593601Y-77670082D01*
X103593601Y-77670082D02*
X103694617Y-77703754D01*
X103694617Y-77703754D02*
X103795632Y-77804769D01*
X103795632Y-77804769D02*
X103829304Y-77905785D01*
X103829304Y-77905785D02*
X103829304Y-77973128D01*
X103829304Y-77973128D02*
X103795632Y-78074143D01*
X103795632Y-78074143D02*
X103526258Y-78343517D01*
X104940471Y-77602739D02*
X104536410Y-78006800D01*
X104738441Y-77804769D02*
X104031334Y-77097663D01*
X104031334Y-77097663D02*
X104065006Y-77266021D01*
X104065006Y-77266021D02*
X104065006Y-77400708D01*
X104065006Y-77400708D02*
X104031334Y-77501724D01*
X104469067Y-76659930D02*
X104906800Y-76222197D01*
X104906800Y-76222197D02*
X104940472Y-76727273D01*
X104940472Y-76727273D02*
X105041487Y-76626258D01*
X105041487Y-76626258D02*
X105142502Y-76592586D01*
X105142502Y-76592586D02*
X105209846Y-76592586D01*
X105209846Y-76592586D02*
X105310861Y-76626258D01*
X105310861Y-76626258D02*
X105479220Y-76794617D01*
X105479220Y-76794617D02*
X105512891Y-76895632D01*
X105512891Y-76895632D02*
X105512891Y-76962975D01*
X105512891Y-76962975D02*
X105479220Y-77063991D01*
X105479220Y-77063991D02*
X105277189Y-77266021D01*
X105277189Y-77266021D02*
X105176174Y-77299693D01*
X105176174Y-77299693D02*
X105108830Y-77299693D01*
X104972959Y-88070251D02*
X104400540Y-87969236D01*
X104568898Y-88474312D02*
X103861792Y-87767205D01*
X103861792Y-87767205D02*
X104131166Y-87497831D01*
X104131166Y-87497831D02*
X104232181Y-87464159D01*
X104232181Y-87464159D02*
X104299524Y-87464159D01*
X104299524Y-87464159D02*
X104400540Y-87497831D01*
X104400540Y-87497831D02*
X104501555Y-87598846D01*
X104501555Y-87598846D02*
X104535227Y-87699862D01*
X104535227Y-87699862D02*
X104535227Y-87767205D01*
X104535227Y-87767205D02*
X104501555Y-87868220D01*
X104501555Y-87868220D02*
X104232181Y-88137594D01*
X105646394Y-87396816D02*
X105242333Y-87800877D01*
X105444364Y-87598846D02*
X104737257Y-86891740D01*
X104737257Y-86891740D02*
X104770929Y-87060098D01*
X104770929Y-87060098D02*
X104770929Y-87194785D01*
X104770929Y-87194785D02*
X104737257Y-87295801D01*
X105276005Y-86487678D02*
X105276005Y-86420335D01*
X105276005Y-86420335D02*
X105309677Y-86319320D01*
X105309677Y-86319320D02*
X105478036Y-86150961D01*
X105478036Y-86150961D02*
X105579051Y-86117289D01*
X105579051Y-86117289D02*
X105646395Y-86117289D01*
X105646395Y-86117289D02*
X105747410Y-86150961D01*
X105747410Y-86150961D02*
X105814753Y-86218304D01*
X105814753Y-86218304D02*
X105882097Y-86352991D01*
X105882097Y-86352991D02*
X105882097Y-87161113D01*
X105882097Y-87161113D02*
X106319830Y-86723381D01*
X115357142Y-81754819D02*
X115023809Y-81278628D01*
X114785714Y-81754819D02*
X114785714Y-80754819D01*
X114785714Y-80754819D02*
X115166666Y-80754819D01*
X115166666Y-80754819D02*
X115261904Y-80802438D01*
X115261904Y-80802438D02*
X115309523Y-80850057D01*
X115309523Y-80850057D02*
X115357142Y-80945295D01*
X115357142Y-80945295D02*
X115357142Y-81088152D01*
X115357142Y-81088152D02*
X115309523Y-81183390D01*
X115309523Y-81183390D02*
X115261904Y-81231009D01*
X115261904Y-81231009D02*
X115166666Y-81278628D01*
X115166666Y-81278628D02*
X114785714Y-81278628D01*
X116309523Y-81754819D02*
X115738095Y-81754819D01*
X116023809Y-81754819D02*
X116023809Y-80754819D01*
X116023809Y-80754819D02*
X115928571Y-80897676D01*
X115928571Y-80897676D02*
X115833333Y-80992914D01*
X115833333Y-80992914D02*
X115738095Y-81040533D01*
X117261904Y-81754819D02*
X116690476Y-81754819D01*
X116976190Y-81754819D02*
X116976190Y-80754819D01*
X116976190Y-80754819D02*
X116880952Y-80897676D01*
X116880952Y-80897676D02*
X116785714Y-80992914D01*
X116785714Y-80992914D02*
X116690476Y-81040533D01*
X25954819Y-40266666D02*
X25478628Y-40599999D01*
X25954819Y-40838094D02*
X24954819Y-40838094D01*
X24954819Y-40838094D02*
X24954819Y-40457142D01*
X24954819Y-40457142D02*
X25002438Y-40361904D01*
X25002438Y-40361904D02*
X25050057Y-40314285D01*
X25050057Y-40314285D02*
X25145295Y-40266666D01*
X25145295Y-40266666D02*
X25288152Y-40266666D01*
X25288152Y-40266666D02*
X25383390Y-40314285D01*
X25383390Y-40314285D02*
X25431009Y-40361904D01*
X25431009Y-40361904D02*
X25478628Y-40457142D01*
X25478628Y-40457142D02*
X25478628Y-40838094D01*
X25050057Y-39885713D02*
X25002438Y-39838094D01*
X25002438Y-39838094D02*
X24954819Y-39742856D01*
X24954819Y-39742856D02*
X24954819Y-39504761D01*
X24954819Y-39504761D02*
X25002438Y-39409523D01*
X25002438Y-39409523D02*
X25050057Y-39361904D01*
X25050057Y-39361904D02*
X25145295Y-39314285D01*
X25145295Y-39314285D02*
X25240533Y-39314285D01*
X25240533Y-39314285D02*
X25383390Y-39361904D01*
X25383390Y-39361904D02*
X25954819Y-39933332D01*
X25954819Y-39933332D02*
X25954819Y-39314285D01*
X99309819Y-40986189D02*
X98309819Y-40986189D01*
X99214580Y-39938571D02*
X99262200Y-39986190D01*
X99262200Y-39986190D02*
X99309819Y-40129047D01*
X99309819Y-40129047D02*
X99309819Y-40224285D01*
X99309819Y-40224285D02*
X99262200Y-40367142D01*
X99262200Y-40367142D02*
X99166961Y-40462380D01*
X99166961Y-40462380D02*
X99071723Y-40509999D01*
X99071723Y-40509999D02*
X98881247Y-40557618D01*
X98881247Y-40557618D02*
X98738390Y-40557618D01*
X98738390Y-40557618D02*
X98547914Y-40509999D01*
X98547914Y-40509999D02*
X98452676Y-40462380D01*
X98452676Y-40462380D02*
X98357438Y-40367142D01*
X98357438Y-40367142D02*
X98309819Y-40224285D01*
X98309819Y-40224285D02*
X98309819Y-40129047D01*
X98309819Y-40129047D02*
X98357438Y-39986190D01*
X98357438Y-39986190D02*
X98405057Y-39938571D01*
X99309819Y-38986190D02*
X99309819Y-39557618D01*
X99309819Y-39271904D02*
X98309819Y-39271904D01*
X98309819Y-39271904D02*
X98452676Y-39367142D01*
X98452676Y-39367142D02*
X98547914Y-39462380D01*
X98547914Y-39462380D02*
X98595533Y-39557618D01*
X40254819Y-39666666D02*
X39778628Y-39999999D01*
X40254819Y-40238094D02*
X39254819Y-40238094D01*
X39254819Y-40238094D02*
X39254819Y-39857142D01*
X39254819Y-39857142D02*
X39302438Y-39761904D01*
X39302438Y-39761904D02*
X39350057Y-39714285D01*
X39350057Y-39714285D02*
X39445295Y-39666666D01*
X39445295Y-39666666D02*
X39588152Y-39666666D01*
X39588152Y-39666666D02*
X39683390Y-39714285D01*
X39683390Y-39714285D02*
X39731009Y-39761904D01*
X39731009Y-39761904D02*
X39778628Y-39857142D01*
X39778628Y-39857142D02*
X39778628Y-40238094D01*
X39254819Y-39333332D02*
X39254819Y-38714285D01*
X39254819Y-38714285D02*
X39635771Y-39047618D01*
X39635771Y-39047618D02*
X39635771Y-38904761D01*
X39635771Y-38904761D02*
X39683390Y-38809523D01*
X39683390Y-38809523D02*
X39731009Y-38761904D01*
X39731009Y-38761904D02*
X39826247Y-38714285D01*
X39826247Y-38714285D02*
X40064342Y-38714285D01*
X40064342Y-38714285D02*
X40159580Y-38761904D01*
X40159580Y-38761904D02*
X40207200Y-38809523D01*
X40207200Y-38809523D02*
X40254819Y-38904761D01*
X40254819Y-38904761D02*
X40254819Y-39190475D01*
X40254819Y-39190475D02*
X40207200Y-39285713D01*
X40207200Y-39285713D02*
X40159580Y-39333332D01*
X45574819Y-56916666D02*
X45098628Y-57249999D01*
X45574819Y-57488094D02*
X44574819Y-57488094D01*
X44574819Y-57488094D02*
X44574819Y-57107142D01*
X44574819Y-57107142D02*
X44622438Y-57011904D01*
X44622438Y-57011904D02*
X44670057Y-56964285D01*
X44670057Y-56964285D02*
X44765295Y-56916666D01*
X44765295Y-56916666D02*
X44908152Y-56916666D01*
X44908152Y-56916666D02*
X45003390Y-56964285D01*
X45003390Y-56964285D02*
X45051009Y-57011904D01*
X45051009Y-57011904D02*
X45098628Y-57107142D01*
X45098628Y-57107142D02*
X45098628Y-57488094D01*
X44908152Y-56059523D02*
X45574819Y-56059523D01*
X44527200Y-56297618D02*
X45241485Y-56535713D01*
X45241485Y-56535713D02*
X45241485Y-55916666D01*
X127659819Y-72712404D02*
X128469342Y-72712404D01*
X128469342Y-72712404D02*
X128564580Y-72664785D01*
X128564580Y-72664785D02*
X128612200Y-72617166D01*
X128612200Y-72617166D02*
X128659819Y-72521928D01*
X128659819Y-72521928D02*
X128659819Y-72331452D01*
X128659819Y-72331452D02*
X128612200Y-72236214D01*
X128612200Y-72236214D02*
X128564580Y-72188595D01*
X128564580Y-72188595D02*
X128469342Y-72140976D01*
X128469342Y-72140976D02*
X127659819Y-72140976D01*
X127755057Y-71712404D02*
X127707438Y-71664785D01*
X127707438Y-71664785D02*
X127659819Y-71569547D01*
X127659819Y-71569547D02*
X127659819Y-71331452D01*
X127659819Y-71331452D02*
X127707438Y-71236214D01*
X127707438Y-71236214D02*
X127755057Y-71188595D01*
X127755057Y-71188595D02*
X127850295Y-71140976D01*
X127850295Y-71140976D02*
X127945533Y-71140976D01*
X127945533Y-71140976D02*
X128088390Y-71188595D01*
X128088390Y-71188595D02*
X128659819Y-71760023D01*
X128659819Y-71760023D02*
X128659819Y-71140976D01*
X106916667Y-31057200D02*
X107059524Y-31104819D01*
X107059524Y-31104819D02*
X107297619Y-31104819D01*
X107297619Y-31104819D02*
X107392857Y-31057200D01*
X107392857Y-31057200D02*
X107440476Y-31009580D01*
X107440476Y-31009580D02*
X107488095Y-30914342D01*
X107488095Y-30914342D02*
X107488095Y-30819104D01*
X107488095Y-30819104D02*
X107440476Y-30723866D01*
X107440476Y-30723866D02*
X107392857Y-30676247D01*
X107392857Y-30676247D02*
X107297619Y-30628628D01*
X107297619Y-30628628D02*
X107107143Y-30581009D01*
X107107143Y-30581009D02*
X107011905Y-30533390D01*
X107011905Y-30533390D02*
X106964286Y-30485771D01*
X106964286Y-30485771D02*
X106916667Y-30390533D01*
X106916667Y-30390533D02*
X106916667Y-30295295D01*
X106916667Y-30295295D02*
X106964286Y-30200057D01*
X106964286Y-30200057D02*
X107011905Y-30152438D01*
X107011905Y-30152438D02*
X107107143Y-30104819D01*
X107107143Y-30104819D02*
X107345238Y-30104819D01*
X107345238Y-30104819D02*
X107488095Y-30152438D01*
X107821429Y-30104819D02*
X108059524Y-31104819D01*
X108059524Y-31104819D02*
X108250000Y-30390533D01*
X108250000Y-30390533D02*
X108440476Y-31104819D01*
X108440476Y-31104819D02*
X108678572Y-30104819D01*
X109011905Y-30200057D02*
X109059524Y-30152438D01*
X109059524Y-30152438D02*
X109154762Y-30104819D01*
X109154762Y-30104819D02*
X109392857Y-30104819D01*
X109392857Y-30104819D02*
X109488095Y-30152438D01*
X109488095Y-30152438D02*
X109535714Y-30200057D01*
X109535714Y-30200057D02*
X109583333Y-30295295D01*
X109583333Y-30295295D02*
X109583333Y-30390533D01*
X109583333Y-30390533D02*
X109535714Y-30533390D01*
X109535714Y-30533390D02*
X108964286Y-31104819D01*
X108964286Y-31104819D02*
X109583333Y-31104819D01*
X88414819Y-86659047D02*
X88414819Y-87135237D01*
X88414819Y-87135237D02*
X87414819Y-87135237D01*
X87891009Y-86325713D02*
X87891009Y-85992380D01*
X88414819Y-85849523D02*
X88414819Y-86325713D01*
X88414819Y-86325713D02*
X87414819Y-86325713D01*
X87414819Y-86325713D02*
X87414819Y-85849523D01*
X88414819Y-85420951D02*
X87414819Y-85420951D01*
X87414819Y-85420951D02*
X87414819Y-85182856D01*
X87414819Y-85182856D02*
X87462438Y-85039999D01*
X87462438Y-85039999D02*
X87557676Y-84944761D01*
X87557676Y-84944761D02*
X87652914Y-84897142D01*
X87652914Y-84897142D02*
X87843390Y-84849523D01*
X87843390Y-84849523D02*
X87986247Y-84849523D01*
X87986247Y-84849523D02*
X88176723Y-84897142D01*
X88176723Y-84897142D02*
X88271961Y-84944761D01*
X88271961Y-84944761D02*
X88367200Y-85039999D01*
X88367200Y-85039999D02*
X88414819Y-85182856D01*
X88414819Y-85182856D02*
X88414819Y-85420951D01*
X88414819Y-83897142D02*
X88414819Y-84468570D01*
X88414819Y-84182856D02*
X87414819Y-84182856D01*
X87414819Y-84182856D02*
X87557676Y-84278094D01*
X87557676Y-84278094D02*
X87652914Y-84373332D01*
X87652914Y-84373332D02*
X87700533Y-84468570D01*
D11*
X80776667Y-30804318D02*
X80776667Y-31711461D01*
X80776667Y-31711461D02*
X80716190Y-31892889D01*
X80716190Y-31892889D02*
X80595238Y-32013842D01*
X80595238Y-32013842D02*
X80413809Y-32074318D01*
X80413809Y-32074318D02*
X80292857Y-32074318D01*
X81320952Y-30925270D02*
X81381428Y-30864794D01*
X81381428Y-30864794D02*
X81502381Y-30804318D01*
X81502381Y-30804318D02*
X81804762Y-30804318D01*
X81804762Y-30804318D02*
X81925714Y-30864794D01*
X81925714Y-30864794D02*
X81986190Y-30925270D01*
X81986190Y-30925270D02*
X82046667Y-31046222D01*
X82046667Y-31046222D02*
X82046667Y-31167175D01*
X82046667Y-31167175D02*
X81986190Y-31348603D01*
X81986190Y-31348603D02*
X81260476Y-32074318D01*
X81260476Y-32074318D02*
X82046667Y-32074318D01*
X82836666Y-28213842D02*
X83018095Y-28274318D01*
X83018095Y-28274318D02*
X83320476Y-28274318D01*
X83320476Y-28274318D02*
X83441428Y-28213842D01*
X83441428Y-28213842D02*
X83501904Y-28153365D01*
X83501904Y-28153365D02*
X83562381Y-28032413D01*
X83562381Y-28032413D02*
X83562381Y-27911461D01*
X83562381Y-27911461D02*
X83501904Y-27790508D01*
X83501904Y-27790508D02*
X83441428Y-27730032D01*
X83441428Y-27730032D02*
X83320476Y-27669556D01*
X83320476Y-27669556D02*
X83078571Y-27609080D01*
X83078571Y-27609080D02*
X82957619Y-27548603D01*
X82957619Y-27548603D02*
X82897142Y-27488127D01*
X82897142Y-27488127D02*
X82836666Y-27367175D01*
X82836666Y-27367175D02*
X82836666Y-27246222D01*
X82836666Y-27246222D02*
X82897142Y-27125270D01*
X82897142Y-27125270D02*
X82957619Y-27064794D01*
X82957619Y-27064794D02*
X83078571Y-27004318D01*
X83078571Y-27004318D02*
X83380952Y-27004318D01*
X83380952Y-27004318D02*
X83562381Y-27064794D01*
X84590476Y-28213842D02*
X84469524Y-28274318D01*
X84469524Y-28274318D02*
X84227619Y-28274318D01*
X84227619Y-28274318D02*
X84106666Y-28213842D01*
X84106666Y-28213842D02*
X84046190Y-28092889D01*
X84046190Y-28092889D02*
X84046190Y-27609080D01*
X84046190Y-27609080D02*
X84106666Y-27488127D01*
X84106666Y-27488127D02*
X84227619Y-27427651D01*
X84227619Y-27427651D02*
X84469524Y-27427651D01*
X84469524Y-27427651D02*
X84590476Y-27488127D01*
X84590476Y-27488127D02*
X84650952Y-27609080D01*
X84650952Y-27609080D02*
X84650952Y-27730032D01*
X84650952Y-27730032D02*
X84046190Y-27850984D01*
X85195237Y-27427651D02*
X85195237Y-28274318D01*
X85195237Y-27548603D02*
X85255714Y-27488127D01*
X85255714Y-27488127D02*
X85376666Y-27427651D01*
X85376666Y-27427651D02*
X85558095Y-27427651D01*
X85558095Y-27427651D02*
X85679047Y-27488127D01*
X85679047Y-27488127D02*
X85739523Y-27609080D01*
X85739523Y-27609080D02*
X85739523Y-28274318D01*
X86283809Y-28213842D02*
X86404762Y-28274318D01*
X86404762Y-28274318D02*
X86646666Y-28274318D01*
X86646666Y-28274318D02*
X86767619Y-28213842D01*
X86767619Y-28213842D02*
X86828095Y-28092889D01*
X86828095Y-28092889D02*
X86828095Y-28032413D01*
X86828095Y-28032413D02*
X86767619Y-27911461D01*
X86767619Y-27911461D02*
X86646666Y-27850984D01*
X86646666Y-27850984D02*
X86465238Y-27850984D01*
X86465238Y-27850984D02*
X86344285Y-27790508D01*
X86344285Y-27790508D02*
X86283809Y-27669556D01*
X86283809Y-27669556D02*
X86283809Y-27609080D01*
X86283809Y-27609080D02*
X86344285Y-27488127D01*
X86344285Y-27488127D02*
X86465238Y-27427651D01*
X86465238Y-27427651D02*
X86646666Y-27427651D01*
X86646666Y-27427651D02*
X86767619Y-27488127D01*
X87553809Y-28274318D02*
X87432857Y-28213842D01*
X87432857Y-28213842D02*
X87372380Y-28153365D01*
X87372380Y-28153365D02*
X87311904Y-28032413D01*
X87311904Y-28032413D02*
X87311904Y-27669556D01*
X87311904Y-27669556D02*
X87372380Y-27548603D01*
X87372380Y-27548603D02*
X87432857Y-27488127D01*
X87432857Y-27488127D02*
X87553809Y-27427651D01*
X87553809Y-27427651D02*
X87735238Y-27427651D01*
X87735238Y-27427651D02*
X87856190Y-27488127D01*
X87856190Y-27488127D02*
X87916666Y-27548603D01*
X87916666Y-27548603D02*
X87977142Y-27669556D01*
X87977142Y-27669556D02*
X87977142Y-28032413D01*
X87977142Y-28032413D02*
X87916666Y-28153365D01*
X87916666Y-28153365D02*
X87856190Y-28213842D01*
X87856190Y-28213842D02*
X87735238Y-28274318D01*
X87735238Y-28274318D02*
X87553809Y-28274318D01*
X88521428Y-28274318D02*
X88521428Y-27427651D01*
X88521428Y-27669556D02*
X88581905Y-27548603D01*
X88581905Y-27548603D02*
X88642381Y-27488127D01*
X88642381Y-27488127D02*
X88763333Y-27427651D01*
X88763333Y-27427651D02*
X88884286Y-27427651D01*
D10*
X63666667Y-31057200D02*
X63809524Y-31104819D01*
X63809524Y-31104819D02*
X64047619Y-31104819D01*
X64047619Y-31104819D02*
X64142857Y-31057200D01*
X64142857Y-31057200D02*
X64190476Y-31009580D01*
X64190476Y-31009580D02*
X64238095Y-30914342D01*
X64238095Y-30914342D02*
X64238095Y-30819104D01*
X64238095Y-30819104D02*
X64190476Y-30723866D01*
X64190476Y-30723866D02*
X64142857Y-30676247D01*
X64142857Y-30676247D02*
X64047619Y-30628628D01*
X64047619Y-30628628D02*
X63857143Y-30581009D01*
X63857143Y-30581009D02*
X63761905Y-30533390D01*
X63761905Y-30533390D02*
X63714286Y-30485771D01*
X63714286Y-30485771D02*
X63666667Y-30390533D01*
X63666667Y-30390533D02*
X63666667Y-30295295D01*
X63666667Y-30295295D02*
X63714286Y-30200057D01*
X63714286Y-30200057D02*
X63761905Y-30152438D01*
X63761905Y-30152438D02*
X63857143Y-30104819D01*
X63857143Y-30104819D02*
X64095238Y-30104819D01*
X64095238Y-30104819D02*
X64238095Y-30152438D01*
X64571429Y-30104819D02*
X64809524Y-31104819D01*
X64809524Y-31104819D02*
X65000000Y-30390533D01*
X65000000Y-30390533D02*
X65190476Y-31104819D01*
X65190476Y-31104819D02*
X65428572Y-30104819D01*
X66238095Y-30438152D02*
X66238095Y-31104819D01*
X66000000Y-30057200D02*
X65761905Y-30771485D01*
X65761905Y-30771485D02*
X66380952Y-30771485D01*
X98084819Y-27666666D02*
X97608628Y-27999999D01*
X98084819Y-28238094D02*
X97084819Y-28238094D01*
X97084819Y-28238094D02*
X97084819Y-27857142D01*
X97084819Y-27857142D02*
X97132438Y-27761904D01*
X97132438Y-27761904D02*
X97180057Y-27714285D01*
X97180057Y-27714285D02*
X97275295Y-27666666D01*
X97275295Y-27666666D02*
X97418152Y-27666666D01*
X97418152Y-27666666D02*
X97513390Y-27714285D01*
X97513390Y-27714285D02*
X97561009Y-27761904D01*
X97561009Y-27761904D02*
X97608628Y-27857142D01*
X97608628Y-27857142D02*
X97608628Y-28238094D01*
X98084819Y-26714285D02*
X98084819Y-27285713D01*
X98084819Y-26999999D02*
X97084819Y-26999999D01*
X97084819Y-26999999D02*
X97227676Y-27095237D01*
X97227676Y-27095237D02*
X97322914Y-27190475D01*
X97322914Y-27190475D02*
X97370533Y-27285713D01*
X124928571Y-49654819D02*
X125499999Y-49654819D01*
X125214285Y-50654819D02*
X125214285Y-49654819D01*
X125833333Y-50654819D02*
X125833333Y-49988152D01*
X125833333Y-50178628D02*
X125880952Y-50083390D01*
X125880952Y-50083390D02*
X125928571Y-50035771D01*
X125928571Y-50035771D02*
X126023809Y-49988152D01*
X126023809Y-49988152D02*
X126119047Y-49988152D01*
X126404762Y-49750057D02*
X126452381Y-49702438D01*
X126452381Y-49702438D02*
X126547619Y-49654819D01*
X126547619Y-49654819D02*
X126785714Y-49654819D01*
X126785714Y-49654819D02*
X126880952Y-49702438D01*
X126880952Y-49702438D02*
X126928571Y-49750057D01*
X126928571Y-49750057D02*
X126976190Y-49845295D01*
X126976190Y-49845295D02*
X126976190Y-49940533D01*
X126976190Y-49940533D02*
X126928571Y-50083390D01*
X126928571Y-50083390D02*
X126357143Y-50654819D01*
X126357143Y-50654819D02*
X126976190Y-50654819D01*
X74490586Y-84338696D02*
X74153869Y-84675413D01*
X74153869Y-84675413D02*
X73446762Y-83968307D01*
X74355899Y-83732604D02*
X74591602Y-83496902D01*
X75063006Y-83766276D02*
X74726289Y-84102994D01*
X74726289Y-84102994D02*
X74019182Y-83395887D01*
X74019182Y-83395887D02*
X74355899Y-83059169D01*
X75366052Y-83463230D02*
X74658945Y-82756123D01*
X74658945Y-82756123D02*
X74827304Y-82587765D01*
X74827304Y-82587765D02*
X74961991Y-82520421D01*
X74961991Y-82520421D02*
X75096678Y-82520421D01*
X75096678Y-82520421D02*
X75197693Y-82554093D01*
X75197693Y-82554093D02*
X75366052Y-82655108D01*
X75366052Y-82655108D02*
X75467067Y-82756123D01*
X75467067Y-82756123D02*
X75568083Y-82924482D01*
X75568083Y-82924482D02*
X75601754Y-83025497D01*
X75601754Y-83025497D02*
X75601754Y-83160184D01*
X75601754Y-83160184D02*
X75534411Y-83294871D01*
X75534411Y-83294871D02*
X75366052Y-83463230D01*
X76443548Y-82385734D02*
X76039487Y-82789795D01*
X76241518Y-82587765D02*
X75534411Y-81880658D01*
X75534411Y-81880658D02*
X75568083Y-82049017D01*
X75568083Y-82049017D02*
X75568083Y-82183704D01*
X75568083Y-82183704D02*
X75534411Y-82284719D01*
X76376205Y-81038864D02*
X76039487Y-81375582D01*
X76039487Y-81375582D02*
X76342533Y-81745971D01*
X76342533Y-81745971D02*
X76342533Y-81678627D01*
X76342533Y-81678627D02*
X76376205Y-81577612D01*
X76376205Y-81577612D02*
X76544563Y-81409253D01*
X76544563Y-81409253D02*
X76645579Y-81375582D01*
X76645579Y-81375582D02*
X76712922Y-81375582D01*
X76712922Y-81375582D02*
X76813937Y-81409253D01*
X76813937Y-81409253D02*
X76982296Y-81577612D01*
X76982296Y-81577612D02*
X77015968Y-81678627D01*
X77015968Y-81678627D02*
X77015968Y-81745971D01*
X77015968Y-81745971D02*
X76982296Y-81846986D01*
X76982296Y-81846986D02*
X76813937Y-82015345D01*
X76813937Y-82015345D02*
X76712922Y-82049017D01*
X76712922Y-82049017D02*
X76645579Y-82049017D01*
X66872743Y-65072393D02*
X66432800Y-64890163D01*
X66432800Y-64890163D02*
X66815484Y-63966284D01*
X67381156Y-64716018D02*
X67689116Y-64843579D01*
X67620645Y-65382185D02*
X67180703Y-65199954D01*
X67180703Y-65199954D02*
X67563386Y-64276075D01*
X67563386Y-64276075D02*
X68003329Y-64458305D01*
X68016594Y-65546192D02*
X68399277Y-64622312D01*
X68399277Y-64622312D02*
X68619249Y-64713427D01*
X68619249Y-64713427D02*
X68733008Y-64812091D01*
X68733008Y-64812091D02*
X68784551Y-64936525D01*
X68784551Y-64936525D02*
X68792099Y-65042737D01*
X68792099Y-65042737D02*
X68763201Y-65236937D01*
X68763201Y-65236937D02*
X68708532Y-65368920D01*
X68708532Y-65368920D02*
X68591646Y-65526674D01*
X68591646Y-65526674D02*
X68511206Y-65596439D01*
X68511206Y-65596439D02*
X68386771Y-65647982D01*
X68386771Y-65647982D02*
X68236565Y-65637307D01*
X68236565Y-65637307D02*
X68016594Y-65546192D01*
X69424410Y-66129329D02*
X68896479Y-65910652D01*
X69160445Y-66019990D02*
X69543128Y-65096111D01*
X69543128Y-65096111D02*
X69400471Y-65191648D01*
X69400471Y-65191648D02*
X69276036Y-65243190D01*
X69276036Y-65243190D02*
X69169824Y-65250738D01*
X70122602Y-65439222D02*
X70184819Y-65413450D01*
X70184819Y-65413450D02*
X70291031Y-65405902D01*
X70291031Y-65405902D02*
X70511002Y-65497017D01*
X70511002Y-65497017D02*
X70580768Y-65577458D01*
X70580768Y-65577458D02*
X70606539Y-65639675D01*
X70606539Y-65639675D02*
X70614087Y-65745887D01*
X70614087Y-65745887D02*
X70577641Y-65833875D01*
X70577641Y-65833875D02*
X70478978Y-65947635D01*
X70478978Y-65947635D02*
X69732370Y-66256890D01*
X69732370Y-66256890D02*
X70304296Y-66493789D01*
X34359580Y-61121779D02*
X34407200Y-61169398D01*
X34407200Y-61169398D02*
X34454819Y-61312255D01*
X34454819Y-61312255D02*
X34454819Y-61407493D01*
X34454819Y-61407493D02*
X34407200Y-61550350D01*
X34407200Y-61550350D02*
X34311961Y-61645588D01*
X34311961Y-61645588D02*
X34216723Y-61693207D01*
X34216723Y-61693207D02*
X34026247Y-61740826D01*
X34026247Y-61740826D02*
X33883390Y-61740826D01*
X33883390Y-61740826D02*
X33692914Y-61693207D01*
X33692914Y-61693207D02*
X33597676Y-61645588D01*
X33597676Y-61645588D02*
X33502438Y-61550350D01*
X33502438Y-61550350D02*
X33454819Y-61407493D01*
X33454819Y-61407493D02*
X33454819Y-61312255D01*
X33454819Y-61312255D02*
X33502438Y-61169398D01*
X33502438Y-61169398D02*
X33550057Y-61121779D01*
X33454819Y-60217017D02*
X33454819Y-60693207D01*
X33454819Y-60693207D02*
X33931009Y-60740826D01*
X33931009Y-60740826D02*
X33883390Y-60693207D01*
X33883390Y-60693207D02*
X33835771Y-60597969D01*
X33835771Y-60597969D02*
X33835771Y-60359874D01*
X33835771Y-60359874D02*
X33883390Y-60264636D01*
X33883390Y-60264636D02*
X33931009Y-60217017D01*
X33931009Y-60217017D02*
X34026247Y-60169398D01*
X34026247Y-60169398D02*
X34264342Y-60169398D01*
X34264342Y-60169398D02*
X34359580Y-60217017D01*
X34359580Y-60217017D02*
X34407200Y-60264636D01*
X34407200Y-60264636D02*
X34454819Y-60359874D01*
X34454819Y-60359874D02*
X34454819Y-60597969D01*
X34454819Y-60597969D02*
X34407200Y-60693207D01*
X34407200Y-60693207D02*
X34359580Y-60740826D01*
X28350057Y-37195238D02*
X28302438Y-37290476D01*
X28302438Y-37290476D02*
X28207200Y-37385714D01*
X28207200Y-37385714D02*
X28064342Y-37528571D01*
X28064342Y-37528571D02*
X28016723Y-37623809D01*
X28016723Y-37623809D02*
X28016723Y-37719047D01*
X28254819Y-37671428D02*
X28207200Y-37766666D01*
X28207200Y-37766666D02*
X28111961Y-37861904D01*
X28111961Y-37861904D02*
X27921485Y-37909523D01*
X27921485Y-37909523D02*
X27588152Y-37909523D01*
X27588152Y-37909523D02*
X27397676Y-37861904D01*
X27397676Y-37861904D02*
X27302438Y-37766666D01*
X27302438Y-37766666D02*
X27254819Y-37671428D01*
X27254819Y-37671428D02*
X27254819Y-37480952D01*
X27254819Y-37480952D02*
X27302438Y-37385714D01*
X27302438Y-37385714D02*
X27397676Y-37290476D01*
X27397676Y-37290476D02*
X27588152Y-37242857D01*
X27588152Y-37242857D02*
X27921485Y-37242857D01*
X27921485Y-37242857D02*
X28111961Y-37290476D01*
X28111961Y-37290476D02*
X28207200Y-37385714D01*
X28207200Y-37385714D02*
X28254819Y-37480952D01*
X28254819Y-37480952D02*
X28254819Y-37671428D01*
X28254819Y-36290476D02*
X28254819Y-36861904D01*
X28254819Y-36576190D02*
X27254819Y-36576190D01*
X27254819Y-36576190D02*
X27397676Y-36671428D01*
X27397676Y-36671428D02*
X27492914Y-36766666D01*
X27492914Y-36766666D02*
X27540533Y-36861904D01*
X97776195Y-78233334D02*
X97439477Y-77896617D01*
X97439477Y-77896617D02*
X98146584Y-77189510D01*
X98382287Y-78098647D02*
X98617989Y-78334350D01*
X98348615Y-78805754D02*
X98011897Y-78469037D01*
X98011897Y-78469037D02*
X98719004Y-77761930D01*
X98719004Y-77761930D02*
X99055722Y-78098647D01*
X98651661Y-79108800D02*
X99358767Y-78401693D01*
X99358767Y-78401693D02*
X99527126Y-78570052D01*
X99527126Y-78570052D02*
X99594470Y-78704739D01*
X99594470Y-78704739D02*
X99594470Y-78839426D01*
X99594470Y-78839426D02*
X99560798Y-78940441D01*
X99560798Y-78940441D02*
X99459783Y-79108800D01*
X99459783Y-79108800D02*
X99358767Y-79209815D01*
X99358767Y-79209815D02*
X99190409Y-79310830D01*
X99190409Y-79310830D02*
X99089393Y-79344502D01*
X99089393Y-79344502D02*
X98954706Y-79344502D01*
X98954706Y-79344502D02*
X98820019Y-79277159D01*
X98820019Y-79277159D02*
X98651661Y-79108800D01*
X99998531Y-79041456D02*
X100436264Y-79479189D01*
X100436264Y-79479189D02*
X99931187Y-79512861D01*
X99931187Y-79512861D02*
X100032202Y-79613876D01*
X100032202Y-79613876D02*
X100065874Y-79714891D01*
X100065874Y-79714891D02*
X100065874Y-79782235D01*
X100065874Y-79782235D02*
X100032202Y-79883250D01*
X100032202Y-79883250D02*
X99863844Y-80051609D01*
X99863844Y-80051609D02*
X99762828Y-80085281D01*
X99762828Y-80085281D02*
X99695485Y-80085281D01*
X99695485Y-80085281D02*
X99594470Y-80051609D01*
X99594470Y-80051609D02*
X99392439Y-79849578D01*
X99392439Y-79849578D02*
X99358767Y-79748563D01*
X99358767Y-79748563D02*
X99358767Y-79681220D01*
D11*
X115824999Y-35074318D02*
X115824999Y-33804318D01*
X115824999Y-33804318D02*
X116308809Y-33804318D01*
X116308809Y-33804318D02*
X116429761Y-33864794D01*
X116429761Y-33864794D02*
X116490238Y-33925270D01*
X116490238Y-33925270D02*
X116550714Y-34046222D01*
X116550714Y-34046222D02*
X116550714Y-34227651D01*
X116550714Y-34227651D02*
X116490238Y-34348603D01*
X116490238Y-34348603D02*
X116429761Y-34409080D01*
X116429761Y-34409080D02*
X116308809Y-34469556D01*
X116308809Y-34469556D02*
X115824999Y-34469556D01*
X117094999Y-35074318D02*
X117094999Y-33804318D01*
X118425476Y-34953365D02*
X118365000Y-35013842D01*
X118365000Y-35013842D02*
X118183571Y-35074318D01*
X118183571Y-35074318D02*
X118062619Y-35074318D01*
X118062619Y-35074318D02*
X117881190Y-35013842D01*
X117881190Y-35013842D02*
X117760238Y-34892889D01*
X117760238Y-34892889D02*
X117699761Y-34771937D01*
X117699761Y-34771937D02*
X117639285Y-34530032D01*
X117639285Y-34530032D02*
X117639285Y-34348603D01*
X117639285Y-34348603D02*
X117699761Y-34106699D01*
X117699761Y-34106699D02*
X117760238Y-33985746D01*
X117760238Y-33985746D02*
X117881190Y-33864794D01*
X117881190Y-33864794D02*
X118062619Y-33804318D01*
X118062619Y-33804318D02*
X118183571Y-33804318D01*
X118183571Y-33804318D02*
X118365000Y-33864794D01*
X118365000Y-33864794D02*
X118425476Y-33925270D01*
X118969761Y-35074318D02*
X118969761Y-33804318D01*
X119695476Y-35074318D02*
X119151190Y-34348603D01*
X119695476Y-33804318D02*
X118969761Y-34530032D01*
X120239761Y-35074318D02*
X120239761Y-34227651D01*
X120239761Y-33804318D02*
X120179285Y-33864794D01*
X120179285Y-33864794D02*
X120239761Y-33925270D01*
X120239761Y-33925270D02*
X120300238Y-33864794D01*
X120300238Y-33864794D02*
X120239761Y-33804318D01*
X120239761Y-33804318D02*
X120239761Y-33925270D01*
X120663095Y-34227651D02*
X121146904Y-34227651D01*
X120844523Y-33804318D02*
X120844523Y-34892889D01*
X120844523Y-34892889D02*
X120905000Y-35013842D01*
X120905000Y-35013842D02*
X121025952Y-35074318D01*
X121025952Y-35074318D02*
X121146904Y-35074318D01*
X121449285Y-33804318D02*
X122235476Y-33804318D01*
X122235476Y-33804318D02*
X121812142Y-34288127D01*
X121812142Y-34288127D02*
X121993571Y-34288127D01*
X121993571Y-34288127D02*
X122114523Y-34348603D01*
X122114523Y-34348603D02*
X122174999Y-34409080D01*
X122174999Y-34409080D02*
X122235476Y-34530032D01*
X122235476Y-34530032D02*
X122235476Y-34832413D01*
X122235476Y-34832413D02*
X122174999Y-34953365D01*
X122174999Y-34953365D02*
X122114523Y-35013842D01*
X122114523Y-35013842D02*
X121993571Y-35074318D01*
X121993571Y-35074318D02*
X121630714Y-35074318D01*
X121630714Y-35074318D02*
X121509761Y-35013842D01*
X121509761Y-35013842D02*
X121449285Y-34953365D01*
D10*
X48233333Y-68759580D02*
X48185714Y-68807200D01*
X48185714Y-68807200D02*
X48042857Y-68854819D01*
X48042857Y-68854819D02*
X47947619Y-68854819D01*
X47947619Y-68854819D02*
X47804762Y-68807200D01*
X47804762Y-68807200D02*
X47709524Y-68711961D01*
X47709524Y-68711961D02*
X47661905Y-68616723D01*
X47661905Y-68616723D02*
X47614286Y-68426247D01*
X47614286Y-68426247D02*
X47614286Y-68283390D01*
X47614286Y-68283390D02*
X47661905Y-68092914D01*
X47661905Y-68092914D02*
X47709524Y-67997676D01*
X47709524Y-67997676D02*
X47804762Y-67902438D01*
X47804762Y-67902438D02*
X47947619Y-67854819D01*
X47947619Y-67854819D02*
X48042857Y-67854819D01*
X48042857Y-67854819D02*
X48185714Y-67902438D01*
X48185714Y-67902438D02*
X48233333Y-67950057D01*
X48566667Y-67854819D02*
X49185714Y-67854819D01*
X49185714Y-67854819D02*
X48852381Y-68235771D01*
X48852381Y-68235771D02*
X48995238Y-68235771D01*
X48995238Y-68235771D02*
X49090476Y-68283390D01*
X49090476Y-68283390D02*
X49138095Y-68331009D01*
X49138095Y-68331009D02*
X49185714Y-68426247D01*
X49185714Y-68426247D02*
X49185714Y-68664342D01*
X49185714Y-68664342D02*
X49138095Y-68759580D01*
X49138095Y-68759580D02*
X49090476Y-68807200D01*
X49090476Y-68807200D02*
X48995238Y-68854819D01*
X48995238Y-68854819D02*
X48709524Y-68854819D01*
X48709524Y-68854819D02*
X48614286Y-68807200D01*
X48614286Y-68807200D02*
X48566667Y-68759580D01*
X94233334Y-56223804D02*
X93896617Y-56560522D01*
X93896617Y-56560522D02*
X93189510Y-55853415D01*
X94098647Y-55617712D02*
X94334350Y-55382010D01*
X94805754Y-55651384D02*
X94469037Y-55988102D01*
X94469037Y-55988102D02*
X93761930Y-55280995D01*
X93761930Y-55280995D02*
X94098647Y-54944277D01*
X95108800Y-55348338D02*
X94401693Y-54641232D01*
X94401693Y-54641232D02*
X94570052Y-54472873D01*
X94570052Y-54472873D02*
X94704739Y-54405529D01*
X94704739Y-54405529D02*
X94839426Y-54405529D01*
X94839426Y-54405529D02*
X94940441Y-54439201D01*
X94940441Y-54439201D02*
X95108800Y-54540216D01*
X95108800Y-54540216D02*
X95209815Y-54641232D01*
X95209815Y-54641232D02*
X95310830Y-54809590D01*
X95310830Y-54809590D02*
X95344502Y-54910606D01*
X95344502Y-54910606D02*
X95344502Y-55045293D01*
X95344502Y-55045293D02*
X95277159Y-55179980D01*
X95277159Y-55179980D02*
X95108800Y-55348338D01*
X95041456Y-54001468D02*
X95512861Y-53530064D01*
X95512861Y-53530064D02*
X95916922Y-54540216D01*
X84238095Y-80554819D02*
X84238095Y-81364342D01*
X84238095Y-81364342D02*
X84285714Y-81459580D01*
X84285714Y-81459580D02*
X84333333Y-81507200D01*
X84333333Y-81507200D02*
X84428571Y-81554819D01*
X84428571Y-81554819D02*
X84619047Y-81554819D01*
X84619047Y-81554819D02*
X84714285Y-81507200D01*
X84714285Y-81507200D02*
X84761904Y-81459580D01*
X84761904Y-81459580D02*
X84809523Y-81364342D01*
X84809523Y-81364342D02*
X84809523Y-80554819D01*
X85190476Y-80554819D02*
X85809523Y-80554819D01*
X85809523Y-80554819D02*
X85476190Y-80935771D01*
X85476190Y-80935771D02*
X85619047Y-80935771D01*
X85619047Y-80935771D02*
X85714285Y-80983390D01*
X85714285Y-80983390D02*
X85761904Y-81031009D01*
X85761904Y-81031009D02*
X85809523Y-81126247D01*
X85809523Y-81126247D02*
X85809523Y-81364342D01*
X85809523Y-81364342D02*
X85761904Y-81459580D01*
X85761904Y-81459580D02*
X85714285Y-81507200D01*
X85714285Y-81507200D02*
X85619047Y-81554819D01*
X85619047Y-81554819D02*
X85333333Y-81554819D01*
X85333333Y-81554819D02*
X85238095Y-81507200D01*
X85238095Y-81507200D02*
X85190476Y-81459580D01*
X88729290Y-53728519D02*
X88547059Y-54168462D01*
X88547059Y-54168462D02*
X87623180Y-53785778D01*
X88372914Y-53220106D02*
X88500475Y-52912146D01*
X89039081Y-52980616D02*
X88856851Y-53420559D01*
X88856851Y-53420559D02*
X87932971Y-53037876D01*
X87932971Y-53037876D02*
X88115202Y-52597933D01*
X89203088Y-52584668D02*
X88279209Y-52201985D01*
X88279209Y-52201985D02*
X88370324Y-51982013D01*
X88370324Y-51982013D02*
X88468987Y-51868253D01*
X88468987Y-51868253D02*
X88593422Y-51816711D01*
X88593422Y-51816711D02*
X88699633Y-51809163D01*
X88699633Y-51809163D02*
X88893833Y-51838061D01*
X88893833Y-51838061D02*
X89025816Y-51892730D01*
X89025816Y-51892730D02*
X89183570Y-52009616D01*
X89183570Y-52009616D02*
X89253336Y-52090056D01*
X89253336Y-52090056D02*
X89304878Y-52214491D01*
X89304878Y-52214491D02*
X89294203Y-52364697D01*
X89294203Y-52364697D02*
X89203088Y-52584668D01*
X89112510Y-51310129D02*
X89032069Y-51379895D01*
X89032069Y-51379895D02*
X88969852Y-51405666D01*
X88969852Y-51405666D02*
X88863640Y-51413214D01*
X88863640Y-51413214D02*
X88819646Y-51394991D01*
X88819646Y-51394991D02*
X88749881Y-51314551D01*
X88749881Y-51314551D02*
X88724109Y-51252334D01*
X88724109Y-51252334D02*
X88716561Y-51146122D01*
X88716561Y-51146122D02*
X88789453Y-50970145D01*
X88789453Y-50970145D02*
X88869894Y-50900380D01*
X88869894Y-50900380D02*
X88932111Y-50874608D01*
X88932111Y-50874608D02*
X89038322Y-50867060D01*
X89038322Y-50867060D02*
X89082317Y-50885283D01*
X89082317Y-50885283D02*
X89152082Y-50965724D01*
X89152082Y-50965724D02*
X89177853Y-51027941D01*
X89177853Y-51027941D02*
X89185402Y-51134152D01*
X89185402Y-51134152D02*
X89112510Y-51310129D01*
X89112510Y-51310129D02*
X89120058Y-51416341D01*
X89120058Y-51416341D02*
X89145829Y-51478558D01*
X89145829Y-51478558D02*
X89215595Y-51558999D01*
X89215595Y-51558999D02*
X89391572Y-51631891D01*
X89391572Y-51631891D02*
X89497783Y-51624342D01*
X89497783Y-51624342D02*
X89560000Y-51598571D01*
X89560000Y-51598571D02*
X89640441Y-51528806D01*
X89640441Y-51528806D02*
X89713333Y-51352829D01*
X89713333Y-51352829D02*
X89705785Y-51246617D01*
X89705785Y-51246617D02*
X89680013Y-51184400D01*
X89680013Y-51184400D02*
X89610248Y-51103959D01*
X89610248Y-51103959D02*
X89434271Y-51031067D01*
X89434271Y-51031067D02*
X89328059Y-51038616D01*
X89328059Y-51038616D02*
X89265842Y-51064387D01*
X89265842Y-51064387D02*
X89185402Y-51134152D01*
X75366667Y-31057200D02*
X75509524Y-31104819D01*
X75509524Y-31104819D02*
X75747619Y-31104819D01*
X75747619Y-31104819D02*
X75842857Y-31057200D01*
X75842857Y-31057200D02*
X75890476Y-31009580D01*
X75890476Y-31009580D02*
X75938095Y-30914342D01*
X75938095Y-30914342D02*
X75938095Y-30819104D01*
X75938095Y-30819104D02*
X75890476Y-30723866D01*
X75890476Y-30723866D02*
X75842857Y-30676247D01*
X75842857Y-30676247D02*
X75747619Y-30628628D01*
X75747619Y-30628628D02*
X75557143Y-30581009D01*
X75557143Y-30581009D02*
X75461905Y-30533390D01*
X75461905Y-30533390D02*
X75414286Y-30485771D01*
X75414286Y-30485771D02*
X75366667Y-30390533D01*
X75366667Y-30390533D02*
X75366667Y-30295295D01*
X75366667Y-30295295D02*
X75414286Y-30200057D01*
X75414286Y-30200057D02*
X75461905Y-30152438D01*
X75461905Y-30152438D02*
X75557143Y-30104819D01*
X75557143Y-30104819D02*
X75795238Y-30104819D01*
X75795238Y-30104819D02*
X75938095Y-30152438D01*
X76271429Y-30104819D02*
X76509524Y-31104819D01*
X76509524Y-31104819D02*
X76700000Y-30390533D01*
X76700000Y-30390533D02*
X76890476Y-31104819D01*
X76890476Y-31104819D02*
X77128572Y-30104819D01*
X77414286Y-30104819D02*
X78033333Y-30104819D01*
X78033333Y-30104819D02*
X77700000Y-30485771D01*
X77700000Y-30485771D02*
X77842857Y-30485771D01*
X77842857Y-30485771D02*
X77938095Y-30533390D01*
X77938095Y-30533390D02*
X77985714Y-30581009D01*
X77985714Y-30581009D02*
X78033333Y-30676247D01*
X78033333Y-30676247D02*
X78033333Y-30914342D01*
X78033333Y-30914342D02*
X77985714Y-31009580D01*
X77985714Y-31009580D02*
X77938095Y-31057200D01*
X77938095Y-31057200D02*
X77842857Y-31104819D01*
X77842857Y-31104819D02*
X77557143Y-31104819D01*
X77557143Y-31104819D02*
X77461905Y-31057200D01*
X77461905Y-31057200D02*
X77414286Y-31009580D01*
X100271480Y-72729290D02*
X99831537Y-72547059D01*
X99831537Y-72547059D02*
X100214221Y-71623180D01*
X100779893Y-72372914D02*
X101087853Y-72500475D01*
X101019383Y-73039081D02*
X100579440Y-72856851D01*
X100579440Y-72856851D02*
X100962123Y-71932971D01*
X100962123Y-71932971D02*
X101402066Y-72115202D01*
X101415331Y-73203088D02*
X101798014Y-72279209D01*
X101798014Y-72279209D02*
X102017986Y-72370324D01*
X102017986Y-72370324D02*
X102131746Y-72468987D01*
X102131746Y-72468987D02*
X102183288Y-72593422D01*
X102183288Y-72593422D02*
X102190836Y-72699633D01*
X102190836Y-72699633D02*
X102161938Y-72893833D01*
X102161938Y-72893833D02*
X102107269Y-73025816D01*
X102107269Y-73025816D02*
X101990383Y-73183570D01*
X101990383Y-73183570D02*
X101909943Y-73253336D01*
X101909943Y-73253336D02*
X101785508Y-73304878D01*
X101785508Y-73304878D02*
X101635302Y-73294203D01*
X101635302Y-73294203D02*
X101415331Y-73203088D01*
X102990281Y-73133859D02*
X102735159Y-73749779D01*
X102916094Y-72690790D02*
X102422777Y-73259589D01*
X102422777Y-73259589D02*
X102994703Y-73496488D01*
X69486332Y-79237368D02*
X69046390Y-79419598D01*
X69046390Y-79419598D02*
X68663706Y-78495718D01*
X69593839Y-78625870D02*
X69901799Y-78498309D01*
X70234235Y-78927576D02*
X69794292Y-79109807D01*
X69794292Y-79109807D02*
X69411609Y-78185927D01*
X69411609Y-78185927D02*
X69851551Y-78003697D01*
X70630183Y-78763569D02*
X70247500Y-77839690D01*
X70247500Y-77839690D02*
X70467471Y-77748574D01*
X70467471Y-77748574D02*
X70617677Y-77737900D01*
X70617677Y-77737900D02*
X70742112Y-77789442D01*
X70742112Y-77789442D02*
X70822552Y-77859208D01*
X70822552Y-77859208D02*
X70939438Y-78016962D01*
X70939438Y-78016962D02*
X70994107Y-78148945D01*
X70994107Y-78148945D02*
X71023005Y-78343145D01*
X71023005Y-78343145D02*
X71015457Y-78449356D01*
X71015457Y-78449356D02*
X70963914Y-78573791D01*
X70963914Y-78573791D02*
X70850155Y-78672454D01*
X70850155Y-78672454D02*
X70630183Y-78763569D01*
X72038000Y-78180432D02*
X71510069Y-78399109D01*
X71774034Y-78289771D02*
X71391351Y-77365891D01*
X71391351Y-77365891D02*
X71358031Y-77534320D01*
X71358031Y-77534320D02*
X71306489Y-77658754D01*
X71306489Y-77658754D02*
X71236723Y-77739195D01*
X72574774Y-77236498D02*
X72829897Y-77852418D01*
X72209019Y-76975659D02*
X72262393Y-77726688D01*
X72262393Y-77726688D02*
X72834318Y-77489789D01*
X82494819Y-53579047D02*
X82494819Y-54055237D01*
X82494819Y-54055237D02*
X81494819Y-54055237D01*
X81971009Y-53245713D02*
X81971009Y-52912380D01*
X82494819Y-52769523D02*
X82494819Y-53245713D01*
X82494819Y-53245713D02*
X81494819Y-53245713D01*
X81494819Y-53245713D02*
X81494819Y-52769523D01*
X82494819Y-52340951D02*
X81494819Y-52340951D01*
X81494819Y-52340951D02*
X81494819Y-52102856D01*
X81494819Y-52102856D02*
X81542438Y-51959999D01*
X81542438Y-51959999D02*
X81637676Y-51864761D01*
X81637676Y-51864761D02*
X81732914Y-51817142D01*
X81732914Y-51817142D02*
X81923390Y-51769523D01*
X81923390Y-51769523D02*
X82066247Y-51769523D01*
X82066247Y-51769523D02*
X82256723Y-51817142D01*
X82256723Y-51817142D02*
X82351961Y-51864761D01*
X82351961Y-51864761D02*
X82447200Y-51959999D01*
X82447200Y-51959999D02*
X82494819Y-52102856D01*
X82494819Y-52102856D02*
X82494819Y-52340951D01*
X82494819Y-51293332D02*
X82494819Y-51102856D01*
X82494819Y-51102856D02*
X82447200Y-51007618D01*
X82447200Y-51007618D02*
X82399580Y-50959999D01*
X82399580Y-50959999D02*
X82256723Y-50864761D01*
X82256723Y-50864761D02*
X82066247Y-50817142D01*
X82066247Y-50817142D02*
X81685295Y-50817142D01*
X81685295Y-50817142D02*
X81590057Y-50864761D01*
X81590057Y-50864761D02*
X81542438Y-50912380D01*
X81542438Y-50912380D02*
X81494819Y-51007618D01*
X81494819Y-51007618D02*
X81494819Y-51198094D01*
X81494819Y-51198094D02*
X81542438Y-51293332D01*
X81542438Y-51293332D02*
X81590057Y-51340951D01*
X81590057Y-51340951D02*
X81685295Y-51388570D01*
X81685295Y-51388570D02*
X81923390Y-51388570D01*
X81923390Y-51388570D02*
X82018628Y-51340951D01*
X82018628Y-51340951D02*
X82066247Y-51293332D01*
X82066247Y-51293332D02*
X82113866Y-51198094D01*
X82113866Y-51198094D02*
X82113866Y-51007618D01*
X82113866Y-51007618D02*
X82066247Y-50912380D01*
X82066247Y-50912380D02*
X82018628Y-50864761D01*
X82018628Y-50864761D02*
X81923390Y-50817142D01*
X120633333Y-65259580D02*
X120585714Y-65307200D01*
X120585714Y-65307200D02*
X120442857Y-65354819D01*
X120442857Y-65354819D02*
X120347619Y-65354819D01*
X120347619Y-65354819D02*
X120204762Y-65307200D01*
X120204762Y-65307200D02*
X120109524Y-65211961D01*
X120109524Y-65211961D02*
X120061905Y-65116723D01*
X120061905Y-65116723D02*
X120014286Y-64926247D01*
X120014286Y-64926247D02*
X120014286Y-64783390D01*
X120014286Y-64783390D02*
X120061905Y-64592914D01*
X120061905Y-64592914D02*
X120109524Y-64497676D01*
X120109524Y-64497676D02*
X120204762Y-64402438D01*
X120204762Y-64402438D02*
X120347619Y-64354819D01*
X120347619Y-64354819D02*
X120442857Y-64354819D01*
X120442857Y-64354819D02*
X120585714Y-64402438D01*
X120585714Y-64402438D02*
X120633333Y-64450057D01*
X121490476Y-64354819D02*
X121300000Y-64354819D01*
X121300000Y-64354819D02*
X121204762Y-64402438D01*
X121204762Y-64402438D02*
X121157143Y-64450057D01*
X121157143Y-64450057D02*
X121061905Y-64592914D01*
X121061905Y-64592914D02*
X121014286Y-64783390D01*
X121014286Y-64783390D02*
X121014286Y-65164342D01*
X121014286Y-65164342D02*
X121061905Y-65259580D01*
X121061905Y-65259580D02*
X121109524Y-65307200D01*
X121109524Y-65307200D02*
X121204762Y-65354819D01*
X121204762Y-65354819D02*
X121395238Y-65354819D01*
X121395238Y-65354819D02*
X121490476Y-65307200D01*
X121490476Y-65307200D02*
X121538095Y-65259580D01*
X121538095Y-65259580D02*
X121585714Y-65164342D01*
X121585714Y-65164342D02*
X121585714Y-64926247D01*
X121585714Y-64926247D02*
X121538095Y-64831009D01*
X121538095Y-64831009D02*
X121490476Y-64783390D01*
X121490476Y-64783390D02*
X121395238Y-64735771D01*
X121395238Y-64735771D02*
X121204762Y-64735771D01*
X121204762Y-64735771D02*
X121109524Y-64783390D01*
X121109524Y-64783390D02*
X121061905Y-64831009D01*
X121061905Y-64831009D02*
X121014286Y-64926247D01*
X81072393Y-87127256D02*
X80890163Y-87567199D01*
X80890163Y-87567199D02*
X79966284Y-87184515D01*
X80716018Y-86618843D02*
X80843579Y-86310883D01*
X81382185Y-86379354D02*
X81199954Y-86819296D01*
X81199954Y-86819296D02*
X80276075Y-86436613D01*
X80276075Y-86436613D02*
X80458305Y-85996670D01*
X81546192Y-85983405D02*
X80622312Y-85600722D01*
X80622312Y-85600722D02*
X80713427Y-85380750D01*
X80713427Y-85380750D02*
X80812091Y-85266991D01*
X80812091Y-85266991D02*
X80936525Y-85215448D01*
X80936525Y-85215448D02*
X81042737Y-85207900D01*
X81042737Y-85207900D02*
X81236937Y-85236798D01*
X81236937Y-85236798D02*
X81368920Y-85291467D01*
X81368920Y-85291467D02*
X81526674Y-85408353D01*
X81526674Y-85408353D02*
X81596439Y-85488793D01*
X81596439Y-85488793D02*
X81647982Y-85613228D01*
X81647982Y-85613228D02*
X81637307Y-85763434D01*
X81637307Y-85763434D02*
X81546192Y-85983405D01*
X82129329Y-84575589D02*
X81910652Y-85103520D01*
X82019990Y-84839554D02*
X81096111Y-84456871D01*
X81096111Y-84456871D02*
X81191648Y-84599528D01*
X81191648Y-84599528D02*
X81243190Y-84723963D01*
X81243190Y-84723963D02*
X81250738Y-84830175D01*
X81533463Y-83401008D02*
X81460571Y-83576986D01*
X81460571Y-83576986D02*
X81468120Y-83683197D01*
X81468120Y-83683197D02*
X81493891Y-83745414D01*
X81493891Y-83745414D02*
X81589428Y-83888072D01*
X81589428Y-83888072D02*
X81747182Y-84004958D01*
X81747182Y-84004958D02*
X82099136Y-84150742D01*
X82099136Y-84150742D02*
X82205347Y-84143194D01*
X82205347Y-84143194D02*
X82267565Y-84117423D01*
X82267565Y-84117423D02*
X82348005Y-84047657D01*
X82348005Y-84047657D02*
X82420897Y-83871680D01*
X82420897Y-83871680D02*
X82413349Y-83765469D01*
X82413349Y-83765469D02*
X82387577Y-83703252D01*
X82387577Y-83703252D02*
X82317812Y-83622811D01*
X82317812Y-83622811D02*
X82097841Y-83531696D01*
X82097841Y-83531696D02*
X81991629Y-83539244D01*
X81991629Y-83539244D02*
X81929412Y-83565016D01*
X81929412Y-83565016D02*
X81848971Y-83634781D01*
X81848971Y-83634781D02*
X81776079Y-83810758D01*
X81776079Y-83810758D02*
X81783628Y-83916970D01*
X81783628Y-83916970D02*
X81809399Y-83979187D01*
X81809399Y-83979187D02*
X81879164Y-84059627D01*
X69661303Y-58490586D02*
X69324586Y-58153869D01*
X69324586Y-58153869D02*
X70031692Y-57446762D01*
X70267395Y-58355899D02*
X70503097Y-58591602D01*
X70233723Y-59063006D02*
X69897005Y-58726289D01*
X69897005Y-58726289D02*
X70604112Y-58019182D01*
X70604112Y-58019182D02*
X70940830Y-58355899D01*
X70536769Y-59366052D02*
X71243876Y-58658945D01*
X71243876Y-58658945D02*
X71412234Y-58827304D01*
X71412234Y-58827304D02*
X71479578Y-58961991D01*
X71479578Y-58961991D02*
X71479578Y-59096678D01*
X71479578Y-59096678D02*
X71445906Y-59197693D01*
X71445906Y-59197693D02*
X71344891Y-59366052D01*
X71344891Y-59366052D02*
X71243876Y-59467067D01*
X71243876Y-59467067D02*
X71075517Y-59568083D01*
X71075517Y-59568083D02*
X70974502Y-59601754D01*
X70974502Y-59601754D02*
X70839815Y-59601754D01*
X70839815Y-59601754D02*
X70705128Y-59534411D01*
X70705128Y-59534411D02*
X70536769Y-59366052D01*
X71614265Y-60443548D02*
X71210204Y-60039487D01*
X71412234Y-60241518D02*
X72119341Y-59534411D01*
X72119341Y-59534411D02*
X71950982Y-59568083D01*
X71950982Y-59568083D02*
X71816295Y-59568083D01*
X71816295Y-59568083D02*
X71715280Y-59534411D01*
X72287700Y-61116983D02*
X71883639Y-60712922D01*
X72085669Y-60914953D02*
X72792776Y-60207846D01*
X72792776Y-60207846D02*
X72624417Y-60241518D01*
X72624417Y-60241518D02*
X72489730Y-60241518D01*
X72489730Y-60241518D02*
X72388715Y-60207846D01*
X93358260Y-82354097D02*
X93176029Y-81914155D01*
X93176029Y-81914155D02*
X94099909Y-81531471D01*
X93969758Y-82461604D02*
X94097319Y-82769564D01*
X93668051Y-83102000D02*
X93485821Y-82662057D01*
X93485821Y-82662057D02*
X94409700Y-82279374D01*
X94409700Y-82279374D02*
X94591931Y-82719317D01*
X93832058Y-83497948D02*
X94755938Y-83115265D01*
X94755938Y-83115265D02*
X94847053Y-83335236D01*
X94847053Y-83335236D02*
X94857728Y-83485442D01*
X94857728Y-83485442D02*
X94806185Y-83609877D01*
X94806185Y-83609877D02*
X94736420Y-83690317D01*
X94736420Y-83690317D02*
X94578666Y-83807203D01*
X94578666Y-83807203D02*
X94446683Y-83861872D01*
X94446683Y-83861872D02*
X94252483Y-83890770D01*
X94252483Y-83890770D02*
X94146271Y-83883222D01*
X94146271Y-83883222D02*
X94021837Y-83831680D01*
X94021837Y-83831680D02*
X93923173Y-83717920D01*
X93923173Y-83717920D02*
X93832058Y-83497948D01*
X95032410Y-84031596D02*
X95094627Y-84057368D01*
X95094627Y-84057368D02*
X95175067Y-84127133D01*
X95175067Y-84127133D02*
X95266182Y-84347104D01*
X95266182Y-84347104D02*
X95258634Y-84453316D01*
X95258634Y-84453316D02*
X95232863Y-84515533D01*
X95232863Y-84515533D02*
X95163097Y-84595974D01*
X95163097Y-84595974D02*
X95075109Y-84632420D01*
X95075109Y-84632420D02*
X94924903Y-84643094D01*
X94924903Y-84643094D02*
X94178296Y-84333839D01*
X94178296Y-84333839D02*
X94415195Y-84905765D01*
X40159580Y-50066666D02*
X40207200Y-50114285D01*
X40207200Y-50114285D02*
X40254819Y-50257142D01*
X40254819Y-50257142D02*
X40254819Y-50352380D01*
X40254819Y-50352380D02*
X40207200Y-50495237D01*
X40207200Y-50495237D02*
X40111961Y-50590475D01*
X40111961Y-50590475D02*
X40016723Y-50638094D01*
X40016723Y-50638094D02*
X39826247Y-50685713D01*
X39826247Y-50685713D02*
X39683390Y-50685713D01*
X39683390Y-50685713D02*
X39492914Y-50638094D01*
X39492914Y-50638094D02*
X39397676Y-50590475D01*
X39397676Y-50590475D02*
X39302438Y-50495237D01*
X39302438Y-50495237D02*
X39254819Y-50352380D01*
X39254819Y-50352380D02*
X39254819Y-50257142D01*
X39254819Y-50257142D02*
X39302438Y-50114285D01*
X39302438Y-50114285D02*
X39350057Y-50066666D01*
X39350057Y-49685713D02*
X39302438Y-49638094D01*
X39302438Y-49638094D02*
X39254819Y-49542856D01*
X39254819Y-49542856D02*
X39254819Y-49304761D01*
X39254819Y-49304761D02*
X39302438Y-49209523D01*
X39302438Y-49209523D02*
X39350057Y-49161904D01*
X39350057Y-49161904D02*
X39445295Y-49114285D01*
X39445295Y-49114285D02*
X39540533Y-49114285D01*
X39540533Y-49114285D02*
X39683390Y-49161904D01*
X39683390Y-49161904D02*
X40254819Y-49733332D01*
X40254819Y-49733332D02*
X40254819Y-49114285D01*
X74762631Y-53486332D02*
X74580401Y-53046390D01*
X74580401Y-53046390D02*
X75504281Y-52663706D01*
X75374129Y-53593839D02*
X75501690Y-53901799D01*
X75072423Y-54234235D02*
X74890192Y-53794292D01*
X74890192Y-53794292D02*
X75814072Y-53411609D01*
X75814072Y-53411609D02*
X75996302Y-53851551D01*
X75236430Y-54630183D02*
X76160309Y-54247500D01*
X76160309Y-54247500D02*
X76251425Y-54467471D01*
X76251425Y-54467471D02*
X76262099Y-54617677D01*
X76262099Y-54617677D02*
X76210557Y-54742112D01*
X76210557Y-54742112D02*
X76140791Y-54822552D01*
X76140791Y-54822552D02*
X75983037Y-54939438D01*
X75983037Y-54939438D02*
X75851054Y-54994107D01*
X75851054Y-54994107D02*
X75656854Y-55023005D01*
X75656854Y-55023005D02*
X75550643Y-55015457D01*
X75550643Y-55015457D02*
X75426208Y-54963914D01*
X75426208Y-54963914D02*
X75327545Y-54850155D01*
X75327545Y-54850155D02*
X75236430Y-54630183D01*
X75819567Y-56038000D02*
X75600890Y-55510069D01*
X75710228Y-55774034D02*
X76634108Y-55391351D01*
X76634108Y-55391351D02*
X76465679Y-55358031D01*
X76465679Y-55358031D02*
X76341245Y-55306489D01*
X76341245Y-55306489D02*
X76260804Y-55236723D01*
X76980345Y-56227242D02*
X77016791Y-56315230D01*
X77016791Y-56315230D02*
X77009243Y-56421442D01*
X77009243Y-56421442D02*
X76983472Y-56483659D01*
X76983472Y-56483659D02*
X76913706Y-56564099D01*
X76913706Y-56564099D02*
X76755952Y-56680986D01*
X76755952Y-56680986D02*
X76535981Y-56772101D01*
X76535981Y-56772101D02*
X76341781Y-56800999D01*
X76341781Y-56800999D02*
X76235569Y-56793451D01*
X76235569Y-56793451D02*
X76173352Y-56767679D01*
X76173352Y-56767679D02*
X76092912Y-56697914D01*
X76092912Y-56697914D02*
X76056466Y-56609925D01*
X76056466Y-56609925D02*
X76064014Y-56503714D01*
X76064014Y-56503714D02*
X76089785Y-56441496D01*
X76089785Y-56441496D02*
X76159551Y-56361056D01*
X76159551Y-56361056D02*
X76317305Y-56244170D01*
X76317305Y-56244170D02*
X76537276Y-56153055D01*
X76537276Y-56153055D02*
X76731476Y-56124157D01*
X76731476Y-56124157D02*
X76837688Y-56131705D01*
X76837688Y-56131705D02*
X76899905Y-56157476D01*
X76899905Y-56157476D02*
X76980345Y-56227242D01*
X126061905Y-60954819D02*
X126061905Y-59954819D01*
X126061905Y-59954819D02*
X126442857Y-59954819D01*
X126442857Y-59954819D02*
X126538095Y-60002438D01*
X126538095Y-60002438D02*
X126585714Y-60050057D01*
X126585714Y-60050057D02*
X126633333Y-60145295D01*
X126633333Y-60145295D02*
X126633333Y-60288152D01*
X126633333Y-60288152D02*
X126585714Y-60383390D01*
X126585714Y-60383390D02*
X126538095Y-60431009D01*
X126538095Y-60431009D02*
X126442857Y-60478628D01*
X126442857Y-60478628D02*
X126061905Y-60478628D01*
X127585714Y-60954819D02*
X127014286Y-60954819D01*
X127300000Y-60954819D02*
X127300000Y-59954819D01*
X127300000Y-59954819D02*
X127204762Y-60097676D01*
X127204762Y-60097676D02*
X127109524Y-60192914D01*
X127109524Y-60192914D02*
X127014286Y-60240533D01*
X21207200Y-53233332D02*
X21254819Y-53090475D01*
X21254819Y-53090475D02*
X21254819Y-52852380D01*
X21254819Y-52852380D02*
X21207200Y-52757142D01*
X21207200Y-52757142D02*
X21159580Y-52709523D01*
X21159580Y-52709523D02*
X21064342Y-52661904D01*
X21064342Y-52661904D02*
X20969104Y-52661904D01*
X20969104Y-52661904D02*
X20873866Y-52709523D01*
X20873866Y-52709523D02*
X20826247Y-52757142D01*
X20826247Y-52757142D02*
X20778628Y-52852380D01*
X20778628Y-52852380D02*
X20731009Y-53042856D01*
X20731009Y-53042856D02*
X20683390Y-53138094D01*
X20683390Y-53138094D02*
X20635771Y-53185713D01*
X20635771Y-53185713D02*
X20540533Y-53233332D01*
X20540533Y-53233332D02*
X20445295Y-53233332D01*
X20445295Y-53233332D02*
X20350057Y-53185713D01*
X20350057Y-53185713D02*
X20302438Y-53138094D01*
X20302438Y-53138094D02*
X20254819Y-53042856D01*
X20254819Y-53042856D02*
X20254819Y-52804761D01*
X20254819Y-52804761D02*
X20302438Y-52661904D01*
X20254819Y-52328570D02*
X21254819Y-52090475D01*
X21254819Y-52090475D02*
X20540533Y-51899999D01*
X20540533Y-51899999D02*
X21254819Y-51709523D01*
X21254819Y-51709523D02*
X20254819Y-51471428D01*
X21254819Y-50566666D02*
X21254819Y-51138094D01*
X21254819Y-50852380D02*
X20254819Y-50852380D01*
X20254819Y-50852380D02*
X20397676Y-50947618D01*
X20397676Y-50947618D02*
X20492914Y-51042856D01*
X20492914Y-51042856D02*
X20540533Y-51138094D01*
D11*
X122976667Y-41504318D02*
X122976667Y-42411461D01*
X122976667Y-42411461D02*
X122916190Y-42592889D01*
X122916190Y-42592889D02*
X122795238Y-42713842D01*
X122795238Y-42713842D02*
X122613809Y-42774318D01*
X122613809Y-42774318D02*
X122492857Y-42774318D01*
X123460476Y-41504318D02*
X124246667Y-41504318D01*
X124246667Y-41504318D02*
X123823333Y-41988127D01*
X123823333Y-41988127D02*
X124004762Y-41988127D01*
X124004762Y-41988127D02*
X124125714Y-42048603D01*
X124125714Y-42048603D02*
X124186190Y-42109080D01*
X124186190Y-42109080D02*
X124246667Y-42230032D01*
X124246667Y-42230032D02*
X124246667Y-42532413D01*
X124246667Y-42532413D02*
X124186190Y-42653365D01*
X124186190Y-42653365D02*
X124125714Y-42713842D01*
X124125714Y-42713842D02*
X124004762Y-42774318D01*
X124004762Y-42774318D02*
X123641905Y-42774318D01*
X123641905Y-42774318D02*
X123520952Y-42713842D01*
X123520952Y-42713842D02*
X123460476Y-42653365D01*
X115681190Y-46474318D02*
X115681190Y-45204318D01*
X116177095Y-45187384D02*
X116225476Y-45139003D01*
X116225476Y-45139003D02*
X116322238Y-45090622D01*
X116322238Y-45090622D02*
X116564143Y-45090622D01*
X116564143Y-45090622D02*
X116660905Y-45139003D01*
X116660905Y-45139003D02*
X116709286Y-45187384D01*
X116709286Y-45187384D02*
X116757667Y-45284146D01*
X116757667Y-45284146D02*
X116757667Y-45380908D01*
X116757667Y-45380908D02*
X116709286Y-45526051D01*
X116709286Y-45526051D02*
X116128714Y-46106622D01*
X116128714Y-46106622D02*
X116757667Y-46106622D01*
X117979286Y-46353365D02*
X117918810Y-46413842D01*
X117918810Y-46413842D02*
X117737381Y-46474318D01*
X117737381Y-46474318D02*
X117616429Y-46474318D01*
X117616429Y-46474318D02*
X117435000Y-46413842D01*
X117435000Y-46413842D02*
X117314048Y-46292889D01*
X117314048Y-46292889D02*
X117253571Y-46171937D01*
X117253571Y-46171937D02*
X117193095Y-45930032D01*
X117193095Y-45930032D02*
X117193095Y-45748603D01*
X117193095Y-45748603D02*
X117253571Y-45506699D01*
X117253571Y-45506699D02*
X117314048Y-45385746D01*
X117314048Y-45385746D02*
X117435000Y-45264794D01*
X117435000Y-45264794D02*
X117616429Y-45204318D01*
X117616429Y-45204318D02*
X117737381Y-45204318D01*
X117737381Y-45204318D02*
X117918810Y-45264794D01*
X117918810Y-45264794D02*
X117979286Y-45325270D01*
D10*
X81433333Y-58259580D02*
X81385714Y-58307200D01*
X81385714Y-58307200D02*
X81242857Y-58354819D01*
X81242857Y-58354819D02*
X81147619Y-58354819D01*
X81147619Y-58354819D02*
X81004762Y-58307200D01*
X81004762Y-58307200D02*
X80909524Y-58211961D01*
X80909524Y-58211961D02*
X80861905Y-58116723D01*
X80861905Y-58116723D02*
X80814286Y-57926247D01*
X80814286Y-57926247D02*
X80814286Y-57783390D01*
X80814286Y-57783390D02*
X80861905Y-57592914D01*
X80861905Y-57592914D02*
X80909524Y-57497676D01*
X80909524Y-57497676D02*
X81004762Y-57402438D01*
X81004762Y-57402438D02*
X81147619Y-57354819D01*
X81147619Y-57354819D02*
X81242857Y-57354819D01*
X81242857Y-57354819D02*
X81385714Y-57402438D01*
X81385714Y-57402438D02*
X81433333Y-57450057D01*
X81766667Y-57354819D02*
X82433333Y-57354819D01*
X82433333Y-57354819D02*
X82004762Y-58354819D01*
D11*
X20404318Y-82623332D02*
X21311461Y-82623332D01*
X21311461Y-82623332D02*
X21492889Y-82683809D01*
X21492889Y-82683809D02*
X21613842Y-82804761D01*
X21613842Y-82804761D02*
X21674318Y-82986190D01*
X21674318Y-82986190D02*
X21674318Y-83107142D01*
X20404318Y-81474285D02*
X20404318Y-81716190D01*
X20404318Y-81716190D02*
X20464794Y-81837142D01*
X20464794Y-81837142D02*
X20525270Y-81897618D01*
X20525270Y-81897618D02*
X20706699Y-82018571D01*
X20706699Y-82018571D02*
X20948603Y-82079047D01*
X20948603Y-82079047D02*
X21432413Y-82079047D01*
X21432413Y-82079047D02*
X21553365Y-82018571D01*
X21553365Y-82018571D02*
X21613842Y-81958094D01*
X21613842Y-81958094D02*
X21674318Y-81837142D01*
X21674318Y-81837142D02*
X21674318Y-81595237D01*
X21674318Y-81595237D02*
X21613842Y-81474285D01*
X21613842Y-81474285D02*
X21553365Y-81413809D01*
X21553365Y-81413809D02*
X21432413Y-81353332D01*
X21432413Y-81353332D02*
X21130032Y-81353332D01*
X21130032Y-81353332D02*
X21009080Y-81413809D01*
X21009080Y-81413809D02*
X20948603Y-81474285D01*
X20948603Y-81474285D02*
X20888127Y-81595237D01*
X20888127Y-81595237D02*
X20888127Y-81837142D01*
X20888127Y-81837142D02*
X20948603Y-81958094D01*
X20948603Y-81958094D02*
X21009080Y-82018571D01*
X21009080Y-82018571D02*
X21130032Y-82079047D01*
X23574318Y-74747143D02*
X22304318Y-74747143D01*
X22304318Y-74747143D02*
X23211461Y-74323809D01*
X23211461Y-74323809D02*
X22304318Y-73900476D01*
X22304318Y-73900476D02*
X23574318Y-73900476D01*
X23574318Y-73114285D02*
X23513842Y-73235237D01*
X23513842Y-73235237D02*
X23453365Y-73295714D01*
X23453365Y-73295714D02*
X23332413Y-73356190D01*
X23332413Y-73356190D02*
X22969556Y-73356190D01*
X22969556Y-73356190D02*
X22848603Y-73295714D01*
X22848603Y-73295714D02*
X22788127Y-73235237D01*
X22788127Y-73235237D02*
X22727651Y-73114285D01*
X22727651Y-73114285D02*
X22727651Y-72932856D01*
X22727651Y-72932856D02*
X22788127Y-72811904D01*
X22788127Y-72811904D02*
X22848603Y-72751428D01*
X22848603Y-72751428D02*
X22969556Y-72690952D01*
X22969556Y-72690952D02*
X23332413Y-72690952D01*
X23332413Y-72690952D02*
X23453365Y-72751428D01*
X23453365Y-72751428D02*
X23513842Y-72811904D01*
X23513842Y-72811904D02*
X23574318Y-72932856D01*
X23574318Y-72932856D02*
X23574318Y-73114285D01*
X22727651Y-72328094D02*
X22727651Y-71844285D01*
X22304318Y-72146666D02*
X23392889Y-72146666D01*
X23392889Y-72146666D02*
X23513842Y-72086189D01*
X23513842Y-72086189D02*
X23574318Y-71965237D01*
X23574318Y-71965237D02*
X23574318Y-71844285D01*
X23574318Y-71239523D02*
X23513842Y-71360475D01*
X23513842Y-71360475D02*
X23453365Y-71420952D01*
X23453365Y-71420952D02*
X23332413Y-71481428D01*
X23332413Y-71481428D02*
X22969556Y-71481428D01*
X22969556Y-71481428D02*
X22848603Y-71420952D01*
X22848603Y-71420952D02*
X22788127Y-71360475D01*
X22788127Y-71360475D02*
X22727651Y-71239523D01*
X22727651Y-71239523D02*
X22727651Y-71058094D01*
X22727651Y-71058094D02*
X22788127Y-70937142D01*
X22788127Y-70937142D02*
X22848603Y-70876666D01*
X22848603Y-70876666D02*
X22969556Y-70816190D01*
X22969556Y-70816190D02*
X23332413Y-70816190D01*
X23332413Y-70816190D02*
X23453365Y-70876666D01*
X23453365Y-70876666D02*
X23513842Y-70937142D01*
X23513842Y-70937142D02*
X23574318Y-71058094D01*
X23574318Y-71058094D02*
X23574318Y-71239523D01*
X23574318Y-70271904D02*
X22727651Y-70271904D01*
X22969556Y-70271904D02*
X22848603Y-70211427D01*
X22848603Y-70211427D02*
X22788127Y-70150951D01*
X22788127Y-70150951D02*
X22727651Y-70029999D01*
X22727651Y-70029999D02*
X22727651Y-69909046D01*
X23695270Y-69788095D02*
X23695270Y-68820475D01*
X23574318Y-67792380D02*
X22969556Y-68215714D01*
X23574318Y-68518095D02*
X22304318Y-68518095D01*
X22304318Y-68518095D02*
X22304318Y-68034285D01*
X22304318Y-68034285D02*
X22364794Y-67913333D01*
X22364794Y-67913333D02*
X22425270Y-67852856D01*
X22425270Y-67852856D02*
X22546222Y-67792380D01*
X22546222Y-67792380D02*
X22727651Y-67792380D01*
X22727651Y-67792380D02*
X22848603Y-67852856D01*
X22848603Y-67852856D02*
X22909080Y-67913333D01*
X22909080Y-67913333D02*
X22969556Y-68034285D01*
X22969556Y-68034285D02*
X22969556Y-68518095D01*
D10*
X45284819Y-30242857D02*
X45284819Y-30719047D01*
X45284819Y-30719047D02*
X44284819Y-30719047D01*
X45237200Y-29957142D02*
X45284819Y-29814285D01*
X45284819Y-29814285D02*
X45284819Y-29576190D01*
X45284819Y-29576190D02*
X45237200Y-29480952D01*
X45237200Y-29480952D02*
X45189580Y-29433333D01*
X45189580Y-29433333D02*
X45094342Y-29385714D01*
X45094342Y-29385714D02*
X44999104Y-29385714D01*
X44999104Y-29385714D02*
X44903866Y-29433333D01*
X44903866Y-29433333D02*
X44856247Y-29480952D01*
X44856247Y-29480952D02*
X44808628Y-29576190D01*
X44808628Y-29576190D02*
X44761009Y-29766666D01*
X44761009Y-29766666D02*
X44713390Y-29861904D01*
X44713390Y-29861904D02*
X44665771Y-29909523D01*
X44665771Y-29909523D02*
X44570533Y-29957142D01*
X44570533Y-29957142D02*
X44475295Y-29957142D01*
X44475295Y-29957142D02*
X44380057Y-29909523D01*
X44380057Y-29909523D02*
X44332438Y-29861904D01*
X44332438Y-29861904D02*
X44284819Y-29766666D01*
X44284819Y-29766666D02*
X44284819Y-29528571D01*
X44284819Y-29528571D02*
X44332438Y-29385714D01*
X45284819Y-28433333D02*
X45284819Y-29004761D01*
X45284819Y-28719047D02*
X44284819Y-28719047D01*
X44284819Y-28719047D02*
X44427676Y-28814285D01*
X44427676Y-28814285D02*
X44522914Y-28909523D01*
X44522914Y-28909523D02*
X44570533Y-29004761D01*
X66864761Y-72414819D02*
X66388571Y-72414819D01*
X66388571Y-72414819D02*
X66388571Y-71414819D01*
X67198095Y-71891009D02*
X67531428Y-71891009D01*
X67674285Y-72414819D02*
X67198095Y-72414819D01*
X67198095Y-72414819D02*
X67198095Y-71414819D01*
X67198095Y-71414819D02*
X67674285Y-71414819D01*
X68102857Y-72414819D02*
X68102857Y-71414819D01*
X68102857Y-71414819D02*
X68340952Y-71414819D01*
X68340952Y-71414819D02*
X68483809Y-71462438D01*
X68483809Y-71462438D02*
X68579047Y-71557676D01*
X68579047Y-71557676D02*
X68626666Y-71652914D01*
X68626666Y-71652914D02*
X68674285Y-71843390D01*
X68674285Y-71843390D02*
X68674285Y-71986247D01*
X68674285Y-71986247D02*
X68626666Y-72176723D01*
X68626666Y-72176723D02*
X68579047Y-72271961D01*
X68579047Y-72271961D02*
X68483809Y-72367200D01*
X68483809Y-72367200D02*
X68340952Y-72414819D01*
X68340952Y-72414819D02*
X68102857Y-72414819D01*
X69626666Y-72414819D02*
X69055238Y-72414819D01*
X69340952Y-72414819D02*
X69340952Y-71414819D01*
X69340952Y-71414819D02*
X69245714Y-71557676D01*
X69245714Y-71557676D02*
X69150476Y-71652914D01*
X69150476Y-71652914D02*
X69055238Y-71700533D01*
X69960000Y-71414819D02*
X70579047Y-71414819D01*
X70579047Y-71414819D02*
X70245714Y-71795771D01*
X70245714Y-71795771D02*
X70388571Y-71795771D01*
X70388571Y-71795771D02*
X70483809Y-71843390D01*
X70483809Y-71843390D02*
X70531428Y-71891009D01*
X70531428Y-71891009D02*
X70579047Y-71986247D01*
X70579047Y-71986247D02*
X70579047Y-72224342D01*
X70579047Y-72224342D02*
X70531428Y-72319580D01*
X70531428Y-72319580D02*
X70483809Y-72367200D01*
X70483809Y-72367200D02*
X70388571Y-72414819D01*
X70388571Y-72414819D02*
X70102857Y-72414819D01*
X70102857Y-72414819D02*
X70007619Y-72367200D01*
X70007619Y-72367200D02*
X69960000Y-72319580D01*
D11*
X20504318Y-28223332D02*
X21411461Y-28223332D01*
X21411461Y-28223332D02*
X21592889Y-28283809D01*
X21592889Y-28283809D02*
X21713842Y-28404761D01*
X21713842Y-28404761D02*
X21774318Y-28586190D01*
X21774318Y-28586190D02*
X21774318Y-28707142D01*
X20504318Y-27013809D02*
X20504318Y-27618571D01*
X20504318Y-27618571D02*
X21109080Y-27679047D01*
X21109080Y-27679047D02*
X21048603Y-27618571D01*
X21048603Y-27618571D02*
X20988127Y-27497618D01*
X20988127Y-27497618D02*
X20988127Y-27195237D01*
X20988127Y-27195237D02*
X21048603Y-27074285D01*
X21048603Y-27074285D02*
X21109080Y-27013809D01*
X21109080Y-27013809D02*
X21230032Y-26953332D01*
X21230032Y-26953332D02*
X21532413Y-26953332D01*
X21532413Y-26953332D02*
X21653365Y-27013809D01*
X21653365Y-27013809D02*
X21713842Y-27074285D01*
X21713842Y-27074285D02*
X21774318Y-27195237D01*
X21774318Y-27195237D02*
X21774318Y-27497618D01*
X21774318Y-27497618D02*
X21713842Y-27618571D01*
X21713842Y-27618571D02*
X21653365Y-27679047D01*
X21974318Y-41826190D02*
X20704318Y-41826190D01*
X20704318Y-41826190D02*
X21611461Y-41402856D01*
X21611461Y-41402856D02*
X20704318Y-40979523D01*
X20704318Y-40979523D02*
X21974318Y-40979523D01*
X21974318Y-40193332D02*
X21913842Y-40314284D01*
X21913842Y-40314284D02*
X21853365Y-40374761D01*
X21853365Y-40374761D02*
X21732413Y-40435237D01*
X21732413Y-40435237D02*
X21369556Y-40435237D01*
X21369556Y-40435237D02*
X21248603Y-40374761D01*
X21248603Y-40374761D02*
X21188127Y-40314284D01*
X21188127Y-40314284D02*
X21127651Y-40193332D01*
X21127651Y-40193332D02*
X21127651Y-40011903D01*
X21127651Y-40011903D02*
X21188127Y-39890951D01*
X21188127Y-39890951D02*
X21248603Y-39830475D01*
X21248603Y-39830475D02*
X21369556Y-39769999D01*
X21369556Y-39769999D02*
X21732413Y-39769999D01*
X21732413Y-39769999D02*
X21853365Y-39830475D01*
X21853365Y-39830475D02*
X21913842Y-39890951D01*
X21913842Y-39890951D02*
X21974318Y-40011903D01*
X21974318Y-40011903D02*
X21974318Y-40193332D01*
X21127651Y-39407141D02*
X21127651Y-38923332D01*
X20704318Y-39225713D02*
X21792889Y-39225713D01*
X21792889Y-39225713D02*
X21913842Y-39165236D01*
X21913842Y-39165236D02*
X21974318Y-39044284D01*
X21974318Y-39044284D02*
X21974318Y-38923332D01*
X21974318Y-38318570D02*
X21913842Y-38439522D01*
X21913842Y-38439522D02*
X21853365Y-38499999D01*
X21853365Y-38499999D02*
X21732413Y-38560475D01*
X21732413Y-38560475D02*
X21369556Y-38560475D01*
X21369556Y-38560475D02*
X21248603Y-38499999D01*
X21248603Y-38499999D02*
X21188127Y-38439522D01*
X21188127Y-38439522D02*
X21127651Y-38318570D01*
X21127651Y-38318570D02*
X21127651Y-38137141D01*
X21127651Y-38137141D02*
X21188127Y-38016189D01*
X21188127Y-38016189D02*
X21248603Y-37955713D01*
X21248603Y-37955713D02*
X21369556Y-37895237D01*
X21369556Y-37895237D02*
X21732413Y-37895237D01*
X21732413Y-37895237D02*
X21853365Y-37955713D01*
X21853365Y-37955713D02*
X21913842Y-38016189D01*
X21913842Y-38016189D02*
X21974318Y-38137141D01*
X21974318Y-38137141D02*
X21974318Y-38318570D01*
X21974318Y-37350951D02*
X21127651Y-37350951D01*
X21369556Y-37350951D02*
X21248603Y-37290474D01*
X21248603Y-37290474D02*
X21188127Y-37229998D01*
X21188127Y-37229998D02*
X21127651Y-37109046D01*
X21127651Y-37109046D02*
X21127651Y-36988093D01*
X22095270Y-36867142D02*
X22095270Y-35899522D01*
X21974318Y-34992380D02*
X21974318Y-35597142D01*
X21974318Y-35597142D02*
X20704318Y-35597142D01*
D10*
X119428571Y-54434819D02*
X119999999Y-54434819D01*
X119714285Y-55434819D02*
X119714285Y-54434819D01*
X120333333Y-55434819D02*
X120333333Y-54768152D01*
X120333333Y-54958628D02*
X120380952Y-54863390D01*
X120380952Y-54863390D02*
X120428571Y-54815771D01*
X120428571Y-54815771D02*
X120523809Y-54768152D01*
X120523809Y-54768152D02*
X120619047Y-54768152D01*
X121476190Y-55434819D02*
X120904762Y-55434819D01*
X121190476Y-55434819D02*
X121190476Y-54434819D01*
X121190476Y-54434819D02*
X121095238Y-54577676D01*
X121095238Y-54577676D02*
X121000000Y-54672914D01*
X121000000Y-54672914D02*
X120904762Y-54720533D01*
X25860476Y-43754819D02*
X25860476Y-42754819D01*
X25860476Y-42754819D02*
X26241428Y-42754819D01*
X26241428Y-42754819D02*
X26336666Y-42802438D01*
X26336666Y-42802438D02*
X26384285Y-42850057D01*
X26384285Y-42850057D02*
X26431904Y-42945295D01*
X26431904Y-42945295D02*
X26431904Y-43088152D01*
X26431904Y-43088152D02*
X26384285Y-43183390D01*
X26384285Y-43183390D02*
X26336666Y-43231009D01*
X26336666Y-43231009D02*
X26241428Y-43278628D01*
X26241428Y-43278628D02*
X25860476Y-43278628D01*
X26765238Y-42754819D02*
X27003333Y-43754819D01*
X27003333Y-43754819D02*
X27193809Y-43040533D01*
X27193809Y-43040533D02*
X27384285Y-43754819D01*
X27384285Y-43754819D02*
X27622381Y-42754819D01*
X28574761Y-43754819D02*
X28241428Y-43278628D01*
X28003333Y-43754819D02*
X28003333Y-42754819D01*
X28003333Y-42754819D02*
X28384285Y-42754819D01*
X28384285Y-42754819D02*
X28479523Y-42802438D01*
X28479523Y-42802438D02*
X28527142Y-42850057D01*
X28527142Y-42850057D02*
X28574761Y-42945295D01*
X28574761Y-42945295D02*
X28574761Y-43088152D01*
X28574761Y-43088152D02*
X28527142Y-43183390D01*
X28527142Y-43183390D02*
X28479523Y-43231009D01*
X28479523Y-43231009D02*
X28384285Y-43278628D01*
X28384285Y-43278628D02*
X28003333Y-43278628D01*
X29527142Y-43754819D02*
X28955714Y-43754819D01*
X29241428Y-43754819D02*
X29241428Y-42754819D01*
X29241428Y-42754819D02*
X29146190Y-42897676D01*
X29146190Y-42897676D02*
X29050952Y-42992914D01*
X29050952Y-42992914D02*
X28955714Y-43040533D01*
X35569580Y-26071666D02*
X35617200Y-26119285D01*
X35617200Y-26119285D02*
X35664819Y-26262142D01*
X35664819Y-26262142D02*
X35664819Y-26357380D01*
X35664819Y-26357380D02*
X35617200Y-26500237D01*
X35617200Y-26500237D02*
X35521961Y-26595475D01*
X35521961Y-26595475D02*
X35426723Y-26643094D01*
X35426723Y-26643094D02*
X35236247Y-26690713D01*
X35236247Y-26690713D02*
X35093390Y-26690713D01*
X35093390Y-26690713D02*
X34902914Y-26643094D01*
X34902914Y-26643094D02*
X34807676Y-26595475D01*
X34807676Y-26595475D02*
X34712438Y-26500237D01*
X34712438Y-26500237D02*
X34664819Y-26357380D01*
X34664819Y-26357380D02*
X34664819Y-26262142D01*
X34664819Y-26262142D02*
X34712438Y-26119285D01*
X34712438Y-26119285D02*
X34760057Y-26071666D01*
X34998152Y-25214523D02*
X35664819Y-25214523D01*
X34617200Y-25452618D02*
X35331485Y-25690713D01*
X35331485Y-25690713D02*
X35331485Y-25071666D01*
X98354097Y-60641739D02*
X97914155Y-60823970D01*
X97914155Y-60823970D02*
X97531471Y-59900090D01*
X98461604Y-60030241D02*
X98769564Y-59902680D01*
X99102000Y-60331948D02*
X98662057Y-60514178D01*
X98662057Y-60514178D02*
X98279374Y-59590299D01*
X98279374Y-59590299D02*
X98719317Y-59408068D01*
X99497948Y-60167941D02*
X99115265Y-59244061D01*
X99115265Y-59244061D02*
X99335236Y-59152946D01*
X99335236Y-59152946D02*
X99485442Y-59142271D01*
X99485442Y-59142271D02*
X99609877Y-59193814D01*
X99609877Y-59193814D02*
X99690317Y-59263579D01*
X99690317Y-59263579D02*
X99807203Y-59421333D01*
X99807203Y-59421333D02*
X99861872Y-59553316D01*
X99861872Y-59553316D02*
X99890770Y-59747516D01*
X99890770Y-59747516D02*
X99883222Y-59853728D01*
X99883222Y-59853728D02*
X99831680Y-59978162D01*
X99831680Y-59978162D02*
X99717920Y-60076826D01*
X99717920Y-60076826D02*
X99497948Y-60167941D01*
X100435093Y-58697371D02*
X100259116Y-58770263D01*
X100259116Y-58770263D02*
X100189350Y-58850703D01*
X100189350Y-58850703D02*
X100163579Y-58912920D01*
X100163579Y-58912920D02*
X100130260Y-59081349D01*
X100130260Y-59081349D02*
X100159157Y-59275549D01*
X100159157Y-59275549D02*
X100304942Y-59627503D01*
X100304942Y-59627503D02*
X100385382Y-59697269D01*
X100385382Y-59697269D02*
X100447599Y-59723040D01*
X100447599Y-59723040D02*
X100553811Y-59730588D01*
X100553811Y-59730588D02*
X100729788Y-59657696D01*
X100729788Y-59657696D02*
X100799553Y-59577256D01*
X100799553Y-59577256D02*
X100825325Y-59515039D01*
X100825325Y-59515039D02*
X100832873Y-59408827D01*
X100832873Y-59408827D02*
X100741758Y-59188856D01*
X100741758Y-59188856D02*
X100661317Y-59119090D01*
X100661317Y-59119090D02*
X100599100Y-59093319D01*
X100599100Y-59093319D02*
X100492889Y-59085771D01*
X100492889Y-59085771D02*
X100316912Y-59158663D01*
X100316912Y-59158663D02*
X100247146Y-59239103D01*
X100247146Y-59239103D02*
X100221375Y-59301320D01*
X100221375Y-59301320D02*
X100213827Y-59407532D01*
X74783333Y-49759580D02*
X74735714Y-49807200D01*
X74735714Y-49807200D02*
X74592857Y-49854819D01*
X74592857Y-49854819D02*
X74497619Y-49854819D01*
X74497619Y-49854819D02*
X74354762Y-49807200D01*
X74354762Y-49807200D02*
X74259524Y-49711961D01*
X74259524Y-49711961D02*
X74211905Y-49616723D01*
X74211905Y-49616723D02*
X74164286Y-49426247D01*
X74164286Y-49426247D02*
X74164286Y-49283390D01*
X74164286Y-49283390D02*
X74211905Y-49092914D01*
X74211905Y-49092914D02*
X74259524Y-48997676D01*
X74259524Y-48997676D02*
X74354762Y-48902438D01*
X74354762Y-48902438D02*
X74497619Y-48854819D01*
X74497619Y-48854819D02*
X74592857Y-48854819D01*
X74592857Y-48854819D02*
X74735714Y-48902438D01*
X74735714Y-48902438D02*
X74783333Y-48950057D01*
X75735714Y-49854819D02*
X75164286Y-49854819D01*
X75450000Y-49854819D02*
X75450000Y-48854819D01*
X75450000Y-48854819D02*
X75354762Y-48997676D01*
X75354762Y-48997676D02*
X75259524Y-49092914D01*
X75259524Y-49092914D02*
X75164286Y-49140533D01*
X100420952Y-66494819D02*
X99944762Y-66494819D01*
X99944762Y-66494819D02*
X99944762Y-65494819D01*
X100754286Y-65971009D02*
X101087619Y-65971009D01*
X101230476Y-66494819D02*
X100754286Y-66494819D01*
X100754286Y-66494819D02*
X100754286Y-65494819D01*
X100754286Y-65494819D02*
X101230476Y-65494819D01*
X101659048Y-66494819D02*
X101659048Y-65494819D01*
X101659048Y-65494819D02*
X101897143Y-65494819D01*
X101897143Y-65494819D02*
X102040000Y-65542438D01*
X102040000Y-65542438D02*
X102135238Y-65637676D01*
X102135238Y-65637676D02*
X102182857Y-65732914D01*
X102182857Y-65732914D02*
X102230476Y-65923390D01*
X102230476Y-65923390D02*
X102230476Y-66066247D01*
X102230476Y-66066247D02*
X102182857Y-66256723D01*
X102182857Y-66256723D02*
X102135238Y-66351961D01*
X102135238Y-66351961D02*
X102040000Y-66447200D01*
X102040000Y-66447200D02*
X101897143Y-66494819D01*
X101897143Y-66494819D02*
X101659048Y-66494819D01*
X103135238Y-65494819D02*
X102659048Y-65494819D01*
X102659048Y-65494819D02*
X102611429Y-65971009D01*
X102611429Y-65971009D02*
X102659048Y-65923390D01*
X102659048Y-65923390D02*
X102754286Y-65875771D01*
X102754286Y-65875771D02*
X102992381Y-65875771D01*
X102992381Y-65875771D02*
X103087619Y-65923390D01*
X103087619Y-65923390D02*
X103135238Y-65971009D01*
X103135238Y-65971009D02*
X103182857Y-66066247D01*
X103182857Y-66066247D02*
X103182857Y-66304342D01*
X103182857Y-66304342D02*
X103135238Y-66399580D01*
X103135238Y-66399580D02*
X103087619Y-66447200D01*
X103087619Y-66447200D02*
X102992381Y-66494819D01*
X102992381Y-66494819D02*
X102754286Y-66494819D01*
X102754286Y-66494819D02*
X102659048Y-66447200D01*
X102659048Y-66447200D02*
X102611429Y-66399580D01*
X26049942Y-80004761D02*
X26097561Y-79909523D01*
X26097561Y-79909523D02*
X26192800Y-79814285D01*
X26192800Y-79814285D02*
X26335657Y-79671428D01*
X26335657Y-79671428D02*
X26383276Y-79576190D01*
X26383276Y-79576190D02*
X26383276Y-79480952D01*
X26145180Y-79528571D02*
X26192800Y-79433333D01*
X26192800Y-79433333D02*
X26288038Y-79338095D01*
X26288038Y-79338095D02*
X26478514Y-79290476D01*
X26478514Y-79290476D02*
X26811847Y-79290476D01*
X26811847Y-79290476D02*
X27002323Y-79338095D01*
X27002323Y-79338095D02*
X27097561Y-79433333D01*
X27097561Y-79433333D02*
X27145180Y-79528571D01*
X27145180Y-79528571D02*
X27145180Y-79719047D01*
X27145180Y-79719047D02*
X27097561Y-79814285D01*
X27097561Y-79814285D02*
X27002323Y-79909523D01*
X27002323Y-79909523D02*
X26811847Y-79957142D01*
X26811847Y-79957142D02*
X26478514Y-79957142D01*
X26478514Y-79957142D02*
X26288038Y-79909523D01*
X26288038Y-79909523D02*
X26192800Y-79814285D01*
X26192800Y-79814285D02*
X26145180Y-79719047D01*
X26145180Y-79719047D02*
X26145180Y-79528571D01*
X27049942Y-80338095D02*
X27097561Y-80385714D01*
X27097561Y-80385714D02*
X27145180Y-80480952D01*
X27145180Y-80480952D02*
X27145180Y-80719047D01*
X27145180Y-80719047D02*
X27097561Y-80814285D01*
X27097561Y-80814285D02*
X27049942Y-80861904D01*
X27049942Y-80861904D02*
X26954704Y-80909523D01*
X26954704Y-80909523D02*
X26859466Y-80909523D01*
X26859466Y-80909523D02*
X26716609Y-80861904D01*
X26716609Y-80861904D02*
X26145180Y-80290476D01*
X26145180Y-80290476D02*
X26145180Y-80909523D01*
D12*
%TO.C,R6*%
X61000000Y-64210000D02*
X61000000Y-63440000D01*
X61000000Y-56130000D02*
X61000000Y-56900000D01*
X62370000Y-56900000D02*
X59630000Y-56900000D01*
X59630000Y-63440000D02*
X62370000Y-63440000D01*
X59630000Y-56900000D02*
X59630000Y-63440000D01*
X62370000Y-63440000D02*
X62370000Y-56900000D01*
%TO.C,R20*%
X62630000Y-58670000D02*
X62960000Y-58670000D01*
X65370000Y-52130000D02*
X65370000Y-58670000D01*
X62630000Y-52130000D02*
X62630000Y-58670000D01*
X62960000Y-52130000D02*
X62630000Y-52130000D01*
X65040000Y-52130000D02*
X65370000Y-52130000D01*
X65370000Y-58670000D02*
X65040000Y-58670000D01*
%TO.C,R10*%
X45030000Y-86980000D02*
X45360000Y-86980000D01*
X47770000Y-80440000D02*
X47770000Y-86980000D01*
X45030000Y-80440000D02*
X45030000Y-86980000D01*
X45360000Y-80440000D02*
X45030000Y-80440000D01*
X47440000Y-80440000D02*
X47770000Y-80440000D01*
X47770000Y-86980000D02*
X47440000Y-86980000D01*
%TO.C,R8*%
X37030000Y-86960000D02*
X37360000Y-86960000D01*
X39770000Y-80420000D02*
X39770000Y-86960000D01*
X37030000Y-80420000D02*
X37030000Y-86960000D01*
X37360000Y-80420000D02*
X37030000Y-80420000D01*
X39440000Y-80420000D02*
X39770000Y-80420000D01*
X39770000Y-86960000D02*
X39440000Y-86960000D01*
%TO.C,R7*%
X53248814Y-39051186D02*
X52704342Y-39595658D01*
X47535391Y-44764609D02*
X48079863Y-44220137D01*
X47111127Y-43251400D02*
X49048600Y-45188873D01*
X53673078Y-40564395D02*
X51735605Y-38626922D01*
X49048600Y-45188873D02*
X53673078Y-40564395D01*
X51735605Y-38626922D02*
X47111127Y-43251400D01*
%TO.C,R5*%
X57237580Y-37924948D02*
X57470925Y-38158293D01*
X52846447Y-42782771D02*
X52613101Y-42549426D01*
X54317229Y-44253553D02*
X54550574Y-44486899D01*
X54550574Y-44486899D02*
X59175052Y-39862420D01*
X52613101Y-42549426D02*
X57237580Y-37924948D01*
X59175052Y-39862420D02*
X58941707Y-39629075D01*
%TO.C,BT1*%
X24770000Y-57730000D02*
X22170000Y-57730000D01*
X27370000Y-55070000D02*
X27370000Y-56400000D01*
X24770000Y-55070000D02*
X24770000Y-57730000D01*
X24770000Y-55070000D02*
X22170000Y-55070000D01*
X22170000Y-55070000D02*
X22170000Y-57730000D01*
X26040000Y-55070000D02*
X27370000Y-55070000D01*
%TO.C,U1*%
X54990000Y-63955000D02*
G75*
G03*
X52990000Y-63955000I-1000000J0D01*
G01*
X48740000Y-45995000D02*
X48740000Y-64015000D01*
X48740000Y-64015000D02*
X59240000Y-64015000D01*
X51740000Y-46055000D02*
X51740000Y-63955000D01*
X51740000Y-63955000D02*
X52990000Y-63955000D01*
X54990000Y-63955000D02*
X56240000Y-63955000D01*
X56240000Y-46055000D02*
X51740000Y-46055000D01*
X56240000Y-63955000D02*
X56240000Y-46055000D01*
X59240000Y-45995000D02*
X48740000Y-45995000D01*
X59240000Y-64015000D02*
X59240000Y-45995000D01*
%TO.C,R26*%
X67350574Y-80813102D02*
X67117229Y-81046447D01*
X70037580Y-87375053D02*
X65413102Y-82750574D01*
X71975053Y-85437580D02*
X67350574Y-80813102D01*
X71741707Y-85670925D02*
X71975053Y-85437580D01*
X70270925Y-87141707D02*
X70037580Y-87375053D01*
X65413102Y-82750574D02*
X65646447Y-82517229D01*
%TO.C,R9*%
X69825000Y-46900000D02*
G75*
G03*
X69825000Y-46900000I-1370000J0D01*
G01*
X69825000Y-46900000D02*
X69895000Y-46900000D01*
%TO.C,R25*%
X62850574Y-80813102D02*
X62617229Y-81046447D01*
X65537580Y-87375053D02*
X60913102Y-82750574D01*
X67475053Y-85437580D02*
X62850574Y-80813102D01*
X67241707Y-85670925D02*
X67475053Y-85437580D01*
X65770925Y-87141707D02*
X65537580Y-87375053D01*
X60913102Y-82750574D02*
X61146447Y-82517229D01*
%TO.C,R24*%
X61630000Y-77360000D02*
X61960000Y-77360000D01*
X64370000Y-70820000D02*
X64370000Y-77360000D01*
X61630000Y-70820000D02*
X61630000Y-77360000D01*
X61960000Y-70820000D02*
X61630000Y-70820000D01*
X64040000Y-70820000D02*
X64370000Y-70820000D01*
X64370000Y-77360000D02*
X64040000Y-77360000D01*
%TO.C,R23*%
X61370000Y-77360000D02*
X61040000Y-77360000D01*
X61040000Y-70820000D02*
X61370000Y-70820000D01*
X58960000Y-70820000D02*
X58630000Y-70820000D01*
X58630000Y-70820000D02*
X58630000Y-77360000D01*
X61370000Y-70820000D02*
X61370000Y-77360000D01*
X58630000Y-77360000D02*
X58960000Y-77360000D01*
%TO.C,R22*%
X76484340Y-74005362D02*
X76179460Y-73879077D01*
X78682210Y-67836905D02*
X78987090Y-67963190D01*
X76760540Y-67040923D02*
X76455660Y-66914638D01*
X76455660Y-66914638D02*
X73952910Y-72956810D01*
X78987090Y-67963190D02*
X76484340Y-74005362D01*
X73952910Y-72956810D02*
X74257791Y-73083095D01*
%TO.C,R21*%
X75644340Y-68145362D02*
X75339460Y-68019077D01*
X77842210Y-61976905D02*
X78147090Y-62103190D01*
X75920540Y-61180923D02*
X75615660Y-61054638D01*
X75615660Y-61054638D02*
X73112910Y-67096810D01*
X78147090Y-62103190D02*
X75644340Y-68145362D01*
X73112910Y-67096810D02*
X73417791Y-67223095D01*
%TO.C,R19*%
X68656497Y-56180975D02*
X68423152Y-55947630D01*
X73047630Y-51323152D02*
X73280976Y-51556497D01*
X71576848Y-49852370D02*
X71343503Y-49619024D01*
X71343503Y-49619024D02*
X66719025Y-54243503D01*
X73280976Y-51556497D02*
X68656497Y-56180975D01*
X66719025Y-54243503D02*
X66952370Y-54476848D01*
%TO.C,R18*%
X109270000Y-58770000D02*
X109270000Y-58440000D01*
X102730000Y-56030000D02*
X109270000Y-56030000D01*
X102730000Y-58770000D02*
X109270000Y-58770000D01*
X102730000Y-58440000D02*
X102730000Y-58770000D01*
X102730000Y-56360000D02*
X102730000Y-56030000D01*
X109270000Y-56030000D02*
X109270000Y-56360000D01*
%TO.C,R17*%
X112770000Y-63270000D02*
X112770000Y-62940000D01*
X106230000Y-60530000D02*
X112770000Y-60530000D01*
X106230000Y-63270000D02*
X112770000Y-63270000D01*
X106230000Y-62940000D02*
X106230000Y-63270000D01*
X106230000Y-60860000D02*
X106230000Y-60530000D01*
X112770000Y-60530000D02*
X112770000Y-60860000D01*
%TO.C,R16*%
X112770000Y-66270000D02*
X112770000Y-65940000D01*
X106230000Y-63530000D02*
X112770000Y-63530000D01*
X106230000Y-66270000D02*
X112770000Y-66270000D01*
X106230000Y-65940000D02*
X106230000Y-66270000D01*
X106230000Y-63860000D02*
X106230000Y-63530000D01*
X112770000Y-63530000D02*
X112770000Y-63860000D01*
%TO.C,R15*%
X91982910Y-62403190D02*
X92287791Y-62276905D01*
X94790540Y-68319077D02*
X94485660Y-68445362D01*
X96712210Y-67523095D02*
X97017090Y-67396810D01*
X97017090Y-67396810D02*
X94514340Y-61354638D01*
X94485660Y-68445362D02*
X91982910Y-62403190D01*
X94514340Y-61354638D02*
X94209460Y-61480923D01*
%TO.C,R14*%
X93552364Y-66954619D02*
X93247484Y-67080904D01*
X93523684Y-74045343D02*
X91020934Y-68003171D01*
X96055114Y-72996791D02*
X93552364Y-66954619D01*
X95750234Y-73123076D02*
X96055114Y-72996791D01*
X93828564Y-73919058D02*
X93523684Y-74045343D01*
X91020934Y-68003171D02*
X91325815Y-67876886D01*
%TO.C,R13*%
X106980975Y-79956497D02*
X106747630Y-79723152D01*
X100419024Y-82643503D02*
X105043503Y-78019025D01*
X102356497Y-84580976D02*
X106980975Y-79956497D01*
X102123152Y-84347630D02*
X102356497Y-84580976D01*
X100652370Y-82876848D02*
X100419024Y-82643503D01*
X105043503Y-78019025D02*
X105276848Y-78252370D01*
%TO.C,R12*%
X107786898Y-83450574D02*
X107553553Y-83217229D01*
X101224947Y-86137580D02*
X105849426Y-81513102D01*
X103162420Y-88075053D02*
X107786898Y-83450574D01*
X102929075Y-87841707D02*
X103162420Y-88075053D01*
X101458293Y-86370925D02*
X101224947Y-86137580D01*
X105849426Y-81513102D02*
X106082771Y-81746447D01*
%TO.C,R11*%
X122265000Y-77530000D02*
X122265000Y-77860000D01*
X115725000Y-77860000D02*
X115725000Y-77530000D01*
X115725000Y-79940000D02*
X115725000Y-80270000D01*
X115725000Y-80270000D02*
X122265000Y-80270000D01*
X115725000Y-77530000D02*
X122265000Y-77530000D01*
X122265000Y-80270000D02*
X122265000Y-79940000D01*
%TO.C,R2*%
X24470000Y-42600000D02*
G75*
G03*
X24470000Y-42600000I-1370000J0D01*
G01*
X23100000Y-41230000D02*
X23100000Y-38620000D01*
%TO.C,IC1*%
X97855000Y-39010000D02*
G75*
G03*
X97855000Y-41010000I0J-1000000D01*
G01*
X62115000Y-45260000D02*
X97915000Y-45260000D01*
X97915000Y-45260000D02*
X97915000Y-34760000D01*
X62175000Y-42260000D02*
X97855000Y-42260000D01*
X97855000Y-42260000D02*
X97855000Y-41010000D01*
X97855000Y-39010000D02*
X97855000Y-37760000D01*
X62175000Y-37760000D02*
X62175000Y-42260000D01*
X97855000Y-37760000D02*
X62175000Y-37760000D01*
X62115000Y-34760000D02*
X62115000Y-45260000D01*
X97915000Y-34760000D02*
X62115000Y-34760000D01*
%TO.C,R3*%
X35280000Y-32620000D02*
X35280000Y-41860000D01*
X37000000Y-46360000D02*
X37000000Y-41860000D01*
X38720000Y-41860000D02*
X38720000Y-32620000D01*
X37000000Y-28120000D02*
X37000000Y-32620000D01*
X38720000Y-32620000D02*
X35280000Y-32620000D01*
X35280000Y-41860000D02*
X38720000Y-41860000D01*
%TO.C,R4*%
X42400000Y-62060000D02*
X42400000Y-61370000D01*
X40680000Y-61370000D02*
X44120000Y-61370000D01*
X44120000Y-61370000D02*
X44120000Y-52130000D01*
X40680000Y-52130000D02*
X40680000Y-61370000D01*
X44120000Y-52130000D02*
X40680000Y-52130000D01*
X42400000Y-51440000D02*
X42400000Y-52130000D01*
%TO.C,U2*%
X127205000Y-69700500D02*
X106765000Y-69700500D01*
X106765000Y-69700500D02*
X106765000Y-74200500D01*
X127205000Y-70950500D02*
X127205000Y-69700500D01*
X127205000Y-74200500D02*
X127205000Y-72950500D01*
X106765000Y-74200500D02*
X127205000Y-74200500D01*
X127205000Y-70950500D02*
G75*
G03*
X127205000Y-72950500I0J-1000000D01*
G01*
%TO.C,SW2*%
X104750000Y-25400000D02*
X104750000Y-26900000D01*
X106000000Y-29400000D02*
X110500000Y-29400000D01*
X110500000Y-22900000D02*
X106000000Y-22900000D01*
X111750000Y-26900000D02*
X111750000Y-25400000D01*
%TO.C,LED1*%
X83764485Y-83980001D02*
G75*
G03*
X83921392Y-87212334I1235515J-1559999D01*
G01*
X83920001Y-84499040D02*
G75*
G03*
X83920164Y-86581129I1079999J-1040960D01*
G01*
X86079836Y-86581129D02*
G75*
G03*
X86079999Y-84499040I-1079836J1041129D01*
G01*
X86078608Y-87212334D02*
G75*
G03*
X86235515Y-83980001I-1078608J1672334D01*
G01*
X83920000Y-83980000D02*
X83764000Y-83980000D01*
X86236000Y-83980000D02*
X86080000Y-83980000D01*
D13*
%TO.C,J2*%
X97950000Y-34000000D02*
X97950000Y-29100000D01*
X97950000Y-29100000D02*
X82750000Y-29100000D01*
X84000000Y-34000000D02*
X97950000Y-34000000D01*
X82750000Y-29100000D02*
X82750000Y-31500000D01*
D12*
%TO.C,SW4*%
X68500000Y-26900000D02*
X68500000Y-25400000D01*
X67250000Y-22900000D02*
X62750000Y-22900000D01*
X62750000Y-29400000D02*
X67250000Y-29400000D01*
X61500000Y-25400000D02*
X61500000Y-26900000D01*
%TO.C,R1*%
X101370000Y-29945000D02*
G75*
G03*
X101370000Y-29945000I-1370000J0D01*
G01*
X100000000Y-28575000D02*
X100000000Y-28505000D01*
%TO.C,Tr2*%
X127838478Y-55598478D02*
G75*
G03*
X126000000Y-51160000I-1838478J1838478D01*
G01*
X126000000Y-51160000D02*
G75*
G03*
X124161522Y-55598478I0J-2600000D01*
G01*
X124200000Y-55610000D02*
X127800000Y-55610000D01*
%TO.C,LED15*%
X73433394Y-78819323D02*
G75*
G03*
X71258739Y-81215880I-229445J-1976728D01*
G01*
X73176344Y-79296306D02*
G75*
G03*
X71704200Y-80768681I27605J-1499745D01*
G01*
X73231319Y-82295801D02*
G75*
G03*
X74703695Y-80823656I-27370J1499750D01*
G01*
X72784120Y-82741260D02*
G75*
G03*
X75180676Y-80566606I419829J1945209D01*
G01*
X73543360Y-78929289D02*
X73433051Y-78818981D01*
X75181019Y-80566949D02*
X75070711Y-80456640D01*
%TO.C,LED12*%
X71567410Y-61983502D02*
G75*
G03*
X68521075Y-60891505I-1914064J-544482D01*
G01*
X71028366Y-61928553D02*
G75*
G03*
X69104703Y-61131922I-1375020J-599431D01*
G01*
X68278231Y-63127200D02*
G75*
G03*
X70201770Y-63924133I1375115J599216D01*
G01*
X67695544Y-62884513D02*
G75*
G03*
X70621787Y-64266438I1957802J356529D01*
G01*
X71507896Y-62127180D02*
X71567595Y-61983055D01*
X70621601Y-64266885D02*
X70681300Y-64122760D01*
%TO.C,C5*%
X36275000Y-63759888D02*
X36275000Y-63259888D01*
X36025000Y-63509888D02*
X36525000Y-63509888D01*
X35170000Y-60955113D02*
X36710000Y-60955113D01*
X38790000Y-60955113D02*
X40330000Y-60955113D01*
X35170000Y-60915113D02*
X36710000Y-60915113D01*
X38790000Y-60915113D02*
X40330000Y-60915113D01*
X35171000Y-60875113D02*
X36710000Y-60875113D01*
X38790000Y-60875113D02*
X40329000Y-60875113D01*
X35172000Y-60835113D02*
X36710000Y-60835113D01*
X38790000Y-60835113D02*
X40328000Y-60835113D01*
X35174000Y-60795113D02*
X36710000Y-60795113D01*
X38790000Y-60795113D02*
X40326000Y-60795113D01*
X35177000Y-60755113D02*
X36710000Y-60755113D01*
X38790000Y-60755113D02*
X40323000Y-60755113D01*
X35181000Y-60715113D02*
X36710000Y-60715113D01*
X38790000Y-60715113D02*
X40319000Y-60715113D01*
X35185000Y-60675113D02*
X36710000Y-60675113D01*
X38790000Y-60675113D02*
X40315000Y-60675113D01*
X35189000Y-60635113D02*
X36710000Y-60635113D01*
X38790000Y-60635113D02*
X40311000Y-60635113D01*
X35194000Y-60595113D02*
X36710000Y-60595113D01*
X38790000Y-60595113D02*
X40306000Y-60595113D01*
X35200000Y-60555113D02*
X36710000Y-60555113D01*
X38790000Y-60555113D02*
X40300000Y-60555113D01*
X35207000Y-60515113D02*
X36710000Y-60515113D01*
X38790000Y-60515113D02*
X40293000Y-60515113D01*
X35214000Y-60475113D02*
X36710000Y-60475113D01*
X38790000Y-60475113D02*
X40286000Y-60475113D01*
X35222000Y-60435113D02*
X36710000Y-60435113D01*
X38790000Y-60435113D02*
X40278000Y-60435113D01*
X35230000Y-60395113D02*
X36710000Y-60395113D01*
X38790000Y-60395113D02*
X40270000Y-60395113D01*
X35239000Y-60355113D02*
X36710000Y-60355113D01*
X38790000Y-60355113D02*
X40261000Y-60355113D01*
X35249000Y-60315113D02*
X36710000Y-60315113D01*
X38790000Y-60315113D02*
X40251000Y-60315113D01*
X35259000Y-60275113D02*
X36710000Y-60275113D01*
X38790000Y-60275113D02*
X40241000Y-60275113D01*
X35270000Y-60234113D02*
X36710000Y-60234113D01*
X38790000Y-60234113D02*
X40230000Y-60234113D01*
X35282000Y-60194113D02*
X36710000Y-60194113D01*
X38790000Y-60194113D02*
X40218000Y-60194113D01*
X35295000Y-60154113D02*
X36710000Y-60154113D01*
X38790000Y-60154113D02*
X40205000Y-60154113D01*
X35308000Y-60114113D02*
X36710000Y-60114113D01*
X38790000Y-60114113D02*
X40192000Y-60114113D01*
X35322000Y-60074113D02*
X36710000Y-60074113D01*
X38790000Y-60074113D02*
X40178000Y-60074113D01*
X35336000Y-60034113D02*
X36710000Y-60034113D01*
X38790000Y-60034113D02*
X40164000Y-60034113D01*
X35352000Y-59994113D02*
X36710000Y-59994113D01*
X38790000Y-59994113D02*
X40148000Y-59994113D01*
X35368000Y-59954113D02*
X36710000Y-59954113D01*
X38790000Y-59954113D02*
X40132000Y-59954113D01*
X35385000Y-59914113D02*
X36710000Y-59914113D01*
X38790000Y-59914113D02*
X40115000Y-59914113D01*
X35402000Y-59874113D02*
X36710000Y-59874113D01*
X38790000Y-59874113D02*
X40098000Y-59874113D01*
X35421000Y-59834113D02*
X36710000Y-59834113D01*
X38790000Y-59834113D02*
X40079000Y-59834113D01*
X35440000Y-59794113D02*
X36710000Y-59794113D01*
X38790000Y-59794113D02*
X40060000Y-59794113D01*
X35460000Y-59754113D02*
X36710000Y-59754113D01*
X38790000Y-59754113D02*
X40040000Y-59754113D01*
X35482000Y-59714113D02*
X36710000Y-59714113D01*
X38790000Y-59714113D02*
X40018000Y-59714113D01*
X35503000Y-59674113D02*
X36710000Y-59674113D01*
X38790000Y-59674113D02*
X39997000Y-59674113D01*
X35526000Y-59634113D02*
X36710000Y-59634113D01*
X38790000Y-59634113D02*
X39974000Y-59634113D01*
X35550000Y-59594113D02*
X36710000Y-59594113D01*
X38790000Y-59594113D02*
X39950000Y-59594113D01*
X35575000Y-59554113D02*
X36710000Y-59554113D01*
X38790000Y-59554113D02*
X39925000Y-59554113D01*
X35601000Y-59514113D02*
X36710000Y-59514113D01*
X38790000Y-59514113D02*
X39899000Y-59514113D01*
X35628000Y-59474113D02*
X36710000Y-59474113D01*
X38790000Y-59474113D02*
X39872000Y-59474113D01*
X35655000Y-59434113D02*
X36710000Y-59434113D01*
X38790000Y-59434113D02*
X39845000Y-59434113D01*
X35685000Y-59394113D02*
X36710000Y-59394113D01*
X38790000Y-59394113D02*
X39815000Y-59394113D01*
X35715000Y-59354113D02*
X36710000Y-59354113D01*
X38790000Y-59354113D02*
X39785000Y-59354113D01*
X35746000Y-59314113D02*
X36710000Y-59314113D01*
X38790000Y-59314113D02*
X39754000Y-59314113D01*
X35779000Y-59274113D02*
X36710000Y-59274113D01*
X38790000Y-59274113D02*
X39721000Y-59274113D01*
X35813000Y-59234113D02*
X36710000Y-59234113D01*
X38790000Y-59234113D02*
X39687000Y-59234113D01*
X35849000Y-59194113D02*
X36710000Y-59194113D01*
X38790000Y-59194113D02*
X39651000Y-59194113D01*
X35886000Y-59154113D02*
X36710000Y-59154113D01*
X38790000Y-59154113D02*
X39614000Y-59154113D01*
X35924000Y-59114113D02*
X36710000Y-59114113D01*
X38790000Y-59114113D02*
X39576000Y-59114113D01*
X35965000Y-59074113D02*
X36710000Y-59074113D01*
X38790000Y-59074113D02*
X39535000Y-59074113D01*
X36007000Y-59034113D02*
X36710000Y-59034113D01*
X38790000Y-59034113D02*
X39493000Y-59034113D01*
X36051000Y-58994113D02*
X36710000Y-58994113D01*
X38790000Y-58994113D02*
X39449000Y-58994113D01*
X36097000Y-58954113D02*
X36710000Y-58954113D01*
X38790000Y-58954113D02*
X39403000Y-58954113D01*
X36145000Y-58914113D02*
X39355000Y-58914113D01*
X36196000Y-58874113D02*
X39304000Y-58874113D01*
X36250000Y-58834113D02*
X39250000Y-58834113D01*
X36307000Y-58794113D02*
X39193000Y-58794113D01*
X36367000Y-58754113D02*
X39133000Y-58754113D01*
X36431000Y-58714113D02*
X39069000Y-58714113D01*
X36499000Y-58674113D02*
X39001000Y-58674113D01*
X36572000Y-58634113D02*
X38928000Y-58634113D01*
X36652000Y-58594113D02*
X38848000Y-58594113D01*
X36739000Y-58554113D02*
X38761000Y-58554113D01*
X36835000Y-58514113D02*
X38665000Y-58514113D01*
X36945000Y-58474113D02*
X38555000Y-58474113D01*
X37073000Y-58434113D02*
X38427000Y-58434113D01*
X37232000Y-58394113D02*
X38268000Y-58394113D01*
X37466000Y-58354113D02*
X38034000Y-58354113D01*
X40370000Y-60955113D02*
G75*
G03*
X40370000Y-60955113I-2620000J0D01*
G01*
D14*
%TO.C,Q1*%
X33800000Y-22920000D02*
X33800000Y-48120000D01*
X29800000Y-22920000D02*
X33800000Y-22920000D01*
X33800000Y-48120000D02*
X29800000Y-48120000D01*
X29800000Y-48120000D02*
X29800000Y-22920000D01*
D12*
%TO.C,LED3*%
X94819323Y-80566606D02*
G75*
G03*
X97215880Y-82741261I1976728J-229445D01*
G01*
X95296306Y-80823656D02*
G75*
G03*
X96768681Y-82295800I1499745J27605D01*
G01*
X98295801Y-80768681D02*
G75*
G03*
X96823656Y-79296305I-1499750J-27370D01*
G01*
X98741260Y-81215880D02*
G75*
G03*
X96566606Y-78819324I-1945209J419829D01*
G01*
X94929289Y-80456640D02*
X94818981Y-80566949D01*
X96566949Y-78818981D02*
X96456640Y-78929289D01*
%TO.C,J1*%
X126680000Y-36070000D02*
X126680000Y-37400000D01*
X125350000Y-36070000D02*
X126680000Y-36070000D01*
X124080000Y-36070000D02*
X111320000Y-36070000D01*
X124080000Y-36070000D02*
X124080000Y-38730000D01*
X111320000Y-36070000D02*
X111320000Y-38730000D01*
X124080000Y-38730000D02*
X111320000Y-38730000D01*
%TO.C,C3*%
X45780000Y-67270000D02*
X45780000Y-64530000D01*
X51020000Y-64530000D02*
X45780000Y-64530000D01*
X51020000Y-67270000D02*
X45780000Y-67270000D01*
X51020000Y-67270000D02*
X51020000Y-64530000D01*
%TO.C,LED7*%
X96566606Y-59180677D02*
G75*
G03*
X98741261Y-56784120I229445J1976728D01*
G01*
X96823656Y-58703694D02*
G75*
G03*
X98295800Y-57231319I-27605J1499745D01*
G01*
X96768681Y-55704199D02*
G75*
G03*
X95296305Y-57176344I27370J-1499750D01*
G01*
X97215880Y-55258740D02*
G75*
G03*
X94819324Y-57433394I-419829J-1945209D01*
G01*
X96456640Y-59070711D02*
X96566949Y-59181019D01*
X94818981Y-57433051D02*
X94929289Y-57543360D01*
%TO.C,U3*%
X83985000Y-59895000D02*
G75*
G03*
X85985000Y-59895000I1000000J0D01*
G01*
X87235000Y-80335000D02*
X87235000Y-59895000D01*
X87235000Y-59895000D02*
X85985000Y-59895000D01*
X83985000Y-59895000D02*
X82735000Y-59895000D01*
X82735000Y-80335000D02*
X87235000Y-80335000D01*
X82735000Y-59895000D02*
X82735000Y-80335000D01*
%TO.C,LED8*%
X92016498Y-55567410D02*
G75*
G03*
X93108495Y-52521075I-544482J1914064D01*
G01*
X92071447Y-55028366D02*
G75*
G03*
X92868078Y-53104703I-599431J1375020D01*
G01*
X90872800Y-52278231D02*
G75*
G03*
X90075867Y-54201770I599216J-1375115D01*
G01*
X91115487Y-51695544D02*
G75*
G03*
X89733562Y-54621787I356529J-1957802D01*
G01*
X91872820Y-55507896D02*
X92016945Y-55567595D01*
X89733115Y-54621601D02*
X89877240Y-54681300D01*
%TO.C,SW3*%
X79700000Y-26900000D02*
X79700000Y-25400000D01*
X78450000Y-22900000D02*
X73950000Y-22900000D01*
X73950000Y-29400000D02*
X78450000Y-29400000D01*
X72700000Y-25400000D02*
X72700000Y-26900000D01*
%TO.C,LED4*%
X98432590Y-76016498D02*
G75*
G03*
X101478925Y-77108495I1914064J544482D01*
G01*
X98971634Y-76071447D02*
G75*
G03*
X100895297Y-76868078I1375020J599431D01*
G01*
X101721769Y-74872800D02*
G75*
G03*
X99798230Y-74075867I-1375115J-599216D01*
G01*
X102304456Y-75115487D02*
G75*
G03*
X99378213Y-73733562I-1957802J-356529D01*
G01*
X98492104Y-75872820D02*
X98432405Y-76016945D01*
X99378399Y-73733115D02*
X99318700Y-73877240D01*
%TO.C,LED14*%
X70621787Y-73733562D02*
G75*
G03*
X67695544Y-75115487I-968441J-1738454D01*
G01*
X70201770Y-74075868D02*
G75*
G03*
X68278232Y-74872800I-548424J-1396148D01*
G01*
X69104703Y-76868079D02*
G75*
G03*
X71028367Y-76071447I548643J1396063D01*
G01*
X68521075Y-77108495D02*
G75*
G03*
X71567410Y-76016498I1132271J1636479D01*
G01*
X70681300Y-73877240D02*
X70621601Y-73733115D01*
X71567595Y-76016945D02*
X71507896Y-75872820D01*
%TO.C,LED9*%
X86235515Y-54019999D02*
G75*
G03*
X86078608Y-50787666I-1235515J1559999D01*
G01*
X86079999Y-53500960D02*
G75*
G03*
X86079836Y-51418871I-1079999J1040960D01*
G01*
X83920164Y-51418871D02*
G75*
G03*
X83920001Y-53500960I1079836J-1041129D01*
G01*
X83921392Y-50787666D02*
G75*
G03*
X83764485Y-54019999I1078608J-1672334D01*
G01*
X86080000Y-54020000D02*
X86236000Y-54020000D01*
X83764000Y-54020000D02*
X83920000Y-54020000D01*
%TO.C,C6*%
X127620000Y-66270000D02*
X127620000Y-63530000D01*
X127620000Y-66270000D02*
X122380000Y-66270000D01*
X127620000Y-63530000D02*
X122380000Y-63530000D01*
X122380000Y-66270000D02*
X122380000Y-63530000D01*
%TO.C,LED16*%
X77983502Y-82432590D02*
G75*
G03*
X76891505Y-85478925I544482J-1914064D01*
G01*
X77928553Y-82971634D02*
G75*
G03*
X77131922Y-84895297I599431J-1375020D01*
G01*
X79127200Y-85721769D02*
G75*
G03*
X79924133Y-83798230I-599216J1375115D01*
G01*
X78884513Y-86304456D02*
G75*
G03*
X80266438Y-83378213I-356529J1957802D01*
G01*
X78127180Y-82492104D02*
X77983055Y-82432405D01*
X80266885Y-83378399D02*
X80122760Y-83318700D01*
%TO.C,LED11*%
X75180677Y-57433394D02*
G75*
G03*
X72784120Y-55258739I-1976728J229445D01*
G01*
X74703694Y-57176344D02*
G75*
G03*
X73231319Y-55704200I-1499745J-27605D01*
G01*
X71704199Y-57231319D02*
G75*
G03*
X73176344Y-58703695I1499750J27370D01*
G01*
X71258740Y-56784120D02*
G75*
G03*
X73433394Y-59180676I1945209J-419829D01*
G01*
X75070711Y-57543360D02*
X75181019Y-57433051D01*
X73433051Y-59181019D02*
X73543360Y-59070711D01*
%TO.C,LED2*%
X89733562Y-83378213D02*
G75*
G03*
X91115487Y-86304456I1738454J-968441D01*
G01*
X90075868Y-83798230D02*
G75*
G03*
X90872800Y-85721768I1396148J-548424D01*
G01*
X92868079Y-84895297D02*
G75*
G03*
X92071447Y-82971633I-1396063J548643D01*
G01*
X93108495Y-85478925D02*
G75*
G03*
X92016498Y-82432590I-1636479J1132271D01*
G01*
X89877240Y-83318700D02*
X89733115Y-83378399D01*
X92016945Y-82432405D02*
X91872820Y-82492104D01*
%TO.C,C2*%
X40320000Y-54050000D02*
G75*
G03*
X40320000Y-54050000I-4120000J0D01*
G01*
X36733000Y-58131000D02*
X35667000Y-58131000D01*
X36968000Y-58091000D02*
X35432000Y-58091000D01*
X37148000Y-58051000D02*
X35252000Y-58051000D01*
X37298000Y-58011000D02*
X35102000Y-58011000D01*
X37429000Y-57971000D02*
X34971000Y-57971000D01*
X37546000Y-57931000D02*
X34854000Y-57931000D01*
X37653000Y-57891000D02*
X34747000Y-57891000D01*
X37752000Y-57851000D02*
X34648000Y-57851000D01*
X37845000Y-57811000D02*
X34555000Y-57811000D01*
X37931000Y-57771000D02*
X34469000Y-57771000D01*
X38013000Y-57731000D02*
X34387000Y-57731000D01*
X38090000Y-57691000D02*
X34310000Y-57691000D01*
X38164000Y-57651000D02*
X34236000Y-57651000D01*
X38234000Y-57611000D02*
X34166000Y-57611000D01*
X38302000Y-57571000D02*
X34098000Y-57571000D01*
X38366000Y-57531000D02*
X34034000Y-57531000D01*
X38428000Y-57491000D02*
X33972000Y-57491000D01*
X38487000Y-57451000D02*
X33913000Y-57451000D01*
X38545000Y-57411000D02*
X33855000Y-57411000D01*
X38600000Y-57371000D02*
X33800000Y-57371000D01*
X38654000Y-57331000D02*
X33746000Y-57331000D01*
X38705000Y-57291000D02*
X33695000Y-57291000D01*
X38756000Y-57251000D02*
X33644000Y-57251000D01*
X38804000Y-57211000D02*
X33596000Y-57211000D01*
X38851000Y-57171000D02*
X33549000Y-57171000D01*
X38897000Y-57131000D02*
X33503000Y-57131000D01*
X38941000Y-57091000D02*
X33459000Y-57091000D01*
X38984000Y-57051000D02*
X33416000Y-57051000D01*
X39026000Y-57011000D02*
X33374000Y-57011000D01*
X39067000Y-56971000D02*
X33333000Y-56971000D01*
X39107000Y-56931000D02*
X33293000Y-56931000D01*
X39145000Y-56891000D02*
X33255000Y-56891000D01*
X39183000Y-56851000D02*
X33217000Y-56851000D01*
X35160000Y-56811000D02*
X33181000Y-56811000D01*
X39219000Y-56811000D02*
X37240000Y-56811000D01*
X35160000Y-56771000D02*
X33145000Y-56771000D01*
X39255000Y-56771000D02*
X37240000Y-56771000D01*
X35160000Y-56731000D02*
X33110000Y-56731000D01*
X39290000Y-56731000D02*
X37240000Y-56731000D01*
X35160000Y-56691000D02*
X33076000Y-56691000D01*
X39324000Y-56691000D02*
X37240000Y-56691000D01*
X35160000Y-56651000D02*
X33044000Y-56651000D01*
X39356000Y-56651000D02*
X37240000Y-56651000D01*
X35160000Y-56611000D02*
X33011000Y-56611000D01*
X39389000Y-56611000D02*
X37240000Y-56611000D01*
X35160000Y-56571000D02*
X32980000Y-56571000D01*
X39420000Y-56571000D02*
X37240000Y-56571000D01*
X35160000Y-56531000D02*
X32950000Y-56531000D01*
X39450000Y-56531000D02*
X37240000Y-56531000D01*
X35160000Y-56491000D02*
X32920000Y-56491000D01*
X39480000Y-56491000D02*
X37240000Y-56491000D01*
X35160000Y-56451000D02*
X32891000Y-56451000D01*
X39509000Y-56451000D02*
X37240000Y-56451000D01*
X35160000Y-56411000D02*
X32862000Y-56411000D01*
X39538000Y-56411000D02*
X37240000Y-56411000D01*
X35160000Y-56371000D02*
X32835000Y-56371000D01*
X39565000Y-56371000D02*
X37240000Y-56371000D01*
X35160000Y-56331000D02*
X32808000Y-56331000D01*
X39592000Y-56331000D02*
X37240000Y-56331000D01*
X35160000Y-56291000D02*
X32782000Y-56291000D01*
X39618000Y-56291000D02*
X37240000Y-56291000D01*
X35160000Y-56251000D02*
X32756000Y-56251000D01*
X39644000Y-56251000D02*
X37240000Y-56251000D01*
X35160000Y-56211000D02*
X32731000Y-56211000D01*
X39669000Y-56211000D02*
X37240000Y-56211000D01*
X35160000Y-56171000D02*
X32707000Y-56171000D01*
X39693000Y-56171000D02*
X37240000Y-56171000D01*
X35160000Y-56131000D02*
X32683000Y-56131000D01*
X39717000Y-56131000D02*
X37240000Y-56131000D01*
X35160000Y-56091000D02*
X32660000Y-56091000D01*
X39740000Y-56091000D02*
X37240000Y-56091000D01*
X35160000Y-56051000D02*
X32638000Y-56051000D01*
X39762000Y-56051000D02*
X37240000Y-56051000D01*
X35160000Y-56011000D02*
X32616000Y-56011000D01*
X39784000Y-56011000D02*
X37240000Y-56011000D01*
X35160000Y-55971000D02*
X32594000Y-55971000D01*
X39806000Y-55971000D02*
X37240000Y-55971000D01*
X35160000Y-55931000D02*
X32573000Y-55931000D01*
X39827000Y-55931000D02*
X37240000Y-55931000D01*
X35160000Y-55891000D02*
X32553000Y-55891000D01*
X39847000Y-55891000D02*
X37240000Y-55891000D01*
X35160000Y-55851000D02*
X32534000Y-55851000D01*
X39866000Y-55851000D02*
X37240000Y-55851000D01*
X35160000Y-55811000D02*
X32514000Y-55811000D01*
X39886000Y-55811000D02*
X37240000Y-55811000D01*
X35160000Y-55771000D02*
X32496000Y-55771000D01*
X39904000Y-55771000D02*
X37240000Y-55771000D01*
X35160000Y-55731000D02*
X32478000Y-55731000D01*
X39922000Y-55731000D02*
X37240000Y-55731000D01*
X35160000Y-55691000D02*
X32460000Y-55691000D01*
X39940000Y-55691000D02*
X37240000Y-55691000D01*
X35160000Y-55651000D02*
X32443000Y-55651000D01*
X39957000Y-55651000D02*
X37240000Y-55651000D01*
X35160000Y-55611000D02*
X32426000Y-55611000D01*
X39974000Y-55611000D02*
X37240000Y-55611000D01*
X35160000Y-55571000D02*
X32410000Y-55571000D01*
X39990000Y-55571000D02*
X37240000Y-55571000D01*
X35160000Y-55531000D02*
X32395000Y-55531000D01*
X40005000Y-55531000D02*
X37240000Y-55531000D01*
X35160000Y-55491000D02*
X32379000Y-55491000D01*
X40021000Y-55491000D02*
X37240000Y-55491000D01*
X35160000Y-55451000D02*
X32365000Y-55451000D01*
X40035000Y-55451000D02*
X37240000Y-55451000D01*
X35160000Y-55411000D02*
X32350000Y-55411000D01*
X40050000Y-55411000D02*
X37240000Y-55411000D01*
X35160000Y-55371000D02*
X32337000Y-55371000D01*
X40063000Y-55371000D02*
X37240000Y-55371000D01*
X35160000Y-55331000D02*
X32323000Y-55331000D01*
X40077000Y-55331000D02*
X37240000Y-55331000D01*
X35160000Y-55291000D02*
X32311000Y-55291000D01*
X40089000Y-55291000D02*
X37240000Y-55291000D01*
X35160000Y-55251000D02*
X32298000Y-55251000D01*
X40102000Y-55251000D02*
X37240000Y-55251000D01*
X35160000Y-55211000D02*
X32286000Y-55211000D01*
X40114000Y-55211000D02*
X37240000Y-55211000D01*
X35160000Y-55171000D02*
X32275000Y-55171000D01*
X40125000Y-55171000D02*
X37240000Y-55171000D01*
X35160000Y-55131000D02*
X32264000Y-55131000D01*
X40136000Y-55131000D02*
X37240000Y-55131000D01*
X35160000Y-55091000D02*
X32253000Y-55091000D01*
X40147000Y-55091000D02*
X37240000Y-55091000D01*
X35160000Y-55051000D02*
X32243000Y-55051000D01*
X40157000Y-55051000D02*
X37240000Y-55051000D01*
X35160000Y-55011000D02*
X32233000Y-55011000D01*
X40167000Y-55011000D02*
X37240000Y-55011000D01*
X35160000Y-54971000D02*
X32224000Y-54971000D01*
X40176000Y-54971000D02*
X37240000Y-54971000D01*
X35160000Y-54931000D02*
X32215000Y-54931000D01*
X40185000Y-54931000D02*
X37240000Y-54931000D01*
X35160000Y-54891000D02*
X32206000Y-54891000D01*
X40194000Y-54891000D02*
X37240000Y-54891000D01*
X35160000Y-54851000D02*
X32198000Y-54851000D01*
X40202000Y-54851000D02*
X37240000Y-54851000D01*
X35160000Y-54811000D02*
X32190000Y-54811000D01*
X40210000Y-54811000D02*
X37240000Y-54811000D01*
X35160000Y-54771000D02*
X32183000Y-54771000D01*
X40217000Y-54771000D02*
X37240000Y-54771000D01*
X40224000Y-54730000D02*
X32176000Y-54730000D01*
X40230000Y-54690000D02*
X32170000Y-54690000D01*
X40237000Y-54650000D02*
X32163000Y-54650000D01*
X40242000Y-54610000D02*
X32158000Y-54610000D01*
X40248000Y-54570000D02*
X32152000Y-54570000D01*
X40252000Y-54530000D02*
X32148000Y-54530000D01*
X40257000Y-54490000D02*
X32143000Y-54490000D01*
X40261000Y-54450000D02*
X32139000Y-54450000D01*
X40265000Y-54410000D02*
X32135000Y-54410000D01*
X40268000Y-54370000D02*
X32132000Y-54370000D01*
X40271000Y-54330000D02*
X32129000Y-54330000D01*
X40274000Y-54290000D02*
X32126000Y-54290000D01*
X40276000Y-54250000D02*
X32124000Y-54250000D01*
X40277000Y-54210000D02*
X32123000Y-54210000D01*
X40279000Y-54170000D02*
X32121000Y-54170000D01*
X40280000Y-54130000D02*
X32120000Y-54130000D01*
X40280000Y-54090000D02*
X32120000Y-54090000D01*
X40280000Y-54050000D02*
X32120000Y-54050000D01*
X38915000Y-50040302D02*
X38115000Y-50040302D01*
X38515000Y-49640302D02*
X38515000Y-50440302D01*
%TO.C,LED10*%
X80266438Y-54621787D02*
G75*
G03*
X78884513Y-51695544I-1738454J968441D01*
G01*
X79924132Y-54201770D02*
G75*
G03*
X79127200Y-52278232I-1396148J548424D01*
G01*
X77131921Y-53104703D02*
G75*
G03*
X77928553Y-55028367I1396063J-548643D01*
G01*
X76891505Y-52521075D02*
G75*
G03*
X77983502Y-55567410I1636479J-1132271D01*
G01*
X80122760Y-54681300D02*
X80266885Y-54621601D01*
X77983055Y-55567595D02*
X78127180Y-55507896D01*
%TO.C,P1*%
X126770000Y-56570000D02*
X129370000Y-56570000D01*
X129370000Y-59230000D02*
X129370000Y-56570000D01*
X126770000Y-59230000D02*
X126770000Y-56570000D01*
X126770000Y-59230000D02*
X129370000Y-59230000D01*
X125500000Y-59230000D02*
X124170000Y-59230000D01*
X124170000Y-59230000D02*
X124170000Y-57900000D01*
%TO.C,SW1*%
X22490000Y-49640000D02*
X31310000Y-49640000D01*
X22490000Y-49950000D02*
X22490000Y-49640000D01*
X22490000Y-54160000D02*
X22490000Y-53850000D01*
X24400000Y-48940000D02*
X24900000Y-49440000D01*
X24900000Y-49440000D02*
X25400000Y-48940000D01*
X25400000Y-48940000D02*
X24400000Y-48940000D01*
X31310000Y-49640000D02*
X31310000Y-49950000D01*
X31310000Y-54160000D02*
X22490000Y-54160000D01*
X31310000Y-54160000D02*
X31310000Y-53850000D01*
D13*
%TO.C,J3*%
X118650000Y-43300000D02*
X118650000Y-48500000D01*
X118650000Y-48500000D02*
X127500000Y-48500000D01*
X128850000Y-43300000D02*
X118650000Y-43300000D01*
X128850000Y-45900000D02*
X128850000Y-43300000D01*
D12*
%TO.C,C7*%
X82880000Y-59270000D02*
X82880000Y-56530000D01*
X88120000Y-56530000D02*
X82880000Y-56530000D01*
X88120000Y-59270000D02*
X82880000Y-59270000D01*
X88120000Y-59270000D02*
X88120000Y-56530000D01*
D13*
%TO.C,J6*%
X20100000Y-80850000D02*
X25400000Y-80850000D01*
X25400000Y-80850000D02*
X25400000Y-75650000D01*
X20100000Y-76900000D02*
X20100000Y-80850000D01*
X25400000Y-75650000D02*
X23000000Y-75650000D01*
D12*
%TO.C,LS1*%
X58230000Y-29600000D02*
G75*
G03*
X58230000Y-29600000I-6230000J0D01*
G01*
X50500000Y-36000000D02*
G75*
G03*
X53499999Y-36000000I1500000J6400000D01*
G01*
%TO.C,LED13*%
X70019999Y-67764485D02*
G75*
G03*
X66787666Y-67921392I-1559999J-1235515D01*
G01*
X69500960Y-67920001D02*
G75*
G03*
X67418871Y-67920164I-1040960J-1079999D01*
G01*
X67418871Y-70079836D02*
G75*
G03*
X69500960Y-70079999I1041129J1079836D01*
G01*
X66787666Y-70078608D02*
G75*
G03*
X70019999Y-70235515I1672334J1078608D01*
G01*
X70020000Y-67920000D02*
X70020000Y-67764000D01*
X70020000Y-70236000D02*
X70020000Y-70080000D01*
D13*
%TO.C,J5*%
X25400000Y-29150000D02*
X23000000Y-29150000D01*
X20100000Y-30400000D02*
X20100000Y-34350000D01*
X25400000Y-34350000D02*
X25400000Y-29150000D01*
X20100000Y-34350000D02*
X25400000Y-34350000D01*
D12*
%TO.C,Tr1*%
X118700000Y-60390000D02*
X122300000Y-60390000D01*
X120500000Y-55940000D02*
G75*
G03*
X118661522Y-60378478I0J-2600000D01*
G01*
X122338478Y-60378478D02*
G75*
G03*
X120500000Y-55940000I-1838478J1838478D01*
G01*
%TO.C,PWR1*%
X23530001Y-47635515D02*
G75*
G03*
X26762334Y-47478608I1559999J1235515D01*
G01*
X24049040Y-47479999D02*
G75*
G03*
X26131129Y-47479836I1040960J1079999D01*
G01*
X26131129Y-45320164D02*
G75*
G03*
X24049040Y-45320001I-1041129J-1079836D01*
G01*
X26762334Y-45321392D02*
G75*
G03*
X23530001Y-45164485I-1672334J-1078608D01*
G01*
X23530000Y-47480000D02*
X23530000Y-47636000D01*
X23530000Y-45164000D02*
X23530000Y-45320000D01*
%TO.C,C4*%
X40370000Y-23000000D02*
G75*
G03*
X40370000Y-23000000I-2620000J0D01*
G01*
X37466000Y-20399000D02*
X38034000Y-20399000D01*
X37232000Y-20439000D02*
X38268000Y-20439000D01*
X37073000Y-20479000D02*
X38427000Y-20479000D01*
X36945000Y-20519000D02*
X38555000Y-20519000D01*
X36835000Y-20559000D02*
X38665000Y-20559000D01*
X36739000Y-20599000D02*
X38761000Y-20599000D01*
X36652000Y-20639000D02*
X38848000Y-20639000D01*
X36572000Y-20679000D02*
X38928000Y-20679000D01*
X36499000Y-20719000D02*
X39001000Y-20719000D01*
X36431000Y-20759000D02*
X39069000Y-20759000D01*
X36367000Y-20799000D02*
X39133000Y-20799000D01*
X36307000Y-20839000D02*
X39193000Y-20839000D01*
X36250000Y-20879000D02*
X39250000Y-20879000D01*
X36196000Y-20919000D02*
X39304000Y-20919000D01*
X36145000Y-20959000D02*
X39355000Y-20959000D01*
X38790000Y-20999000D02*
X39403000Y-20999000D01*
X36097000Y-20999000D02*
X36710000Y-20999000D01*
X38790000Y-21039000D02*
X39449000Y-21039000D01*
X36051000Y-21039000D02*
X36710000Y-21039000D01*
X38790000Y-21079000D02*
X39493000Y-21079000D01*
X36007000Y-21079000D02*
X36710000Y-21079000D01*
X38790000Y-21119000D02*
X39535000Y-21119000D01*
X35965000Y-21119000D02*
X36710000Y-21119000D01*
X38790000Y-21159000D02*
X39576000Y-21159000D01*
X35924000Y-21159000D02*
X36710000Y-21159000D01*
X38790000Y-21199000D02*
X39614000Y-21199000D01*
X35886000Y-21199000D02*
X36710000Y-21199000D01*
X38790000Y-21239000D02*
X39651000Y-21239000D01*
X35849000Y-21239000D02*
X36710000Y-21239000D01*
X38790000Y-21279000D02*
X39687000Y-21279000D01*
X35813000Y-21279000D02*
X36710000Y-21279000D01*
X38790000Y-21319000D02*
X39721000Y-21319000D01*
X35779000Y-21319000D02*
X36710000Y-21319000D01*
X38790000Y-21359000D02*
X39754000Y-21359000D01*
X35746000Y-21359000D02*
X36710000Y-21359000D01*
X38790000Y-21399000D02*
X39785000Y-21399000D01*
X35715000Y-21399000D02*
X36710000Y-21399000D01*
X38790000Y-21439000D02*
X39815000Y-21439000D01*
X35685000Y-21439000D02*
X36710000Y-21439000D01*
X38790000Y-21479000D02*
X39845000Y-21479000D01*
X35655000Y-21479000D02*
X36710000Y-21479000D01*
X38790000Y-21519000D02*
X39872000Y-21519000D01*
X35628000Y-21519000D02*
X36710000Y-21519000D01*
X38790000Y-21559000D02*
X39899000Y-21559000D01*
X35601000Y-21559000D02*
X36710000Y-21559000D01*
X38790000Y-21599000D02*
X39925000Y-21599000D01*
X35575000Y-21599000D02*
X36710000Y-21599000D01*
X38790000Y-21639000D02*
X39950000Y-21639000D01*
X35550000Y-21639000D02*
X36710000Y-21639000D01*
X38790000Y-21679000D02*
X39974000Y-21679000D01*
X35526000Y-21679000D02*
X36710000Y-21679000D01*
X38790000Y-21719000D02*
X39997000Y-21719000D01*
X35503000Y-21719000D02*
X36710000Y-21719000D01*
X38790000Y-21759000D02*
X40018000Y-21759000D01*
X35482000Y-21759000D02*
X36710000Y-21759000D01*
X38790000Y-21799000D02*
X40040000Y-21799000D01*
X35460000Y-21799000D02*
X36710000Y-21799000D01*
X38790000Y-21839000D02*
X40060000Y-21839000D01*
X35440000Y-21839000D02*
X36710000Y-21839000D01*
X38790000Y-21879000D02*
X40079000Y-21879000D01*
X35421000Y-21879000D02*
X36710000Y-21879000D01*
X38790000Y-21919000D02*
X40098000Y-21919000D01*
X35402000Y-21919000D02*
X36710000Y-21919000D01*
X38790000Y-21959000D02*
X40115000Y-21959000D01*
X35385000Y-21959000D02*
X36710000Y-21959000D01*
X38790000Y-21999000D02*
X40132000Y-21999000D01*
X35368000Y-21999000D02*
X36710000Y-21999000D01*
X38790000Y-22039000D02*
X40148000Y-22039000D01*
X35352000Y-22039000D02*
X36710000Y-22039000D01*
X38790000Y-22079000D02*
X40164000Y-22079000D01*
X35336000Y-22079000D02*
X36710000Y-22079000D01*
X38790000Y-22119000D02*
X40178000Y-22119000D01*
X35322000Y-22119000D02*
X36710000Y-22119000D01*
X38790000Y-22159000D02*
X40192000Y-22159000D01*
X35308000Y-22159000D02*
X36710000Y-22159000D01*
X38790000Y-22199000D02*
X40205000Y-22199000D01*
X35295000Y-22199000D02*
X36710000Y-22199000D01*
X38790000Y-22239000D02*
X40218000Y-22239000D01*
X35282000Y-22239000D02*
X36710000Y-22239000D01*
X38790000Y-22279000D02*
X40230000Y-22279000D01*
X35270000Y-22279000D02*
X36710000Y-22279000D01*
X38790000Y-22320000D02*
X40241000Y-22320000D01*
X35259000Y-22320000D02*
X36710000Y-22320000D01*
X38790000Y-22360000D02*
X40251000Y-22360000D01*
X35249000Y-22360000D02*
X36710000Y-22360000D01*
X38790000Y-22400000D02*
X40261000Y-22400000D01*
X35239000Y-22400000D02*
X36710000Y-22400000D01*
X38790000Y-22440000D02*
X40270000Y-22440000D01*
X35230000Y-22440000D02*
X36710000Y-22440000D01*
X38790000Y-22480000D02*
X40278000Y-22480000D01*
X35222000Y-22480000D02*
X36710000Y-22480000D01*
X38790000Y-22520000D02*
X40286000Y-22520000D01*
X35214000Y-22520000D02*
X36710000Y-22520000D01*
X38790000Y-22560000D02*
X40293000Y-22560000D01*
X35207000Y-22560000D02*
X36710000Y-22560000D01*
X38790000Y-22600000D02*
X40300000Y-22600000D01*
X35200000Y-22600000D02*
X36710000Y-22600000D01*
X38790000Y-22640000D02*
X40306000Y-22640000D01*
X35194000Y-22640000D02*
X36710000Y-22640000D01*
X38790000Y-22680000D02*
X40311000Y-22680000D01*
X35189000Y-22680000D02*
X36710000Y-22680000D01*
X38790000Y-22720000D02*
X40315000Y-22720000D01*
X35185000Y-22720000D02*
X36710000Y-22720000D01*
X38790000Y-22760000D02*
X40319000Y-22760000D01*
X35181000Y-22760000D02*
X36710000Y-22760000D01*
X38790000Y-22800000D02*
X40323000Y-22800000D01*
X35177000Y-22800000D02*
X36710000Y-22800000D01*
X38790000Y-22840000D02*
X40326000Y-22840000D01*
X35174000Y-22840000D02*
X36710000Y-22840000D01*
X38790000Y-22880000D02*
X40328000Y-22880000D01*
X35172000Y-22880000D02*
X36710000Y-22880000D01*
X38790000Y-22920000D02*
X40329000Y-22920000D01*
X35171000Y-22920000D02*
X36710000Y-22920000D01*
X38790000Y-22960000D02*
X40330000Y-22960000D01*
X35170000Y-22960000D02*
X36710000Y-22960000D01*
X38790000Y-23000000D02*
X40330000Y-23000000D01*
X35170000Y-23000000D02*
X36710000Y-23000000D01*
X36025000Y-25554775D02*
X36525000Y-25554775D01*
X36275000Y-25804775D02*
X36275000Y-25304775D01*
%TO.C,LED6*%
X98432405Y-61983055D02*
X98492104Y-62127180D01*
X99318700Y-64122760D02*
X99378399Y-64266885D01*
X101478925Y-60891505D02*
G75*
G03*
X98432590Y-61983502I-1132271J-1636479D01*
G01*
X100895297Y-61131921D02*
G75*
G03*
X98971633Y-61928553I-548643J-1396063D01*
G01*
X99798230Y-63924132D02*
G75*
G03*
X101721768Y-63127200I548424J1396148D01*
G01*
X99378213Y-64266438D02*
G75*
G03*
X102304456Y-62884513I968441J1738454D01*
G01*
%TO.C,C1*%
X72330000Y-48270000D02*
X72330000Y-45530000D01*
X77570000Y-45530000D02*
X72330000Y-45530000D01*
X77570000Y-48270000D02*
X72330000Y-48270000D01*
X77570000Y-48270000D02*
X77570000Y-45530000D01*
%TO.C,LED5*%
X99980001Y-70235515D02*
G75*
G03*
X103212334Y-70078608I1559999J1235515D01*
G01*
X100499040Y-70079999D02*
G75*
G03*
X102581129Y-70079836I1040960J1079999D01*
G01*
X102581129Y-67920164D02*
G75*
G03*
X100499040Y-67920001I-1041129J-1079836D01*
G01*
X103212334Y-67921392D02*
G75*
G03*
X99980001Y-67764485I-1672334J-1078608D01*
G01*
X99980000Y-70080000D02*
X99980000Y-70236000D01*
X99980000Y-67764000D02*
X99980000Y-67920000D01*
%TD*%
M02*
