M48
; DRILL file {KiCad 7.0.7} date Wed 13 Sep 2023 03:04:27 AM JST
; FORMAT={-:-/ absolute / inch / decimal}
; #@! TF.CreationDate,2023-09-13T03:04:27+09:00
; #@! TF.GenerationSoftware,Kicad,Pcbnew,7.0.7
; #@! TF.FileFunction,Plated,1,2,PTH
FMAT,2
INCH
; #@! TA.AperFunction,Plated,PTH,ComponentDrill
T1C0.0315
; #@! TA.AperFunction,Plated,PTH,ComponentDrill
T2C0.0354
; #@! TA.AperFunction,Plated,PTH,ViaDrill
T3C0.0394
; #@! TA.AperFunction,Plated,PTH,ComponentDrill
T4C0.0394
; #@! TA.AperFunction,Plated,PTH,ComponentDrill
T5C0.0429
; #@! TA.AperFunction,Plated,PTH,ComponentDrill
T6C0.0433
; #@! TA.AperFunction,Plated,PTH,ComponentDrill
T7C0.0457
; #@! TA.AperFunction,Plated,PTH,ComponentDrill
T8C0.0472
%
G90
G05
T1
X0.9298Y-1.4582
X0.9298Y-1.6582
X1.4456Y-2.0401
X1.4456Y-2.1779
X1.4771Y-1.0472
X1.4771Y-1.8472
X1.5066Y-0.8472
X1.5066Y-0.9259
X1.5066Y-2.3415
X1.5066Y-2.4202
X1.624Y-1.1516
X1.7017Y-0.8618
X1.7323Y-1.8681
X1.7323Y-2.3681
X1.8767Y-2.5755
X1.9094Y-2.7472
X1.9094Y-3.0472
X1.9751Y-2.5755
X1.996Y-1.8466
X1.996Y-1.9466
X1.996Y-2.0466
X1.996Y-2.1466
X1.996Y-2.2466
X1.996Y-2.3466
X1.996Y-2.4466
X2.0276Y-2.7472
X2.0276Y-3.0472
X2.1457Y-2.7472
X2.1457Y-3.0472
X2.1728Y-3.2205
X2.1728Y-3.3386
X2.2638Y-2.7472
X2.2638Y-3.0472
X2.296Y-1.8466
X2.296Y-1.9466
X2.296Y-2.0466
X2.296Y-2.1466
X2.296Y-2.2466
X2.296Y-2.3466
X2.296Y-2.4466
X2.3826Y-2.7472
X2.3826Y-3.0472
X2.4728Y-3.2205
X2.4728Y-3.3386
X2.5007Y-2.7472
X2.5007Y-3.0472
X2.5206Y-1.4062
X2.5206Y-1.7062
X2.5542Y-2.3895
X2.5765Y-1.2795
X2.5945Y-1.8289
X2.5945Y-1.9289
X2.6063Y-2.0941
X2.6206Y-1.4062
X2.6206Y-1.7062
X2.7155Y-1.8275
X2.7206Y-1.4062
X2.7206Y-1.7062
X2.7758Y-1.2621
X2.8155Y-1.8275
X2.8206Y-1.4062
X2.8206Y-1.7062
X2.9206Y-1.4062
X2.9206Y-1.7062
X2.922Y-1.8275
X3.0204Y-1.8275
X3.0206Y-1.4062
X3.0206Y-1.7062
X3.1206Y-1.4062
X3.1206Y-1.7062
X3.1304Y-1.8487
X3.2163Y-2.3914
X3.2163Y-2.4914
X3.2163Y-2.5914
X3.2163Y-2.6914
X3.2163Y-2.7914
X3.2163Y-2.8914
X3.2163Y-2.9914
X3.2163Y-3.0914
X3.2206Y-1.4062
X3.2206Y-1.7062
X3.3206Y-1.4062
X3.3206Y-1.7062
X3.3373Y-2.2605
X3.4206Y-1.4062
X3.4206Y-1.7062
X3.4357Y-2.2605
X3.5163Y-2.3914
X3.5163Y-2.4914
X3.5163Y-2.5914
X3.5163Y-2.6914
X3.5163Y-2.7914
X3.5163Y-2.8914
X3.5163Y-2.9914
X3.5163Y-3.0914
X3.5206Y-1.4062
X3.5206Y-1.7062
X3.5299Y-1.8278
X3.6206Y-1.4062
X3.6206Y-1.7062
X3.6468Y-2.3508
X3.7206Y-1.4062
X3.7206Y-1.7062
X3.7968Y-2.6106
X3.8206Y-1.4062
X3.8206Y-1.7062
X3.9449Y-1.7671
X3.9449Y-1.9671
X3.9574Y-1.06
X3.9574Y-1.16
X4.0179Y-3.2601
X4.0811Y-1.9591
X4.1024Y-1.7874
X4.1459Y-3.2207
X4.1557Y-3.0632
X4.1807Y-2.2992
X4.1811Y-1.9591
X4.1814Y-2.418
X4.1814Y-2.5361
X4.2024Y-1.7874
X4.2301Y-3.4722
X4.2761Y-2.6637
X4.2761Y-2.9637
X4.2811Y-1.9591
X4.3094Y-1.7874
X4.358Y-3.4328
X4.3761Y-2.6637
X4.3761Y-2.9637
X4.3768Y-3.0906
X4.3988Y-2.0866
X4.4094Y-1.7874
X4.4386Y-3.3461
X4.4761Y-2.6637
X4.4761Y-2.9637
X4.4807Y-2.2992
X4.4814Y-2.418
X4.4814Y-2.5361
X4.4988Y-2.0866
X4.5542Y-1.0147
X4.5761Y-2.6637
X4.5761Y-2.9637
X4.5988Y-2.0866
X4.6761Y-2.6637
X4.6761Y-2.9637
X4.7008Y-1.9811
X4.7008Y-2.1811
X4.7663Y-0.8025
X4.7761Y-2.6637
X4.7761Y-2.9637
X4.7768Y-3.0906
X4.8761Y-2.6637
X4.8761Y-2.9637
X4.8819Y-3.0831
X4.9761Y-2.6637
X4.9761Y-2.9637
X4.9803Y-3.0831
T2
X0.9082Y-1.8078
X1.0082Y-1.8078
X1.1082Y-1.8078
X2.6157Y-2.6975
X2.6703Y-2.4045
X2.6703Y-2.9906
X2.7157Y-2.6975
X2.7626Y-2.4427
X2.7626Y-2.9524
X2.8157Y-2.6975
X2.8317Y-2.1624
X2.8317Y-3.2327
X2.855Y-2.481
X2.855Y-2.9141
X2.9024Y-2.2331
X2.9024Y-3.162
X2.9731Y-2.3038
X2.9731Y-3.0913
X3.0738Y-2.001
X3.0738Y-3.3941
X3.112Y-2.0934
X3.112Y-3.3017
X3.1503Y-2.1857
X3.1503Y-3.2094
X3.3668Y-1.9464
X3.3668Y-2.0464
X3.3668Y-2.1464
X3.3668Y-3.2487
X3.3668Y-3.3487
X3.3668Y-3.4487
X3.5834Y-2.1857
X3.5834Y-3.2094
X3.6216Y-2.0934
X3.6216Y-3.3017
X3.6599Y-2.001
X3.6599Y-3.3941
X3.7605Y-2.3038
X3.7605Y-3.0913
X3.8313Y-2.2331
X3.8313Y-3.162
X3.8787Y-2.481
X3.8787Y-2.9141
X3.902Y-2.1624
X3.902Y-3.2327
X3.918Y-2.6975
X3.971Y-2.4427
X3.971Y-2.9524
X4.018Y-2.6975
X4.0634Y-2.4045
X4.0634Y-2.9906
X4.118Y-2.6975
X4.6419Y-1.075
X4.7126Y-1.1457
X4.7833Y-1.2164
T3
X1.063Y-2.8921
X1.063Y-3.0416
X1.0945Y-1.4921
X1.0984Y-1.2756
X1.126Y-2.8921
X1.126Y-3.0416
X1.1495Y-1.3307
X1.1495Y-1.5579
X1.3543Y-1.561
X1.4764Y-1.6339
X1.4764Y-1.7028
X1.4764Y-1.7717
X1.4803Y-1.9213
X1.5157Y-1.4862
X1.5945Y-1.0433
X1.6437Y-0.9843
X1.7325Y-1.9199
X1.7953Y-2.6772
X1.8307Y-1.7717
X1.8379Y-2.6299
X1.8504Y-2.3543
X1.8517Y-1.9383
X1.9094Y-1.7028
X1.9134Y-2.2992
X1.9135Y-1.9803
X1.9685Y-1.4173
X1.9882Y-1.6339
X2.0079Y-1.4862
X2.0079Y-1.561
X2.0177Y-1.3583
X2.1752Y-1.4912
X2.1757Y-1.7387
X2.2047Y-2.6772
X2.2473Y-2.6299
X2.2539Y-1.3504
X2.2539Y-1.7283
X2.3327Y-1.4062
X2.3327Y-1.7283
X2.3465Y-0.9449
X2.3465Y-1.1181
X2.3937Y-1.2402
X2.3957Y-1.9094
X2.4488Y-1.2953
X2.4488Y-1.8543
X2.6772Y-2.0
X2.6772Y-2.1492
X2.748Y-2.0
X2.748Y-2.1492
X2.7685Y-1.6305
X2.7953Y-0.9685
X2.7953Y-1.1732
X3.0714Y-1.6316
X3.1496Y-1.936
X3.2054Y-1.9858
X3.3071Y-1.7795
X3.3937Y-1.7805
X3.5138Y-0.9213
X3.5138Y-1.0728
X3.5882Y-2.278
X3.592Y-2.5363
X3.5925Y-0.9213
X3.5925Y-1.0728
X3.622Y-2.7402
X3.622Y-2.8878
X3.6713Y-0.9213
X3.6713Y-1.0728
X3.7106Y-2.7126
X3.7111Y-2.4724
X3.75Y-0.9213
X3.75Y-1.0728
X3.8189Y-2.7067
X3.9449Y-3.0433
X4.0079Y-1.2362
X4.0079Y-1.6693
X4.0221Y-2.8899
X4.0748Y-1.0049
X4.0748Y-1.2362
X4.1614Y-1.2323
X4.1929Y-2.9488
X4.1937Y-2.6694
X4.2126Y-1.4527
X4.2126Y-1.6715
X4.2558Y-3.1839
X4.2913Y-1.4173
X4.2913Y-1.7087
X4.3106Y-2.2161
X4.378Y-1.3071
X4.3937Y-1.9213
X4.3937Y-2.2421
X4.4685Y-1.0236
X4.5472Y-1.1909
X4.5838Y-2.2433
X4.5906Y-1.5984
X4.5906Y-1.7638
X4.6142Y-1.3071
X4.6535Y-1.5984
X4.6535Y-1.7638
X4.7874Y-1.3071
T4
X0.9456Y-2.2015
X1.0456Y-2.2015
X2.063Y-0.9134
X2.063Y-1.1102
X4.1234Y-2.1122
X4.2234Y-2.1122
X4.4554Y-1.4535
X4.5554Y-1.4535
X4.6554Y-1.4535
X4.7554Y-1.4535
X4.8554Y-1.4535
X4.9554Y-1.4535
T5
X0.9811Y-2.0243
X1.0811Y-2.0243
X1.1811Y-2.0243
T6
X2.4515Y-0.922
X2.4515Y-1.0991
X2.7074Y-0.922
X2.7074Y-1.0991
X2.8924Y-0.922
X2.8924Y-1.0991
X3.1483Y-0.922
X3.1483Y-1.0991
X4.1542Y-0.922
X4.1542Y-1.0991
X4.4101Y-0.922
X4.4101Y-1.0991
T7
X1.2507Y-0.9294
X1.2507Y-1.0294
X1.2507Y-1.1294
X1.2507Y-1.2294
X1.2507Y-1.3294
X1.2507Y-1.4294
X1.2507Y-1.5294
X1.2507Y-1.6294
X1.2507Y-1.7294
X1.2507Y-1.8294
X1.2507Y-2.4668
X1.2507Y-2.5668
X1.2507Y-2.6668
X1.2507Y-2.7668
X1.2507Y-2.8668
X1.2507Y-2.9668
X1.2507Y-3.0668
X1.2507Y-3.1668
X1.2507Y-3.2668
X1.2507Y-3.3668
T8
X0.9259Y-1.1779
X0.9259Y-1.2763
X0.9259Y-3.0086
X0.9259Y-3.107
X3.3275Y-1.2212
X3.4259Y-1.2212
X3.5243Y-1.2212
X3.6227Y-1.2212
X3.7212Y-1.2212
X3.8196Y-1.2212
X4.7448Y-1.7881
X4.8432Y-1.7881
X4.9416Y-1.7881
X5.0401Y-1.7881
T0
M30
